/* XPM */
static char * close_xpm[] = {
"22 22 113 2",
"  	c None",
". 	c #FFFFFF",
"+ 	c #000000",
"@ 	c #FEFEFE",
"# 	c #FAFAFA",
"$ 	c #F2F2F2",
"% 	c #E9E9E9",
"& 	c #DFDFDF",
"* 	c #D5D5D5",
"= 	c #CFCFCF",
"- 	c #D4D4D4",
"; 	c #DEDEDE",
"> 	c #F3F3F3",
", 	c #F5F5F5",
"' 	c #EFEFEF",
") 	c #D7D7D7",
"! 	c #AEAEAE",
"~ 	c #838383",
"{ 	c #6A6A6A",
"] 	c #F7F5F6",
"^ 	c #C3C3C3",
"/ 	c #7C8690",
"( 	c #394B5F",
"_ 	c #1B252F",
": 	c #070707",
"< 	c #EEEEEE",
"[ 	c #C8C8C8",
"} 	c #747E87",
"| 	c #2B5683",
"1 	c #1C5394",
"2 	c #365F8D",
"3 	c #656D7A",
"4 	c #FDFDFD",
"5 	c #DCDCDC",
"6 	c #9CA6B0",
"7 	c #355E8C",
"8 	c #1A5599",
"9 	c #0CAFF0",
"0 	c #3572B5",
"a 	c #4771A1",
"b 	c #FBFBFB",
"c 	c #FCFCFC",
"d 	c #D1D1D1",
"e 	c #697B91",
"f 	c #0F4686",
"g 	c #09ACED",
"h 	c #00E6FF",
"i 	c #0BAEF1",
"j 	c #2E69AD",
"k 	c #F9F9F9",
"l 	c #D3D3D3",
"m 	c #3B454F",
"n 	c #0D3664",
"o 	c #155094",
"p 	c #08ABEE",
"q 	c #F6F6F6",
"r 	c #F8F8F8",
"s 	c #131313",
"t 	c #010B15",
"u 	c #042C5D",
"v 	c #094488",
"w 	c #05A8E9",
"x 	c #00E6FE",
"y 	c #F7F7F7",
"z 	c #F4F4F4",
"A 	c #F1F1F1",
"B 	c #141414",
"C 	c #074286",
"D 	c #05A7E8",
"E 	c #F2F2F4",
"F 	c #F1F1F3",
"G 	c #47515B",
"H 	c #052E5C",
"I 	c #05A6EA",
"J 	c #EEEEF0",
"K 	c #F0F0F0",
"L 	c #8A9CB2",
"M 	c #083F80",
"N 	c #ECECEC",
"O 	c #ECECEE",
"P 	c #EDEDED",
"Q 	c #D9E3ED",
"R 	c #4D76A4",
"S 	c #04A7EA",
"T 	c #042D5B",
"U 	c #E9E9EB",
"V 	c #EBEBED",
"W 	c #EBEBEB",
"X 	c #BEC8D1",
"Y 	c #4B74A2",
"Z 	c #073E7F",
"` 	c #052D5E",
" .	c #E8E8EA",
"..	c #E7E7E9",
"+.	c #E8E8E8",
"@.	c #F6F5F3",
"#.	c #D7E1EB",
"$.	c #8698AE",
"%.	c #46505A",
"&.	c #151515",
"*.	c #E6E6E8",
"=.	c #E6E6E6",
"-.	c #E7E7E7",
";.	c #D9D9D9",
">.	c #BABABB",
",.	c #BABABA",
"'.	c #C7C7C7",
").	c #D9D9DA",
"!.	c #E4E4E6",
"~.	c #E5E5E5",
"{.	c #E5E5E7",
"].	c #DADADC",
"^.	c #9E9E9E",
". . . . . . . . . . . . . . . . . + + + + + ",
". . . . . . . . . . . . . . . . . . . . + + ",
". . . . . . . . . . . . . . . . . . . . . + ",
". . . . . . . . . . . . . . . . . . . . . + ",
". . . . @ # $ % & * = = - ; % > # @ . . @ + ",
". . . . , , ' ) ! ~ { { ~ ! ) ' , , . . @ . ",
". . . . ] % ^ / ( _ : : _ ( / ^ % ] . . . . ",
"@ @ . . < [ } | 1 2 3 3 2 1 | } [ < . . . . ",
"4 4 . @ 5 6 7 8 9 0 a a 0 9 8 7 6 5 @ @ @ @ ",
"b b c c d e f g h i j j i h g f e d c c c 4 ",
"k k # b l m n o p h g g h p o n m l # # k # ",
"q q r r 5 s t u v w x x w v u t s 5 r r r y ",
"z z , , A B t u C D x x D C u t B A , , , , ",
"E F > > , G H C D h I I h D C H G , > > > > ",
"< J K K , L M D h D C C D h D M L , K K A K ",
"N O P P , Q R C S C T T C S C R Q , P P P < ",
"U U V W , , X Y Z ` t t ` Z Y X , , W N W W ",
" ... .+.@., q #.$.%.&.&.%.$.#.q , @.+.% U  .",
"*.*.*.=.-...+.*.;.[ >.,.'.).=.+.....=.-...*.",
"!.!.!.!.~.!.=.*. .-... .-...-.{.!.!.!.~.~.!.",
"].].].].].].].].].].].].].].].].].].].].].].",
"^.^.^.^.^.^.^.^.^.^.^.^.^.^.^.^.^.^.^.^.^.^."};
