/* XPM */
static char * close_unfocus_xpm[] = {
"22 22 126 2",
"  	c None",
". 	c #FFFFFF",
"+ 	c #000000",
"@ 	c #FEFEFE",
"# 	c #FAFAFA",
"$ 	c #F2F2F2",
"% 	c #E9E9E9",
"& 	c #DFDFDF",
"* 	c #D5D5D5",
"= 	c #CFCFCF",
"- 	c #D4D4D4",
"; 	c #DEDEDE",
"> 	c #F3F3F3",
", 	c #F5F5F5",
"' 	c #EFEFEF",
") 	c #D7D7D7",
"! 	c #AEAEAE",
"~ 	c #838383",
"{ 	c #6A6A6A",
"] 	c #AEAEB0",
"^ 	c #F6F6F6",
"/ 	c #C3C3C3",
"( 	c #7B7B7B",
"_ 	c #434343",
": 	c #414141",
"< 	c #484848",
"[ 	c #F4F4F4",
"} 	c #C7C7C7",
"| 	c #737373",
"1 	c #3B3B3B",
"2 	c #424242",
"3 	c #444444",
"4 	c #474847",
"5 	c #474747",
"6 	c #434344",
"7 	c #C8C8C8",
"8 	c #FDFDFD",
"9 	c #DCDCDC",
"0 	c #999999",
"a 	c #333334",
"b 	c #414244",
"c 	c #4E4E4F",
"d 	c #5D5D5D",
"e 	c #666666",
"f 	c #FBFBFB",
"g 	c #FCFCFC",
"h 	c #D0D2D1",
"i 	c #282D34",
"j 	c #12161D",
"k 	c #2C2D2F",
"l 	c #3E3E3E",
"m 	c #454545",
"n 	c #292D34",
"o 	c #D1D1D1",
"p 	c #F9F9F9",
"q 	c #D3D3D3",
"r 	c #31363C",
"s 	c #101115",
"t 	c #232325",
"u 	c #333333",
"v 	c #343434",
"w 	c #F8F8F8",
"x 	c #DDDDDD",
"y 	c #020F29",
"z 	c #0B0B0B",
"A 	c #161616",
"B 	c #202020",
"C 	c #F7F7F7",
"D 	c #F1F1F1",
"E 	c #030F2A",
"F 	c #0A0A0A",
"G 	c #151515",
"H 	c #1F1F1F",
"I 	c #030F29",
"J 	c #F2F2F4",
"K 	c #F1F1F3",
"L 	c #030508",
"M 	c #0B0D13",
"N 	c #101219",
"O 	c #EEEEEE",
"P 	c #EEEEF0",
"Q 	c #F0F0F0",
"R 	c #474A54",
"S 	c #040813",
"T 	c #090B11",
"U 	c #000309",
"V 	c #00030A",
"W 	c #454B54",
"X 	c #ECECEC",
"Y 	c #ECECEE",
"Z 	c #EDEDED",
"` 	c #F6F5F3",
" .	c #DADADA",
"..	c #4D4D4D",
"+.	c #111215",
"@.	c #080B11",
"#.	c #000209",
"$.	c #080B12",
"%.	c #DADADC",
"&.	c #E9E9EB",
"*.	c #EBEBED",
"=.	c #EBEBEB",
"-.	c #BEBEBE",
";.	c #111111",
">.	c #121212",
",.	c #BFBFBF",
"'.	c #E8E8EA",
").	c #E7E7E9",
"!.	c #E8E8E8",
"~.	c #F5F5F3",
"{.	c #8A8A8A",
"].	c #464646",
"^.	c #8B8B8B",
"/.	c #F6F6F4",
"(.	c #F4F6F5",
"_.	c #E6E6E8",
":.	c #E6E6E6",
"<.	c #E7E7E7",
"[.	c #D9D9D9",
"}.	c #BABABB",
"|.	c #BABABA",
"1.	c #D9D9DA",
"2.	c #E4E4E6",
"3.	c #E5E5E5",
"4.	c #E5E5E7",
"5.	c #9E9E9E",
". . . . . . . . . . . . . . . . . + + + + + ",
". . . . . . . . . . . . . . . . . . . . + + ",
". . . . . . . . . . . . . . . . . . . . . + ",
". . . . . . . . . . . . . . . . . . . . . + ",
". . . . @ # $ % & * = = - ; % > # @ . . @ + ",
". . . . , , ' ) ! ~ { { ~ ] ) ' , , . . @ . ",
". . . . ^ % / ( _ : < < : _ ( / % [ . . . . ",
"@ @ . . ' } | 1 2 3 4 5 6 2 1 | 7 ' . . . . ",
"8 8 . @ 9 0 a b c d e e d c b a 0 9 @ @ @ @ ",
"f f g g h i j k l m 5 5 m l k j n o g g g 8 ",
"p p # f q r s t u v v v v u t s r q # # p # ",
"^ ^ w w x y z A B B B B B B A z y 9 w w w C ",
"[ [ , , D E F G H H H B B B G F I D , , , , ",
"J K > > , r L M N N N N N N M L r , > > > > ",
"O P Q Q , R S T U V V V V V T S W , Q Q D Q ",
"X Y Z Z `  ...+.@.#.#.#.#.$.+...%., Z Z Z O ",
"&.&.*.=., , -...;.>.z z >.;...,., [ =.X =.=.",
"'.).'.!., ~.~. .{.].G G ].^. ./.(., !.% &.'.",
"_._._.:.<.).!._.[.7 }.|.} 1.:.!.).).:.<.)._.",
"2.2.2.2.3.2.:._.'.<.).'.<.).<.4.2.2.2.3.3.2.",
"%.%.%.%.%.%.%.%.%.%.%.%.%.%.%.%.%.%.%.%.%.%.",
"5.5.5.5.5.5.5.5.5.5.5.5.5.5.5.5.5.5.5.5.5.5."};
