/* XPM */
static char * iconbar_xpm[] = {
"10 19 12 1",
" 	c None",
".	c #004D6D",
"+	c #277B9F",
"@	c #1B7297",
"#	c #126B90",
"$	c #0D668C",
"%	c #045E84",
"&	c #00577C",
"*	c #00364C",
"=	c #00283A",
"-	c #002737",
";	c #91C1D6",
"..........",
"++++++++++",
"@@@@@@@@@@",
"@@@@@@@@@@",
"##########",
"$$$$$$$$$$",
"%%%%%%%%%%",
"&&&&&&&&&&",
"..........",
"**********",
"==========",
"----------",
"----------",
"----------",
"----------",
"----------",
"----------",
"==========",
";;;;;;;;;;"};
