/* XPM */
static char * icon_xpm[] = {
"23 22 135 2",
"  	c None",
". 	c #FFFFFF",
"+ 	c #FEFEFE",
"@ 	c #FAFAFA",
"# 	c #F2F2F2",
"$ 	c #E9E9E9",
"% 	c #DEDEDE",
"& 	c #D4D4D4",
"* 	c #CFCFCF",
"= 	c #EAEAEA",
"- 	c #F5F5F5",
"; 	c #EFEFEF",
"> 	c #D7D7D7",
", 	c #AEAEAE",
"' 	c #838383",
") 	c #6A6A6A",
"! 	c #AEAEB0",
"~ 	c #F6F6F6",
"{ 	c #C3C3C3",
"] 	c #7B7B7B",
"^ 	c #373737",
"/ 	c #1A1A1A",
"( 	c #070707",
"_ 	c #191919",
": 	c #F4F4F4",
"< 	c #C7C7C7",
"[ 	c #737373",
"} 	c #282828",
"| 	c #4D4F4E",
"1 	c #6D6D6D",
"2 	c #6C6C6C",
"3 	c #4E4E4E",
"4 	c #C8C8C8",
"5 	c #DCDCDC",
"6 	c #999999",
"7 	c #313131",
"8 	c #292929",
"9 	c #5C5C5E",
"0 	c #646464",
"a 	c #FDFDFD",
"b 	c #FCFCFC",
"c 	c #FBFBFB",
"d 	c #D0D2D1",
"e 	c #666D75",
"f 	c #112B4C",
"g 	c #2B507C",
"h 	c #325783",
"i 	c #385D89",
"j 	c #3A618A",
"k 	c #3B608A",
"l 	c #385D87",
"m 	c #0F2C4C",
"n 	c #686C75",
"o 	c #D1D1D1",
"p 	c #D3D3D3",
"q 	c #3D5A7C",
"r 	c #0D488C",
"s 	c #125CB3",
"t 	c #1561B5",
"u 	c #1963BA",
"v 	c #1965B9",
"w 	c #1B65BA",
"x 	c #1761B6",
"y 	c #0E478C",
"z 	c #3D5A7A",
"A 	c #F9F9F9",
"B 	c #F8F8F8",
"C 	c #F7F7F7",
"D 	c #DDDDDD",
"E 	c #173C68",
"F 	c #0955A9",
"G 	c #00E6FE",
"H 	c #00E6FF",
"I 	c #00E5FD",
"J 	c #0854A8",
"K 	c #F1F1F1",
"L 	c #183D69",
"M 	c #183D67",
"N 	c #F3F3F3",
"O 	c #F1F1F3",
"P 	c #496686",
"Q 	c #074286",
"R 	c #0953A8",
"S 	c #0A54A9",
"T 	c #486585",
"U 	c #F2F2F4",
"V 	c #F0F0F0",
"W 	c #8A8E97",
"X 	c #062041",
"Y 	c #032A53",
"Z 	c #032A55",
"` 	c #042955",
" .	c #042953",
"..	c #042B54",
"+.	c #032040",
"@.	c #888F97",
"#.	c #EEEEEE",
"$.	c #EEEEF0",
"%.	c #EDEDED",
"&.	c #F6F5F3",
"*.	c #DADADA",
"=.	c #4D4D4D",
"-.	c #000000",
";.	c #000002",
">.	c #DADADC",
",.	c #ECECEC",
"'.	c #ECECEE",
").	c #EBEBED",
"!.	c #EAEAEC",
"~.	c #BEBEBE",
"{.	c #010101",
"].	c #BFBFBF",
"^.	c #EBEBEB",
"/.	c #E9E9EB",
"(.	c #E8E8EA",
"_.	c #E8E8E8",
":.	c #F5F5F3",
"<.	c #8A8A8A",
"[.	c #464646",
"}.	c #151515",
"|.	c #8B8B8B",
"1.	c #F6F6F4",
"2.	c #F4F6F5",
"3.	c #E6E6E8",
"4.	c #E7E7E9",
"5.	c #E6E6E6",
"6.	c #E5E5E5",
"7.	c #E7E7E7",
"8.	c #D9D9D9",
"9.	c #BABABB",
"0.	c #BABABA",
"a.	c #D9D9DA",
"b.	c #E5E5E7",
"c.	c #E4E4E6",
"d.	c #9E9E9E",
". . . . . . . . . . . . . . . . . . . . . . . ",
". . . . . . . . . . . . . . . . . . . . . . . ",
". . . . . . . . . . . . . . . . . . . . . . . ",
". . . . . . . . . . . . . . . . . . . . . . . ",
". . . . + @ # $ % & * * & % = # @ + . . . . . ",
". . . + - - ; > , ' ) ) ' ! > ; - - . . . . . ",
". . . . ~ $ { ] ^ / ( ( _ ^ ] { $ : . . . . . ",
". . . . ; < [ } } | 1 2 3 } } [ 4 ; . . + + + ",
". + + + 5 6 7 8 9 0 ) ) 0 9 8 7 6 5 + a a a a ",
"b b b c d e f g h i j k l h g m n o b c c c c ",
"@ @ @ @ p q r s t u v w u x s y z p @ @ A A A ",
"B B C C D E F G H I G H H G H J E 5 C B ~ ~ ~ ",
": - - - K L F H H G H H H H G J M K - - : : : ",
"N N N O - P Q R F R F R S S S Q T - N U # U O ",
"V ; V ; - W X Y Z ` Z `  ... .+.@.- V V #.#.$.",
"%.%.%.%.&.*.=.-.-.-.-.-.;.-.-.=.>.- %.%.%.,.'.",
").).).!.- - ~.=.{.-.-.-.-.{.=.].- : ^.!./././.",
"$ = (._.- :.:.*.<.[.}.}.[.|.*.1.2.- /._.3.(.4.",
"5.5.6.5.3.7._.3.8.4 9.0.< a.3.7.7.5.3.5.3.3.3.",
"b.b.c.c.c.c.b.3._.4.4.(.7.4.3.b.6.b.c.6.c.c.c.",
">.>.>.>.>.>.>.>.>.>.>.>.>.>.>.>.>.>.>.>.>.>.>.",
"d.d.d.d.d.d.d.d.d.d.d.d.d.d.d.d.d.d.d.d.d.d.d."};
