/* XPM */
static char * max_xpm[] = {
"22 22 142 2",
"  	c None",
". 	c #FFFFFF",
"+ 	c #FEFEFE",
"@ 	c #FAFAFA",
"# 	c #F2F2F2",
"$ 	c #E9E9E9",
"% 	c #DFDFDF",
"& 	c #D5D5D5",
"* 	c #CFCFCF",
"= 	c #D4D4D4",
"- 	c #DEDEDE",
"; 	c #F3F3F3",
"> 	c #F5F5F5",
", 	c #EFEFEF",
"' 	c #D7D7D7",
") 	c #AEAEAE",
"! 	c #838383",
"~ 	c #696969",
"{ 	c #6A6A6A",
"] 	c #C3C3C3",
"^ 	c #7B7B7B",
"/ 	c #393D46",
"( 	c #1D3758",
"_ 	c #0A315A",
": 	c #0B305A",
"< 	c #1E3859",
"[ 	c #393E44",
"} 	c #E8E8E8",
"| 	c #C8C8C8",
"1 	c #737373",
"2 	c #272928",
"3 	c #213E5E",
"4 	c #2B68AB",
"5 	c #2C78CE",
"6 	c #2D79CD",
"7 	c #2C67AB",
"8 	c #203F5E",
"9 	c #282828",
"0 	c #FDFDFD",
"a 	c #DBDBDB",
"b 	c #999999",
"c 	c #303030",
"d 	c #292927",
"e 	c #426793",
"f 	c #2A74C9",
"g 	c #01E5FE",
"h 	c #00E6FE",
"i 	c #2B75CC",
"j 	c #292728",
"k 	c #313133",
"l 	c #DCDCDC",
"m 	c #FBFBFB",
"n 	c #FCFCFC",
"o 	c #D0D0D0",
"p 	c #686D73",
"q 	c #0F2C4C",
"r 	c #2A517A",
"s 	c #325783",
"t 	c #236DC4",
"u 	c #226CC1",
"v 	c #2B507A",
"w 	c #102D4D",
"x 	c #D1D1D1",
"y 	c #F9F9F9",
"z 	c #D3D3D3",
"A 	c #3D5A7A",
"B 	c #0D488C",
"C 	c #115DB3",
"D 	c #1660B5",
"E 	c #1763B7",
"F 	c #00E6FF",
"G 	c #1864B8",
"H 	c #1761B6",
"I 	c #125EB4",
"J 	c #3E5879",
"K 	c #F6F6F6",
"L 	c #F8F8F8",
"M 	c #173C66",
"N 	c #0955A9",
"O 	c #01E7FF",
"P 	c #01E5FF",
"Q 	c #0A54A9",
"R 	c #F7F7F7",
"S 	c #F4F4F4",
"T 	c #F1F1F1",
"U 	c #183D67",
"V 	c #0953A8",
"W 	c #183D69",
"X 	c #F2F2F4",
"Y 	c #F1F1F3",
"Z 	c #4A6485",
"` 	c #064386",
" .	c #074286",
"..	c #4B6586",
"+.	c #EEEEEE",
"@.	c #EEEEF0",
"#.	c #F0F0F0",
"$.	c #8A8E97",
"%.	c #042141",
"&.	c #042B54",
"*.	c #042B56",
"=.	c #0A54AB",
"-.	c #052A56",
";.	c #042953",
">.	c #032040",
",.	c #ECECEC",
"'.	c #ECECEE",
").	c #EDEDED",
"!.	c #DADADA",
"~.	c #4D4D4D",
"{.	c #000000",
"].	c #042955",
"^.	c #0A55A8",
"/.	c #052A54",
"(.	c #4D4D4F",
"_.	c #DADADC",
":.	c #E9E9EB",
"<.	c #EBEBED",
"[.	c #EBEBEB",
"}.	c #BFBFBF",
"|.	c #062041",
"1.	c #084387",
"2.	c #4E4C4D",
"3.	c #F5F5F3",
"4.	c #E8E8EA",
"5.	c #E7E7E9",
"6.	c #446183",
"7.	c #173C68",
"8.	c #436080",
"9.	c #888F97",
"0.	c #E6E6E8",
"a.	c #E6E6E6",
"b.	c #E7E7E7",
"c.	c #D9D9D9",
"d.	c #BABABB",
"e.	c #BABABA",
"f.	c #C7C7C7",
"g.	c #D9D9DA",
"h.	c #E4E4E6",
"i.	c #E5E5E5",
"j.	c #E5E5E7",
"k.	c #9E9E9E",
". . . . . . . . . . . . . . . . . . . . . . ",
". . . . . . . . . . . . . . . . . . . . . . ",
". . . . . . . . . . . . . . . . . . . . . . ",
". . . . . . . . . . . . . . . . . . . . . . ",
". . . . + @ # $ % & * * = - $ ; @ + . . + . ",
". . . . > > , ' ) ! ~ { ! ) ' , > > . . + . ",
". . . . > $ ] ^ / ( _ : < [ ^ ] } > . . . . ",
"+ + . . , | 1 2 3 4 5 6 7 8 9 1 | , . . . . ",
"0 0 . + a b c d e f g h i e j k b l + + + + ",
"m m n n o p q r s t h h u s v w p x n n n 0 ",
"y y @ m z A B C D E F h G H I B J z @ @ y @ ",
"K K L L a M N O P h h h F F h Q M l L L L R ",
"S S > > T U V h h h h F O F h Q W T > > > > ",
"X Y ; ; S Z ` V V V h g Q V V  ...> ; ; ; ; ",
"+.@.#.#.K $.%.&.*.=.h F N -.;.>.$.K #.#.T #.",
",.'.).).> !.~.{.].^.h F =./.{.(._.> ).).).+.",
":.:.<.[.> > }.~.|. .Q N 1.%.2.}.3.> [.,.[.[.",
"4.5.4.} > > R !.$.6.M 7.8.9.!.K > > } $ :.4.",
"0.0.0.a.b.5.} 0.c.| d.e.f.g.a.} 5.5.a.b.5.0.",
"h.h.h.h.i.h.a.0.4.b.5.4.b.5.b.j.h.h.h.i.i.h.",
"_._._._._._._._._._._._._._._._._._._._._._.",
"k.k.k.k.k.k.k.k.k.k.k.k.k.k.k.k.k.k.k.k.k.k."};
