/* XPM */
static char * menu_xpm[] = {
"10 22 39 1",
" 	c #FFFFFF",
".	c #FEFEFE",
"+	c #FDFDFD",
"@	c #FBFBFB",
"#	c #FCFCFC",
"$	c #F9F9F9",
"%	c #FAFAFA",
"&	c #F6F6F6",
"*	c #F8F8F8",
"=	c #F7F7F7",
"-	c #F4F4F4",
";	c #F5F5F5",
">	c #F2F2F4",
",	c #F3F3F3",
"'	c #F2F4F3",
")	c #F3F1F4",
"!	c #F2F0F1",
"~	c #EEEEEE",
"{	c #F0F0F0",
"]	c #EFEFEF",
"^	c #ECECEC",
"/	c #EDEDED",
"(	c #EDEDEF",
"_	c #EAEAEC",
":	c #EBEBED",
"<	c #EAECEB",
"[	c #EBEBEB",
"}	c #EAEBED",
"|	c #E9E9EB",
"1	c #E7E7E9",
"2	c #E8E8EA",
"3	c #E6E6E6",
"4	c #E6E6E8",
"5	c #E6E7E9",
"6	c #E4E4E6",
"7	c #E5E5E7",
"8	c #E6E4E7",
"9	c #DADADC",
"0	c #9E9E9E",
"          ",
"          ",
"          ",
"          ",
"          ",
"          ",
"          ",
".     ... ",
"+....++++.",
"@#####@@@#",
"$%%%%%$$$%",
"&****=&&&*",
"-;;;;;;--;",
">,,,')!)>,",
"~{{{{]~~~{",
"^///(/^^^/",
"_:<[}_||_:",
"1||_|2111|",
"3445434434",
"6677686666",
"9999999999",
"0000000000"};
