/* XPM */
static char * stick_xpm[] = {
"22 22 122 2",
"  	c None",
". 	c #000000",
"+ 	c #FFFFFF",
"@ 	c #FEFEFE",
"# 	c #FAFAFA",
"$ 	c #F2F2F2",
"% 	c #E9E9E9",
"& 	c #DEDEDE",
"* 	c #D4D4D4",
"= 	c #CFCFCF",
"- 	c #EAEAEA",
"; 	c #F8F8F8",
"> 	c #F0F0F0",
", 	c #E2E2E2",
"' 	c #CDCDCD",
") 	c #878787",
"! 	c #545454",
"~ 	c #373737",
"{ 	c #555555",
"] 	c #F9F9F9",
"^ 	c #E3E3E3",
"/ 	c #969696",
"( 	c #3C3C3C",
"_ 	c #4E4E4E",
": 	c #616161",
"< 	c #6E6E6E",
"[ 	c #3D3D3D",
"} 	c #979797",
"| 	c #999999",
"1 	c #414141",
"2 	c #5C5C5C",
"3 	c #5F5F5F",
"4 	c #626262",
"5 	c #5B5B5B",
"6 	c #424242",
"7 	c #9A9A9A",
"8 	c #404040",
"9 	c #505050",
"0 	c #525252",
"a 	c #4B4B4B",
"b 	c #4A4A4A",
"c 	c #515151",
"d 	c #DFDFDF",
"e 	c #FDFDFD",
"f 	c #FCFCFC",
"g 	c #FBFBFB",
"h 	c #9E9E9E",
"i 	c #444444",
"j 	c #363636",
"k 	c #202020",
"l 	c #141414",
"m 	c #353535",
"n 	c #383838",
"o 	c #151515",
"p 	c #9F9F9F",
"q 	c #6B6B6B",
"r 	c #3E3E3E",
"s 	c #1D1D1D",
"t 	c #1E1E1E",
"u 	c #F7F7F7",
"v 	c #4D4D4D",
"w 	c #131313",
"x 	c #F6F6F6",
"y 	c #F4F4F4",
"z 	c #F5F5F5",
"A 	c #090909",
"B 	c #222222",
"C 	c #2D2D2D",
"D 	c #212121",
"E 	c #0B0B0D",
"F 	c #545456",
"G 	c #F3F3F3",
"H 	c #F1F1F3",
"I 	c #757577",
"J 	c #191919",
"K 	c #101010",
"L 	c #1B1B1D",
"M 	c #252525",
"N 	c #2B2B2B",
"O 	c #2E2E2E",
"P 	c #2C2C2C",
"Q 	c #1C1C1C",
"R 	c #757575",
"S 	c #F2F2F4",
"T 	c #EFEFEF",
"U 	c #ADADAD",
"V 	c #070707",
"W 	c #0C0C0C",
"X 	c #111111",
"Y 	c #161616",
"Z 	c #AEAEAE",
"` 	c #EEEEEE",
" .	c #EDEDED",
"..	c #5D5D5D",
"+.	c #020202",
"@.	c #030303",
"#.	c #040404",
"$.	c #E9E9EB",
"%.	c #ECECEC",
"&.	c #EBEBED",
"*.	c #EAEAEC",
"=.	c #B2B2B4",
"-.	c #5E5E5E",
";.	c #B3B3B3",
">.	c #EBEBEB",
",.	c #E8E8EA",
"'.	c #E8E8E8",
").	c #B4B4B6",
"!.	c #6C6C6C",
"~.	c #1B1B1B",
"{.	c #6D6D6D",
"].	c #B4B4B4",
"^.	c #E6E6E8",
"/.	c #E6E6E6",
"(.	c #E5E5E5",
"_.	c #E7E7E7",
":.	c #909090",
"<.	c #8E8E8E",
"[.	c #E5E5E7",
"}.	c #E4E4E6",
"|.	c #E7E7E9",
"1.	c #DADADC",
". . . . . + + + + + + + + + + + + + + + + + ",
". . + + + + + + + + + + + + + + + + + + + + ",
". + + + + + + + + + + + + + + + + + + + + + ",
". + + + + + + + + + + + + + + + + + + + + + ",
". + + + @ # $ % & * = = * & - $ # @ + + + + ",
"+ + + @ ; > , ' ) ! ~ ~ { ) ' , > ] + + + + ",
"+ + + + $ ^ / ( _ : < < : _ [ } ^ $ + + + + ",
"+ + + + % | 1 2 : 3 3 3 3 4 5 6 7 - + + @ @ ",
"+ @ @ @ & 8 9 0 _ a b a a _ 0 c 8 d @ e e e ",
"f f f g h i j k l m n n m o k j i p f g g g ",
"# # # # q r s k l m n n m o k t r q # # ] ] ",
"; ; u u v s o k l o w w l o k o s v u ; x x ",
"y z z z 9 A o B C m n n m C D l E F z z y y ",
"G G G H I J K L M N O O P M Q K J R G S $ S ",
"> T > T U m V W X o Y o l X W V m Z > > ` ` ",
" . . . .% ..w +.@.#.#.#.#.@.+.w 2 $. . . .%.",
"&.&.&.*.*.=.-.w . . . . . . w -.;.%.>.*.$.$.",
"% - ,.'.,.$.).!.6 s . . ~.6 {.].>.% $.'.^.,.",
"/./.(./.^._.'.^.).:.R R <.;.^._._./.^./.^.^.",
"[.[.}.}.}.}.[.^.'.|.|.,._.|.^.[.(.[.}.(.}.}.",
"1.1.1.1.1.1.1.1.1.1.1.1.1.1.1.1.1.1.1.1.1.1.",
"h h h h h h h h h h h h h h h h h h h h h h "};
