/* XPM */
static char * stuck_xpm[] = {
"22 22 138 2",
"  	c None",
". 	c #000000",
"+ 	c #FFFFFF",
"@ 	c #FEFEFE",
"# 	c #FAFAFA",
"$ 	c #F2F2F2",
"% 	c #E9E9E9",
"& 	c #DEDEDE",
"* 	c #D4D4D4",
"= 	c #CFCFCF",
"- 	c #EAEAEA",
"; 	c #F8F8F8",
"> 	c #F0F0F0",
", 	c #E2E2E2",
"' 	c #CDCDCD",
") 	c #878787",
"! 	c #545454",
"~ 	c #373737",
"{ 	c #555555",
"] 	c #F9F9F9",
"^ 	c #E3E3E3",
"/ 	c #969696",
"( 	c #3C3C3C",
"_ 	c #4E4E4E",
": 	c #616161",
"< 	c #6E6E6E",
"[ 	c #3D3D3D",
"} 	c #979797",
"| 	c #999999",
"1 	c #414141",
"2 	c #5C5C5C",
"3 	c #5F5F5F",
"4 	c #626262",
"5 	c #5B5B5B",
"6 	c #424242",
"7 	c #9A9A9A",
"8 	c #404040",
"9 	c #505050",
"0 	c #525252",
"a 	c #4B4B4B",
"b 	c #4A4A4A",
"c 	c #515151",
"d 	c #DFDFDF",
"e 	c #FDFDFD",
"f 	c #FCFCFC",
"g 	c #FBFBFB",
"h 	c #9E9E9E",
"i 	c #666D75",
"j 	c #112B4C",
"k 	c #2B507C",
"l 	c #325783",
"m 	c #385D89",
"n 	c #3A618A",
"o 	c #3B608A",
"p 	c #385D87",
"q 	c #0F2C4C",
"r 	c #686C75",
"s 	c #9F9F9F",
"t 	c #6B6B6B",
"u 	c #3D5A7C",
"v 	c #0D488C",
"w 	c #125CB3",
"x 	c #1561B5",
"y 	c #1963BA",
"z 	c #1965B9",
"A 	c #1B65BA",
"B 	c #1761B6",
"C 	c #0E478C",
"D 	c #3D5A7A",
"E 	c #F7F7F7",
"F 	c #4D4D4D",
"G 	c #173C68",
"H 	c #0955A9",
"I 	c #00E6FE",
"J 	c #00E6FF",
"K 	c #00E5FD",
"L 	c #0854A8",
"M 	c #F6F6F6",
"N 	c #F4F4F4",
"O 	c #F5F5F5",
"P 	c #183D69",
"Q 	c #183D67",
"R 	c #545456",
"S 	c #F3F3F3",
"T 	c #F1F1F3",
"U 	c #757577",
"V 	c #496686",
"W 	c #074286",
"X 	c #0953A8",
"Y 	c #0A54A9",
"Z 	c #486585",
"` 	c #757575",
" .	c #F2F2F4",
"..	c #EFEFEF",
"+.	c #ADADAD",
"@.	c #8A8E97",
"#.	c #062041",
"$.	c #032A53",
"%.	c #032A55",
"&.	c #042955",
"*.	c #042953",
"=.	c #042B54",
"-.	c #032040",
";.	c #888F97",
">.	c #AEAEAE",
",.	c #EEEEEE",
"'.	c #EDEDED",
").	c #5D5D5D",
"!.	c #131313",
"~.	c #020202",
"{.	c #030303",
"].	c #040404",
"^.	c #E9E9EB",
"/.	c #ECECEC",
"(.	c #EBEBED",
"_.	c #EAEAEC",
":.	c #B2B2B4",
"<.	c #5E5E5E",
"[.	c #B3B3B3",
"}.	c #EBEBEB",
"|.	c #E8E8EA",
"1.	c #E8E8E8",
"2.	c #B4B4B6",
"3.	c #6C6C6C",
"4.	c #1D1D1D",
"5.	c #1B1B1B",
"6.	c #6D6D6D",
"7.	c #B4B4B4",
"8.	c #E6E6E8",
"9.	c #E6E6E6",
"0.	c #E5E5E5",
"a.	c #E7E7E7",
"b.	c #909090",
"c.	c #8E8E8E",
"d.	c #E5E5E7",
"e.	c #E4E4E6",
"f.	c #E7E7E9",
"g.	c #DADADC",
". . . . . + + + + + + + + + + + + + + + + + ",
". . + + + + + + + + + + + + + + + + + + + + ",
". + + + + + + + + + + + + + + + + + + + + + ",
". + + + + + + + + + + + + + + + + + + + + + ",
". + + + @ # $ % & * = = * & - $ # @ + + + + ",
"+ + + @ ; > , ' ) ! ~ ~ { ) ' , > ] + + + + ",
"+ + + + $ ^ / ( _ : < < : _ [ } ^ $ + + + + ",
"+ + + + % | 1 2 : 3 3 3 3 4 5 6 7 - + + @ @ ",
"+ @ @ @ & 8 9 0 _ a b a a _ 0 c 8 d @ e e e ",
"f f f g h i j k l m n o p l k q r s f g g g ",
"# # # # t u v w x y z A y B w C D t # # ] ] ",
"; ; E E F G H I J K I J J I J L G F E ; M M ",
"N O O O 9 P H J J I J J J J I L Q R O O N N ",
"S S S T U V W X H X H X Y Y Y W Z ` S  .$  .",
"> ..> ..+.@.#.$.%.&.%.&.*.=.*.-.;.>.> > ,.,.",
"'.'.'.'.% ).!.~.{.].].].].{.~.!.2 ^.'.'.'./.",
"(.(.(._._.:.<.!.. . . . . . !.<.[./.}._.^.^.",
"% - |.1.|.^.2.3.6 4.. . 5.6 6.7.}.% ^.1.8.|.",
"9.9.0.9.8.a.1.8.2.b.` ` c.[.8.a.a.9.8.9.8.8.",
"d.d.e.e.e.e.d.8.1.f.f.|.a.f.8.d.0.d.e.0.e.e.",
"g.g.g.g.g.g.g.g.g.g.g.g.g.g.g.g.g.g.g.g.g.g.",
"h h h h h h h h h h h h h h h h h h h h h h "};
