/* XPM */
static char * unfocus_xpm[] = {
"22 22 125 2",
"  	c None",
". 	c #FFFFFF",
"+ 	c #FEFEFE",
"@ 	c #FAFAFA",
"# 	c #F2F2F2",
"$ 	c #E9E9E9",
"% 	c #DFDFDF",
"& 	c #D5D5D5",
"* 	c #CFCFCF",
"= 	c #D4D4D4",
"- 	c #DEDEDE",
"; 	c #F3F3F3",
"> 	c #F5F5F5",
", 	c #EFEFEF",
"' 	c #D7D7D7",
") 	c #AEAEAE",
"! 	c #838383",
"~ 	c #6A6A6A",
"{ 	c #AEAEB0",
"] 	c #F6F6F6",
"^ 	c #C3C3C3",
"/ 	c #7B7B7B",
"( 	c #434343",
"_ 	c #414141",
": 	c #484848",
"< 	c #F4F4F4",
"[ 	c #C7C7C7",
"} 	c #737373",
"| 	c #3B3B3B",
"1 	c #424242",
"2 	c #444444",
"3 	c #474847",
"4 	c #474747",
"5 	c #434344",
"6 	c #C8C8C8",
"7 	c #FDFDFD",
"8 	c #DCDCDC",
"9 	c #999999",
"0 	c #333334",
"a 	c #414244",
"b 	c #4E4E4F",
"c 	c #5D5D5D",
"d 	c #666666",
"e 	c #FBFBFB",
"f 	c #FCFCFC",
"g 	c #D0D2D1",
"h 	c #282D34",
"i 	c #12161D",
"j 	c #2C2D2F",
"k 	c #3E3E3E",
"l 	c #454545",
"m 	c #292D34",
"n 	c #D1D1D1",
"o 	c #F9F9F9",
"p 	c #D3D3D3",
"q 	c #31363C",
"r 	c #101115",
"s 	c #232325",
"t 	c #333333",
"u 	c #343434",
"v 	c #F8F8F8",
"w 	c #DDDDDD",
"x 	c #020F29",
"y 	c #0B0B0B",
"z 	c #161616",
"A 	c #202020",
"B 	c #F7F7F7",
"C 	c #F1F1F1",
"D 	c #030F2A",
"E 	c #0A0A0A",
"F 	c #151515",
"G 	c #1F1F1F",
"H 	c #030F29",
"I 	c #F2F2F4",
"J 	c #F1F1F3",
"K 	c #030508",
"L 	c #0B0D13",
"M 	c #101219",
"N 	c #EEEEEE",
"O 	c #EEEEF0",
"P 	c #F0F0F0",
"Q 	c #474A54",
"R 	c #040813",
"S 	c #090B11",
"T 	c #000309",
"U 	c #00030A",
"V 	c #454B54",
"W 	c #ECECEC",
"X 	c #ECECEE",
"Y 	c #EDEDED",
"Z 	c #F6F5F3",
"` 	c #DADADA",
" .	c #4D4D4D",
"..	c #111215",
"+.	c #080B11",
"@.	c #000209",
"#.	c #080B12",
"$.	c #DADADC",
"%.	c #E9E9EB",
"&.	c #EBEBED",
"*.	c #EBEBEB",
"=.	c #BEBEBE",
"-.	c #111111",
";.	c #121212",
">.	c #BFBFBF",
",.	c #E8E8EA",
"'.	c #E7E7E9",
").	c #E8E8E8",
"!.	c #F5F5F3",
"~.	c #8A8A8A",
"{.	c #464646",
"].	c #8B8B8B",
"^.	c #F6F6F4",
"/.	c #F4F6F5",
"(.	c #E6E6E8",
"_.	c #E6E6E6",
":.	c #E7E7E7",
"<.	c #D9D9D9",
"[.	c #BABABB",
"}.	c #BABABA",
"|.	c #D9D9DA",
"1.	c #E4E4E6",
"2.	c #E5E5E5",
"3.	c #E5E5E7",
"4.	c #9E9E9E",
". . . . . . . . . . . . . . . . . . . . . . ",
". . . . . . . . . . . . . . . . . . . . . . ",
". . . . . . . . . . . . . . . . . . . . . . ",
". . . . . . . . . . . . . . . . . . . . . . ",
". . . . + @ # $ % & * * = - $ ; @ + . . + . ",
". . . . > > , ' ) ! ~ ~ ! { ' , > > . . + . ",
". . . . ] $ ^ / ( _ : : _ ( / ^ $ < . . . . ",
"+ + . . , [ } | 1 2 3 4 5 1 | } 6 , . . . . ",
"7 7 . + 8 9 0 a b c d d c b a 0 9 8 + + + + ",
"e e f f g h i j k l 4 4 l k j i m n f f f 7 ",
"o o @ e p q r s t u u u u t s r q p @ @ o @ ",
"] ] v v w x y z A A A A A A z y x 8 v v v B ",
"< < > > C D E F G G G A A A F E H C > > > > ",
"I J ; ; > q K L M M M M M M L K q > ; ; ; ; ",
"N O P P > Q R S T U U U U U S R V > P P C P ",
"W X Y Y Z `  ...+.@.@.@.@.#... .$.> Y Y Y N ",
"%.%.&.*.> > =. .-.;.y y ;.-. .>.> < *.W *.*.",
",.'.,.).> !.!.` ~.{.F F {.].` ^./.> ).$ %.,.",
"(.(.(._.:.'.).(.<.6 [.}.[ |._.).'.'._.:.'.(.",
"1.1.1.1.2.1._.(.,.:.'.,.:.'.:.3.1.1.1.2.2.1.",
"$.$.$.$.$.$.$.$.$.$.$.$.$.$.$.$.$.$.$.$.$.$.",
"4.4.4.4.4.4.4.4.4.4.4.4.4.4.4.4.4.4.4.4.4.4."};
