/* XPM */
static char * bar1_xpm[] = {
"20 20 25 1",
" 	c #A72B2B",
".	c #A62B2B",
"+	c #AD2F2F",
"@	c #B03232",
"#	c #B13333",
"$	c #AB2F2F",
"%	c #A22828",
"&	c #A02828",
"*	c #9F2828",
"=	c #9D2525",
"-	c #9C2525",
";	c #972121",
">	c #962121",
",	c #942020",
"'	c #8F1D1D",
")	c #8E1C1C",
"!	c #8A1A1A",
"~	c #841818",
"{	c #7F1515",
"]	c #7C1414",
"^	c #761212",
"/	c #701010",
"(	c #711111",
"_	c #7A1414",
":	c #9C2424",
"  ...   .......    .",
"++@+++@+++++@++++@++",
"@@##@@#@@#@@#@#@@#@@",
"$$$$$$$$$$$$$$$$$$$$",
"  .....  ......     ",
"%%%%%%%%%%%&*%%%%%%%",
"============-=======",
";;;;;;;;;;;>>>;;;;;;",
",,,,,,,,,,,,,,,,,,,,",
"''')''')))'''))'''))",
"!!!!!!!!!!!!!!!!!!!!",
"~~~~~~~~~~~~~~~~~~~~",
"{{{{{{{{{{{{{{{{{{{{",
"]]]]]]]]]]]]]]]]]]]]",
"^^^^^^^^^^^^^^^^^^^^",
"////////////////////",
"((((((((((((((((((((",
"____________________",
"{{{{{{{{{{{{{{{{{{{{",
"::::::::::::::::::::"};
