/* XPM */
static char * close1_xpm[] = {
"20 20 41 1",
" 	c #A72B2B",
".	c #140000",
"+	c #DB6363",
"@	c #AD2F2F",
"#	c #B03232",
"$	c #E27070",
"%	c #B13333",
"&	c #AB2F2F",
"*	c #E16D6D",
"=	c #DF6969",
"-	c #A22828",
";	c #DC6666",
">	c #9D2525",
",	c #972121",
"'	c #D95F5F",
")	c #942020",
"!	c #D75D5D",
"~	c #8F1D1D",
"{	c #8E1C1C",
"]	c #D55959",
"^	c #8A1A1A",
"/	c #D25656",
"(	c #841818",
"_	c #861818",
":	c #CE5050",
"<	c #7E1515",
"[	c #7F1515",
"}	c #CD4F4F",
"|	c #7B1414",
"1	c #7C1414",
"2	c #CA4C4C",
"3	c #761212",
"4	c #701010",
"5	c #982222",
"6	c #711111",
"7	c #962020",
"8	c #7A1414",
"9	c #A02626",
"0	c #AA2E2E",
"a	c #9C2424",
"b	c #D15555",
"       .+           ",
"@#@@@@#.$@@@@@#@@@@#",
"#%%###%.$%#%##%%###%",
"&&&&&&&.*&&&&&&&&&&&",
"       .=    ==     ",
"-------.;---;..;----",
">>>>>>>.+>>+.>>.+>>>",
",,,,,,,,.''.,,.',,,,",
")))))))))..)).!)))))",
"~~{~~~~~~~{~.]~{~~~~",
"^^^^^^^^^^^^./^^^^^^",
"(((((((((.._(.:(((((",
"<<<[[[<<.}}.<<.}[[<[",
"||11111.2112.|1.2111",
"33333..&3333&...&333",
"4444.,5444444,,.5444",
"6666.7666666666.7666",
"8888.9888888888.9888",
"[[[[.0[[[[[[[[[.0[[[",
"aaaa.baaaaaaaaa.baaa"};
