/* XPM */
static char * close2a_xpm[] = {
"20 20 43 1",
" 	c #ABABAB",
".	c #0A0A0A",
"+	c #C9C9C9",
"@	c #B3B3B3",
"#	c #CDCDCD",
"$	c #B5B5B5",
"%	c #B8B8B8",
"&	c #B9B9B9",
"*	c #D0D0D0",
"=	c #B6B6B6",
"-	c #CECECE",
";	c #B1B1B1",
">	c #A4A4A4",
",	c #A6A6A6",
"'	c #F5F5F5",
")	c #C6C6C6",
"!	c #9F9F9F",
"~	c #C3C3C3",
"{	c #989898",
"]	c #EEEEEE",
"^	c #C0C0C0",
"/	c #939393",
"(	c #E4E4E4",
"_	c #BDBDBD",
":	c #8C8C8C",
"<	c #8E8E8E",
"[	c #DCDCDC",
"}	c #868686",
"|	c #D8D8D8",
"1	c #808080",
"2	c #7D7D7D",
"3	c #7A7A7A",
"4	c #E9E9E9",
"5	c #AFAFAF",
"6	c #B0B0B0",
"7	c #767676",
"8	c #ACACAC",
"9	c #A7A7A7",
"0	c #A9A9A9",
"a	c #878787",
"b	c #949494",
"c	c #BEBEBE",
"d	c #C8C8C8",
"       .+           ",
"@@@@@@@.#@@@@@$@@@@$",
"%&&%%%&.*&%&%%&&%%%&",
"$=====$.-==$==$===$=",
";;;;;;;.#;;;;##;;;;;",
"     ...+   +..+    ",
">>,,.''.)>>).''.)>,>",
"!!!!!.''.~~.''.~!!!!",
"{{{{{{.]]..]].^{{{{{",
"///////.((((._//////",
":::<:::.[[[[.&::::::",
"}}}}}}.||..||.=}}}}}",
"11111.[[.;;.[[.;1111",
"2223.44.5336.44.6232",
"77777..877778...8777",
"7777.9977777799.9777",
"2323.0333332333.9223",
"aaaa.@aaaaaaaaa.@aaa",
"///b.c/b/bb////._b/b",
"0000.d000000000.d000"};
