/* XPM */
static char * max1_xpm[] = {
"20 20 42 1",
" 	c #A72B2B",
".	c #140000",
"+	c #DB6363",
"@	c #AD2F2F",
"#	c #B03232",
"$	c #E27070",
"%	c #B13333",
"&	c #AB2F2F",
"*	c #E16D6D",
"=	c #A62B2B",
"-	c #DF6969",
";	c #A22828",
">	c #DC6666",
",	c #9D2525",
"'	c #972121",
")	c #D95F5F",
"!	c #942020",
"~	c #D75D5D",
"{	c #8F1D1D",
"]	c #8E1C1C",
"^	c #D55959",
"/	c #8A1A1A",
"(	c #D25656",
"_	c #841818",
":	c #861818",
"<	c #CE5050",
"[	c #7F1515",
"}	c #CD4F4F",
"|	c #CC4F4F",
"1	c #7E1515",
"2	c #7C1414",
"3	c #CA4C4C",
"4	c #7B1414",
"5	c #761212",
"6	c #701010",
"7	c #711111",
"8	c #962020",
"9	c #7A1414",
"0	c #A02626",
"a	c #AA2E2E",
"b	c #9C2424",
"c	c #D15555",
"         .+         ",
"@@@@@@#@@.$#@@@@@@#@",
"#%#%##%%#.$%##%###%%",
"&&&&&&&&&.*&&&&&&&&&",
"===      .-----     ",
";;;;;;;;;......>;;;;",
",,,,,,,,,,,,,,.+,,,,",
"''''''''''''''.)''''",
"!!!!!!!!!!!!!!.~!!!!",
"{{]{{{{]{{{{]{.^{{{]",
"////////////./.(////",
"___:_______.<..<____",
"[[[[[[[[[[.}[}|11111",
"222222222.3224444444",
"55555555.&5555555555",
"6666666.'66666666666",
"7777777.877777777777",
"9999999.099999999999",
"[[[[[[[.a[[[[[[[[[[[",
"bbbbbbb.cbbbbbbbbbbb"};
