/* XPM */
static char * max2a_xpm[] = {
"20 20 41 1",
" 	c #ABABAB",
".	c #0A0A0A",
"+	c #C9C9C9",
"@	c #B3B3B3",
"#	c #CDCDCD",
"$	c #B8B8B8",
"%	c #B9B9B9",
"&	c #D0D0D0",
"*	c #B6B6B6",
"=	c #CFCFCF",
"-	c #B5B5B5",
";	c #B1B1B1",
">	c #A4A4A4",
",	c #A6A6A6",
"'	c #F5F5F5",
")	c #C6C6C6",
"!	c #9F9F9F",
"~	c #C3C3C3",
"{	c #989898",
"]	c #EEEEEE",
"^	c #C0C0C0",
"/	c #939393",
"(	c #E4E4E4",
"_	c #BDBDBD",
":	c #8C8C8C",
"<	c #DCDCDC",
"[	c #868686",
"}	c #878787",
"|	c #D8D8D8",
"1	c #808080",
"2	c #7D7D7D",
"3	c #7A7A7A",
"4	c #E9E9E9",
"5	c #B0B0B0",
"6	c #767676",
"7	c #F0F0F0",
"8	c #ACACAC",
"9	c #A7A7A7",
"0	c #949494",
"a	c #A9A9A9",
"b	c #C8C8C8",
"         .+         ",
"@@@@@@@@@.#@@@@@@@@@",
"$%$%$$%%$.&%$$%$$$%%",
"*********.=******-**",
";;;;;;;;;.#####;;;;;",
"         ......+    ",
">>>,,>,,.'''''.)>>>,",
"!!!!!!!!!.''''.~!!!!",
"{{{{{{{{.]]]]].^{{{{",
"///////.((((((._////",
"::::::.<<<<<.<.%::::",
"[[[}[.|||||.*..*[[[[",
"1111.<<<<<.;1;;11111",
"22322.444.5323232222",
"666666.7.86666666666",
"6666666.966666666666",
"2223222.922233232232",
"}}}}}}}.@}}}}}}}}}}}",
"0/////0._//00///0///",
"aaaaaaa.baaaaaaaaaaa"};
