/* XPM */
static char * min1_xpm[] = {
"20 20 51 1",
" 	c #A72B2B",
".	c #140000",
"+	c #E47474",
"@	c #A62B2B",
"#	c #DB6363",
"$	c #AD2F2F",
"%	c #B03232",
"&	c #E77979",
"*	c #E27070",
"=	c #AF3232",
"-	c #B13333",
";	c #E77B7B",
">	c #AB2F2F",
",	c #E67878",
"'	c #E16D6D",
")	c #DF6969",
"!	c #A22828",
"~	c #DC6666",
"{	c #9D2525",
"]	c #972121",
"^	c #D95F5F",
"/	c #942020",
"(	c #D75D5D",
"_	c #CE5050",
":	c #8F1D1D",
"<	c #8E1C1C",
"[	c #D55959",
"}	c #C44444",
"|	c #8A1A1A",
"1	c #D25656",
"2	c #B53737",
"3	c #841818",
"4	c #861818",
"5	c #AA2E2E",
"6	c #7F1515",
"7	c #CD4F4F",
"8	c #9B2424",
"9	c #7B1414",
"0	c #7C1414",
"a	c #CA4C4C",
"b	c #761212",
"c	c #831717",
"d	c #701010",
"e	c #711111",
"f	c #962020",
"g	c #7D1515",
"h	c #7A1414",
"i	c #A02626",
"j	c #8C1C1C",
"k	c #9C2424",
"l	c #D15555",
"         .+ @ .#    ",
"$$$$$%$$$.&%%$.*$%$$",
"=-%%%-%%.;----.*%-%%",
">>......,>>>>>.'>>>>",
" .++++++  @@@@.) @@@",
".'!!!!!!!!!!!!!.~!!!",
".){{{{{{{{{{{{{{.#{{",
".#]]]]]]]]]]]]]]].^]",
".^//////////////.(//",
"._:::<<:<::::<:.[:::",
".}||||||||||||.1||||",
".234333333333._33333",
".56666666666.7666666",
".899009999000.a00000",
".:bbbbbb......>bbbbb",
".cddddd.]]]]]]dddddd",
".0eeeee.feeeeeeeeeee",
".ghhhhh.ihhhhhhhhhhh",
".h66666.566666666666",
".jkkkkk.lkkkkkkkkkkk"};
