/* XPM */
static char * min2_xpm[] = {
"20 20 55 1",
" 	c #A62B2B",
".	c #A72B2B",
"+	c #0A0A0A",
"@	c #CDCDCD",
"#	c #ABABAB",
"$	c #C9C9C9",
"%	c #AC2F2F",
"&	c #AD2F2F",
"*	c #B03232",
"=	c #D2D2D2",
"-	c #B5B5B5",
";	c #B3B3B3",
">	c #B13333",
",	c #D4D4D4",
"'	c #B9B9B9",
")	c #D0D0D0",
"!	c #B8B8B8",
"~	c #AB2F2F",
"{	c #B6B6B6",
"]	c #CFCFCF",
"^	c #D1D1D1",
"/	c #B1B1B1",
"(	c #CCCCCC",
"_	c #A6A6A6",
":	c #A4A4A4",
"<	c #C7C7C7",
"[	c #C4C4C4",
"}	c #9F9F9F",
"|	c #C3C3C3",
"1	c #C1C1C1",
"2	c #989898",
"3	c #C0C0C0",
"4	c #939393",
"5	c #BDBDBD",
"6	c #AFAFAF",
"7	c #8C8C8C",
"8	c #8E8E8E",
"9	c #868686",
"0	c #878787",
"a	c #9D9D9D",
"b	c #808080",
"c	c #7D7D7D",
"d	c #7A7A7A",
"e	c #B0B0B0",
"f	c #888888",
"g	c #767676",
"h	c #ACACAC",
"i	c #818181",
"j	c #A7A7A7",
"k	c #8B8B8B",
"l	c #8F8F8F",
"m	c #949494",
"n	c #A0A0A0",
"o	c #A9A9A9",
"p	c #C8C8C8",
"  .......+@###+$####",
"%&&&&*&&&+=-;;+@;-;;",
"*>***>**+,''''+)!'!!",
"~~++++++={{{{-+]-{{{",
".+^^^^^^//////+@////",
"+(#############+$###",
"+$__:::::::::_:_+<_:",
"+[}}}}}}}}}}}}}}}+|}",
"+122222222222222+322",
"+!4444444444444+5444",
"+6777777787777+'7787",
"+:90999999999+{99999",
"+abbbbbbbbbb+/bbbbbb",
"+4cdcccdcdcdc+ecdccc",
"+fgggggg++++++hggggg",
"+iggggg+jjjjjjgggggg",
"+idccdd+jddcdddddcdc",
"+k00000+;00000000000",
"+lm444m+5mm4m4mm444m",
"+nooooo+pooooooooooo"};
