/* XPM */
static char * min2a_xpm[] = {
"20 20 60 1",
" 	c #A72B2B",
".	c #140000",
"+	c #CDCDCD",
"@	c #ABABAB",
"#	c #0A0A0A",
"$	c #C9C9C9",
"%	c #AD2F2F",
"&	c #B03232",
"*	c #D2D2D2",
"=	c #B5B5B5",
"-	c #B3B3B3",
";	c #B13333",
">	c #D4D4D4",
",	c #B9B9B9",
"'	c #D0D0D0",
")	c #B8B8B8",
"!	c #AB2F2F",
"~	c #B6B6B6",
"{	c #CFCFCF",
"]	c #D1D1D1",
"^	c #B1B1B1",
"/	c #CCCCCC",
"(	c #F5F5F5",
"_	c #A6A6A6",
":	c #A4A4A4",
"<	c #C7C7C7",
"[	c #C4C4C4",
"}	c #9F9F9F",
"|	c #C3C3C3",
"1	c #C1C1C1",
"2	c #989898",
"3	c #EEEEEE",
"4	c #C0C0C0",
"5	c #939393",
"6	c #E4E4E4",
"7	c #BDBDBD",
"8	c #AFAFAF",
"9	c #8C8C8C",
"0	c #DCDCDC",
"a	c #8E8E8E",
"b	c #868686",
"c	c #878787",
"d	c #D8D8D8",
"e	c #9D9D9D",
"f	c #808080",
"g	c #7D7D7D",
"h	c #7A7A7A",
"i	c #E9E9E9",
"j	c #B0B0B0",
"k	c #888888",
"l	c #767676",
"m	c #ACACAC",
"n	c #818181",
"o	c #A7A7A7",
"p	c #8B8B8B",
"q	c #8F8F8F",
"r	c #949494",
"s	c #A0A0A0",
"t	c #A9A9A9",
"u	c #C8C8C8",
"         .+@@@#$@@@@",
"%%%%%&%%%#*=--#+-=--",
"&;&&&;&&#>,,,,#'),))",
"!!######*~~~~=#{=~~~",
" #]]]]]]^^^^^^#+^^^^",
"#/@@@@@@@@@@@#(#$@@@",
"#$__::::::::#(((#<_:",
"#[}}}}}}}}}#(((((#|}",
"#1222222#2#33333#422",
"#)55555#6#66666#7555",
"#899999#000000#,99a9",
"#:bcbbb#ddddd#~bbbbb",
"#efffff#0000#^ffffff",
"#5ghggg#iiiii#jghggg",
"#kllllll######mlllll",
"#nlllll#oooooollllll",
"#nhgghh#ohhghhhhhghg",
"#pccccc#-ccccccccccc",
"#qr555r#7rr5r5rr555r",
"#sttttt#uttttttttttt"};
