/* XPM */
static char * stick2a_xpm[] = {
"20 20 62 1",
" 	c #ABABAB",
".	c #CACACA",
"+	c #0A0A0A",
"@	c #CDCDCD",
"#	c #A72B2B",
"$	c #B3B3B3",
"%	c #B5B5B5",
"&	c #CFCFCF",
"*	c #D2D2D2",
"=	c #AD2F2F",
"-	c #B03232",
";	c #B8B8B8",
">	c #B9B9B9",
",	c #D4D4D4",
"'	c #B13333",
")	c #B6B6B6",
"!	c #D0D0D0",
"~	c #AB2F2F",
"{	c #B1B1B1",
"]	c #CECECE",
"^	c #D1D1D1",
"/	c #140000",
"(	c #CCCCCC",
"_	c #A6A6A6",
":	c #C7C7C7",
"<	c #F5F5F5",
"[	c #A4A4A4",
"}	c #C9C9C9",
"|	c #9F9F9F",
"1	c #C4C4C4",
"2	c #989898",
"3	c #C1C1C1",
"4	c #939393",
"5	c #BEBEBE",
"6	c #F2F2F2",
"7	c #F3F3F3",
"8	c #8C8C8C",
"9	c #8E8E8E",
"0	c #BABABA",
"a	c #ECECEC",
"b	c #AFAFAF",
"c	c #868686",
"d	c #B7B7B7",
"e	c #E0E0E0",
"f	c #DFDFDF",
"g	c #878787",
"h	c #808080",
"i	c #C8C8C8",
"j	c #9D9D9D",
"k	c #7D7D7D",
"l	c #7A7A7A",
"m	c #C0C0C0",
"n	c #767676",
"o	c #AEAEAE",
"p	c #C3C3C3",
"q	c #888888",
"r	c #818181",
"s	c #8B8B8B",
"t	c #949494",
"u	c #8F8F8F",
"v	c #A9A9A9",
"w	c #A0A0A0",
"     .+  @+#########",
"$%$%$&+$%*+===-=====",
";>;>;*+>>>,+--'---'-",
")%)%)!+))))*++++++~~",
"{{{{{]+{{{{{^^^^^^/#",
"     .+++++       (/",
"_____:+<<<<+[[[[__}+",
"|||||1+<<<<<+|||||1+",
"222223+<<<<<<+22223+",
"444445+6676666+444;+",
"889890+aaaaaaaa+88b+",
"cccccd+effefeff+gc[+",
"hhhhh%+i}ii}ii}+hhj+",
"klklkk{+3m33333+lk4+",
"nnnnnnno+1ppppp+nnq+",
"nnnnnnnno+****+onnr+",
"klllllll{+++++{kklr+",
"gggggggg;+;;;;ggggs+",
"4tt4tt4t5+t4tt444tu+",
"vvvvvvvv}+vvvvvvvvw+"};
