/* XPM */
static char * stick1a_xpm[] = {
"20 20 69 1",
" 	c #A72B2B",
".	c #D15555",
"+	c #140000",
"@	c #D55B5B",
"#	c #AD2F2F",
"$	c #B03232",
"%	c #D45858",
"&	c #E77979",
"*	c #B13333",
"=	c #E37373",
"-	c #E77B7B",
";	c #AB2F2F",
">	c #E37171",
",	c #E67878",
"'	c #E16D6D",
")	c #E47474",
"!	c #A22828",
"~	c #DF6969",
"{	c #9D2525",
"]	c #DC6666",
"^	c #F5F5F5",
"/	c #FFEBEB",
"(	c #972121",
"_	c #DB6363",
":	c #942020",
"<	c #D96161",
"[	c #D95F5F",
"}	c #8F1D1D",
"|	c #D75D5D",
"1	c #F2F2F2",
"2	c #F3F3F3",
"3	c #FEE6E6",
"4	c #CE5050",
"5	c #8A1A1A",
"6	c #D55959",
"7	c #ECECEC",
"8	c #C44444",
"9	c #841818",
"0	c #D25656",
"a	c #E0E0E0",
"b	c #DFDFDF",
"c	c #861818",
"d	c #B53737",
"e	c #7F1515",
"f	c #CF5151",
"g	c #C8C8C8",
"h	c #C9C9C9",
"i	c #AA2E2E",
"j	c #7C1414",
"k	c #C1C1C1",
"l	c #C0C0C0",
"m	c #9C2424",
"n	c #761212",
"o	c #CA4C4C",
"p	c #C4C4C4",
"q	c #C3C3C3",
"r	c #701010",
"s	c #C74747",
"t	c #D2D2D2",
"u	c #0A0A0A",
"v	c #831717",
"w	c #711111",
"x	c #C74949",
"y	c #7A1414",
"z	c #B93939",
"A	c #CD4F4F",
"B	c #7D1515",
"C	c #A32929",
"D	c #8C1C1C",
"     .+  @+         ",
"###$#%+$$&+###$#####",
"$$$*$=+***-+$$*$$$*$",
";;;;;>+;;;;,++++++;;",
"     '+     ))))))+ ",
"!!!!!~+++++!!!!!!!'+",
"{{{{{]+^///+{{{{{{~+",
"(((((_+^////+(((((_+",
":::::<+^/////+::::[+",
"}}}}}|+1121113+}}}4+",
"555556+77777777+558+",
"999990+abbababb+c9d+",
"eeeeef+ghgghggh+eei+",
"jjjjjj4+klkkkkk+jjm+",
"nnnnnnno+pqqqqq+nn}+",
"rrrrrrrrs+ttttusrrv+",
"wwwwwwwwx+++++xwwwj+",
"yyyyyyyyz+AAAAyyyyB+",
"eeeeeeee:+eeeeeeeey+",
"mmmmmmmmC+mmmmmmmmD+"};
