/* XPM */
static char * stick2_xpm[] = {
"20 20 52 1",
" 	c #ABABAB",
".	c #CACACA",
"+	c #0A0A0A",
"@	c #CDCDCD",
"#	c #A72B2B",
"$	c #B3B3B3",
"%	c #B5B5B5",
"&	c #CFCFCF",
"*	c #D2D2D2",
"=	c #AD2F2F",
"-	c #B03232",
";	c #B8B8B8",
">	c #B9B9B9",
",	c #D4D4D4",
"'	c #B13333",
")	c #B6B6B6",
"!	c #D0D0D0",
"~	c #AB2F2F",
"{	c #B1B1B1",
"]	c #CECECE",
"^	c #D1D1D1",
"/	c #CCCCCC",
"(	c #A6A6A6",
"_	c #C7C7C7",
":	c #A4A4A4",
"<	c #C9C9C9",
"[	c #9F9F9F",
"}	c #C4C4C4",
"|	c #989898",
"1	c #C1C1C1",
"2	c #939393",
"3	c #BEBEBE",
"4	c #8C8C8C",
"5	c #8E8E8E",
"6	c #BABABA",
"7	c #AFAFAF",
"8	c #868686",
"9	c #B7B7B7",
"0	c #878787",
"a	c #808080",
"b	c #9D9D9D",
"c	c #7D7D7D",
"d	c #7A7A7A",
"e	c #767676",
"f	c #AEAEAE",
"g	c #888888",
"h	c #818181",
"i	c #8B8B8B",
"j	c #949494",
"k	c #8F8F8F",
"l	c #A9A9A9",
"m	c #A0A0A0",
"     .+  @+#########",
"$%$%$&+$%*+===-=====",
";>;>;*+>>>,+--'---'-",
")%)%)!+))))*++++++~~",
"{{{{{]+{{{{{^^^^^^+#",
"     .+++++       /+",
"(((((_+____+::::((<+",
"[[[[[}+[[[[}+[[[[[}+",
"|||||1+|||||1+||||1+",
"222223+2222223+222;+",
"444456+44454446+447+",
"888889+88888889+08:+",
"aaaaa%+aaaaaaa%+aab+",
"cdcdcc{+dcdcdc{+dc2+",
"eeeeeeef+eeeeef+eeg+",
"eeeeeeeef+eeee+feeh+",
"cdcddddd{+++++{ccdh+",
"00000000;+;;;;0000i+",
"2222jj2j3+j2jj222jk+",
"llllllll<+llllllllm+"};
