/* XPM */
static char * stick1_xpm[] = {
"20 20 69 1",
" 	c #A62B2B",
".	c #D15555",
"+	c #140000",
"@	c #D45B5B",
"#	c #130000",
"$	c #A52B2B",
"%	c #A42B2B",
"&	c #A32B2B",
"*	c #A22B2B",
"=	c #A12B2B",
"-	c #A02B2B",
";	c #AD2F2F",
">	c #B03232",
",	c #D45858",
"'	c #E77979",
")	c #AC2F2F",
"!	c #AF3232",
"~	c #B13333",
"{	c #E37373",
"]	c #E77B7B",
"^	c #AB2F2F",
"/	c #E37171",
"(	c #E67878",
"_	c #A72B2B",
":	c #E16D6D",
"<	c #E47474",
"[	c #A22828",
"}	c #DF6969",
"|	c #9D2525",
"1	c #DC6666",
"2	c #972121",
"3	c #DB6363",
"4	c #942020",
"5	c #D96161",
"6	c #D95F5F",
"7	c #8F1D1D",
"8	c #D75D5D",
"9	c #8E1C1C",
"0	c #D55B5B",
"a	c #CE5050",
"b	c #8A1A1A",
"c	c #D55959",
"d	c #C44444",
"e	c #841818",
"f	c #D25656",
"g	c #861818",
"h	c #B53737",
"i	c #7E1515",
"j	c #7F1515",
"k	c #CF5151",
"l	c #AA2E2E",
"m	c #7B1414",
"n	c #CD5050",
"o	c #9B2424",
"p	c #761212",
"q	c #CA4C4C",
"r	c #701010",
"s	c #C74747",
"t	c #831717",
"u	c #711111",
"v	c #C74949",
"w	c #7C1414",
"x	c #7A1414",
"y	c #B93939",
"z	c #CD4F4F",
"A	c #7D1515",
"B	c #9C2424",
"C	c #A32929",
"D	c #8C1C1C",
"     .+  @#$$%&*==--",
";;;>;,+>>'+)))!)))))",
">>>~>{+~~~]+>>~>>>~>",
"^^^^^/+^^^^(++++++^^",
"_____:+_____<<<<<<+_",
"[[[[[}+++++[[[[[[[:+",
"|||||1+1111+||||||}+",
"222223+22223+222223+",
"444445+444445+44446+",
"777778+7777970+777a+",
"bbbbbc+bbbbbbbc+bbd+",
"eeeeef+eeeeeeef+geh+",
"iijjjk+jjjjjjjk+jjl+",
"mmmmmmn+mmmmmmn+mmo+",
"pppppppq+pppppq+pp7+",
"rrrrrrrrs+rrrr+srrt+",
"uuuuuuuuv+++++vuuuw+",
"xxxxxxxxy+zzzzxxxxA+",
"jjjjjjjj4+jjjjjjjjx+",
"BBBBBBBBC+BBBBBBBBD+"};
