/* XPM */
static char * close_xpm[] = {
"21 21 327 2",
"  	c None",
". 	c #F4F4F4",
"+ 	c #F4F4F6",
"@ 	c #F5F5F7",
"# 	c #F5F5F5",
"$ 	c #F4F2F3",
"% 	c #F3F1F2",
"& 	c #F3F3F3",
"* 	c #CACFD3",
"= 	c #040005",
"- 	c #F9F9FB",
"; 	c #F8F9FB",
"> 	c #F7F7F9",
", 	c #FAFAFC",
"' 	c #F6F6F6",
") 	c #F8F8F8",
"! 	c #FAFAFA",
"~ 	c #F9F9F9",
"{ 	c #F8F6FB",
"] 	c #FBF9FC",
"^ 	c #F8F6F9",
"/ 	c #EBECF0",
"( 	c #EDEEF2",
"_ 	c #E9EAEE",
": 	c #ECEDEF",
"< 	c #EEEEEE",
"[ 	c #ECECEC",
"} 	c #EBEBEB",
"| 	c #EEEFF1",
"1 	c #EAEBED",
"2 	c #E8E9EB",
"3 	c #EBECEE",
"4 	c #D4D7DC",
"5 	c #D3D6DB",
"6 	c #CDD0D5",
"7 	c #C2C5CA",
"8 	c #B3B7BA",
"9 	c #ABACB0",
"0 	c #A4A5A7",
"a 	c #A3A4A6",
"b 	c #AFB0B2",
"c 	c #C4C8CB",
"d 	c #CCD0D3",
"e 	c #D2D6D9",
"f 	c #D6DADD",
"g 	c #D9DCE1",
"h 	c #C9CED2",
"i 	c #C0C5CB",
"j 	c #B4B9BF",
"k 	c #8E9196",
"l 	c #55585D",
"m 	c #262A2D",
"n 	c #090D10",
"o 	c #090D0E",
"p 	c #262A2B",
"q 	c #52575B",
"r 	c #8B9094",
"s 	c #B2B7BB",
"t 	c #C0C5C9",
"u 	c #C8CDD1",
"v 	c #C2C9D1",
"w 	c #B7BEC6",
"x 	c #B8BFC7",
"y 	c #B9C0C8",
"z 	c #B1B8C0",
"A 	c #A9AEB2",
"B 	c #74787B",
"C 	c #2F3032",
"D 	c #3A3A3A",
"E 	c #7A7A7A",
"F 	c #B8B8B8",
"G 	c #BFBFBF",
"H 	c #888888",
"I 	c #444442",
"J 	c #2E2E2E",
"K 	c #75767A",
"L 	c #ABAEB3",
"M 	c #B3B8BE",
"N 	c #BDC4CC",
"O 	c #BEC5CD",
"P 	c #B4BBC3",
"Q 	c #91969A",
"R 	c #2C3033",
"S 	c #333436",
"T 	c #878787",
"U 	c #A2A2A2",
"V 	c #ACACAC",
"W 	c #B1B1B1",
"X 	c #B0B0B0",
"Y 	c #9E9E9C",
"Z 	c #474747",
"` 	c #2F3034",
" .	c #B7BCC2",
"..	c #BCC3CB",
"+.	c #BEC7CE",
"@.	c #BCC5CC",
"#.	c #ABB4BB",
"$.	c #AAB3BA",
"%.	c #9EA7AE",
"&.	c #505559",
"*.	c #121619",
"=.	c #595A5C",
"-.	c #6E6E6E",
";.	c #7F7F7F",
">.	c #909090",
",.	c #8F8F8F",
"'.	c #8B8B8B",
").	c #838381",
"!.	c #6B6B6B",
"~.	c #212226",
"{.	c #4D5055",
"].	c #A2A7AD",
"^.	c #AEB5BD",
"/.	c #ACB5BC",
"(.	c #B4BDC4",
"_.	c #B2BBC2",
":.	c #B3BCC3",
"<.	c #A7B0B7",
"[.	c #272B2E",
"}.	c #1B1C1E",
"|.	c #3E3F41",
"1.	c #505050",
"2.	c #5F5F5F",
"3.	c #6D6D6D",
"4.	c #696A6C",
"5.	c #5D5D5B",
"6.	c #565656",
"7.	c #27282C",
"8.	c #282B30",
"9.	c #ABB0B6",
"0.	c #B0B9C0",
"a.	c #B5BEC5",
"b.	c #A3ACB3",
"c.	c #A1AAB1",
"d.	c #A2ABB2",
"e.	c #98A1A8",
"f.	c #090A0C",
"g.	c #141517",
"h.	c #252525",
"i.	c #393939",
"j.	c #42413F",
"k.	c #484848",
"l.	c #4E4E4E",
"m.	c #464749",
"n.	c #40403E",
"o.	c #313131",
"p.	c #232428",
"q.	c #06090E",
"r.	c #989DA3",
"s.	c #A1A8B0",
"t.	c #A0A9B0",
"u.	c #ABB4BD",
"v.	c #AAB3BC",
"w.	c #A9B2BB",
"x.	c #A5AEB7",
"y.	c #07080A",
"z.	c #030303",
"A.	c #161616",
"B.	c #1A1917",
"C.	c #272624",
"D.	c #292929",
"E.	c #2A2A2A",
"F.	c #2A2B2D",
"G.	c #282826",
"H.	c #1D1D1D",
"I.	c #0B0C10",
"J.	c #080B10",
"K.	c #A7ACB2",
"L.	c #A9B2B9",
"M.	c #969FA8",
"N.	c #939CA5",
"O.	c #959EA7",
"P.	c #97A0A9",
"Q.	c #242424",
"R.	c #000000",
"S.	c #010000",
"T.	c #131210",
"U.	c #232220",
"V.	c #2D2D2D",
"W.	c #2C2D2F",
"X.	c #1D1D1B",
"Y.	c #000105",
"Z.	c #1E2126",
"`.	c #959AA0",
" +	c #969DA5",
".+	c #97A0A7",
"++	c #939CA3",
"@+	c #A0A9B2",
"#+	c #A2ABB4",
"$+	c #9FA8B1",
"%+	c #A7B0B9",
"&+	c #1B1A18",
"*+	c #252422",
"=+	c #343331",
"-+	c #373737",
";+	c #3F4042",
">+	c #37383A",
",+	c #323230",
"'+	c #232323",
")+	c #0D0E12",
"!+	c #494C51",
"~+	c #ADB2B8",
"{+	c #A0A7AF",
"]+	c #8B949B",
"^+	c #889198",
"/+	c #8C959C",
"(+	c #898C93",
"_+	c #25262B",
":+	c #454547",
"<+	c #4D4D4D",
"[+	c #5C5A5B",
"}+	c #5A5859",
"|+	c #575556",
"1+	c #4F4E4C",
"2+	c #1F2024",
"3+	c #84878C",
"4+	c #9EA2AB",
"5+	c #899098",
"6+	c #8A939A",
"7+	c #98A1AA",
"8+	c #9AA3AC",
"9+	c #99A2AB",
"0+	c #B5B8BD",
"a+	c #797C81",
"b+	c #202425",
"c+	c #323433",
"d+	c #636562",
"e+	c #6D6D6B",
"f+	c #777775",
"g+	c #686868",
"h+	c #3E3E3E",
"i+	c #232426",
"j+	c #7C7D82",
"k+	c #BABDC4",
"l+	c #9EA5AD",
"m+	c #9AA1AB",
"n+	c #9CA5AE",
"o+	c #96A0A9",
"p+	c #818A93",
"q+	c #838C95",
"r+	c #828B94",
"s+	c #848D96",
"t+	c #91969C",
"u+	c #AFB4B8",
"v+	c #94999C",
"w+	c #45494A",
"x+	c #131716",
"y+	c #020605",
"z+	c #020403",
"A+	c #151618",
"B+	c #464A4D",
"C+	c #93979A",
"D+	c #A8ADB3",
"E+	c #92969F",
"F+	c #818892",
"G+	c #868F98",
"H+	c #848E97",
"I+	c #7E8891",
"J+	c #929BA4",
"K+	c #949DA6",
"L+	c #939AA4",
"M+	c #AEB5BB",
"N+	c #BFC7CA",
"O+	c #CBD0D4",
"P+	c #CFD4D8",
"Q+	c #C1C6CA",
"R+	c #9CA3AB",
"S+	c #969DA7",
"T+	c #8A949D",
"U+	c #97A1AA",
"V+	c #7C838D",
"W+	c #7D848E",
"X+	c #7D8592",
"Y+	c #78808B",
"Z+	c #7F8690",
"`+	c #7C838B",
" @	c #80878F",
".@	c #7B828C",
"+@	c #7E858B",
"@@	c #7F868E",
"#@	c #79828B",
"$@	c #7E8790",
"%@	c #78818A",
"&@	c #798289",
"*@	c #8C939B",
"=@	c #8D949C",
"-@	c #8B919F",
";@	c #8D93A1",
">@	c #8B939E",
",@	c #8B949D",
"'@	c #8A939C",
")@	c #88919A",
"!@	c #89919C",
"~@	c #8D95A0",
"{@	c #8C9399",
"]@	c #8F969E",
"^@	c #8B929C",
"/@	c #8C939D",
"(@	c #8B929A",
"_@	c #8B9298",
":@	c #676E74",
"<@	c #686F75",
"[@	c #69707A",
"}@	c #666D75",
"|@	c #687176",
"1@	c #677077",
"2@	c #656E75",
"3@	c #697078",
"4@	c #636A72",
"5@	c #6B727C",
"6@	c #656C74",
"7@	c #6D717A",
"8@	c #696E74",
"9@	c #696E72",
"0@	c #626A6D",
"a@	c #61696C",
"b@	c #5F676A",
"c@	c #61696B",
"d@	c #626A6C",
"e@	c #616B6D",
"f@	c #5F696B",
"g@	c #61686E",
"h@	c #626971",
"i@	c #616870",
"j@	c #636770",
"k@	c #62676D",
"l@	c #63686C",
". . . . . + @ . . # # $ % & * = = = = = = ",
"- - - - - ; > , - ' ) ! ~ > { ] ^ * = = = ",
"/ / / / / ( _ / : : < [ } | 1 2 3 3 * = = ",
"4 4 4 4 4 5 6 7 8 9 0 a b 8 c d e f g = = ",
"h h h h h i j k l m n o p q r s t u v = = ",
"w x y x z A B C D E F G H I J K L M z = = ",
"N N O N P Q R S T U V W X Y Z ` k  ...+.@.",
"#.$.#.$.%.&.*.=.-.;.>.,.'.).!.~.{.].^.$./.",
"(._.(.:.<.[.}.|.1.2.3.3.4.5.6.7.8.9.P 0.a.",
"b.c.d.d.e.f.g.h.i.j.k.l.m.n.o.p.q.r.s.d.t.",
"u.v.w.w.x.y.z.A.B.C.D.E.F.G.H.I.J.K.^.L.$.",
"M.M.N.O.P.Q.R.S.T.U.V.W.F.X.A.Y.Z.`. +.+++",
"@+#+$+#+%+l.z.&+*+=+-+;+>+,+'+)+!+~+{+t.d.",
"]+]+^+/+.+(+_+~.:+<+[+}+|+1+o.2+3+4+5+6+]+",
"7+8+7+9+@+0+a+b+c+d+e+f+g+h+i+j+k+l+m+n+o+",
"p+q+r+p+s+t+u+v+w+x+y+z+A+B+C+D+E+F+G+H+I+",
"J+K+K+J+J+L+l+M+N+O+P+P+h Q+M R+S+K+N.T+U+",
"V+W+W+V+V+X+Y+Z+V+`+ @.@V++@`+@@#@$@%@r+&@",
"*@*@*@=@=@-@;@>@,@'@)@!@~@{@*@]@^@/@(@*@_@",
":@:@:@:@<@[@}@}@:@:@|@1@2@<@3@4@5@6@7@8@9@",
"0@0@a@0@0@b@0@c@d@d@c@e@f@g@h@i@i@j@k@l@l@"};
