/* XPM */
static char * closep_xpm[] = {
"21 21 333 2",
"  	c None",
". 	c #F4F4F4",
"+ 	c #F4F4F6",
"@ 	c #F5F5F7",
"# 	c #F5F5F5",
"$ 	c #F4F2F3",
"% 	c #F3F1F2",
"& 	c #F3F3F3",
"* 	c #CACFD3",
"= 	c #040005",
"- 	c #F9F9FB",
"; 	c #F8F9FB",
"> 	c #F7F7F9",
", 	c #FAFAFC",
"' 	c #F6F6F6",
") 	c #F8F8F8",
"! 	c #FAFAFA",
"~ 	c #F9F9F9",
"{ 	c #F8F6FB",
"] 	c #FBF9FC",
"^ 	c #F8F6F9",
"/ 	c #EBECF0",
"( 	c #EDEEF2",
"_ 	c #E9EAEE",
": 	c #ECEDEF",
"< 	c #EEEEEE",
"[ 	c #ECECEC",
"} 	c #EBEBEB",
"| 	c #EEEFF1",
"1 	c #EAEBED",
"2 	c #E8E9EB",
"3 	c #EBECEE",
"4 	c #D4D7DC",
"5 	c #D3D6DB",
"6 	c #CDD0D5",
"7 	c #C2C5CA",
"8 	c #B3B7BA",
"9 	c #ABACB0",
"0 	c #A4A5A7",
"a 	c #A3A4A6",
"b 	c #AFB0B2",
"c 	c #C4C8CB",
"d 	c #CCD0D3",
"e 	c #D2D6D9",
"f 	c #D6DADD",
"g 	c #D9DCE1",
"h 	c #C9CED2",
"i 	c #BDC0C5",
"j 	c #BCBFC4",
"k 	c #96999E",
"l 	c #636268",
"m 	c #313439",
"n 	c #030D0E",
"o 	c #040E0F",
"p 	c #2F3336",
"q 	c #626167",
"r 	c #9C9BA1",
"s 	c #B9B9C1",
"t 	c #C2C7CB",
"u 	c #C8CDD1",
"v 	c #C2C9D1",
"w 	c #B7BEC6",
"x 	c #B8BFC7",
"y 	c #B9C0C8",
"z 	c #B1B8C0",
"A 	c #ADB2B6",
"B 	c #7D8085",
"C 	c #38393D",
"D 	c #333738",
"E 	c #818382",
"F 	c #B9B9B9",
"G 	c #C0C0C0",
"H 	c #888A89",
"I 	c #424848",
"J 	c #2E3638",
"K 	c #7D8788",
"L 	c #A7AEB4",
"M 	c #B3B8BE",
"N 	c #BDC4CC",
"O 	c #BEC5CD",
"P 	c #B4BBC3",
"Q 	c #989DA1",
"R 	c #3A3B3F",
"S 	c #39393B",
"T 	c #918E89",
"U 	c #A89A99",
"V 	c #C2A9AC",
"W 	c #C5ABAE",
"X 	c #BCAEAD",
"Y 	c #9E9D99",
"Z 	c #424844",
"` 	c #343D3A",
" .	c #959CA2",
"..	c #B7BCC2",
"+.	c #BCC3CB",
"@.	c #BEC7CE",
"#.	c #BCC5CC",
"$.	c #ABB4BB",
"%.	c #AAB3BA",
"&.	c #9EA7AE",
"*.	c #585B60",
"=.	c #161618",
"-.	c #5F5B5A",
";.	c #8D7875",
">.	c #B69898",
",.	c #CBA4A7",
"'.	c #CFA6AA",
").	c #BA9A9B",
"!.	c #9D8988",
"~.	c #776F6D",
"{.	c #1D1C18",
"].	c #555C62",
"^.	c #A2A7AD",
"/.	c #AEB5BD",
"(.	c #ACB5BC",
"_.	c #B4BDC4",
":.	c #B2BBC2",
"<.	c #B3BCC3",
"[.	c #A7B0B7",
"}.	c #323337",
"|.	c #1F1D1E",
"1.	c #534E4B",
"2.	c #9D7B7C",
"3.	c #DDC3C2",
"4.	c #FFEDEA",
"5.	c #FFE7E6",
"6.	c #E8C8CB",
"7.	c #A38489",
"8.	c #695658",
"9.	c #2F2B2A",
"0.	c #2F3438",
"a.	c #ABB0B6",
"b.	c #B0B9C0",
"c.	c #B5BEC5",
"d.	c #A3ACB3",
"e.	c #A1AAB1",
"f.	c #A2ABB2",
"g.	c #98A1A8",
"h.	c #06070B",
"i.	c #181413",
"j.	c #4A423F",
"k.	c #A68387",
"l.	c #FCF1ED",
"m.	c #F7FFF4",
"n.	c #FFFFF8",
"o.	c #FDE7E9",
"p.	c #AA8990",
"q.	c #5D4A4E",
"r.	c #232323",
"s.	c #02070B",
"t.	c #989DA3",
"u.	c #A1A8B0",
"v.	c #A0A9B0",
"w.	c #ABB4BD",
"x.	c #AAB3BC",
"y.	c #A9B2BB",
"z.	c #A5AEB7",
"A.	c #080403",
"B.	c #38302D",
"C.	c #9E757B",
"D.	c #FFEEEC",
"E.	c #FCFFF6",
"F.	c #FDFDF5",
"G.	c #FFECEE",
"H.	c #997A80",
"I.	c #48383B",
"J.	c #0C100F",
"K.	c #03080C",
"L.	c #A7ACB2",
"M.	c #A9B2B9",
"N.	c #969FA8",
"O.	c #939CA5",
"P.	c #959EA7",
"Q.	c #97A0A9",
"R.	c #242529",
"S.	c #17120E",
"T.	c #7C585C",
"U.	c #DABDBF",
"V.	c #FEE9E8",
"W.	c #FFEAEB",
"X.	c #DFBFC4",
"Y.	c #83666B",
"Z.	c #2A1B1E",
"`.	c #040404",
" +	c #1F272A",
".+	c #959AA0",
"++	c #969DA5",
"@+	c #97A0A7",
"#+	c #939CA3",
"$+	c #A0A9B2",
"%+	c #A2ABB4",
"&+	c #9FA8B1",
"*+	c #A7B0B9",
"=+	c #565A5D",
"-+	c #000000",
";+	c #282423",
">+	c #523E3D",
",+	c #836668",
"'+	c #AA8388",
")+	c #AC8389",
"!+	c #8D6D72",
"~+	c #564345",
"{+	c #302A2A",
"]+	c #0D0D0B",
"^+	c #525A5D",
"/+	c #ADB2B8",
"(+	c #A0A7AF",
"_+	c #8B949B",
":+	c #889198",
"<+	c #8C959C",
"[+	c #888B90",
"}+	c #26272B",
"|+	c #222224",
"1+	c #474641",
"2+	c #635856",
"3+	c #7B6265",
"4+	c #7B6164",
"5+	c #6A5A5A",
"6+	c #5A5653",
"7+	c #2A2F2B",
"8+	c #212725",
"9+	c #858C92",
"0+	c #9EA2AB",
"a+	c #899098",
"b+	c #8A939A",
"c+	c #98A1AA",
"d+	c #9AA3AC",
"e+	c #99A2AB",
"f+	c #B2B7BD",
"g+	c #7E8186",
"h+	c #24272C",
"i+	c #313534",
"j+	c #626461",
"k+	c #737270",
"l+	c #787775",
"m+	c #6F6E6C",
"n+	c #3D3D3D",
"o+	c #252628",
"p+	c #7A7E7F",
"q+	c #ADB6BD",
"r+	c #9EA5AD",
"s+	c #9AA1AB",
"t+	c #9CA5AE",
"u+	c #96A0A9",
"v+	c #818A93",
"w+	c #838C95",
"x+	c #828B94",
"y+	c #848D96",
"z+	c #9299A1",
"A+	c #AAB1B9",
"B+	c #91989E",
"C+	c #4B4A50",
"D+	c #111619",
"E+	c #000304",
"F+	c #010A09",
"G+	c #15161A",
"H+	c #4B494E",
"I+	c #9A979E",
"J+	c #B0ADB6",
"K+	c #929BA2",
"L+	c #818892",
"M+	c #868F98",
"N+	c #848E97",
"O+	c #7E8891",
"P+	c #929BA4",
"Q+	c #949DA6",
"R+	c #939AA4",
"S+	c #AEB5BB",
"T+	c #BFC7CA",
"U+	c #CBD0D4",
"V+	c #CFD4D8",
"W+	c #C1C6CA",
"X+	c #9CA3AB",
"Y+	c #969DA7",
"Z+	c #8A949D",
"`+	c #97A1AA",
" @	c #7C838D",
".@	c #7D848E",
"+@	c #7D8592",
"@@	c #78808B",
"#@	c #7F8690",
"$@	c #7C838B",
"%@	c #80878F",
"&@	c #7B828C",
"*@	c #7E858B",
"=@	c #7F868E",
"-@	c #79828B",
";@	c #7E8790",
">@	c #78818A",
",@	c #798289",
"'@	c #8C939B",
")@	c #8D949C",
"!@	c #8B919F",
"~@	c #8D93A1",
"{@	c #8B939E",
"]@	c #8B949D",
"^@	c #8A939C",
"/@	c #88919A",
"(@	c #89919C",
"_@	c #8D95A0",
":@	c #8C9399",
"<@	c #8F969E",
"[@	c #8B929C",
"}@	c #8C939D",
"|@	c #8B929A",
"1@	c #8B9298",
"2@	c #676E74",
"3@	c #686F75",
"4@	c #69707A",
"5@	c #666D75",
"6@	c #687176",
"7@	c #677077",
"8@	c #656E75",
"9@	c #697078",
"0@	c #636A72",
"a@	c #6B727C",
"b@	c #656C74",
"c@	c #6D717A",
"d@	c #696E74",
"e@	c #696E72",
"f@	c #626A6D",
"g@	c #61696C",
"h@	c #5F676A",
"i@	c #61696B",
"j@	c #626A6C",
"k@	c #616B6D",
"l@	c #5F696B",
"m@	c #61686E",
"n@	c #626971",
"o@	c #616870",
"p@	c #636770",
"q@	c #62676D",
"r@	c #63686C",
". . . . . + @ . . # # $ % & * = = = = = = ",
"- - - - - ; > , - ' ) ! ~ > { ] ^ * = = = ",
"/ / / / / ( _ / : : < [ } | 1 2 3 3 * = = ",
"4 4 4 4 4 5 6 7 8 9 0 a b 8 c d e f g = = ",
"h h h h h i j k l m n o p q r s t u v = = ",
"w x y x z A B C D E F G H I J K L M z = = ",
"N N O N P Q R S T U V W X Y Z `  ...+.@.#.",
"$.%.$.%.&.*.=.-.;.>.,.'.).!.~.{.].^./.%.(.",
"_.:._.<.[.}.|.1.2.3.4.5.6.7.8.9.0.a.P b.c.",
"d.e.f.f.g.h.i.j.k.l.m.n.o.p.q.r.s.t.u.f.v.",
"w.x.y.y.z.h.A.B.C.D.E.F.G.H.I.J.K.L./.M.%.",
"N.N.O.P.Q.R.A.S.T.U.V.W.X.Y.Z.`. +.+++@+#+",
"$+%+&+%+*+=+-+;+>+,+'+)+!+~+{+]+^+/+(+v.f.",
"_+_+:+<+@+[+}+|+1+2+3+4+5+6+7+8+9+0+a+b+_+",
"c+d+c+e+$+f+g+h+i+j+k+l+m+n+o+p+q+r+s+t+u+",
"v+w+x+v+y+z+A+B+C+D+E+F+G+H+I+J+K+L+M+N+O+",
"P+Q+Q+P+P+R+r+S+T+U+V+V+h W+M X+Y+Q+O.Z+`+",
" @.@.@ @ @+@@@#@ @$@%@&@ @*@$@=@-@;@>@x+,@",
"'@'@'@)@)@!@~@{@]@^@/@(@_@:@'@<@[@}@|@'@1@",
"2@2@2@2@3@4@5@5@2@2@6@7@8@3@9@0@a@b@c@d@e@",
"f@f@g@f@f@h@f@i@j@j@i@k@l@m@n@o@o@p@q@r@r@"};
