/* XPM */
static char * focus_xpm[] = {
"21 21 328 2",
"  	c #F4F4F4",
". 	c #F4F4F6",
"+ 	c #F5F5F7",
"@ 	c #F5F5F5",
"# 	c #F4F2F3",
"$ 	c #F3F1F2",
"% 	c #F3F3F3",
"& 	c #F2F2F2",
"* 	c #F9F9FB",
"= 	c #F8F9FB",
"- 	c #F7F7F9",
"; 	c #FAFAFC",
"> 	c #F6F6F6",
", 	c #F8F8F8",
"' 	c #FAFAFA",
") 	c #F9F9F9",
"! 	c #F8F8FA",
"~ 	c #FBFBFD",
"{ 	c #FCFCFE",
"] 	c #EBECF0",
"^ 	c #EDEEF2",
"/ 	c #E9EAEE",
"( 	c #ECEDEF",
"_ 	c #EEEEEE",
": 	c #ECECEC",
"< 	c #EBEBEB",
"[ 	c #EEEFF1",
"} 	c #EAEBED",
"| 	c #E8E9EB",
"1 	c #EBECEE",
"2 	c #E9EAEC",
"3 	c #D4D7DC",
"4 	c #D3D6DB",
"5 	c #CDD0D5",
"6 	c #C2C5CA",
"7 	c #B3B7BA",
"8 	c #ABACB0",
"9 	c #A4A5A7",
"0 	c #A3A4A6",
"a 	c #AFB0B2",
"b 	c #C4C8CB",
"c 	c #CCD0D3",
"d 	c #D2D6D9",
"e 	c #D6DADD",
"f 	c #D5D9DC",
"g 	c #D4D8DB",
"h 	c #C9CED2",
"i 	c #C0C5CB",
"j 	c #B4B9BF",
"k 	c #8E9196",
"l 	c #55585D",
"m 	c #262A2D",
"n 	c #090D10",
"o 	c #090D0E",
"p 	c #262A2B",
"q 	c #52575B",
"r 	c #8B9094",
"s 	c #B2B7BB",
"t 	c #C0C5C9",
"u 	c #C8CDD1",
"v 	c #B7BEC6",
"w 	c #B8BFC7",
"x 	c #B9C0C8",
"y 	c #B1B8C0",
"z 	c #A9AEB2",
"A 	c #74787B",
"B 	c #2F3032",
"C 	c #3A3A3A",
"D 	c #7A7A7A",
"E 	c #B8B8B8",
"F 	c #BFBFBF",
"G 	c #888888",
"H 	c #444442",
"I 	c #2E2E2E",
"J 	c #75767A",
"K 	c #ABAEB3",
"L 	c #B3B8BE",
"M 	c #B6BFC6",
"N 	c #B7C0C7",
"O 	c #BDC4CC",
"P 	c #BEC5CD",
"Q 	c #B4BBC3",
"R 	c #91969A",
"S 	c #2C3033",
"T 	c #333436",
"U 	c #878787",
"V 	c #A2A2A2",
"W 	c #ACACAC",
"X 	c #B1B1B1",
"Y 	c #B0B0B0",
"Z 	c #9E9E9C",
"` 	c #474747",
" .	c #2F3034",
"..	c #B7BCC2",
"+.	c #BCC3CB",
"@.	c #BEC7CE",
"#.	c #BCC5CC",
"$.	c #ABB4BB",
"%.	c #AAB3BA",
"&.	c #9EA7AE",
"*.	c #505559",
"=.	c #121619",
"-.	c #595A5C",
";.	c #6E6E6E",
">.	c #7F7F7F",
",.	c #909090",
"'.	c #8F8F8F",
").	c #8B8B8B",
"!.	c #838381",
"~.	c #6B6B6B",
"{.	c #212226",
"].	c #4D5055",
"^.	c #A2A7AD",
"/.	c #AEB5BD",
"(.	c #ACB5BC",
"_.	c #B4BDC4",
":.	c #B2BBC2",
"<.	c #B3BCC3",
"[.	c #A7B0B7",
"}.	c #272B2E",
"|.	c #1B1C1E",
"1.	c #3E3F41",
"2.	c #505050",
"3.	c #5F5F5F",
"4.	c #6D6D6D",
"5.	c #696A6C",
"6.	c #5D5D5B",
"7.	c #565656",
"8.	c #27282C",
"9.	c #282B30",
"0.	c #ABB0B6",
"a.	c #B0B9C0",
"b.	c #B5BEC5",
"c.	c #A3ACB3",
"d.	c #A1AAB1",
"e.	c #A2ABB2",
"f.	c #98A1A8",
"g.	c #090A0C",
"h.	c #141517",
"i.	c #252525",
"j.	c #393939",
"k.	c #42413F",
"l.	c #484848",
"m.	c #4E4E4E",
"n.	c #464749",
"o.	c #40403E",
"p.	c #313131",
"q.	c #232428",
"r.	c #06090E",
"s.	c #989DA3",
"t.	c #A1A8B0",
"u.	c #A0A9B0",
"v.	c #ABB4BD",
"w.	c #AAB3BC",
"x.	c #A9B2BB",
"y.	c #A5AEB7",
"z.	c #07080A",
"A.	c #030303",
"B.	c #161616",
"C.	c #1A1917",
"D.	c #272624",
"E.	c #292929",
"F.	c #2A2A2A",
"G.	c #2A2B2D",
"H.	c #282826",
"I.	c #1D1D1D",
"J.	c #0B0C10",
"K.	c #080B10",
"L.	c #A7ACB2",
"M.	c #A9B2B9",
"N.	c #969FA8",
"O.	c #939CA5",
"P.	c #959EA7",
"Q.	c #97A0A9",
"R.	c #242424",
"S.	c #000000",
"T.	c #010000",
"U.	c #131210",
"V.	c #232220",
"W.	c #2D2D2D",
"X.	c #2C2D2F",
"Y.	c #1D1D1B",
"Z.	c #000105",
"`.	c #1E2126",
" +	c #959AA0",
".+	c #969DA5",
"++	c #97A0A7",
"@+	c #939CA3",
"#+	c #A0A9B2",
"$+	c #A2ABB4",
"%+	c #9FA8B1",
"&+	c #A7B0B9",
"*+	c #1B1A18",
"=+	c #252422",
"-+	c #343331",
";+	c #373737",
">+	c #3F4042",
",+	c #37383A",
"'+	c #323230",
")+	c #232323",
"!+	c #0D0E12",
"~+	c #494C51",
"{+	c #ADB2B8",
"]+	c #A0A7AF",
"^+	c #8B949B",
"/+	c #889198",
"(+	c #8C959C",
"_+	c #898C93",
":+	c #25262B",
"<+	c #454547",
"[+	c #4D4D4D",
"}+	c #5C5A5B",
"|+	c #5A5859",
"1+	c #575556",
"2+	c #4F4E4C",
"3+	c #1F2024",
"4+	c #84878C",
"5+	c #9EA2AB",
"6+	c #899098",
"7+	c #8A939A",
"8+	c #98A1AA",
"9+	c #9AA3AC",
"0+	c #99A2AB",
"a+	c #B5B8BD",
"b+	c #797C81",
"c+	c #202425",
"d+	c #323433",
"e+	c #636562",
"f+	c #6D6D6B",
"g+	c #777775",
"h+	c #686868",
"i+	c #3E3E3E",
"j+	c #232426",
"k+	c #7C7D82",
"l+	c #BABDC4",
"m+	c #9EA5AD",
"n+	c #9AA1AB",
"o+	c #9CA5AE",
"p+	c #96A0A9",
"q+	c #818A93",
"r+	c #838C95",
"s+	c #828B94",
"t+	c #848D96",
"u+	c #91969C",
"v+	c #AFB4B8",
"w+	c #94999C",
"x+	c #45494A",
"y+	c #131716",
"z+	c #020605",
"A+	c #020403",
"B+	c #151618",
"C+	c #464A4D",
"D+	c #93979A",
"E+	c #A8ADB3",
"F+	c #92969F",
"G+	c #818892",
"H+	c #868F98",
"I+	c #848E97",
"J+	c #7E8891",
"K+	c #929BA4",
"L+	c #949DA6",
"M+	c #939AA4",
"N+	c #AEB5BB",
"O+	c #BFC7CA",
"P+	c #CBD0D4",
"Q+	c #CFD4D8",
"R+	c #C1C6CA",
"S+	c #9CA3AB",
"T+	c #969DA7",
"U+	c #8A949D",
"V+	c #97A1AA",
"W+	c #7C838D",
"X+	c #7D848E",
"Y+	c #7D8592",
"Z+	c #78808B",
"`+	c #7F8690",
" @	c #7C838B",
".@	c #80878F",
"+@	c #7B828C",
"@@	c #7E858B",
"#@	c #7F868E",
"$@	c #79828B",
"%@	c #7E8790",
"&@	c #78818A",
"*@	c #798289",
"=@	c #8C939B",
"-@	c #8D949C",
";@	c #8B919F",
">@	c #8D93A1",
",@	c #8B939E",
"'@	c #8B949D",
")@	c #8A939C",
"!@	c #88919A",
"~@	c #89919C",
"{@	c #8D95A0",
"]@	c #8C9399",
"^@	c #8F969E",
"/@	c #8B929C",
"(@	c #8C939D",
"_@	c #8B929A",
":@	c #8B9298",
"<@	c #676E74",
"[@	c #686F75",
"}@	c #69707A",
"|@	c #666D75",
"1@	c #687176",
"2@	c #677077",
"3@	c #656E75",
"4@	c #697078",
"5@	c #636A72",
"6@	c #6B727C",
"7@	c #656C74",
"8@	c #6D717A",
"9@	c #696E74",
"0@	c #696E72",
"a@	c #626A6D",
"b@	c #61696C",
"c@	c #5F676A",
"d@	c #61696B",
"e@	c #626A6C",
"f@	c #616B6D",
"g@	c #5F696B",
"h@	c #61686E",
"i@	c #626971",
"j@	c #616870",
"k@	c #636770",
"l@	c #62676D",
"m@	c #63686C",
"          . +     @ @ # $ %     & %       ",
"* * * * * = - ; * > , ' ) - ! ~ { * * ~ * ",
"] ] ] ] ] ^ / ] ( ( _ : < [ } | 1 1 2 ( } ",
"3 3 3 3 3 4 5 6 7 8 9 0 a 7 b c d e e f g ",
"h h h h h i j k l m n o p q r s t u h u h ",
"v w x w y z A B C D E F G H I J K L w M N ",
"O O P O Q R S T U V W X Y Z `  .k ..+.@.#.",
"$.%.$.%.&.*.=.-.;.>.,.'.).!.~.{.].^./.%.(.",
"_.:._.<.[.}.|.1.2.3.4.4.5.6.7.8.9.0.Q a.b.",
"c.d.e.e.f.g.h.i.j.k.l.m.n.o.p.q.r.s.t.e.u.",
"v.w.x.x.y.z.A.B.C.D.E.F.G.H.I.J.K.L./.M.%.",
"N.N.O.P.Q.R.S.T.U.V.W.X.G.Y.B.Z.`. +.+++@+",
"#+$+%+$+&+m.A.*+=+-+;+>+,+'+)+!+~+{+]+u.e.",
"^+^+/+(+++_+:+{.<+[+}+|+1+2+p.3+4+5+6+7+^+",
"8+9+8+0+#+a+b+c+d+e+f+g+h+i+j+k+l+m+n+o+p+",
"q+r+s+q+t+u+v+w+x+y+z+A+B+C+D+E+F+G+H+I+J+",
"K+L+L+K+K+M+m+N+O+P+Q+Q+h R+L S+T+L+O.U+V+",
"W+X+X+W+W+Y+Z+`+W+ @.@+@W+@@ @#@$@%@&@s+*@",
"=@=@=@-@-@;@>@,@'@)@!@~@{@]@=@^@/@(@_@=@:@",
"<@<@<@<@[@}@|@|@<@<@1@2@3@[@4@5@6@7@8@9@0@",
"a@a@b@a@a@c@a@d@e@e@d@f@g@h@i@j@j@k@l@m@m@"};
