/* XPM */
static char * focusp_xpm[] = {
"21 21 336 2",
"  	c None",
". 	c #F4F4F4",
"+ 	c #F4F4F6",
"@ 	c #F5F5F7",
"# 	c #F5F5F5",
"$ 	c #F4F2F3",
"% 	c #F3F1F2",
"& 	c #F3F3F3",
"* 	c #F2F2F2",
"= 	c #F9F9FB",
"- 	c #F8F9FB",
"; 	c #F7F7F9",
"> 	c #FAFAFC",
", 	c #F6F6F6",
"' 	c #F8F8F8",
") 	c #FAFAFA",
"! 	c #F9F9F9",
"~ 	c #F8F8FA",
"{ 	c #FBFBFD",
"] 	c #FCFCFE",
"^ 	c #EBECF0",
"/ 	c #EDEEF2",
"( 	c #E9EAEE",
"_ 	c #ECEDEF",
": 	c #EEEEEE",
"< 	c #ECECEC",
"[ 	c #EBEBEB",
"} 	c #EEEFF1",
"| 	c #EAEBED",
"1 	c #E8E9EB",
"2 	c #EBECEE",
"3 	c #E9EAEC",
"4 	c #D4D7DC",
"5 	c #D5D6DA",
"6 	c #CDD1D4",
"7 	c #C6C9CE",
"8 	c #C0BDC4",
"9 	c #B2B3B7",
"0 	c #ABB0B3",
"a 	c #A9ADAE",
"b 	c #B7B8BA",
"c 	c #BCBABF",
"d 	c #CDCAD1",
"e 	c #CFCED4",
"f 	c #D3D7DA",
"g 	c #D6DADD",
"h 	c #D5D9DC",
"i 	c #D4D8DB",
"j 	c #C9CED2",
"k 	c #BDC0C5",
"l 	c #BCBFC4",
"m 	c #96999E",
"n 	c #636268",
"o 	c #313439",
"p 	c #030D0E",
"q 	c #040E0F",
"r 	c #2F3336",
"s 	c #626167",
"t 	c #9C9BA1",
"u 	c #B9B9C1",
"v 	c #C2C7CB",
"w 	c #C8CDD1",
"x 	c #B7BEC6",
"y 	c #B8BFC7",
"z 	c #B9C0C8",
"A 	c #B1B8C0",
"B 	c #ADB2B6",
"C 	c #7D8085",
"D 	c #38393D",
"E 	c #333738",
"F 	c #818382",
"G 	c #B9B9B9",
"H 	c #C0C0C0",
"I 	c #888A89",
"J 	c #424848",
"K 	c #2E3638",
"L 	c #7D8788",
"M 	c #A7AEB4",
"N 	c #B3B8BE",
"O 	c #B6BFC6",
"P 	c #B7C0C7",
"Q 	c #BDC4CC",
"R 	c #BEC5CD",
"S 	c #B4BBC3",
"T 	c #989DA1",
"U 	c #3A3B3F",
"V 	c #39393B",
"W 	c #918E89",
"X 	c #A89A99",
"Y 	c #C2A9AC",
"Z 	c #C5ABAE",
"` 	c #BCAEAD",
" .	c #9E9D99",
"..	c #424844",
"+.	c #343D3A",
"@.	c #959CA2",
"#.	c #B7BCC2",
"$.	c #BCC3CB",
"%.	c #BEC7CE",
"&.	c #BCC5CC",
"*.	c #ABB4BB",
"=.	c #AAB3BA",
"-.	c #9EA7AE",
";.	c #585B60",
">.	c #161618",
",.	c #5F5B5A",
"'.	c #8D7875",
").	c #B69898",
"!.	c #CBA4A7",
"~.	c #CFA6AA",
"{.	c #BA9A9B",
"].	c #9D8988",
"^.	c #776F6D",
"/.	c #1D1C18",
"(.	c #555C62",
"_.	c #A2A7AD",
":.	c #AEB5BD",
"<.	c #ACB5BC",
"[.	c #B4BDC4",
"}.	c #B2BBC2",
"|.	c #B3BCC3",
"1.	c #A7B0B7",
"2.	c #323337",
"3.	c #1F1D1E",
"4.	c #534E4B",
"5.	c #9D7B7C",
"6.	c #DDC3C2",
"7.	c #FFEDEA",
"8.	c #FFE7E6",
"9.	c #E8C8CB",
"0.	c #A38489",
"a.	c #695658",
"b.	c #2F2B2A",
"c.	c #2F3438",
"d.	c #ABB0B6",
"e.	c #B0B9C0",
"f.	c #B5BEC5",
"g.	c #A3ACB3",
"h.	c #A1AAB1",
"i.	c #A2ABB2",
"j.	c #98A1A8",
"k.	c #06070B",
"l.	c #181413",
"m.	c #4A423F",
"n.	c #A68387",
"o.	c #FCF1ED",
"p.	c #F7FFF4",
"q.	c #FFFFF8",
"r.	c #FDE7E9",
"s.	c #AA8990",
"t.	c #5D4A4E",
"u.	c #232323",
"v.	c #02070B",
"w.	c #989DA3",
"x.	c #A1A8B0",
"y.	c #A0A9B0",
"z.	c #ABB4BD",
"A.	c #AAB3BC",
"B.	c #A9B2BB",
"C.	c #A5AEB7",
"D.	c #080403",
"E.	c #38302D",
"F.	c #9E757B",
"G.	c #FFEEEC",
"H.	c #FCFFF6",
"I.	c #FDFDF5",
"J.	c #FFECEE",
"K.	c #997A80",
"L.	c #48383B",
"M.	c #0C100F",
"N.	c #03080C",
"O.	c #A7ACB2",
"P.	c #A9B2B9",
"Q.	c #969FA8",
"R.	c #939CA5",
"S.	c #959EA7",
"T.	c #97A0A9",
"U.	c #242529",
"V.	c #17120E",
"W.	c #7C585C",
"X.	c #DABDBF",
"Y.	c #FEE9E8",
"Z.	c #FFEAEB",
"`.	c #DFBFC4",
" +	c #83666B",
".+	c #2A1B1E",
"++	c #040404",
"@+	c #1F272A",
"#+	c #959AA0",
"$+	c #969DA5",
"%+	c #97A0A7",
"&+	c #939CA3",
"*+	c #A0A9B2",
"=+	c #A2ABB4",
"-+	c #9FA8B1",
";+	c #A7B0B9",
">+	c #565A5D",
",+	c #000000",
"'+	c #282423",
")+	c #523E3D",
"!+	c #836668",
"~+	c #AA8388",
"{+	c #AC8389",
"]+	c #8D6D72",
"^+	c #564345",
"/+	c #302A2A",
"(+	c #0D0D0B",
"_+	c #525A5D",
":+	c #ADB2B8",
"<+	c #A0A7AF",
"[+	c #8B949B",
"}+	c #889198",
"|+	c #8C959C",
"1+	c #888B90",
"2+	c #26272B",
"3+	c #222224",
"4+	c #474641",
"5+	c #635856",
"6+	c #7B6265",
"7+	c #7B6164",
"8+	c #6A5A5A",
"9+	c #5A5653",
"0+	c #2A2F2B",
"a+	c #212725",
"b+	c #858C92",
"c+	c #9EA2AB",
"d+	c #899098",
"e+	c #8A939A",
"f+	c #98A1AA",
"g+	c #9AA3AC",
"h+	c #99A2AB",
"i+	c #B2B7BD",
"j+	c #7E8186",
"k+	c #24272C",
"l+	c #313534",
"m+	c #626461",
"n+	c #737270",
"o+	c #787775",
"p+	c #6F6E6C",
"q+	c #3D3D3D",
"r+	c #252628",
"s+	c #7A7E7F",
"t+	c #ADB6BD",
"u+	c #9EA5AD",
"v+	c #9AA1AB",
"w+	c #9CA5AE",
"x+	c #96A0A9",
"y+	c #818A93",
"z+	c #838C95",
"A+	c #828B94",
"B+	c #848D96",
"C+	c #9299A1",
"D+	c #AAB1B9",
"E+	c #91989E",
"F+	c #4B4A50",
"G+	c #111619",
"H+	c #000304",
"I+	c #010A09",
"J+	c #15161A",
"K+	c #4B494E",
"L+	c #9A979E",
"M+	c #B0ADB6",
"N+	c #929BA2",
"O+	c #818892",
"P+	c #868F98",
"Q+	c #848E97",
"R+	c #7E8891",
"S+	c #929BA4",
"T+	c #949DA6",
"U+	c #959EA5",
"V+	c #B1B3BF",
"W+	c #C3CCD3",
"X+	c #C0C9CE",
"Y+	c #B6BBC1",
"Z+	c #B3B6BF",
"`+	c #9FA1AD",
" @	c #989CA7",
".@	c #8A949D",
"+@	c #97A1AA",
"@@	c #7C838D",
"#@	c #7D848E",
"$@	c #7D8592",
"%@	c #78808B",
"&@	c #7F8690",
"*@	c #7C838B",
"=@	c #80878F",
"-@	c #7B828C",
";@	c #7E858B",
">@	c #7F868E",
",@	c #79828B",
"'@	c #7E8790",
")@	c #78818A",
"!@	c #798289",
"~@	c #8C939B",
"{@	c #8D949C",
"]@	c #8B919F",
"^@	c #8D93A1",
"/@	c #8B939E",
"(@	c #8B949D",
"_@	c #8A939C",
":@	c #88919A",
"<@	c #89919C",
"[@	c #8D95A0",
"}@	c #8C9399",
"|@	c #8F969E",
"1@	c #8B929C",
"2@	c #8C939D",
"3@	c #8B929A",
"4@	c #8B9298",
"5@	c #676E74",
"6@	c #686F75",
"7@	c #69707A",
"8@	c #666D75",
"9@	c #687176",
"0@	c #677077",
"a@	c #656E75",
"b@	c #697078",
"c@	c #636A72",
"d@	c #6B727C",
"e@	c #656C74",
"f@	c #6D717A",
"g@	c #696E74",
"h@	c #696E72",
"i@	c #626A6D",
"j@	c #61696C",
"k@	c #5F676A",
"l@	c #61696B",
"m@	c #626A6C",
"n@	c #616B6D",
"o@	c #5F696B",
"p@	c #61686E",
"q@	c #626971",
"r@	c #616870",
"s@	c #636770",
"t@	c #62676D",
"u@	c #63686C",
". . . . . + @ . . # # $ % & . . * & . . . ",
"= = = = = - ; > = , ' ) ! ; ~ { ] = = { = ",
"^ ^ ^ ^ ^ / ( ^ _ _ : < [ } | 1 2 2 3 _ | ",
"4 4 4 4 4 5 6 7 8 9 0 a b c d e f g g h i ",
"j j j j j k l m n o p q r s t u v w j w j ",
"x y z y A B C D E F G H I J K L M N y O P ",
"Q Q R Q S T U V W X Y Z `  ...+.@.#.$.%.&.",
"*.=.*.=.-.;.>.,.'.).!.~.{.].^./.(._.:.=.<.",
"[.}.[.|.1.2.3.4.5.6.7.8.9.0.a.b.c.d.S e.f.",
"g.h.i.i.j.k.l.m.n.o.p.q.r.s.t.u.v.w.x.i.y.",
"z.A.B.B.C.k.D.E.F.G.H.I.J.K.L.M.N.O.:.P.=.",
"Q.Q.R.S.T.U.D.V.W.X.Y.Z.`. +.+++@+#+$+%+&+",
"*+=+-+=+;+>+,+'+)+!+~+{+]+^+/+(+_+:+<+y.i.",
"[+[+}+|+%+1+2+3+4+5+6+7+8+9+0+a+b+c+d+e+[+",
"f+g+f+h+*+i+j+k+l+m+n+o+p+q+r+s+t+u+v+w+x+",
"y+z+A+y+B+C+D+E+F+G+H+I+J+K+L+M+N+O+P+Q+R+",
"S+T+T+S+S+U+T+w+V+y W+X+Y+Z+`+ @S.T+R..@+@",
"@@#@#@@@@@$@%@&@@@*@=@-@@@;@*@>@,@'@)@A+!@",
"~@~@~@{@{@]@^@/@(@_@:@<@[@}@~@|@1@2@3@~@4@",
"5@5@5@5@6@7@8@8@5@5@9@0@a@6@b@c@d@e@f@g@h@",
"i@i@j@i@i@k@i@l@m@m@l@n@o@p@q@r@r@s@t@u@u@"};
