/* XPM */
static char * menu_xpm[] = {
"1 21 15 1",
" 	c #FEFFFD",
".	c #DDDBDE",
"+	c #B7B7B7",
"@	c #000000",
"#	c #050505",
"$	c #111111",
"%	c #161616",
"&	c #282828",
"*	c #2D2D2D",
"=	c #454545",
"-	c #606060",
";	c #5C5C5C",
">	c #7B7B7B",
",	c #707070",
"'	c #424242",
" ",
".",
"+",
"@",
"@",
"@",
"@",
"@",
"@",
"#",
"$",
"%",
"&",
"*",
"=",
"=",
"-",
";",
">",
",",
"'"};
