/* XPM */
static char * stick_xpm[] = {
"21 21 203 2",
"  	c None",
". 	c #040005",
"+ 	c #C2C9D0",
"@ 	c #F3F3F3",
"# 	c #F4F4F4",
"$ 	c #CACFD3",
"% 	c #F9F9FB",
"& 	c #F8F9FB",
"* 	c #FBFBFD",
"= 	c #C0C4C9",
"- 	c #EBECF0",
"; 	c #EDEEF2",
"> 	c #EBECEE",
", 	c #E9EAEC",
"' 	c #ECEDEF",
") 	c #EAEBED",
"! 	c #D4D7DC",
"~ 	c #D3D6DB",
"{ 	c #D6DADD",
"] 	c #D5D9DC",
"^ 	c #D4D8DB",
"/ 	c #C9CED2",
"( 	c #C0C5CB",
"_ 	c #C8CDD1",
": 	c #B1B8C0",
"< 	c #AAB1B7",
"[ 	c #989FA5",
"} 	c #939AA0",
"| 	c #90959B",
"1 	c #8F9498",
"2 	c #8E9397",
"3 	c #91969A",
"4 	c #979CA0",
"5 	c #B6BFC6",
"6 	c #B7C0C7",
"7 	c #BDC4CC",
"8 	c #AEB3B7",
"9 	c #7B7E83",
"0 	c #45494C",
"a 	c #0F1314",
"b 	c #000002",
"c 	c #010204",
"d 	c #050608",
"e 	c #040507",
"f 	c #101415",
"g 	c #444849",
"h 	c #7B7F82",
"i 	c #BEC7CE",
"j 	c #BCC5CC",
"k 	c #ABB4BB",
"l 	c #787C7F",
"m 	c #37383A",
"n 	c #616161",
"o 	c #868686",
"p 	c #9F9F9D",
"q 	c #A4A5A7",
"r 	c #AAABAD",
"s 	c #A9AAAC",
"t 	c #868684",
"u 	c #5F6160",
"v 	c #AAB3BA",
"w 	c #ACB5BC",
"x 	c #B4BDC4",
"y 	c #4C4F54",
"z 	c #35393C",
"A 	c #5F6062",
"B 	c #696969",
"C 	c #828280",
"D 	c #A7ABAE",
"E 	c #B6BABD",
"F 	c #BDC1C4",
"G 	c #C1C5C8",
"H 	c #818380",
"I 	c #686A67",
"J 	c #5D5F5E",
"K 	c #35393A",
"L 	c #4B5054",
"M 	c #B0B9C0",
"N 	c #B5BEC5",
"O 	c #A3ACB3",
"P 	c #0F161C",
"Q 	c #1E2327",
"R 	c #282C2F",
"S 	c #3D3E40",
"T 	c #848685",
"U 	c #E9F0F6",
"V 	c #F4FBFF",
"W 	c #F3FAFF",
"X 	c #F1F8FE",
"Y 	c #828685",
"Z 	c #3B3F3E",
"` 	c #262C2C",
" .	c #1E2326",
"..	c #A2ABB2",
"+.	c #A0A9B0",
"@.	c #ABB4BD",
"#.	c #18191D",
"$.	c #010005",
"%.	c #040406",
"&.	c #1E201F",
"*.	c #6C6E6D",
"=.	c #EAF1F7",
"-.	c #F2F9FF",
";.	c #6C6E6B",
">.	c #20201E",
",.	c #050505",
"'.	c #17181D",
").	c #A9B2B9",
"!.	c #969FA8",
"~.	c #494C51",
"{.	c #111216",
"].	c #1B1C1E",
"^.	c #2C2E2D",
"/.	c #505251",
"(.	c #818689",
"_.	c #999EA1",
":.	c #A3A8AB",
"<.	c #A4A9AC",
"[.	c #50524F",
"}.	c #2D2F2E",
"|.	c #1D1D1F",
"1.	c #111015",
"2.	c #494A4F",
"3.	c #97A0A7",
"4.	c #939CA3",
"5.	c #A0A9B2",
"6.	c #878C92",
"7.	c #34383B",
"8.	c #323335",
"9.	c #424443",
"0.	c #535756",
"a.	c #616564",
"b.	c #6B6F6E",
"c.	c #6C706F",
"d.	c #555756",
"e.	c #424345",
"f.	c #35363A",
"g.	c #878A8F",
"h.	c #8B949B",
"i.	c #ACB1B7",
"j.	c #888D91",
"k.	c #4D5154",
"l.	c #171B1C",
"m.	c #000403",
"n.	c #030504",
"o.	c #020403",
"p.	c #010302",
"q.	c #070908",
"r.	c #000306",
"s.	c #171B1E",
"t.	c #4D5055",
"u.	c #888B90",
"v.	c #8A939A",
"w.	c #98A1AA",
"x.	c #A1AAB1",
"y.	c #B7BEC4",
"z.	c #C6CBCF",
"A.	c #CCD1D4",
"B.	c #D2D6D9",
"C.	c #D6D9DE",
"D.	c #CFD2D9",
"E.	c #C7CCD2",
"F.	c #B8BFC5",
"G.	c #A3AAB2",
"H.	c #9CA5AE",
"I.	c #96A0A9",
"J.	c #818A93",
"K.	c #838C95",
"L.	c #828B94",
"M.	c #7E8891",
"N.	c #848E97",
"O.	c #868F98",
"P.	c #929BA4",
"Q.	c #949DA6",
"R.	c #939AA4",
"S.	c #939CA5",
"T.	c #8A949D",
"U.	c #97A1AA",
"V.	c #7C838D",
"W.	c #7D848E",
"X.	c #7D8592",
"Y.	c #7E8790",
"Z.	c #78818A",
"`.	c #798289",
" +	c #8C939B",
".+	c #8D949C",
"++	c #8B919F",
"@+	c #8C939D",
"#+	c #8B929A",
"$+	c #8B9298",
"%+	c #676E74",
"&+	c #686F75",
"*+	c #69707A",
"=+	c #656C74",
"-+	c #6D717A",
";+	c #696E74",
">+	c #696E72",
",+	c #626A6D",
"'+	c #61696C",
")+	c #5F676A",
"!+	c #636770",
"~+	c #62676D",
"{+	c #63686C",
". . . . . + @ # # # # # # # # # # # # # # ",
". . $ % % & % % * % % * % * % % * % % * % ",
". = - - - ; > , ' ) ) ' ) ' ) , ' ) , ' ) ",
". ! ! ! ! ~ { { ] ^ ^ ] ^ ] ^ { ] ^ { ] ^ ",
". / / / / ( _ / _ / / _ / _ / / _ / / _ / ",
"+ : < [ } | 1 1 2 2 2 2 1 1 3 4 [ < : 5 6 ",
"7 8 9 0 a b c d e d d e d c b f g h 8 i j ",
"k l m n o p q r s s s s r q p t u m l v w ",
"x y z A B C D E F G G F E D H I J K L M N ",
"O P Q R S T U V W X X W V U Y Z `  .P ..+.",
"@.#.$.%.&.*.=.W -.V V -.W =.;.>.,.b '.).v ",
"!.~.{.].^./.(._.:.<.<.:._.(.[.}.|.1.2.3.4.",
"5.6.7.8.9.0.a.b.c.b.b.c.b.a.d.e.8.f.g.+...",
"h.i.j.k.l.m.n.o.p.q.q.p.o.n.r.s.t.u.i.v.h.",
"w.x.y.z.A.B.! C.! ~ ~ ! C.! ! D.E.F.G.H.I.",
"J.K.L.M.M.N.M.N.M.O.N.M.M.N.M.O.N.M.O.N.M.",
"P.Q.Q.P.P.R.Q.S.T.U.U.T.U.T.U.S.T.U.S.T.U.",
"V.W.W.V.V.X.Y.Z.L.`.`.L.`.L.`.Z.L.`.Z.L.`.",
" + + +.+.+++@+#+ +$+$+ +$+ +$+#+ +$+#+ +$+",
"%+%+%+%+&+*+=+-+;+>+>+;+>+;+>+-+;+>+-+;+>+",
",+,+'+,+,+)+!+~+{+{+{+{+{+{+{+~+{+{+~+{+{+"};
