/* XPM */
static char * stuck_xpm[] = {
"21 21 213 2",
"  	c None",
". 	c #040005",
"+ 	c #C2C9D0",
"@ 	c #F3F3F3",
"# 	c #F4F4F4",
"$ 	c #CACFD3",
"% 	c #F9F9FB",
"& 	c #F8F9FB",
"* 	c #FBFBFD",
"= 	c #C0C4C9",
"- 	c #EBECF0",
"; 	c #EDEEF2",
"> 	c #EBECEE",
", 	c #E9EAEC",
"' 	c #ECEDEF",
") 	c #EAEBED",
"! 	c #D4D7DC",
"~ 	c #D3D6DB",
"{ 	c #D6DADD",
"] 	c #D5D9DC",
"^ 	c #D4D8DB",
"/ 	c #C9CED2",
"( 	c #C0C5CB",
"_ 	c #C8CDD1",
": 	c #B1B8C0",
"< 	c #AAB1B7",
"[ 	c #989FA5",
"} 	c #939AA0",
"| 	c #90959B",
"1 	c #8F9498",
"2 	c #8E9397",
"3 	c #91969A",
"4 	c #979CA0",
"5 	c #B6BFC6",
"6 	c #B7C0C7",
"7 	c #BDC4CC",
"8 	c #AEB3B7",
"9 	c #7B7E83",
"0 	c #45494C",
"a 	c #0F1314",
"b 	c #000002",
"c 	c #010204",
"d 	c #050608",
"e 	c #040507",
"f 	c #101415",
"g 	c #444849",
"h 	c #7B7F82",
"i 	c #BEC7CE",
"j 	c #BCC5CC",
"k 	c #ABB4BB",
"l 	c #787C7F",
"m 	c #37383A",
"n 	c #616161",
"o 	c #868686",
"p 	c #9F9F9D",
"q 	c #A4A5A7",
"r 	c #AAABAD",
"s 	c #A9AAAC",
"t 	c #868684",
"u 	c #5F6160",
"v 	c #AAB3BA",
"w 	c #ACB5BC",
"x 	c #B4BDC4",
"y 	c #4C4F54",
"z 	c #35393C",
"A 	c #5F6062",
"B 	c #696969",
"C 	c #828280",
"D 	c #A7ABAE",
"E 	c #9D7B7C",
"F 	c #DDC3C2",
"G 	c #FFEDEA",
"H 	c #FFE7E6",
"I 	c #E8C8CB",
"J 	c #A38489",
"K 	c #818380",
"L 	c #686A67",
"M 	c #5D5F5E",
"N 	c #35393A",
"O 	c #4B5054",
"P 	c #B0B9C0",
"Q 	c #B5BEC5",
"R 	c #A3ACB3",
"S 	c #0F161C",
"T 	c #1E2327",
"U 	c #282C2F",
"V 	c #3D3E40",
"W 	c #848685",
"X 	c #4A423F",
"Y 	c #A68387",
"Z 	c #FCF1ED",
"` 	c #F7FFF4",
" .	c #FFFFF8",
"..	c #FDE7E9",
"+.	c #AA8990",
"@.	c #5D4A4E",
"#.	c #828685",
"$.	c #3B3F3E",
"%.	c #262C2C",
"&.	c #1E2326",
"*.	c #A2ABB2",
"=.	c #A0A9B0",
"-.	c #ABB4BD",
";.	c #18191D",
">.	c #010005",
",.	c #040406",
"'.	c #1E201F",
").	c #6C6E6D",
"!.	c #38302D",
"~.	c #9E757B",
"{.	c #FFEEEC",
"].	c #FCFFF6",
"^.	c #FDFDF5",
"/.	c #FFECEE",
"(.	c #997A80",
"_.	c #48383B",
":.	c #6C6E6B",
"<.	c #20201E",
"[.	c #050505",
"}.	c #17181D",
"|.	c #A9B2B9",
"1.	c #969FA8",
"2.	c #494C51",
"3.	c #111216",
"4.	c #1B1C1E",
"5.	c #2C2E2D",
"6.	c #505251",
"7.	c #818689",
"8.	c #50524F",
"9.	c #2D2F2E",
"0.	c #1D1D1F",
"a.	c #111015",
"b.	c #494A4F",
"c.	c #97A0A7",
"d.	c #939CA3",
"e.	c #A0A9B2",
"f.	c #878C92",
"g.	c #34383B",
"h.	c #323335",
"i.	c #424443",
"j.	c #535756",
"k.	c #616564",
"l.	c #6B6F6E",
"m.	c #6C706F",
"n.	c #555756",
"o.	c #424345",
"p.	c #35363A",
"q.	c #878A8F",
"r.	c #8B949B",
"s.	c #ACB1B7",
"t.	c #888D91",
"u.	c #4D5154",
"v.	c #171B1C",
"w.	c #000403",
"x.	c #030504",
"y.	c #020403",
"z.	c #010302",
"A.	c #070908",
"B.	c #000306",
"C.	c #171B1E",
"D.	c #4D5055",
"E.	c #888B90",
"F.	c #8A939A",
"G.	c #98A1AA",
"H.	c #A1AAB1",
"I.	c #B7BEC4",
"J.	c #C6CBCF",
"K.	c #CCD1D4",
"L.	c #D2D6D9",
"M.	c #D6D9DE",
"N.	c #CFD2D9",
"O.	c #C7CCD2",
"P.	c #B8BFC5",
"Q.	c #A3AAB2",
"R.	c #9CA5AE",
"S.	c #96A0A9",
"T.	c #818A93",
"U.	c #838C95",
"V.	c #828B94",
"W.	c #7E8891",
"X.	c #848E97",
"Y.	c #868F98",
"Z.	c #929BA4",
"`.	c #949DA6",
" +	c #939AA4",
".+	c #939CA5",
"++	c #8A949D",
"@+	c #97A1AA",
"#+	c #7C838D",
"$+	c #7D848E",
"%+	c #7D8592",
"&+	c #7E8790",
"*+	c #78818A",
"=+	c #798289",
"-+	c #8C939B",
";+	c #8D949C",
">+	c #8B919F",
",+	c #8C939D",
"'+	c #8B929A",
")+	c #8B9298",
"!+	c #676E74",
"~+	c #686F75",
"{+	c #69707A",
"]+	c #656C74",
"^+	c #6D717A",
"/+	c #696E74",
"(+	c #696E72",
"_+	c #626A6D",
":+	c #61696C",
"<+	c #5F676A",
"[+	c #636770",
"}+	c #62676D",
"|+	c #63686C",
". . . . . + @ # # # # # # # # # # # # # # ",
". . $ % % & % % * % % * % * % % * % % * % ",
". = - - - ; > , ' ) ) ' ) ' ) , ' ) , ' ) ",
". ! ! ! ! ~ { { ] ^ ^ ] ^ ] ^ { ] ^ { ] ^ ",
". / / / / ( _ / _ / / _ / _ / / _ / / _ / ",
"+ : < [ } | 1 1 2 2 2 2 1 1 3 4 [ < : 5 6 ",
"7 8 9 0 a b c d e d d e d c b f g h 8 i j ",
"k l m n o p q r s s s s r q p t u m l v w ",
"x y z A B C D E F G H I J D K L M N O P Q ",
"R S T U V W X Y Z `  ...+.@.#.$.%.&.S *.=.",
"-.;.>.,.'.).!.~.{.].^./.(._.:.<.[.b }.|.v ",
"1.2.3.4.5.6.7.E F G H I J 7.8.9.0.a.b.c.d.",
"e.f.g.h.i.j.k.l.m.l.l.m.l.k.n.o.h.p.q.=.*.",
"r.s.t.u.v.w.x.y.z.A.A.z.y.x.B.C.D.E.s.F.r.",
"G.H.I.J.K.L.! M.! ~ ~ ! M.! ! N.O.P.Q.R.S.",
"T.U.V.W.W.X.W.X.W.Y.X.W.W.X.W.Y.X.W.Y.X.W.",
"Z.`.`.Z.Z. +`..+++@+@+++@+++@+.+++@+.+++@+",
"#+$+$+#+#+%+&+*+V.=+=+V.=+V.=+*+V.=+*+V.=+",
"-+-+-+;+;+>+,+'+-+)+)+-+)+-+)+'+-+)+'+-+)+",
"!+!+!+!+~+{+]+^+/+(+(+/+(+/+(+^+/+(+^+/+(+",
"_+_+:+_+_+<+[+}+|+|+|+|+|+|+|+}+|+|+}+|+|+"};
