/* XPM */
static char * wtitleu_xpm[] = {
"1 21 20 1",
" 	c #F4F2F3",
".	c #F8F9FB",
"+	c #EEEFF1",
"@	c #D6DADD",
"#	c #C7CCD0",
"$	c #B5BCC2",
"%	c #BCC5CC",
"&	c #ACB5BC",
"*	c #A2A9AF",
"=	c #ADB6BF",
"-	c #939CA5",
";	c #A4ADB6",
">	c #89929B",
",	c #959EA7",
"'	c #818994",
")	c #939BA6",
"!	c #7B838E",
"~	c #8B949B",
"{	c #676E74",
"]	c #5A5F63",
" ",
".",
"+",
"@",
"#",
"$",
"%",
"&",
"$",
"*",
"=",
"-",
";",
">",
",",
"'",
")",
"!",
"~",
"{",
"]"};
