/* XPM */
static char *fluxbox[] = {
/* columns rows colors chars-per-pixel */
"16 16 74 1 ",
"  c None",
". c #352C27",
"X c #3E3A30",
"o c #4A412E",
"O c #454132",
"+ c #474739",
"@ c #494839",
"# c #5C5E3F",
"$ c #505A42",
"% c #545C49",
"& c #5C6544",
"* c #5C6B4B",
"= c #5E6C4B",
"- c #5A6650",
"; c #5C6650",
": c #626340",
"> c #606945",
", c #6D6E42",
"< c #687046",
"1 c #61704B",
"2 c #747C4A",
"3 c #677D54",
"4 c #687D54",
"5 c #7C884F",
"6 c #738D5D",
"7 c #74905D",
"8 c #808347",
"9 c #96A35A",
"0 c #9AA75A",
"q c #ABAA53",
"w c #ACAD55",
"e c #B3B058",
"r c #B2B25C",
"t c #80A064",
"y c #81A166",
"u c #9BAC60",
"i c #9FB368",
"p c #A4B468",
"a c #AAB76A",
"s c #BDB861",
"d c #C4B75C",
"f c #C7BE65",
"g c #CDC169",
"h c #D5C267",
"j c #D0C26A",
"k c #C9C270",
"l c #D5C770",
"z c #DFCB73",
"x c #DFCE7F",
"c c #E2CC74",
"v c #E6CE76",
"b c #E6CF7A",
"n c #E1CE7C",
"m c #E3CF7D",
"M c #E8D07F",
"N c #EBD380",
"B c #EAD381",
"V c #EED481",
"C c #ECD483",
"Z c #EFD583",
"A c #F0D583",
"S c #F0D685",
"D c #F1D686",
"F c #F2D686",
"G c #F4D889",
"H c #F6D88B",
"J c #F8D98C",
"K c #F8DA8D",
"L c #F9DA8F",
"P c #F9DB8F",
"I c #FADB8F",
"U c #FADB91",
"Y c #FBDB91",
"T c #FCDE93",
/* pixels */
" -------------- ",
"-yyyyyyyyyyyyy7%",
"-y6666666666647%",
"-y633339lDKKHNmw",
"-y631fKTYNr<*47%",
"-y60KTYAzCKKKHme",
"-yuYTTYTYvq>*47%",
"-yKTTTYdoX+$*47%",
"-aTTTC#..O,$*47%",
"-pTTK&XXXh8$*47%",
";xYCj@+:cD+$*47%",
"-iYKDCKYK2$$*47%",
"-yk5gMbs=****47%",
"-y4444444444447%",
"-77777777777777%",
" %%%%%%%%%%%%%% "
};
