<?xml version="1.0" encoding="UTF-8" standalone="no"?>
<!DOCTYPE svg PUBLIC "-//W3C//DTD SVG 1.1//EN" "http://www.w3.org/Graphics/SVG/1.1/DTD/svg11.dtd">
<svg width="100%" height="100%" viewBox="0 0 720 720" version="1.1" xmlns="http://www.w3.org/2000/svg" xmlns:xlink="http://www.w3.org/1999/xlink" xml:space="preserve" xmlns:serif="http://www.serif.com/" style="fill-rule:evenodd;clip-rule:evenodd;stroke-linejoin:round;stroke-miterlimit:2;">
    <g transform="matrix(0.427011,-9.48705e-17,9.48155e-17,0.427011,-279.39,-463.112)">
        <circle cx="1498.03" cy="1928.39" r="829.793" style="fill:#fad560;"/>
    </g>
    <g transform="matrix(1,0,0,1,-2551.27,-449.463)">
        <g transform="matrix(541.667,0,0,541.667,2727.33,969.463)">
            <path d="M0.68,-0.548L0.57,-0.063C0.558,-0.011 0.541,0.032 0.519,0.067C0.496,0.101 0.47,0.129 0.438,0.149C0.405,0.171 0.37,0.185 0.332,0.194C0.294,0.202 0.251,0.207 0.204,0.207C0.164,0.207 0.126,0.204 0.09,0.199C0.054,0.195 0.024,0.189 -0.001,0.183L0.026,0.048L0.047,0.048C0.074,0.059 0.102,0.067 0.129,0.073C0.157,0.079 0.182,0.083 0.203,0.083C0.234,0.083 0.261,0.08 0.284,0.074C0.306,0.068 0.324,0.06 0.337,0.049C0.351,0.038 0.363,0.024 0.371,0.007C0.379,-0.009 0.386,-0.03 0.391,-0.054L0.394,-0.064C0.368,-0.047 0.343,-0.033 0.318,-0.023C0.293,-0.013 0.264,-0.008 0.233,-0.008C0.171,-0.008 0.123,-0.023 0.089,-0.054C0.054,-0.085 0.037,-0.132 0.037,-0.194C0.037,-0.302 0.067,-0.391 0.128,-0.46C0.189,-0.529 0.263,-0.563 0.35,-0.563C0.381,-0.563 0.409,-0.56 0.435,-0.552C0.46,-0.545 0.481,-0.535 0.497,-0.524L0.509,-0.548L0.68,-0.548ZM0.474,-0.421C0.465,-0.426 0.452,-0.43 0.437,-0.433C0.421,-0.437 0.408,-0.439 0.396,-0.439C0.344,-0.439 0.301,-0.419 0.27,-0.38C0.238,-0.34 0.222,-0.29 0.222,-0.228C0.222,-0.2 0.229,-0.178 0.242,-0.163C0.256,-0.147 0.28,-0.139 0.316,-0.139C0.333,-0.139 0.351,-0.142 0.368,-0.149C0.386,-0.156 0.403,-0.164 0.418,-0.173L0.474,-0.421Z" style="fill-rule:nonzero;"/>
        </g>
    </g>
</svg>
