/* XPM */
static char * button_xpm[] = {
"16 16 12 1",
" 	c None",
".	c #FFFFFF",
"+	c #FDFDFD",
"@	c #C9C9C9",
"#	c #F8F8F8",
"$	c #FBFBFB",
"%	c #F2F2F2",
"&	c #ECECEC",
"*	c #F5F5F5",
"=	c #E6E6E6",
"-	c #E3E3E3",
";	c #F1F1F1",
"................",
"................",
"++++@@@@@@@+++++",
"###@$$$$$$$@####",
"%%@#########@.%%",
"&&@*********@.&&",
"==@%%%%%%%%%@.==",
"--@;;;;;;;;;@.--",
"==@%%%%%%%%%@.==",
"&&@*********@.&&",
"%%@#########@.%%",
"##.@$$$$$$$@.###",
"+++.@@@@@@@.++++",
"................",
"................",
"................"};
