/* XPM */
static char * button2_xpm[] = {
"16 16 15 1",
" 	c None",
".	c #FFFFFF",
"+	c #FDFDFD",
"@	c #A8A8A8",
"#	c #F8F8F8",
"$	c #F1F1F1",
"%	c #F2F2F2",
"&	c #EDEDED",
"*	c #F5F5F5",
"=	c #ECECEC",
"-	c #E8E8E8",
";	c #E6E6E6",
">	c #E4E4E4",
",	c #E3E3E3",
"'	c #E2E2E2",
"................",
"................",
"++++@@@@@@@+++++",
"###@$$$$$$$@####",
"%%@&&&&&**&&@.%%",
"==@------$$-@.==",
";;@>>>>>>>&>@.;;",
",,@'''''''''@.,,",
";;@>>>>>>>>>@.;;",
"==@---------@.==",
"%%@&&&&&&&&&@.%%",
"##.@$$$$$$$@.###",
"+++.@@@@@@@.++++",
"................",
"................",
"................"};
