/* XPM */
static char * none_xpm[] = {
"16 16 8 1",
" 	c None",
".	c #FFFFFF",
"+	c #FEFEFE",
"@	c #FBFBFB",
"#	c #F8F8F8",
"$	c #F5F5F5",
"%	c #F1F1F1",
"&	c #F0F0F0",
"................",
"................",
"++++++++++++++++",
"@@@@@@@@@@@@@@@@",
"################",
"$$$$$$$$$$$$$$$$",
"%%%%%%%%%%%%%%%%",
"&&&&&&&&&&&&&&&&",
"%%%%%%%%%%%%%%%%",
"$$$$$$$$$$$$$$$$",
"################",
"@@@@@@@@@@@@@@@@",
"++++++++++++++++",
"................",
"................",
"................"};
