/* XPM */
static char * b_unfocus_xpm[] = {
"19 21 118 2",
"  	c #FDFDFD",
". 	c #FBFBFB",
"+ 	c #FCFCFC",
"@ 	c #BEBEBE",
"# 	c #BFBFBF",
"$ 	c #C0C0C0",
"% 	c #BBBBBB",
"& 	c #9F9F9F",
"* 	c #898989",
"= 	c #7E7E7E",
"- 	c #7C7C7C",
"; 	c #878787",
"> 	c #9B9B9B",
", 	c #B9B9B9",
"' 	c #C2C2C2",
") 	c #C3C3C3",
"! 	c #989898",
"~ 	c #707070",
"{ 	c #797979",
"] 	c #A1A1A1",
"^ 	c #AEAEAE",
"/ 	c #ADADAD",
"( 	c #999999",
"_ 	c #6F6F6F",
": 	c #646464",
"< 	c #969696",
"[ 	c #C1C1C1",
"} 	c #C7C7C7",
"| 	c #838383",
"1 	c #757575",
"2 	c #C4C4C4",
"3 	c #FEFEFE",
"4 	c #BDBDBD",
"5 	c #626262",
"6 	c #828282",
"7 	c #C6C6C6",
"8 	c #CBCBCB",
"9 	c #919191",
"0 	c #E4E4E4",
"a 	c #E3E3E3",
"b 	c #696969",
"c 	c #8F8F8F",
"d 	c #CCCCCC",
"e 	c #D0D0D0",
"f 	c #B7B7B7",
"g 	c #6E6E6E",
"h 	c #F4F4F4",
"i 	c #F3F3F3",
"j 	c #F5F5F5",
"k 	c #555555",
"l 	c #D3D3D3",
"m 	c #D2D2D2",
"n 	c #8C8C8C",
"o 	c #9C9C9C",
"p 	c #E7E7E7",
"q 	c #E6E6E6",
"r 	c #888888",
"s 	c #818181",
"t 	c #D6D6D6",
"u 	c #D8D8D8",
"v 	c #6A6A6A",
"w 	c #D7D7D7",
"x 	c #A9A9A9",
"y 	c #939393",
"z 	c #545454",
"A 	c #DCDCDC",
"B 	c #767676",
"C 	c #CACACA",
"D 	c #C5C5C5",
"E 	c #AFAFAF",
"F 	c #9D9D9D",
"G 	c #484848",
"H 	c #E0E0E0",
"I 	c #737373",
"J 	c #BCBCBC",
"K 	c #9E9E9E",
"L 	c #575757",
"M 	c #E0E0DE",
"N 	c #ABABAB",
"O 	c #A3A3A3",
"P 	c #A0A0A0",
"Q 	c #454545",
"R 	c #E4E4E2",
"S 	c #616161",
"T 	c #A4A4A4",
"U 	c #A2A2A2",
"V 	c #929292",
"W 	c #565656",
"X 	c #E8E8E8",
"Y 	c #ECECEC",
"Z 	c #A7A7A7",
"` 	c #A6A6A6",
" .	c #A8A8A8",
"..	c #686868",
"+.	c #F0F0F0",
"@.	c #606060",
"#.	c #B2B2B2",
"$.	c #B0B0B0",
"%.	c #B1B1B1",
"&.	c #4C4C4C",
"*.	c #EEEEEE",
"=.	c #F2F2F2",
"-.	c #B3B3B3",
";.	c #BABABA",
">.	c #F6F6F6",
",.	c #474747",
"'.	c #9A9A9A",
").	c #F7F7F7",
"!.	c #F8F8F8",
"~.	c #F9F9F9",
"{.	c #8B8B8B",
"].	c #7F7F7F",
"^.	c #535353",
"/.	c #FAFAFA",
"(.	c #D9D9D9",
"_.	c #E9E9E9",
":.	c #CDCDCD",
"<.	c #CECECE",
"  . .   +   + + . + . + + +   + + + + ",
"@ # $ # $ @ % & * = - ; > , @ $ # # @ ",
"' ) ) ) ' ! ~ { ] ^ / ( _ : < ) ' ) [ ",
"} } } [ | 1 2       3 +   4 5 6 } } 7 ",
"8 8 8 9 - 0   +     +   3   a b c 8 d ",
"e e f g e h h h i j h h i h i e k @ e ",
"l m n o p p q p p p p p p p p p r s l ",
"t u v 4 u u u u u u w u u m # x y z w ",
"A $ B ) C 8 8 C C 8 8 D E F o F o G A ",
"H [ I J J J J J J J E & F o K F F L M ",
"a 2 _ / / / / / N O & & & P K P K Q R ",
"p p S ] O T T O U U ] U U ] U U V W X ",
"Y Y n 6 Z Z Z `  .Z Z ` Z Z Z Z ..n Y ",
"+.+.8 @.Z #.$.#.%.%.%.%.%.%.%.o &.u *.",
"=.=.=.o b -.% % ;.% % % % % O G E =.i ",
">.>.h h V 5 ` 2 ) ) ) ) 2 V ,.'.j ).>.",
"!.!.).).~.' : : {.'.9 ].^.L C ).!.!.!.",
". . ~.+ . /.+ ' ] < & K (.+ ~.. + . . ",
"p X p p p q p p p X p X q p p p q X p ",
"X X _.X X X X X _.X X X X X X X X X X ",
"d :.d :.:.:.<.d :.:.:.:.:.d :.d :.:.:."};
