/* XPM */
static char * close_pressed_xpm[] = {
"19 21 122 2",
"  	c #FDFDFD",
". 	c #FBFBFB",
"+ 	c #FCFCFC",
"@ 	c #BEBEBE",
"# 	c #BFBFBF",
"$ 	c #C0C0C0",
"% 	c #BBBBBB",
"& 	c #9F9F9F",
"* 	c #898989",
"= 	c #7E7E7E",
"- 	c #7C7C7C",
"; 	c #878787",
"> 	c #9B9B9B",
", 	c #B9B9B9",
"' 	c #C2C2C2",
") 	c #C3C3C3",
"! 	c #989898",
"~ 	c #707070",
"{ 	c #797979",
"] 	c #A1A1A1",
"^ 	c #AEAEAE",
"/ 	c #ADADAD",
"( 	c #999999",
"_ 	c #6F6F6F",
": 	c #646464",
"< 	c #969696",
"[ 	c #C1C1C1",
"} 	c #C7C7C7",
"| 	c #838383",
"1 	c #757575",
"2 	c #C4C4C4",
"3 	c #FEFEFE",
"4 	c #BDBDBD",
"5 	c #626262",
"6 	c #828282",
"7 	c #C6C6C6",
"8 	c #CBCBCB",
"9 	c #919191",
"0 	c #E4E4E4",
"a 	c #E3E3E3",
"b 	c #696969",
"c 	c #8F8F8F",
"d 	c #CCCCCC",
"e 	c #D0D0D0",
"f 	c #B7B7B7",
"g 	c #6E6E6E",
"h 	c #F4F4F4",
"i 	c #F3F3F3",
"j 	c #F5F5F5",
"k 	c #555555",
"l 	c #D3D3D3",
"m 	c #D2D2D2",
"n 	c #8C8C8C",
"o 	c #9C9C9C",
"p 	c #E7E7E7",
"q 	c #888888",
"r 	c #818181",
"s 	c #D6D6D6",
"t 	c #D8D8D8",
"u 	c #6A6A6A",
"v 	c #DEDEDE",
"w 	c #B6B6B6",
"x 	c #D7D7D7",
"y 	c #D9D9D9",
"z 	c #A9A9A9",
"A 	c #939393",
"B 	c #545454",
"C 	c #DCDCDC",
"D 	c #767676",
"E 	c #CACACA",
"F 	c #AAAAAA",
"G 	c #ABABAB",
"H 	c #A6A6A6",
"I 	c #9D9D9D",
"J 	c #484848",
"K 	c #E0E0E0",
"L 	c #737373",
"M 	c #BCBCBC",
"N 	c #9E9E9E",
"O 	c #575757",
"P 	c #E0E0DE",
"Q 	c #909090",
"R 	c #868686",
"S 	c #A0A0A0",
"T 	c #454545",
"U 	c #E4E4E2",
"V 	c #616161",
"W 	c #A3A3A3",
"X 	c #A4A4A4",
"Y 	c #B0B0B0",
"Z 	c #AFAFAF",
"` 	c #A2A2A2",
" .	c #929292",
"..	c #565656",
"+.	c #E8E8E8",
"@.	c #ECECEC",
"#.	c #A7A7A7",
"$.	c #8B8B8B",
"%.	c #B5B5B5",
"&.	c #B3B3B3",
"*.	c #686868",
"=.	c #F0F0F0",
"-.	c #606060",
";.	c #B2B2B2",
">.	c #B1B1B1",
",.	c #4C4C4C",
"'.	c #EEEEEE",
").	c #F2F2F2",
"!.	c #BABABA",
"~.	c #F6F6F6",
"{.	c #474747",
"].	c #9A9A9A",
"^.	c #F7F7F7",
"/.	c #F8F8F8",
"(.	c #F9F9F9",
"_.	c #7F7F7F",
":.	c #535353",
"<.	c #FAFAFA",
"[.	c #E6E6E6",
"}.	c #E9E9E9",
"|.	c #CDCDCD",
"1.	c #CECECE",
"  . .   +   + + . + . + + +   + + + + ",
"@ # $ # $ @ % & * = - ; > , @ $ # # @ ",
"' ) ) ) ' ! ~ { ] ^ / ( _ : < ) ' ) [ ",
"} } } [ | 1 2       3 +   4 5 6 } } 7 ",
"8 8 8 9 - 0   +     +   3   a b c 8 d ",
"e e f g e h h h i j h h i h i e k @ e ",
"l m n o p p [ ' p p p p ' ' p p q r l ",
"s t u 4 t t v w w t x w w y # z A B x ",
"C $ D ) E 8 8 m F G G H % I o I o J C ",
"K [ L M M M M M 7 N A ^ I o N I I O P ",
"a 2 _ / / / / / Q * R R & S N S N T U ",
"p p V ] W X X * q Y Z q q ] ` `  ...+.",
"@.@.n 6 #.#.n $.%.#.#.&.n n #.#.*.n @.",
"=.=.8 -.#.;.Y @ >.>.>.>.4 >.>.o ,.t '.",
").).).o b &.% % !.% % % % % W J Z ).i ",
"~.~.h h  .5 H 2 ) ) ) ) 2  .{.].j ^.~.",
"/./.^.^.(.' : : $.].9 _.:.O E ^./././.",
". . (.+ . <.+ ' ] < & N y + (.. + . . ",
"p +.p p p [.p p p +.p +.[.p p p [.+.p ",
"+.+.}.+.+.+.+.+.}.+.+.+.+.+.+.+.+.+.+.",
"d |.d |.|.|.1.d |.|.|.|.|.d |.d |.|.|."};
