/* XPM */
static char * close_xpm[] = {
"19 21 129 2",
"  	c #FDFDFD",
". 	c #FBFBFB",
"+ 	c #FCFCFC",
"@ 	c #BEBEBE",
"# 	c #BFBFBF",
"$ 	c #C0C0C0",
"% 	c #BBBBBB",
"& 	c #9F9F9F",
"* 	c #898989",
"= 	c #7E7E7E",
"- 	c #7C7C7C",
"; 	c #878787",
"> 	c #9B9B9B",
", 	c #B9B9B9",
"' 	c #C2C2C2",
") 	c #C3C3C3",
"! 	c #989898",
"~ 	c #707070",
"{ 	c #797979",
"] 	c #A1A1A1",
"^ 	c #AEAEAE",
"/ 	c #ADADAD",
"( 	c #999999",
"_ 	c #6F6F6F",
": 	c #646464",
"< 	c #969696",
"[ 	c #C1C1C1",
"} 	c #C7C7C7",
"| 	c #838383",
"1 	c #757575",
"2 	c #C4C4C4",
"3 	c #FEFEFE",
"4 	c #BDBDBD",
"5 	c #626262",
"6 	c #828282",
"7 	c #C6C6C6",
"8 	c #CBCBCB",
"9 	c #919191",
"0 	c #E4E4E4",
"a 	c #E3E3E3",
"b 	c #696969",
"c 	c #8F8F8F",
"d 	c #CCCCCC",
"e 	c #D0D0D0",
"f 	c #B7B7B7",
"g 	c #6E6E6E",
"h 	c #F4F4F4",
"i 	c #F3F3F3",
"j 	c #F5F5F5",
"k 	c #555555",
"l 	c #D3D3D3",
"m 	c #D2D2D2",
"n 	c #8C8C8C",
"o 	c #9C9C9C",
"p 	c #E7E7E7",
"q 	c #7D7D7D",
"r 	c #888888",
"s 	c #818181",
"t 	c #D6D6D6",
"u 	c #D8D8D8",
"v 	c #6A6A6A",
"w 	c #E9E9E9",
"x 	c #747474",
"y 	c #D7D7D7",
"z 	c #E6E6E6",
"A 	c #A9A9A9",
"B 	c #939393",
"C 	c #545454",
"D 	c #DCDCDC",
"E 	c #767676",
"F 	c #CACACA",
"G 	c #E2E2E2",
"H 	c #6D6D6D",
"I 	c #9D9D9D",
"J 	c #484848",
"K 	c #E0E0E0",
"L 	c #737373",
"M 	c #BCBCBC",
"N 	c #DADADA",
"O 	c #656565",
"P 	c #5E5E5E",
"Q 	c #9E9E9E",
"R 	c #575757",
"S 	c #E0E0DE",
"T 	c #5C5C5C",
"U 	c #585858",
"V 	c #565656",
"W 	c #A0A0A0",
"X 	c #454545",
"Y 	c #E4E4E2",
"Z 	c #616161",
"` 	c #A3A3A3",
" .	c #A4A4A4",
"..	c #A2A2A2",
"+.	c #929292",
"@.	c #E8E8E8",
"#.	c #ECECEC",
"$.	c #A7A7A7",
"%.	c #5A5A5A",
"&.	c #595959",
"*.	c #CFCFCF",
"=.	c #CECECE",
"-.	c #686868",
";.	c #F0F0F0",
">.	c #606060",
",.	c #B2B2B2",
"'.	c #B0B0B0",
").	c #D5D5D5",
"!.	c #B1B1B1",
"~.	c #D4D4D4",
"{.	c #4C4C4C",
"].	c #EEEEEE",
"^.	c #F2F2F2",
"/.	c #B3B3B3",
"(.	c #BABABA",
"_.	c #AFAFAF",
":.	c #F6F6F6",
"<.	c #A6A6A6",
"[.	c #474747",
"}.	c #9A9A9A",
"|.	c #F7F7F7",
"1.	c #F8F8F8",
"2.	c #F9F9F9",
"3.	c #8B8B8B",
"4.	c #7F7F7F",
"5.	c #535353",
"6.	c #FAFAFA",
"7.	c #D9D9D9",
"8.	c #CDCDCD",
"  . .   +   + + . + . + + +   + + + + ",
"@ # $ # $ @ % & * = - ; > , @ $ # # @ ",
"' ) ) ) ' ! ~ { ] ^ / ( _ : < ) ' ) [ ",
"} } } [ | 1 2       3 +   4 5 6 } } 7 ",
"8 8 8 9 - 0   +     +   3   a b c 8 d ",
"e e f g e h h h i j h h i h i e k @ e ",
"l m n o p p - q p p p p q q p p r s l ",
"t u v 4 u u w x x u y x x z # A B C y ",
"D $ E ) F 8 8 G H H H v l I o I o J D ",
"K [ L M M M M M N O P 8 I o Q I I R S ",
"a 2 _ / / / / / T U V V & W Q W Q X Y ",
"p p Z ] `  . .U R d d R R ] ....+.V @.",
"#.#.n 6 $.$.%.&.*.$.$.=.%.%.$.$.-.n #.",
";.;.8 >.$.,.'.).!.!.!.!.~.!.!.o {.u ].",
"^.^.^.o b /.% % (.% % % % % ` J _.^.i ",
":.:.h h +.5 <.2 ) ) ) ) 2 +.[.}.j |.:.",
"1.1.|.|.2.' : : 3.}.9 4.5.R F |.1.1.1.",
". . 2.+ . 6.+ ' ] < & Q 7.+ 2.. + . . ",
"p @.p p p z p p p @.p @.z p p p z @.p ",
"@.@.w @.@.@.@.@.w @.@.@.@.@.@.@.@.@.@.",
"d 8.d 8.8.8.=.d 8.8.8.8.8.d 8.d 8.8.8."};
