/* XPM */
static char * icon_xpm[] = {
"19 21 107 2",
"  	c #FBFBFB",
". 	c #FDFDFD",
"+ 	c #FCFCFC",
"@ 	c #BFBFBF",
"# 	c #BEBEBE",
"$ 	c #BDBDBD",
"% 	c #AFAFAF",
"& 	c #A4A4A4",
"* 	c #9D9D9D",
"= 	c #9E9E9E",
"- 	c #A1A1A1",
"; 	c #ACACAC",
"> 	c #BCBCBC",
", 	c #C0C0C0",
"' 	c #C3C3C3",
") 	c #C2C2C2",
"! 	c #999999",
"~ 	c #9F9F9F",
"{ 	c #C6C6C6",
"] 	c #C7C7C7",
"^ 	c #B8B8B8",
"/ 	c #989898",
"( 	c #8D8D8D",
"_ 	c #A8A8A8",
": 	c #C4C4C4",
"< 	c #C8C8C8",
"[ 	c #C5C5C5",
"} 	c #A3A3A3",
"| 	c #D5D5D5",
"1 	c #FEFEFE",
"2 	c #D2D2D2",
"3 	c #CACACA",
"4 	c #CCCCCC",
"5 	c #ABABAB",
"6 	c #EDEDED",
"7 	c #EBEBEB",
"8 	c #949494",
"9 	c #A7A7A7",
"0 	c #CBCBCB",
"a 	c #D0D0D0",
"b 	c #979797",
"c 	c #DEDEDE",
"d 	c #F7F7F7",
"e 	c #F6F6F6",
"f 	c #F8F8F8",
"g 	c #DDDDDD",
"h 	c #838383",
"i 	c #D4D4D4",
"j 	c #D3D3D3",
"k 	c #A9A9A9",
"l 	c #BBBBBB",
"m 	c #EEEEEE",
"n 	c #D6D6D6",
"o 	c #D8D8D8",
"p 	c #939393",
"q 	c #E3E3E3",
"r 	c #E4E4E4",
"s 	c #E5E5E5",
"t 	c #E0E0E0",
"u 	c #B3B3B3",
"v 	c #818181",
"w 	c #DCDCDC",
"x 	c #DBDBDB",
"y 	c #DADADA",
"z 	c #BABABA",
"A 	c #787878",
"B 	c #E1E1E1",
"C 	c #9B9B9B",
"D 	c #D1D1D1",
"E 	c #C9C9C9",
"F 	c #858585",
"G 	c #CFCFCF",
"H 	c #969696",
"I 	c #747474",
"J 	c #E8E8E8",
"K 	c #8B8B8B",
"L 	c #C1C1C1",
"M 	c #B1B1B1",
"N 	c #ECECEC",
"O 	c #6D6D6D",
"P 	c #6E6E6E",
"Q 	c #929292",
"R 	c #EFEFEF",
"S 	c #F0F0F0",
"T 	c #8C8C8C",
"U 	c #DFDFDF",
"V 	c #F2F2F2",
"W 	c #F3F3F3",
"X 	c #F1F1F1",
"Y 	c #B6B6B6",
"Z 	c #F5F5F5",
"` 	c #ADADAD",
" .	c #D7D7D7",
"..	c #B4B4B4",
"+.	c #777777",
"@.	c #8F8F8F",
"#.	c #B9B9B9",
"$.	c #B2B2B2",
"%.	c #828282",
"&.	c #F9F9F9",
"*.	c #FAFAFA",
"=.	c #B7B7B7",
"-.	c #E6E6E6",
";.	c #E7E7E7",
">.	c #E9E9E9",
",.	c #CECECE",
"'.	c #CDCDCD",
"    . + + +   +   + + + . + . + + + + ",
"@ @ # @ # @ $ % & * = - ; > # @ @ , # ",
"' ' ' ' ) ; ! ~ # { ] ^ / ( _ ) : ' ' ",
"< { { [ } * | . + 1 + . . 2 ( = { ] ] ",
"3 3 4 5 - 6 . . . . 1 . . . 7 8 9 0 4 ",
"a a , b c d d e d d d f d d f g h { a ",
"i j k l m m m m m m m m m 6 m m ; * j ",
"n o p j q r r r s s r r r t j : u v o ",
"w 3 * n x x x x x x y o < l l z l A x ",
"B 0 C D D a D D D D E > l z l > l F t ",
"q G H ] ] ] ] ] : @ $ # $ $ $ > $ I r ",
"J J K $ , L , @ # $ # # # # $ # M v J ",
"N 7 k 9 ) ' O O O O P O O P L ) Q 9 7 ",
"R S | T L < t t B t t t t U 3 z A U S ",
"V W X Y 8 3 a a a a a a a G @ A L V V ",
"Z Z Z e ` T L n  .| | n | ..+.M d e Z ",
"f f f f f 2 ( @.; #.$.& %.%.n &.f d f ",
"*.*.          2 ^ M =.=.B + &.    +   ",
"-.J ;.-.;.;.;.-.;.-.J ;.;.-.J -.;.-.;.",
";.J J >.;.>.;.>.J >.;.J J J J >.J >.J ",
",.4 '.'.'.'.,.4 '.'.,.'.,.4 '.'.'.'.4 "};
