/* XPM */
static char * max_pressed_xpm[] = {
"19 21 108 2",
"  	c #FBFBFB",
". 	c #FDFDFD",
"+ 	c #FCFCFC",
"@ 	c #BFBFBF",
"# 	c #BEBEBE",
"$ 	c #BDBDBD",
"% 	c #AFAFAF",
"& 	c #A4A4A4",
"* 	c #9D9D9D",
"= 	c #9E9E9E",
"- 	c #A1A1A1",
"; 	c #ACACAC",
"> 	c #BCBCBC",
", 	c #C0C0C0",
"' 	c #C3C3C3",
") 	c #C2C2C2",
"! 	c #999999",
"~ 	c #9F9F9F",
"{ 	c #C6C6C6",
"] 	c #C7C7C7",
"^ 	c #B8B8B8",
"/ 	c #989898",
"( 	c #8D8D8D",
"_ 	c #A8A8A8",
": 	c #C4C4C4",
"< 	c #C8C8C8",
"[ 	c #C5C5C5",
"} 	c #A3A3A3",
"| 	c #D5D5D5",
"1 	c #FEFEFE",
"2 	c #D2D2D2",
"3 	c #CACACA",
"4 	c #CCCCCC",
"5 	c #ABABAB",
"6 	c #EDEDED",
"7 	c #EBEBEB",
"8 	c #949494",
"9 	c #A7A7A7",
"0 	c #CBCBCB",
"a 	c #D0D0D0",
"b 	c #979797",
"c 	c #DEDEDE",
"d 	c #F7F7F7",
"e 	c #F6F6F6",
"f 	c #F8F8F8",
"g 	c #DDDDDD",
"h 	c #838383",
"i 	c #D4D4D4",
"j 	c #D3D3D3",
"k 	c #A9A9A9",
"l 	c #BBBBBB",
"m 	c #EEEEEE",
"n 	c #CFCFCF",
"o 	c #D6D6D6",
"p 	c #D8D8D8",
"q 	c #939393",
"r 	c #E3E3E3",
"s 	c #E7E7E7",
"t 	c #E8E8E8",
"u 	c #B3B3B3",
"v 	c #818181",
"w 	c #DCDCDC",
"x 	c #DBDBDB",
"y 	c #DFDFDF",
"z 	c #DADADA",
"A 	c #787878",
"B 	c #E1E1E1",
"C 	c #9B9B9B",
"D 	c #D1D1D1",
"E 	c #B5B5B5",
"F 	c #C9C9C9",
"G 	c #BABABA",
"H 	c #858585",
"I 	c #E0E0E0",
"J 	c #969696",
"K 	c #AEAEAE",
"L 	c #CECECE",
"M 	c #A5A5A5",
"N 	c #747474",
"O 	c #E4E4E4",
"P 	c #8B8B8B",
"Q 	c #B1B1B1",
"R 	c #ECECEC",
"S 	c #AAAAAA",
"T 	c #929292",
"U 	c #EFEFEF",
"V 	c #F0F0F0",
"W 	c #8C8C8C",
"X 	c #C1C1C1",
"Y 	c #F2F2F2",
"Z 	c #F3F3F3",
"` 	c #F1F1F1",
" .	c #B6B6B6",
"..	c #F5F5F5",
"+.	c #ADADAD",
"@.	c #D7D7D7",
"#.	c #B4B4B4",
"$.	c #777777",
"%.	c #8F8F8F",
"&.	c #B9B9B9",
"*.	c #B2B2B2",
"=.	c #828282",
"-.	c #F9F9F9",
";.	c #FAFAFA",
">.	c #B7B7B7",
",.	c #E6E6E6",
"'.	c #E9E9E9",
").	c #CDCDCD",
"    . + + +   +   + + + . + . + + + + ",
"@ @ # @ # @ $ % & * = - ; > # @ @ , # ",
"' ' ' ' ) ; ! ~ # { ] ^ / ( _ ) : ' ' ",
"< { { [ } * | . + 1 + . . 2 ( = { ] ] ",
"3 3 4 5 - 6 . . . . 1 . . . 7 8 9 0 4 ",
"a a , b c d d e d d d f d d f g h { a ",
"i j k l m m a a a a a a a n m m ; * j ",
"o p q j r ] s s t t s s s r ^ 0 u v p ",
"w 3 * o x @ y x x x z p < l } ) l A x ",
"B 0 C D D E o D D D F > l G } : l H I ",
"r n J ] ] K L ] : @ $ # $ $ M : $ N O ",
"t t P $ , _ ] @ # $ # # # # M { Q v t ",
"R 7 k 9 ) ' k k k k S k k S < ) T 9 7 ",
"U V | W X < F n a n n n n L 3 G A y V ",
"Y Z `  .8 3 a a a a a a a n @ A X Y Y ",
"......e +.W X o @.| | o | #.$.Q d e ..",
"f f f f f 2 ( %.; &.*.& =.=.o -.f d f ",
";.;.          2 ^ Q >.>.B + -.    +   ",
",.t s ,.s s s ,.s ,.t s s ,.t ,.s ,.s ",
"s t t '.s '.s '.t '.s t t t t '.t '.t ",
"L 4 ).).).).L 4 ).).L ).L 4 ).).).).4 "};
