/* XPM */
static char * max_xpm[] = {
"19 21 116 2",
"  	c #FBFBFB",
". 	c #FDFDFD",
"+ 	c #FCFCFC",
"@ 	c #BFBFBF",
"# 	c #BEBEBE",
"$ 	c #BDBDBD",
"% 	c #AFAFAF",
"& 	c #A4A4A4",
"* 	c #9D9D9D",
"= 	c #9E9E9E",
"- 	c #A1A1A1",
"; 	c #ACACAC",
"> 	c #BCBCBC",
", 	c #C0C0C0",
"' 	c #C3C3C3",
") 	c #C2C2C2",
"! 	c #999999",
"~ 	c #9F9F9F",
"{ 	c #C6C6C6",
"] 	c #C7C7C7",
"^ 	c #B8B8B8",
"/ 	c #989898",
"( 	c #8D8D8D",
"_ 	c #A8A8A8",
": 	c #C4C4C4",
"< 	c #C8C8C8",
"[ 	c #C5C5C5",
"} 	c #A3A3A3",
"| 	c #D5D5D5",
"1 	c #FEFEFE",
"2 	c #D2D2D2",
"3 	c #CACACA",
"4 	c #CCCCCC",
"5 	c #ABABAB",
"6 	c #EDEDED",
"7 	c #EBEBEB",
"8 	c #949494",
"9 	c #A7A7A7",
"0 	c #CBCBCB",
"a 	c #D0D0D0",
"b 	c #979797",
"c 	c #DEDEDE",
"d 	c #F7F7F7",
"e 	c #F6F6F6",
"f 	c #F8F8F8",
"g 	c #DDDDDD",
"h 	c #838383",
"i 	c #D4D4D4",
"j 	c #D3D3D3",
"k 	c #A9A9A9",
"l 	c #BBBBBB",
"m 	c #EEEEEE",
"n 	c #7E7E7E",
"o 	c #808080",
"p 	c #D6D6D6",
"q 	c #D8D8D8",
"r 	c #939393",
"s 	c #E3E3E3",
"t 	c #797979",
"u 	c #E4E4E4",
"v 	c #E5E5E5",
"w 	c #E0E0E0",
"x 	c #707070",
"y 	c #B3B3B3",
"z 	c #818181",
"A 	c #DCDCDC",
"B 	c #DBDBDB",
"C 	c #747474",
"D 	c #DADADA",
"E 	c #636363",
"F 	c #BABABA",
"G 	c #787878",
"H 	c #E1E1E1",
"I 	c #9B9B9B",
"J 	c #D1D1D1",
"K 	c #6E6E6E",
"L 	c #C9C9C9",
"M 	c #858585",
"N 	c #CFCFCF",
"O 	c #969696",
"P 	c #6A6A6A",
"Q 	c #646464",
"R 	c #E8E8E8",
"S 	c #8B8B8B",
"T 	c #666666",
"U 	c #B1B1B1",
"V 	c #ECECEC",
"W 	c #676767",
"X 	c #686868",
"Y 	c #C1C1C1",
"Z 	c #929292",
"` 	c #EFEFEF",
" .	c #F0F0F0",
"..	c #8C8C8C",
"+.	c #DFDFDF",
"@.	c #F2F2F2",
"#.	c #F3F3F3",
"$.	c #F1F1F1",
"%.	c #B6B6B6",
"&.	c #F5F5F5",
"*.	c #ADADAD",
"=.	c #D7D7D7",
"-.	c #B4B4B4",
";.	c #777777",
">.	c #8F8F8F",
",.	c #B9B9B9",
"'.	c #B2B2B2",
").	c #828282",
"!.	c #F9F9F9",
"~.	c #FAFAFA",
"{.	c #B7B7B7",
"].	c #E6E6E6",
"^.	c #E7E7E7",
"/.	c #E9E9E9",
"(.	c #CECECE",
"_.	c #CDCDCD",
"    . + + +   +   + + + . + . + + + + ",
"@ @ # @ # @ $ % & * = - ; > # @ @ , # ",
"' ' ' ' ) ; ! ~ # { ] ^ / ( _ ) : ' ' ",
"< { { [ } * | . + 1 + . . 2 ( = { ] ] ",
"3 3 4 5 - 6 . . . . 1 . . . 7 8 9 0 4 ",
"a a , b c d d e d d d f d d f g h { a ",
"i j k l m m n n n n o n n n m m ; * j ",
"p q r j s t u u v v u u u w x : y z q ",
"A 3 * p B C B B B B D q < l E F l G B ",
"H 0 I J J K J J J J L > l F E > l M w ",
"s N O ] ] P ] ] : @ $ # $ $ Q > $ C u ",
"R R S $ , T , @ # $ # # # # Q # U z R ",
"V 7 k 9 ) ' W W W W X W W X Y ) Z 9 7 ",
"`  .| ..Y < L L 3 L L L L < 3 F G +. .",
"@.#.$.%.8 3 a a a a a a a N @ G Y @.@.",
"&.&.&.e *...Y p =.| | p | -.;.U d e &.",
"f f f f f 2 ( >.; ,.'.& ).).p !.f d f ",
"~.~.          2 ^ U {.{.H + !.    +   ",
"].R ^.].^.^.^.].^.].R ^.^.].R ].^.].^.",
"^.R R /.^./.^./.R /.^.R R R R /.R /.R ",
"(.4 _._._._.(.4 _._.(._.(.4 _._._._.4 "};
