/* XPM */
static char * stick_pressed_xpm[] = {
"19 21 110 2",
"  	c #FBFBFB",
". 	c #FDFDFD",
"+ 	c #FCFCFC",
"@ 	c #BFBFBF",
"# 	c #BEBEBE",
"$ 	c #BDBDBD",
"% 	c #AFAFAF",
"& 	c #A4A4A4",
"* 	c #9D9D9D",
"= 	c #9E9E9E",
"- 	c #A1A1A1",
"; 	c #ACACAC",
"> 	c #BCBCBC",
", 	c #C0C0C0",
"' 	c #C3C3C3",
") 	c #C2C2C2",
"! 	c #999999",
"~ 	c #9F9F9F",
"{ 	c #C6C6C6",
"] 	c #C7C7C7",
"^ 	c #B8B8B8",
"/ 	c #989898",
"( 	c #8D8D8D",
"_ 	c #A8A8A8",
": 	c #C4C4C4",
"< 	c #C8C8C8",
"[ 	c #C5C5C5",
"} 	c #A3A3A3",
"| 	c #D5D5D5",
"1 	c #FEFEFE",
"2 	c #D2D2D2",
"3 	c #CACACA",
"4 	c #CCCCCC",
"5 	c #ABABAB",
"6 	c #EDEDED",
"7 	c #EBEBEB",
"8 	c #949494",
"9 	c #A7A7A7",
"0 	c #CBCBCB",
"a 	c #D0D0D0",
"b 	c #979797",
"c 	c #DEDEDE",
"d 	c #F7F7F7",
"e 	c #D8D8D8",
"f 	c #D9D9D9",
"g 	c #F8F8F8",
"h 	c #DDDDDD",
"i 	c #838383",
"j 	c #D4D4D4",
"k 	c #D3D3D3",
"l 	c #A9A9A9",
"m 	c #BBBBBB",
"n 	c #EEEEEE",
"o 	c #D1D1D1",
"p 	c #D6D6D6",
"q 	c #939393",
"r 	c #E3E3E3",
"s 	c #E4E4E4",
"t 	c #C9C9C9",
"u 	c #B3B3B3",
"v 	c #818181",
"w 	c #DCDCDC",
"x 	c #DBDBDB",
"y 	c #DADADA",
"z 	c #BABABA",
"A 	c #787878",
"B 	c #E1E1E1",
"C 	c #9B9B9B",
"D 	c #B7B7B7",
"E 	c #B0B0B0",
"F 	c #A5A5A5",
"G 	c #858585",
"H 	c #E0E0E0",
"I 	c #CFCFCF",
"J 	c #969696",
"K 	c #AEAEAE",
"L 	c #A6A6A6",
"M 	c #747474",
"N 	c #E8E8E8",
"O 	c #8B8B8B",
"P 	c #C1C1C1",
"Q 	c #B1B1B1",
"R 	c #ECECEC",
"S 	c #AAAAAA",
"T 	c #929292",
"U 	c #EFEFEF",
"V 	c #F0F0F0",
"W 	c #8C8C8C",
"X 	c #DFDFDF",
"Y 	c #F2F2F2",
"Z 	c #F3F3F3",
"` 	c #F1F1F1",
" .	c #B6B6B6",
"..	c #F5F5F5",
"+.	c #F6F6F6",
"@.	c #ADADAD",
"#.	c #D7D7D7",
"$.	c #B4B4B4",
"%.	c #777777",
"&.	c #8F8F8F",
"*.	c #B9B9B9",
"=.	c #B2B2B2",
"-.	c #828282",
";.	c #F9F9F9",
">.	c #FAFAFA",
",.	c #E6E6E6",
"'.	c #E7E7E7",
").	c #E9E9E9",
"!.	c #CECECE",
"~.	c #CDCDCD",
"    . + + +   +   + + + . + . + + + + ",
"@ @ # @ # @ $ % & * = - ; > # @ @ , # ",
"' ' ' ' ) ; ! ~ # { ] ^ / ( _ ) : ' ' ",
"< { { [ } * | . + 1 + . . 2 ( = { ] ] ",
"3 3 4 5 - 6 . . . . 1 . . . 7 8 9 0 4 ",
"a a , b c d e e e e e f e e g h i { a ",
"j k l m n n o n n n n n n a n n ; * k ",
"p e q k r s < s t t < < s : k : u v e ",
"w 3 * p x x , x x x y e < & m z m A x ",
"B 0 C o o a D o D D E F m } m > m G H ",
"r I J ] ] ] K ] : @ $ # $ L $ > $ M s ",
"N N O $ , P _ @ L L L L # L $ # Q v N ",
"R 7 l 9 ) ' S ) ) ) ' ) ) 5 P ) T 9 7 ",
"U V | W P < E E Q E E E E % 3 z A X V ",
"Y Z `  .8 3 a a a a a a a I @ A P Y Y ",
"......+.@.W P p #.| | p | $.%.Q d +...",
"g g g g g 2 ( &.; *.=.& -.-.p ;.g d g ",
">.>.          2 ^ Q D D B + ;.    +   ",
",.N '.,.'.'.'.,.'.,.N '.'.,.N ,.'.,.'.",
"'.N N ).'.).'.).N ).'.N N N N ).N ).N ",
"!.4 ~.~.~.~.!.4 ~.~.!.~.!.4 ~.~.~.~.4 "};
