/* XPM */
static char * stick_xpm[] = {
"19 21 114 2",
"  	c #FBFBFB",
". 	c #FDFDFD",
"+ 	c #FCFCFC",
"@ 	c #BFBFBF",
"# 	c #BEBEBE",
"$ 	c #BDBDBD",
"% 	c #AFAFAF",
"& 	c #A4A4A4",
"* 	c #9D9D9D",
"= 	c #9E9E9E",
"- 	c #A1A1A1",
"; 	c #ACACAC",
"> 	c #BCBCBC",
", 	c #C0C0C0",
"' 	c #C3C3C3",
") 	c #C2C2C2",
"! 	c #999999",
"~ 	c #9F9F9F",
"{ 	c #C6C6C6",
"] 	c #C7C7C7",
"^ 	c #B8B8B8",
"/ 	c #989898",
"( 	c #8D8D8D",
"_ 	c #A8A8A8",
": 	c #C4C4C4",
"< 	c #C8C8C8",
"[ 	c #C5C5C5",
"} 	c #A3A3A3",
"| 	c #D5D5D5",
"1 	c #FEFEFE",
"2 	c #D2D2D2",
"3 	c #CACACA",
"4 	c #CCCCCC",
"5 	c #ABABAB",
"6 	c #EDEDED",
"7 	c #EBEBEB",
"8 	c #949494",
"9 	c #A7A7A7",
"0 	c #CBCBCB",
"a 	c #D0D0D0",
"b 	c #979797",
"c 	c #DEDEDE",
"d 	c #F7F7F7",
"e 	c #A0A0A0",
"f 	c #F8F8F8",
"g 	c #DDDDDD",
"h 	c #838383",
"i 	c #D4D4D4",
"j 	c #D3D3D3",
"k 	c #A9A9A9",
"l 	c #BBBBBB",
"m 	c #EEEEEE",
"n 	c #9A9A9A",
"o 	c #D6D6D6",
"p 	c #D8D8D8",
"q 	c #939393",
"r 	c #E3E3E3",
"s 	c #E4E4E4",
"t 	c #959595",
"u 	c #919191",
"v 	c #B3B3B3",
"w 	c #818181",
"x 	c #DCDCDC",
"y 	c #DBDBDB",
"z 	c #8E8E8E",
"A 	c #DADADA",
"B 	c #797979",
"C 	c #BABABA",
"D 	c #787878",
"E 	c #E1E1E1",
"F 	c #9B9B9B",
"G 	c #D1D1D1",
"H 	c #888888",
"I 	c #828282",
"J 	c #7A7A7A",
"K 	c #858585",
"L 	c #E0E0E0",
"M 	c #CFCFCF",
"N 	c #969696",
"O 	c #7B7B7B",
"P 	c #747474",
"Q 	c #E8E8E8",
"R 	c #8B8B8B",
"S 	c #C1C1C1",
"T 	c #7C7C7C",
"U 	c #B1B1B1",
"V 	c #ECECEC",
"W 	c #7E7E7E",
"X 	c #929292",
"Y 	c #EFEFEF",
"Z 	c #F0F0F0",
"` 	c #8C8C8C",
" .	c #DFDFDF",
"..	c #F2F2F2",
"+.	c #F3F3F3",
"@.	c #F1F1F1",
"#.	c #B6B6B6",
"$.	c #F5F5F5",
"%.	c #F6F6F6",
"&.	c #ADADAD",
"*.	c #D7D7D7",
"=.	c #B4B4B4",
"-.	c #777777",
";.	c #8F8F8F",
">.	c #B9B9B9",
",.	c #B2B2B2",
"'.	c #F9F9F9",
").	c #FAFAFA",
"!.	c #B7B7B7",
"~.	c #E6E6E6",
"{.	c #E7E7E7",
"].	c #E9E9E9",
"^.	c #CECECE",
"/.	c #CDCDCD",
"    . + + +   +   + + + . + . + + + + ",
"@ @ # @ # @ $ % & * = - ; > # @ @ , # ",
"' ' ' ' ) ; ! ~ # { ] ^ / ( _ ) : ' ' ",
"< { { [ } * | . + 1 + . . 2 ( = { ] ] ",
"3 3 4 5 - 6 . . . . 1 . . . 7 8 9 0 4 ",
"a a , b c d e e e e e - e e f g h { a ",
"i j k l m m n m m m m m m n m m ; * j ",
"o p q j r s 8 s t t 8 8 s u j : v w p ",
"x 3 * o y y z y y y A p < B l C l D y ",
"E 0 F G G a H G H H I J l B l > l K L ",
"r M N ] ] ] w ] : @ $ # $ O $ > $ P s ",
"Q Q R $ , S T @ O O O O # O $ # U w Q ",
"V 7 k 9 ) ' W ) ) ) ' ) ) W S ) X 9 7 ",
"Y Z | ` S < I I h I I I I I 3 C D  .Z ",
"..+.@.#.8 3 a a a a a a a M @ D S ....",
"$.$.$.%.&.` S o *.| | o | =.-.U d %.$.",
"f f f f f 2 ( ;.; >.,.& I I o '.f d f ",
").).          2 ^ U !.!.E + '.    +   ",
"~.Q {.~.{.{.{.~.{.~.Q {.{.~.Q ~.{.~.{.",
"{.Q Q ].{.].{.].Q ].{.Q Q Q Q ].Q ].Q ",
"^.4 /./././.^.4 /./.^./.^.4 /./././.4 "};
