/* XPM */
static char * wtitle_unfocus_xpm[] = {
"19 21 19 1",
" 	c None",
".	c #DCDCDC",
"+	c #B2B2B2",
"@	c #AFAFAF",
"#	c #AAAAAA",
"$	c #A7A7A7",
"%	c #B7B7B7",
"&	c #B6B6B6",
"*	c #BABABA",
"=	c #C0C0C0",
"-	c #C3C3C3",
";	c #C2C2C2",
">	c #C4C4C4",
",	c #C8C8C8",
"'	c #CBCBCB",
")	c #D0D0D0",
"!	c #D2D2D2",
"~	c #D9D9D9",
"{	c #B3B3B3",
"...................",
"+++++++++++++++++++",
"@@@@@@@@@@@@@@@@@@@",
"###################",
"$$$$$$$$$$$$$$$$$$$",
"###################",
"@@@@@@@@@@@@@@@@@@@",
"+++++++++++++++++++",
"%%&%&&&&%%&&%%&&&%%",
"*******************",
"===================",
"-;;>--;-;;-->;-;--;",
",,,,,,,,,,,,,,,,,,,",
"'''''''''''''''''''",
")!)))))!)))))))))))",
"!!!!!!!!!!!!!!!!!!!",
"~~~~~~~~~~~~~~~~~~~",
"...................",
"''''','''''',''',''",
"'''''''''''''''''''",
"++++++{++++++++++++"};
