/* XPM */
static char * wtitle_xpm[] = {
"19 21 73 1",
" 	c #FDFDFD",
".	c #FBFBFB",
"+	c #FCFCFC",
"@	c #CDCDCD",
"#	c #CDCCCD",
"$	c #CCCCCD",
"%	c #CDCDCC",
"&	c #C8C8C8",
"*	c #C8C9C8",
"=	c #C8C9C9",
"-	c #C9C8C9",
";	c #C9C9C8",
">	c #C8C8C9",
",	c #C3C4C3",
"'	c #C4C3C3",
")	c #C4C4C4",
"!	c #C4C3C4",
"~	c #C4C4C3",
"{	c #C3C4C4",
"]	c #BFBFBF",
"^	c #C3C3C3",
"/	c #C9C8C8",
"(	c #D1D2D2",
"_	c #D1D1D2",
":	c #D1D2D1",
"<	c #D2D2D1",
"[	c #D1D1D1",
"}	c #D2D1D1",
"|	c #D6D6D6",
"1	c #D6D6D7",
"2	c #D7D6D6",
"3	c #D6D7D6",
"4	c #DBDBDB",
"5	c #DADADB",
"6	c #DBDADB",
"7	c #DBDBDA",
"8	c #DADBDB",
"9	c #E0DFDF",
"0	c #DFDFDF",
"a	c #E0E0DF",
"b	c #E0DFE0",
"c	c #DFE0DF",
"d	c #DFDFE0",
"e	c #E4E4E4",
"f	c #E3E4E4",
"g	c #E9E8E8",
"h	c #E9E8E9",
"i	c #E8E9E8",
"j	c #E9E9E8",
"k	c #E8E9E9",
"l	c #E9E9E9",
"m	c #E8E8E9",
"n	c #EDEDED",
"o	c #EDEEED",
"p	c #EEEEED",
"q	c #EEEDED",
"r	c #F2F2F2",
"s	c #F2F2F1",
"t	c #F2F1F2",
"u	c #F1F2F1",
"v	c #F2F1F1",
"w	c #F6F6F6",
"x	c #F6F7F6",
"y	c #F6F6F7",
"z	c #F6F7F7",
"A	c #F7F7F6",
"B	c #F7F6F7",
"C	c #F7F6F6",
"D	c #E7E7E7",
"E	c #E8E8E8",
"F	c #E6E6E6",
"G	c #CCCCCC",
"H	c #CECECE",
" .. + ++.+.+++ ++++",
"@#@@#@@@@$#@@$@@%@@",
"&*&*=-&&&&&&&*;>=&&",
",'))),)!~'){{{'{',~",
"]]]]]]]]]]]]]]]]]]]",
"{{^)!~^{!~)!)!,!~{{",
"/&&>&>;&>&&/&&&&&&&",
"@#$@#%$@%$@@@@%@@@@",
"(_:_<:[[(([[_(}}:((",
"|||1|2||||||||3||||",
"4566674444448685546",
"900a990900bcadc09c0",
"eeeeeeeeeeeeeeeeefe",
"ghihiihjhklmlkkjjmh",
"nonnnnnpnnnnnnqnnqn",
"rsrrrtrrtuvsrustrts",
"wwwxyzAyAywwBxwwCBw",
"...................",
"DEDDDFDDDEDEFDDDFED",
"EElEEEEElEEEEEEEEEE",
"G@G@@@HG@@@@@G@G@@@"};
