/* XPM */
static char * close_xpm[] = {
"23 22 143 2",
"  	c #F4F4F4",
". 	c #FEFEFE",
"+ 	c #FFFFFF",
"@ 	c #FCFCFC",
"# 	c #FDFDFD",
"$ 	c #FBFBFB",
"% 	c #FAFAFA",
"& 	c #F2F2F2",
"* 	c #E9E9E9",
"= 	c #DEDEDE",
"- 	c #D4D4D4",
"; 	c #CFCFCF",
"> 	c #F9F9F9",
", 	c #F0F0F0",
"' 	c #E2E2E2",
") 	c #CDCDCD",
"! 	c #878787",
"~ 	c #555555",
"{ 	c #373737",
"] 	c #E3E3E3",
"^ 	c #969696",
"/ 	c #3D3D3D",
"( 	c #484848",
"_ 	c #595959",
": 	c #646464",
"< 	c #656565",
"[ 	c #4A4A4A",
"} 	c #3C3C3C",
"| 	c #F7F7F7",
"1 	c #9A9A9A",
"2 	c #414141",
"3 	c #3E3E3E",
"4 	c #242424",
"5 	c #3A3A3A",
"6 	c #535353",
"7 	c #1F1F1F",
"8 	c #464646",
"9 	c #F5F5F5",
"0 	c #F8F8F8",
"a 	c #404040",
"b 	c #E0E0E0",
"c 	c #2E2E2E",
"d 	c #2B2B2B",
"e 	c #7A7A7A",
"f 	c #C5C5C5",
"g 	c #252525",
"h 	c #515151",
"i 	c #9E9E9E",
"j 	c #454545",
"k 	c #262626",
"l 	c #B8B8B8",
"m 	c #EDEDED",
"n 	c #D9D9D9",
"o 	c #343434",
"p 	c #727272",
"q 	c #636363",
"r 	c #F6F6F6",
"s 	c #6B6B6B",
"t 	c #323232",
"u 	c #1E1E1E",
"v 	c #ACACAC",
"w 	c #D8D8D8",
"x 	c #6C6C6C",
"y 	c #EFEFEF",
"z 	c #F1F1F1",
"A 	c #F3F3F3",
"B 	c #4C4C4C",
"C 	c #1A1A1A",
"D 	c #141414",
"E 	c #131313",
"F 	c #A6A6A6",
"G 	c #BEBEBE",
"H 	c #6A6A6A",
"I 	c #111111",
"J 	c #1B1B1B",
"K 	c #4D4D4D",
"L 	c #F3F1F4",
"M 	c #F4F2F3",
"N 	c #4E4E4E",
"O 	c #010101",
"P 	c #8A8A8A",
"Q 	c #7E7E7E",
"R 	c #171717",
"S 	c #000000",
"T 	c #030303",
"U 	c #EBEBED",
"V 	c #ECECEE",
"W 	c #EEEEEE",
"X 	c #737373",
"Y 	c #121212",
"Z 	c #5B5B5B",
"` 	c #747474",
" .	c #F1F1F3",
"..	c #EAEAEA",
"+.	c #ECECEC",
"@.	c #EDEDEF",
"#.	c #151515",
"$.	c #838383",
"%.	c #5A5A5A",
"&.	c #7D7D7D",
"*.	c #090909",
"=.	c #313131",
"-.	c #E8E8EA",
";.	c #E8E8E8",
">.	c #E9E9EB",
",.	c #EBEBEB",
"'.	c #232323",
").	c #565656",
"!.	c #333333",
"~.	c #363636",
"{.	c #424242",
"].	c #202020",
"^.	c #626262",
"/.	c #E6E6E6",
"(.	c #E7E7E9",
"_.	c #BABABA",
":.	c #6E6E6E",
"<.	c #222222",
"[.	c #212121",
"}.	c #2D2D2D",
"|.	c #6D6D6D",
"1.	c #B9B9BB",
"2.	c #E4E4E6",
"3.	c #E5E5E5",
"4.	c #BCBCBC",
"5.	c #797979",
"6.	c #505050",
"7.	c #2C2C2C",
"8.	c #0E0E0E",
"9.	c #0F0F0F",
"0.	c #545454",
"a.	c #7B7B7B",
"b.	c #E6E6E8",
"c.	c #E4E4E4",
"d.	c #E5E5E7",
"e.	c #E3E5E4",
"f.	c #E9EBEA",
"g.	c #B7B7B7",
"h.	c #929292",
"i.	c #787878",
"j.	c #E6E8E7",
"k.	c #DADADA",
"l.	c #DADADC",
"  . + + + + + + + + + + + + + + + + + + + + + ",
"@ . + + + + + + + + + + + + + + + + + + + + + ",
"@ # + + + + + + + + + + + + + + + + + + + + + ",
"@ # + + + + + + + + + + + + + + + + + + + + + ",
"$ # . + + . % & * = - ; ; - = * & % . + + + + ",
"% $ # . . > , ' ) ! ~ { { ~ ! ) ' , > + + + + ",
"> $ @ # + & ] ^ / ( _ : < _ [ } ^ ] & + + + + ",
"| > $ @ # * 1 2 3 4 5 ~ 6 / 7 8 2 1 * . . + + ",
"9 0 0 % $ = a 2 : b 5 c d e f g h a = @ # . + ",
"  9 | > % i j k l m n o p m m q 5 j i $ $ @ @ ",
"&   9 r 0 s a t u v w ) w w x k a a s > > % % ",
"y z A   9 B C C D E F G G H I C J C K r r 0 0 ",
"m y z L M N O O O / P P P Q R O S T h     9   ",
"U V W y z X Y O / P P Z ` P Q R O Y ` z  .& A ",
"* ..+.@.W v t #.$.P %.5 / ` P &.*.=.v W W , , ",
"-.;.>...,.,.< '.5 ).t !.o ~.p {.].^.* V V m m ",
"/.(.(.* * V _.:.c '.<.].[.k k }.|.1.V >.>.U U ",
"2.3.(./.(.>.y 4.5.6.7.8.9.}.0.a.G y >.(.b.-.* ",
"c.2.d.e././.-.U f.g.h.i.i.h.l +.+.;./.b.b.b./.",
"c.c.c.c.2.c.c.b.j.-.(.b.(.-.-.-.d.d.2.2.2.2.d.",
"k.l.l.l.l.l.l.l.l.l.l.l.l.l.l.l.l.l.l.l.l.l.l.",
"i i i i i i i i i i i i i i i i i i i i i i i "};
