/* XPM */
static char * hilite_xpm[] = {
"10 19 19 1",
" 	c #363636",
".	c #737373",
"+	c #676767",
"@	c #666666",
"#	c #5B5B5B",
"$	c #555555",
"%	c #494949",
"&	c #424242",
"*	c #353535",
"=	c #191919",
"-	c #050505",
";	c #010101",
">	c #000000",
",	c #000102",
"'	c #000002",
")	c #000305",
"!	c #000205",
"~	c #00060A",
"{	c #BCC6C8",
"          ",
"..........",
"++++++++++",
"@@@@@@@@@@",
"##########",
"$$$$$$$$$$",
"%%%%%%%%%%",
"&&&&&&&&&&",
"**********",
"==========",
"----------",
";;;;;;;;;;",
";;;;;;;;;;",
">>>>>>>>>>",
";;;;;;;;;;",
",',',',','",
")!)!)!)!)!",
"~~~~~~~~~~",
"{{{{{{{{{{"};
