/* XPM */
static char * icon_xpm[] = {
"23 22 127 2",
"  	c #FFFFFF",
". 	c #FEFEFE",
"+ 	c #FAFAFA",
"@ 	c #F2F2F2",
"# 	c #E9E9E9",
"$ 	c #DEDEDE",
"% 	c #D4D4D4",
"& 	c #CFCFCF",
"* 	c #EAEAEA",
"= 	c #F8F8F8",
"- 	c #F0F0F0",
"; 	c #E2E2E2",
"> 	c #CDCDCD",
", 	c #878787",
"' 	c #545454",
") 	c #373737",
"! 	c #555555",
"~ 	c #F9F9F9",
"{ 	c #E3E3E3",
"] 	c #969696",
"^ 	c #3C3C3C",
"/ 	c #4E4E4E",
"( 	c #616161",
"_ 	c #6E6E6E",
": 	c #3D3D3D",
"< 	c #979797",
"[ 	c #999999",
"} 	c #414141",
"| 	c #5C5C5C",
"1 	c #5F5F5F",
"2 	c #626262",
"3 	c #5B5B5B",
"4 	c #424242",
"5 	c #9A9A9A",
"6 	c #404040",
"7 	c #505050",
"8 	c #525252",
"9 	c #4B4B4B",
"0 	c #4A4A4A",
"a 	c #515151",
"b 	c #DFDFDF",
"c 	c #FDFDFD",
"d 	c #FCFCFC",
"e 	c #FBFBFB",
"f 	c #9E9E9E",
"g 	c #444444",
"h 	c #363636",
"i 	c #202020",
"j 	c #141414",
"k 	c #151515",
"l 	c #131313",
"m 	c #9F9F9F",
"n 	c #6B6B6B",
"o 	c #3E3E3E",
"p 	c #1D1D1D",
"q 	c #C3C3C3",
"r 	c #C4C4C4",
"s 	c #1E1E1E",
"t 	c #F7F7F7",
"u 	c #4D4D4D",
"v 	c #707070",
"w 	c #8A8A8A",
"x 	c #F6F6F6",
"y 	c #F4F4F4",
"z 	c #F5F5F5",
"A 	c #090909",
"B 	c #222222",
"C 	c #2D2D2D",
"D 	c #353535",
"E 	c #383838",
"F 	c #212121",
"G 	c #0B0B0D",
"H 	c #545456",
"I 	c #F3F3F3",
"J 	c #F1F1F3",
"K 	c #757577",
"L 	c #191919",
"M 	c #101010",
"N 	c #1B1B1D",
"O 	c #252525",
"P 	c #2B2B2B",
"Q 	c #2E2E2E",
"R 	c #2C2C2C",
"S 	c #1C1C1C",
"T 	c #757575",
"U 	c #F2F2F4",
"V 	c #EFEFEF",
"W 	c #ADADAD",
"X 	c #070707",
"Y 	c #0C0C0C",
"Z 	c #111111",
"` 	c #161616",
" .	c #AEAEAE",
"..	c #EEEEEE",
"+.	c #EEEEF0",
"@.	c #EDEDED",
"#.	c #5D5D5D",
"$.	c #020202",
"%.	c #030303",
"&.	c #040404",
"*.	c #E9E9EB",
"=.	c #ECECEC",
"-.	c #ECECEE",
";.	c #EBEBED",
">.	c #EAEAEC",
",.	c #B2B2B4",
"'.	c #5E5E5E",
").	c #000000",
"!.	c #B3B3B3",
"~.	c #EBEBEB",
"{.	c #E8E8EA",
"].	c #E8E8E8",
"^.	c #B4B4B6",
"/.	c #6C6C6C",
"(.	c #1B1B1B",
"_.	c #6D6D6D",
":.	c #B4B4B4",
"<.	c #E6E6E8",
"[.	c #E7E7E9",
"}.	c #E6E6E6",
"|.	c #E5E5E5",
"1.	c #E7E7E7",
"2.	c #909090",
"3.	c #8E8E8E",
"4.	c #E5E5E7",
"5.	c #E4E4E6",
"6.	c #DADADC",
"                                              ",
"                                              ",
"                                              ",
"                                              ",
"        . + @ # $ % & & % $ * @ + .           ",
"      . = - ; > , ' ) ) ! , > ; - ~           ",
"        @ { ] ^ / ( _ _ ( / : < { @           ",
"        # [ } | ( 1 1 1 1 2 3 4 5 *     . . . ",
"  . . . $ 6 7 8 / 9 0 9 9 / 8 a 6 b . c c c c ",
"d d d e f g h i j k l l j k i h g m d e e e e ",
"+ + + + n o p q e + + + + e r s o n + + ~ ~ ~ ",
"= = t t u p k v w w w w w w v k p u t = x x x ",
"y z z z 7 A k B C D E E D C F j G H z z y y y ",
"I I I J K L M N O P Q Q R O S M L T I U @ U J ",
"- V - V W D X Y Z k ` k j Z Y X D  .- - ....+.",
"@.@.@.@.# #.l $.%.&.&.&.&.%.$.l | *.@.@.@.=.-.",
";.;.;.>.>.,.'.l ).).).).).).l '.!.=.~.>.*.*.*.",
"# * {.].{.*.^./.4 p ).).(.4 _.:.~.# *.].<.{.[.",
"}.}.|.}.<.1.].<.^.2.T T 3.!.<.1.1.}.<.}.<.<.<.",
"4.4.5.5.5.5.4.<.].[.[.{.1.[.<.4.|.4.5.|.5.5.5.",
"6.6.6.6.6.6.6.6.6.6.6.6.6.6.6.6.6.6.6.6.6.6.6.",
"f f f f f f f f f f f f f f f f f f f f f f f "};
