/* XPM */
static char * max_xpm[] = {
"22 22 124 2",
"  	c #FFFFFF",
". 	c #FEFEFE",
"+ 	c #FAFAFA",
"@ 	c #F2F2F2",
"# 	c #E9E9E9",
"$ 	c #DFDFDF",
"% 	c #D5D5D5",
"& 	c #CFCFCF",
"* 	c #D4D4D4",
"= 	c #DEDEDE",
"- 	c #F3F3F3",
"; 	c #F9F9F9",
"> 	c #F0F0F0",
", 	c #E2E2E2",
"' 	c #CDCDCD",
") 	c #878787",
"! 	c #555555",
"~ 	c #373737",
"{ 	c #E3E3E3",
"] 	c #969696",
"^ 	c #3C3C3C",
"/ 	c #4B4B4B",
"( 	c #464646",
"_ 	c #2E2E2E",
": 	c #4C4C4C",
"< 	c #EAEAEA",
"[ 	c #9A9A9A",
"} 	c #424242",
"| 	c #5A5A5A",
"1 	c #5D5D5D",
"2 	c #2B2B2B",
"3 	c #C3C3C3",
"4 	c #5B5B5B",
"5 	c #414141",
"6 	c #999999",
"7 	c #FDFDFD",
"8 	c #404040",
"9 	c #515151",
"0 	c #4D4D4D",
"a 	c #181818",
"b 	c #EDEDED",
"c 	c #FBFBFB",
"d 	c #FCFCFC",
"e 	c #9F9F9F",
"f 	c #444444",
"g 	c #363636",
"h 	c #202020",
"i 	c #151515",
"j 	c #141414",
"k 	c #D8D8D8",
"l 	c #9E9E9E",
"m 	c #6B6B6B",
"n 	c #3E3E3E",
"o 	c #1E1E1E",
"p 	c #BEBEBE",
"q 	c #BFBFBF",
"r 	c #F6F6F6",
"s 	c #F8F8F8",
"t 	c #1D1D1D",
"u 	c #707070",
"v 	c #8A8A8A",
"w 	c #8B8B8B",
"x 	c #F7F7F7",
"y 	c #F4F4F4",
"z 	c #F5F5F5",
"A 	c #505050",
"B 	c #090909",
"C 	c #131313",
"D 	c #1F1F1F",
"E 	c #262626",
"F 	c #292929",
"G 	c #272727",
"H 	c #131311",
"I 	c #0A0A0A",
"J 	c #545454",
"K 	c #F2F2F4",
"L 	c #F1F1F3",
"M 	c #757575",
"N 	c #191919",
"O 	c #101010",
"P 	c #1B1B1B",
"Q 	c #252525",
"R 	c #2F2F2F",
"S 	c #EEEEEE",
"T 	c #EEEEF0",
"U 	c #AEAEAE",
"V 	c #353535",
"W 	c #070707",
"X 	c #0F0F0F",
"Y 	c #747474",
"Z 	c #F1F1F1",
"` 	c #ECECEC",
" .	c #ECECEE",
"..	c #E8E8E8",
"+.	c #060606",
"@.	c #0E0E0E",
"#.	c #242424",
"$.	c #1A1A1A",
"%.	c #E9E9EB",
"&.	c #EBEBED",
"*.	c #EBEBEB",
"=.	c #B3B3B5",
"-.	c #5E5E5E",
";.	c #0D0D0D",
">.	c #B2B2B4",
",.	c #EAEAEC",
"'.	c #E8E8EA",
").	c #E7E7E9",
"!.	c #B4B4B4",
"~.	c #6E6E6E",
"{.	c #454545",
"].	c #222222",
"^.	c #B3B3B3",
"/.	c #E6E6E8",
"(.	c #E6E6E6",
"_.	c #E7E7E7",
":.	c #919191",
"<.	c #767678",
"[.	c #767676",
"}.	c #8F8F8F",
"|.	c #E4E4E6",
"1.	c #E5E5E5",
"2.	c #E5E5E7",
"3.	c #DADADC",
"                                            ",
"                                            ",
"                                            ",
"                                            ",
"        . + @ # $ % & & * = # - + .     .   ",
"        ; > , ' ) ! ~ ~ ! ) ' , > ;     .   ",
"        @ { ] ^ / ( _ _ ( : ^ ] { @         ",
". .     < [ } | 1 2 3 3 2 1 4 5 6 #         ",
"7 7   . $ 8 9 9 0 a b b a : 9 9 8 = . . . . ",
"c c d d e f g h i j k k j i h g f l d d d 7 ",
"; ; + c m n o ] p q p p p p ] o n m + + ; + ",
"r r s s 0 t i u v v v w v v u i t 0 s s s x ",
"y y z z A B C D E F v v F G h H I J z z z z ",
"K L - - M N O P Q R v v R Q P O N M - - - - ",
"S T > > U V W X N G Y M G N X W V U > > Z > ",
"`  .b b ..1 C +.@.N #.#.$.@.+.C 1 ..b b b S ",
"%.%.&.*.` =.-.i W @.j C ;.W i -.>.,.*.` *.*.",
"'.).'...< ,.!.~.{.].W W h {.~.^.%.'...# %.'.",
"/././.(._.).../.^.:.<.[.}.=.(...).).(._.)./.",
"|.|.|.|.1.|.(./.'._.).'._.)._.2.|.|.|.1.1.|.",
"3.3.3.3.3.3.3.3.3.3.3.3.3.3.3.3.3.3.3.3.3.3.",
"l l l l l l l l l l l l l l l l l l l l l l "};
