/* XPM */
static char * stick_xpm[] = {
"22 22 121 2",
"  	c #FFFFFF",
". 	c #FEFEFE",
"+ 	c #FAFAFA",
"@ 	c #F2F2F2",
"# 	c #E9E9E9",
"$ 	c #DEDEDE",
"% 	c #D4D4D4",
"& 	c #CFCFCF",
"* 	c #EAEAEA",
"= 	c #F8F8F8",
"- 	c #F0F0F0",
"; 	c #E2E2E2",
"> 	c #CDCDCD",
", 	c #878787",
"' 	c #545454",
") 	c #373737",
"! 	c #555555",
"~ 	c #F9F9F9",
"{ 	c #E3E3E3",
"] 	c #969696",
"^ 	c #3C3C3C",
"/ 	c #4E4E4E",
"( 	c #616161",
"_ 	c #6E6E6E",
": 	c #3D3D3D",
"< 	c #979797",
"[ 	c #999999",
"} 	c #414141",
"| 	c #5C5C5C",
"1 	c #5F5F5F",
"2 	c #626262",
"3 	c #5B5B5B",
"4 	c #424242",
"5 	c #9A9A9A",
"6 	c #404040",
"7 	c #505050",
"8 	c #525252",
"9 	c #4B4B4B",
"0 	c #4A4A4A",
"a 	c #515151",
"b 	c #DFDFDF",
"c 	c #FDFDFD",
"d 	c #FCFCFC",
"e 	c #FBFBFB",
"f 	c #9E9E9E",
"g 	c #444444",
"h 	c #363636",
"i 	c #202020",
"j 	c #141414",
"k 	c #353535",
"l 	c #383838",
"m 	c #151515",
"n 	c #9F9F9F",
"o 	c #6B6B6B",
"p 	c #3E3E3E",
"q 	c #1D1D1D",
"r 	c #1E1E1E",
"s 	c #F7F7F7",
"t 	c #4D4D4D",
"u 	c #131313",
"v 	c #F6F6F6",
"w 	c #F4F4F4",
"x 	c #F5F5F5",
"y 	c #090909",
"z 	c #222222",
"A 	c #2D2D2D",
"B 	c #212121",
"C 	c #0B0B0D",
"D 	c #545456",
"E 	c #F3F3F3",
"F 	c #F1F1F3",
"G 	c #757577",
"H 	c #191919",
"I 	c #101010",
"J 	c #1B1B1D",
"K 	c #252525",
"L 	c #2B2B2B",
"M 	c #2E2E2E",
"N 	c #2C2C2C",
"O 	c #1C1C1C",
"P 	c #757575",
"Q 	c #F2F2F4",
"R 	c #EFEFEF",
"S 	c #ADADAD",
"T 	c #070707",
"U 	c #0C0C0C",
"V 	c #111111",
"W 	c #161616",
"X 	c #AEAEAE",
"Y 	c #EEEEEE",
"Z 	c #EDEDED",
"` 	c #5D5D5D",
" .	c #020202",
"..	c #030303",
"+.	c #040404",
"@.	c #E9E9EB",
"#.	c #ECECEC",
"$.	c #EBEBED",
"%.	c #EAEAEC",
"&.	c #B2B2B4",
"*.	c #5E5E5E",
"=.	c #000000",
"-.	c #B3B3B3",
";.	c #EBEBEB",
">.	c #E8E8EA",
",.	c #E8E8E8",
"'.	c #B4B4B6",
").	c #6C6C6C",
"!.	c #1B1B1B",
"~.	c #6D6D6D",
"{.	c #B4B4B4",
"].	c #E6E6E8",
"^.	c #E6E6E6",
"/.	c #E5E5E5",
"(.	c #E7E7E7",
"_.	c #909090",
":.	c #8E8E8E",
"<.	c #E5E5E7",
"[.	c #E4E4E6",
"}.	c #E7E7E9",
"|.	c #DADADC",
"                                            ",
"                                            ",
"                                            ",
"                                            ",
"        . + @ # $ % & & % $ * @ + .         ",
"      . = - ; > , ' ) ) ! , > ; - ~         ",
"        @ { ] ^ / ( _ _ ( / : < { @         ",
"        # [ } | ( 1 1 1 1 2 3 4 5 *     . . ",
"  . . . $ 6 7 8 / 9 0 9 9 / 8 a 6 b . c c c ",
"d d d e f g h i j k l l k m i h g n d e e e ",
"+ + + + o p q i j k l l k m i r p o + + ~ ~ ",
"= = s s t q m i j m u u j m i m q t s = v v ",
"w x x x 7 y m z A k l l k A B j C D x x w w ",
"E E E F G H I J K L M M N K O I H P E Q @ Q ",
"- R - R S k T U V m W m j V U T k X - - Y Y ",
"Z Z Z Z # ` u  ...+.+.+.+... .u | @.Z Z Z #.",
"$.$.$.%.%.&.*.u =.=.=.=.=.=.u *.-.#.;.%.@.@.",
"# * >.,.>.@.'.).4 q =.=.!.4 ~.{.;.# @.,.].>.",
"^.^./.^.].(.,.].'._.P P :.-.].(.(.^.].^.].].",
"<.<.[.[.[.[.<.].,.}.}.>.(.}.].<./.<.[./.[.[.",
"|.|.|.|.|.|.|.|.|.|.|.|.|.|.|.|.|.|.|.|.|.|.",
"f f f f f f f f f f f f f f f f f f f f f f "};
