/* XPM */
static char * stuck_xpm[] = {
"22 22 119 2",
"  	c None",
". 	c #FFFFFF",
"+ 	c #FEFEFE",
"@ 	c #FAFAFA",
"# 	c #F2F2F2",
"$ 	c #E9E9E9",
"% 	c #DEDEDE",
"& 	c #D4D4D4",
"* 	c #CFCFCF",
"= 	c #EAEAEA",
"- 	c #F8F8F8",
"; 	c #F0F0F0",
"> 	c #E2E2E2",
", 	c #CDCDCD",
"' 	c #878787",
") 	c #545454",
"! 	c #373737",
"~ 	c #555555",
"{ 	c #F9F9F9",
"] 	c #E3E3E3",
"^ 	c #969696",
"/ 	c #3C3C3C",
"( 	c #4E4E4E",
"_ 	c #616161",
": 	c #6E6E6E",
"< 	c #3D3D3D",
"[ 	c #979797",
"} 	c #999999",
"| 	c #414141",
"1 	c #5C5C5C",
"2 	c #5F5F5F",
"3 	c #626262",
"4 	c #5B5B5B",
"5 	c #424242",
"6 	c #9A9A9A",
"7 	c #404040",
"8 	c #505050",
"9 	c #525252",
"0 	c #4B4B4B",
"a 	c #4A4A4A",
"b 	c #515151",
"c 	c #DFDFDF",
"d 	c #FDFDFD",
"e 	c #FCFCFC",
"f 	c #FBFBFB",
"g 	c #9E9E9E",
"h 	c #444444",
"i 	c #363636",
"j 	c #707070",
"k 	c #8A8A8A",
"l 	c #9F9F9F",
"m 	c #6B6B6B",
"n 	c #3E3E3E",
"o 	c #1D1D1D",
"p 	c #C3C3C3",
"q 	c #C6C6C6",
"r 	c #C4C4C4",
"s 	c #1E1E1E",
"t 	c #F7F7F7",
"u 	c #4D4D4D",
"v 	c #151515",
"w 	c #D8D8D8",
"x 	c #D8D9D9",
"y 	c #F6F6F6",
"z 	c #F4F4F4",
"A 	c #F5F5F5",
"B 	c #090909",
"C 	c #ECEBEB",
"D 	c #ECECEB",
"E 	c #EBECEC",
"F 	c #EBEBEC",
"G 	c #ECECEC",
"H 	c #141414",
"I 	c #0B0B0D",
"J 	c #545456",
"K 	c #F3F3F3",
"L 	c #F1F1F3",
"M 	c #757577",
"N 	c #191919",
"O 	c #101010",
"P 	c #757575",
"Q 	c #F2F2F4",
"R 	c #EFEFEF",
"S 	c #ADADAD",
"T 	c #353535",
"U 	c #070707",
"V 	c #AEAEAE",
"W 	c #EEEEEE",
"X 	c #EDEDED",
"Y 	c #5D5D5D",
"Z 	c #131313",
"` 	c #020202",
" .	c #030303",
"..	c #040404",
"+.	c #E9E9EB",
"@.	c #EBEBED",
"#.	c #EAEAEC",
"$.	c #B2B2B4",
"%.	c #5E5E5E",
"&.	c #000000",
"*.	c #B3B3B3",
"=.	c #EBEBEB",
"-.	c #E8E8EA",
";.	c #E8E8E8",
">.	c #B4B4B6",
",.	c #6C6C6C",
"'.	c #1B1B1B",
").	c #6D6D6D",
"!.	c #B4B4B4",
"~.	c #E6E6E8",
"{.	c #E6E6E6",
"].	c #E5E5E5",
"^.	c #E7E7E7",
"/.	c #909090",
"(.	c #8E8E8E",
"_.	c #E5E5E7",
":.	c #E4E4E6",
"<.	c #E7E7E9",
"[.	c #DADADC",
". . . . . . . . . . . . . . . . . . . . . . ",
". . . . . . . . . . . . . . . . . . . . . . ",
". . . . . . . . . . . . . . . . . . . . . . ",
". . . . . . . . . . . . . . . . . . . . . . ",
". . . . + @ # $ % & * * & % = # @ + . . . . ",
". . . + - ; > , ' ) ! ! ~ ' , > ; { . . . . ",
". . . . # ] ^ / ( _ : : _ ( < [ ] # . . . . ",
". . . . $ } | 1 _ 2 2 2 2 3 4 5 6 = . . + + ",
". + + + % 7 8 9 ( 0 a 0 0 ( 9 b 7 c + d d d ",
"e e e f g h i j k k k k k k j i h l e f f f ",
"@ @ @ @ m n o p q q q q q q r s n m @ @ { { ",
"- - t t u o v p w w w x w w r v o u t - y y ",
"z A A A 8 B v p C D E F E G r H I J A A z z ",
"K K K L M N O p . . . . . . r O N P K Q # Q ",
"; R ; R S T U j k k k k k k j U T V ; ; W W ",
"X X X X $ Y Z `  ......... .` Z 1 +.X X X G ",
"@.@.@.#.#.$.%.Z &.&.&.&.&.&.Z %.*.G =.#.+.+.",
"$ = -.;.-.+.>.,.5 o &.&.'.5 ).!.=.$ +.;.~.-.",
"{.{.].{.~.^.;.~.>./.P P (.*.~.^.^.{.~.{.~.~.",
"_._.:.:.:.:._.~.;.<.<.-.^.<.~._.]._.:.].:.:.",
"[.[.[.[.[.[.[.[.[.[.[.[.[.[.[.[.[.[.[.[.[.[.",
"g g g g g g g g g g g g g g g g g g g g g g "};
