/* XPM */
static char * max_xpm[] = {
"13 15 3 1",
" 	c None",
".	c #E3E5EB",
"+	c #6D6D6D",
".............",
".............",
"+++++++++++++",
"+++++++++++++",
"+++++++++++++",
"+++++++++++++",
"+++++++++++++",
"+++++++++++++",
"+++++++++++++",
"+++++++++++++",
"+++++++++++++",
"+++++++++++++",
"+++++++++++++",
".............",
"............."};
