/* XPM */
static char * min_pressed_xpm[] = {
"13 15 3 1",
" 	c None",
".	c #E3E5EB",
"+	c #A1A1A3",
".............",
".............",
"+++++++++++++",
"+++++++++++++",
"+++++++++++++",
"+++++++++++++",
"+++++++++++++",
"+++++++++++++",
"+++++++++++++",
"+++++++++++++",
"+++++++++++++",
"+++++++++++++",
"+++++++++++++",
".............",
"............."};
