/* XPM */
static char * select_xpm[] = {
"13 16 2 1",
" 	c None",
".	c #484848",
"             ",
"             ",
"             ",
"             ",
"    .....    ",
"    .   .    ",
"    . . .    ",
"    .   .    ",
"    .....    ",
"             ",
"             ",
"             ",
"             ",
"             ",
"             ",
"             "};
