/* XPM */
static char * stick_xpm[] = {
"16 15 63 1",
" 	c None",
".	c #E3E5EB",
"+	c #C3C4C9",
"@	c #7E7F82",
"#	c #9A9B9F",
"$	c #ABADB1",
"%	c #CBCDD2",
"&	c #E2E4EA",
"*	c #5A5B5C",
"=	c #2E2E2E",
"-	c #6C6D6F",
";	c #919295",
">	c #747578",
",	c #353536",
"'	c #68696B",
")	c #6D6D6F",
"!	c #4A4A4B",
"~	c #CACCD1",
"{	c #D9DBE1",
"]	c #77777A",
"^	c #C3C5CA",
"/	c #626364",
"(	c #DEDFE5",
"_	c #C9CBD0",
":	c #D3D5DA",
"<	c #A1A2A6",
"[	c #DDDFE5",
"}	c #575758",
"|	c #B6B7BC",
"1	c #B3B4B9",
"2	c #BABCC0",
"3	c #CFD0D6",
"4	c #D2D4D9",
"5	c #3A3A3B",
"6	c #3B3B3C",
"7	c #DEE0E6",
"8	c #A3A5A9",
"9	c #D8DADF",
"0	c #DADCE2",
"a	c #343434",
"b	c #3C3C3C",
"c	c #939497",
"d	c #DFE1E7",
"e	c #BEC0C5",
"f	c #999B9E",
"g	c #3E3E3F",
"h	c #898A8D",
"i	c #DBDDE3",
"j	c #797A7D",
"k	c #E1E3E9",
"l	c #666769",
"m	c #B9BABF",
"n	c #7C7D80",
"o	c #88898C",
"p	c #808183",
"q	c #E0E2E8",
"r	c #D0D2D7",
"s	c #58595A",
"t	c #666668",
"u	c #D7D9DF",
"v	c #525354",
"w	c #7F8083",
"x	c #C8CACF",
"................",
"................",
"......+@#$%&....",
".....*=-;>,'....",
"....)!~...{,]...",
"...^/(.._:.<-[..",
"...}|..123&45...",
"...6(.78..90a...",
"...b..[c.7def...",
"...g7.dhi.djk...",
"...lm..4nopq....",
"...rs...qq......",
"....t4..........",
"....uv9.........",
"......wxd......."};
