/* XPM */
static char * close_xpm[] = {
"16 19 6 1",
" 	c #5977BA",
".	c #4F68A0",
"+	c #445986",
"@	c #000000",
"#	c #E6E6E6",
"$	c #6487D4",
"                ",
"................",
"++++++++++++++++",
"@@@@@@@@@@@@@@@@",
"################",
"################",
"################",
"#####@@##@@#####",
"######@@@@######",
"#######@@#######",
"######@@@@######",
"#####@@##@@#####",
"################",
"################",
"################",
"@@@@@@@@@@@@@@@@",
"$$$$$$$$$$$$$$$$",
"                ",
"................"};
