/* XPM */
static char * icon_xpm[] = {
"15 19 19 1",
" 	c #5977BA",
".	c #4F68A0",
"+	c #445986",
"@	c #3A4A6D",
"#	c #000000",
"$	c #3D4E74",
"%	c #E6E6E6",
"&	c #40537C",
"*	c #435884",
"=	c #465C8C",
"-	c #4A6194",
";	c #4D669C",
">	c #506AA4",
",	c #536FAC",
"'	c #5774B4",
")	c #5A78BC",
"!	c #5D7DC4",
"~	c #6082CC",
"{	c #6487D4",
"               ",
"...............",
"+++++++++++++++",
"@@#############",
"$#%%%%%%%%%%%%%",
"&#%%%%%%%%%%%%%",
"*#%%%%%%%%%%%%%",
"=#%%%%%%%%%%%%%",
"-#%%%%%%%%%%%%%",
";#%%%%%%%%%%%%%",
">#%%%######%%%%",
",#%%%######%%%%",
"'#%%%%%%%%%%%%%",
")#%%%%%%%%%%%%%",
"!#%%%%%%%%%%%%%",
"~~#############",
"{{{{{{{{{{{{{{{",
"               ",
"..............."};
