/* XPM */
static char * selected_xpm[] = {
"17 17 3 1",
" 	c None",
".	c #000000",
"+	c #E6E6E6",
"                 ",
"                 ",
"  ............   ",
"  .++++++++++.   ",
"  .++++++++++.   ",
"  .++++++++++.   ",
"  .++..++..++.   ",
"  .+++....+++.   ",
"  .++++..++++.   ",
"  .+++....+++.   ",
"  .++..++..++.   ",
"  .++++++++++.   ",
"  .++++++++++.   ",
"  ............   ",
"                 ",
"                 ",
"                 "};
