/* XPM */
static char * stuck_xpm[] = {
"18 19 11 1",
" 	c None",
".	c #5977BA",
"+	c #4F68A0",
"@	c #445986",
"#	c #000000",
"$	c #3A4A6D",
"%	c #E6E6E6",
"&	c #6487D4",
"*	c #6082CC",
"=	c #485E8F",
"-	c #5672B1",
"..................",
"++++++++++++++++++",
"@@@@@@@@@@@@@@@@@@",
"#################$",
"%%%%%%%%%%%%%%%%%#",
"%%%%%&&&&&&&&&&%%#",
"%%%%%&%%%%%%%%&%%#",
"%%%%%&%&&&&&&%&%%#",
"%%%%%&%%%%%%%%&%%#",
"%%%%%&%&&&&&&%&%%#",
"%%%%%&%%%%%%%%&%%#",
"%%%%%&%&&&&&&%&%%#",
"%%%%%&%%%%%%%%&%%#",
"%%%%%&&&&&&&&&&%%#",
"%%%%%%%%%%%%%%%%%#",
"#################*",
"$=&&&&&&&&&&&&&&&&",
"$=-...............",
"$=-+++++++++++++++"};
