/* XPM */
static char * closefcs_xpm[] = {
"25 25 69 1",
" 	c #F3F3F3",
".	c #F2F2F2",
"+	c #F1F1F1",
"@	c #ECEBE7",
"#	c #F1F0EB",
"$	c #EFEFEF",
"%	c #EAE9E5",
"&	c #A6A6A6",
"*	c #8D8D8D",
"=	c #8E8E8E",
"-	c #A7A7A7",
";	c #EFEEE8",
">	c #EEEEEE",
",	c #ECECEC",
"'	c #E7E7E3",
")	c #8C8C8C",
"!	c #EDEDEE",
"~	c #EDEDED",
"{	c #EBEBEC",
"]	c #EBEBEB",
"^	c #EAEAEA",
"/	c #8B8B8B",
"(	c #ECEBE6",
"_	c #E6E5E1",
":	c #ECECED",
"<	c #EBEAEB",
"[	c #E9E9E9",
"}	c #EBEAE5",
"|	c #EDECEC",
"1	c #ECEBEC",
"2	c #EAEBEB",
"3	c #EAEAE9",
"4	c #E9E8E8",
"5	c #EAE9EA",
"6	c #E8E9E8",
"7	c #E8E8E8",
"8	c #E6E6E2",
"9	c #ECEDED",
"0	c #767676",
"a	c #EBEBEA",
"b	c #757575",
"c	c #ECEDEC",
"d	c #E9E9EA",
"e	c #EDECE7",
"f	c #EAEAEB",
"g	c #EDECED",
"h	c #ECEBEB",
"i	c #757676",
"j	c #E9EAE9",
"k	c #E9E9E8",
"l	c #E8E7E3",
"m	c #767575",
"n	c #EEEDE8",
"o	c #EBEAEA",
"p	c #F0EFE9",
"q	c #F0F0F0",
"r	c #EBEAE6",
"s	c #EEEFEF",
"t	c #EEEDED",
"u	c #777777",
"v	c #777676",
"w	c #EAEBEA",
"x	c #F0EFEA",
"y	c #8F8F8F",
"z	c #EEEDEE",
"A	c #EDEEEE",
"B	c #EBECEB",
"C	c #EDEDEC",
"D	c #A8A8A8",
"                         ",
".........................",
"++@@@@@@@@@@@@@@@@@@@@#++",
"$$%&****====**===***=-;>$",
",,')>>!~~~~,,{],]^^^^/(]]",
"^^_/~~~:,{]]]<^^^[[[[/}^^",
"^^_/~~|,1]]]2^^^3[[[4/}^^",
"^^_/~,,,]]]]^^^5[[[67/}^^",
"]]8/~9,,00]]]a^^bb[[7/(]]",
",,')~~c,]00]]]]bbd[[7/e]]",
",,')~~,,,,00]fbb3[[[4)e,,",
",,')9g,,h]]0ibbj[[[k7)e,,",
"~~l)~~g,,,{]0m^^3[[[[)n~~",
"$$%=>>>~~g,0000]]o^^[=p$$",
"qqr=s>>t~~uv,,00]w^^^=xqq",
"qqr=>>t~~u0,,1]00^^^^=xqq",
"++@y>>>!uu~c,,1]00]]]y#++",
"++@y>>z~~~c,,]]]]]]]]y#++",
"++@y>A~~~:,,B]]]]]]]]y#++",
"++@y~~~~C,,]]]]]]]]]]y#++",
"qqrD=================Dxqq",
"qqrxxxxxxxxxxxxxxxxxxxxqq",
"qqqqq$$qqqq$$$q$$qqqqq$$$",
",,,,,]],,,,]]],]],,,,,]]]",
"7777777777777777777777777"};
