/* XPM */
static char * closepr_xpm[] = {
"25 25 90 1",
" 	c #F3F3F3",
".	c #F2F2F2",
"+	c #F1F1F1",
"@	c #ECEBE7",
"#	c #F1F0EB",
"$	c #EFEFEF",
"%	c #EAE9E5",
"&	c #A6A6A6",
"*	c #8D8D8D",
"=	c #8E8E8E",
"-	c #A7A7A7",
";	c #EFEEE8",
">	c #EEEEEE",
",	c #ECECEC",
"'	c #E7E7E3",
")	c #8C8C8C",
"!	c #E0E0E4",
"~	c #DFDFE4",
"{	c #DFDFE3",
"]	c #DEDEE2",
"^	c #DDDEE2",
"/	c #DDDEE1",
"(	c #DDDDE1",
"_	c #DCDCE0",
":	c #DCDCDF",
"<	c #DBDCDF",
"[	c #8B8B8B",
"}	c #ECEBE6",
"|	c #EBEBEB",
"1	c #EAEAEA",
"2	c #E6E5E1",
"3	c #DEDEE3",
"4	c #DEDFE2",
"5	c #DCDDE0",
"6	c #DBDBDF",
"7	c #DADBDE",
"8	c #EBEAE5",
"9	c #DFDEE2",
"0	c #DCDEE1",
"a	c #DAD9DD",
"b	c #D9DADD",
"c	c #D9D9DD",
"d	c #E6E6E2",
"e	c #DEDFE3",
"f	c #9C9C9F",
"g	c #9B9C9F",
"h	c #999A9D",
"i	c #999A9C",
"j	c #DADADE",
"k	c #D9DADE",
"l	c #D8D9DD",
"m	c #9B9C9E",
"n	c #9C9B9F",
"o	c #9A9A9D",
"p	c #DADADF",
"q	c #D8D9DC",
"r	c #EDECE7",
"s	c #9B9B9E",
"t	c #9A9B9D",
"u	c #DBDCE0",
"v	c #D9D9DC",
"w	c #DFDEE3",
"x	c #DEDDE1",
"y	c #D9DBDE",
"z	c #D8D8DC",
"A	c #EDEDED",
"B	c #E8E7E3",
"C	c #DCDDE1",
"D	c #DADBDF",
"E	c #DADBDD",
"F	c #EEEDE8",
"G	c #DFE0E3",
"H	c #9A9B9E",
"I	c #F0EFE9",
"J	c #F0F0F0",
"K	c #EBEAE6",
"L	c #E0E1E4",
"M	c #DFDFE2",
"N	c #F0EFEA",
"O	c #DCDBE0",
"P	c #8F8F8F",
"Q	c #DBDBE0",
"R	c #99999C",
"S	c #DDDFE3",
"T	c #DCDCE1",
"U	c #DADCDF",
"V	c #D9D9DE",
"W	c #DDDDE0",
"X	c #A8A8A8",
"Y	c #E8E8E8",
"                         ",
".........................",
"++@@@@@@@@@@@@@@@@@@@@#++",
"$$%&****====**===***=-;>$",
",,')!!~{{{{]]^/](_:<<[}||",
"112[{{{34^///(5__6777[811",
"112[{{9]]///05__<777a[811",
"112[{]4]////5__6777bc[811",
"||d[{e]]fg/((5<<hijkl[}||",
",,'){{4]/mn(555oopkkq[r||",
",,'){{]4]]st5uoo7kkbv)r,,",
",,')ew]]x(5ttooykbbvz)r,,",
"AAB){{w]//C5ooDDEbcll)FAA",
"$$%=!!G44](sHto66jkkl=I$$",
"JJK=LGGM]]gs55ooDykkc=NJJ",
"JJK=GGM]]gH55O6hhkkcl=NJJ",
"++@PGG{3gm/5_uQDiRjkkP#++",
"++@P{{3^//5_uDD7jkkkkP#++",
"++@P{S^//T_uUD7jkkkkVP#++",
"++@P^//(W_uDDjjkkkkccP#++",
"JJKX=================XNJJ",
"JJKNNNNNNNNNNNNNNNNNNNNJJ",
"JJJJJ$$JJJJ$$$J$$JJJJJ$$$",
",,,,,||,,,,|||,||,,,,,|||",
"YYYYYYYYYYYYYYYYYYYYYYYYY"};
