/* XPM */
static char * maxfcs_xpm[] = {
"25 25 69 1",
" 	c #F3F3F3",
".	c #F2F2F2",
"+	c #F1F1F1",
"@	c #ECEBE7",
"#	c #F1F0EB",
"$	c #EFEFEF",
"%	c #EAE9E5",
"&	c #A6A6A6",
"*	c #8D8D8D",
"=	c #8E8E8E",
"-	c #A7A7A7",
";	c #EFEEE8",
">	c #EEEEEE",
",	c #ECECEC",
"'	c #E7E7E3",
")	c #8C8C8C",
"!	c #EDEDEE",
"~	c #EDEDED",
"{	c #EBEBEC",
"]	c #EBEBEB",
"^	c #EAEAEA",
"/	c #8B8B8B",
"(	c #ECEBE6",
"_	c #E6E5E1",
":	c #ECECED",
"<	c #EBEAEB",
"[	c #E9E9E9",
"}	c #EBEAE5",
"|	c #EDECEC",
"1	c #ECEBEC",
"2	c #EAEBEB",
"3	c #EAEAE9",
"4	c #E9E8E8",
"5	c #EAE9EA",
"6	c #E8E9E8",
"7	c #E8E8E8",
"8	c #E6E6E2",
"9	c #ECEDED",
"0	c #EBECEC",
"a	c #EBEBEA",
"b	c #E9EAEA",
"c	c #ECEDEC",
"d	c #767676",
"e	c #E9E9EA",
"f	c #EDECE7",
"g	c #757576",
"h	c #EDECED",
"i	c #ECEBEB",
"j	c #757575",
"k	c #E9EAE9",
"l	c #E9E9E8",
"m	c #E8E7E3",
"n	c #EBEAEA",
"o	c #EEEDE8",
"p	c #777777",
"q	c #777677",
"r	c #F0EFE9",
"s	c #F0F0F0",
"t	c #EBEAE6",
"u	c #EEEFEF",
"v	c #EEEDED",
"w	c #EAEBEA",
"x	c #F0EFEA",
"y	c #8F8F8F",
"z	c #EEEDEE",
"A	c #EDEEEE",
"B	c #EBECEB",
"C	c #EDEDEC",
"D	c #A8A8A8",
"                         ",
".........................",
"++@@@@@@@@@@@@@@@@@@@@#++",
"$$%&****====**===***=-;>$",
",,')>>!~~~~,,{],]^^^^/(]]",
"^^_/~~~:,{]]]<^^^[[[[/}^^",
"^^_/~~|,1]]]2^^^3[[[4/}^^",
"^^_/~,,,]]]]^^^5[[[67/}^^",
"]]8/~9,,,0]]]a^^b[[[7/(]]",
",,')~~c,]]1]d]]^^e[[7/f]]",
",,')~~,,,,]ddg^^3[[[4)f,,",
",,')9h,,i]dd2jjk[[[l7)f,,",
"~~m)~~h,,dd]]njj3[[[[)o~~",
"$$%=>>>~pq,,,0]ddn^^[=r$$",
"sst=u>>v~~~|,,,]]w^^^=xss",
"sst=>>v~~~,,,1]]]^^^^=xss",
"++@y>>>!~~~c,,1]]]]]]y#++",
"++@y>>z~~~c,,]]]]]]]]y#++",
"++@y>A~~~:,,B]]]]]]]]y#++",
"++@y~~~~C,,]]]]]]]]]]y#++",
"sstD=================Dxss",
"sstxxxxxxxxxxxxxxxxxxxxss",
"sssss$$ssss$$$s$$sssss$$$",
",,,,,]],,,,]]],]],,,,,]]]",
"7777777777777777777777777"};
