/* XPM */
static char * maxpr_xpm[] = {
"25 25 88 1",
" 	c #F3F3F3",
".	c #F2F2F2",
"+	c #F1F1F1",
"@	c #ECEBE7",
"#	c #F1F0EB",
"$	c #EFEFEF",
"%	c #EAE9E5",
"&	c #A6A6A6",
"*	c #8D8D8D",
"=	c #8E8E8E",
"-	c #A7A7A7",
";	c #EFEEE8",
">	c #EEEEEE",
",	c #ECECEC",
"'	c #E7E7E3",
")	c #8C8C8C",
"!	c #E0E0E4",
"~	c #DFDFE4",
"{	c #DFDFE3",
"]	c #DEDEE2",
"^	c #DDDEE2",
"/	c #DDDEE1",
"(	c #DDDDE1",
"_	c #DCDCE0",
":	c #DCDCDF",
"<	c #DBDCDF",
"[	c #8B8B8B",
"}	c #ECEBE6",
"|	c #EBEBEB",
"1	c #EAEAEA",
"2	c #E6E5E1",
"3	c #DEDEE3",
"4	c #DEDFE2",
"5	c #DCDDE0",
"6	c #DBDBDF",
"7	c #DADBDE",
"8	c #EBEAE5",
"9	c #DFDEE2",
"0	c #DCDEE1",
"a	c #DAD9DD",
"b	c #D9DADD",
"c	c #D9D9DD",
"d	c #E6E6E2",
"e	c #DEDFE3",
"f	c #DADCDF",
"g	c #DADADE",
"h	c #D9DADE",
"i	c #D8D9DD",
"j	c #DEDDE2",
"k	c #9A9B9D",
"l	c #DADADF",
"m	c #D8D9DC",
"n	c #EDECE7",
"o	c #9A9A9D",
"p	c #D9D9DC",
"q	c #DFDEE3",
"r	c #DEDDE1",
"s	c #DBDDE0",
"t	c #D9DBDE",
"u	c #D8D8DC",
"v	c #EDEDED",
"w	c #E8E7E3",
"x	c #9B9C9E",
"y	c #9A9B9E",
"z	c #999A9D",
"A	c #DADBDD",
"B	c #EEEDE8",
"C	c #DFE0E3",
"D	c #9C9D9F",
"E	c #9C9C9F",
"F	c #DCDDE1",
"G	c #F0EFE9",
"H	c #F0F0F0",
"I	c #EBEAE6",
"J	c #E0E1E4",
"K	c #DFDFE2",
"L	c #DADBDF",
"M	c #F0EFEA",
"N	c #DCDBE0",
"O	c #8F8F8F",
"P	c #DBDCE0",
"Q	c #DBDBE0",
"R	c #DDDFE3",
"S	c #DCDCE1",
"T	c #D9D9DE",
"U	c #DDDDE0",
"V	c #A8A8A8",
"W	c #E8E8E8",
"                         ",
".........................",
"++@@@@@@@@@@@@@@@@@@@@#++",
"$$%&****====**===***=-;>$",
",,')!!~{{{{]]^/](_:<<[}||",
"112[{{{34^///(5__6777[811",
"112[{{9]]///05__<777a[811",
"112[{]4]////5__6777bc[811",
"||d[{e]]]^/((5<<f7ghi[}||",
",,'){{4]//j(k55<6lhhm[n||",
",,'){{]4]](kko<67hhbp)n,,",
",,')eq]]r(kksoothbbpu)n,,",
"vvw){{q]/xy5_6zzAbcii)Bvv",
"$$%=!!C4DE((Fs<ooghhi=G$$",
"HHI=JCCK]]^(55_6Lthhc=MHH",
"HHI=CCK]]^F55N6LLhhci=MHH",
"++@OCC{3^//5_PQL7gghhO#++",
"++@O{{3^//5_PLL7ghhhhO#++",
"++@O{R^//S_PfL7ghhhhTO#++",
"++@O^//(U_PLLgghhhhccO#++",
"HHIV=================VMHH",
"HHIMMMMMMMMMMMMMMMMMMMMHH",
"HHHHH$$HHHH$$$H$$HHHHH$$$",
",,,,,||,,,,|||,||,,,,,|||",
"WWWWWWWWWWWWWWWWWWWWWWWWW"};
