/* XPM */
static char * minfcs_xpm[] = {
"25 25 67 1",
" 	c #F3F3F3",
".	c #F2F2F2",
"+	c #F1F1F1",
"@	c #ECEBE7",
"#	c #F1F0EB",
"$	c #EFEFEF",
"%	c #EAE9E5",
"&	c #A6A6A6",
"*	c #8D8D8D",
"=	c #8E8E8E",
"-	c #A7A7A7",
";	c #EFEEE8",
">	c #EEEEEE",
",	c #ECECEC",
"'	c #E7E7E3",
")	c #8C8C8C",
"!	c #EDEDEE",
"~	c #EDEDED",
"{	c #EBEBEC",
"]	c #EBEBEB",
"^	c #EAEAEA",
"/	c #8B8B8B",
"(	c #ECEBE6",
"_	c #E6E5E1",
":	c #ECECED",
"<	c #EBEAEB",
"[	c #E9E9E9",
"}	c #EBEAE5",
"|	c #EDECEC",
"1	c #ECEBEC",
"2	c #EAEBEB",
"3	c #EAEAE9",
"4	c #E9E8E8",
"5	c #EAE9EA",
"6	c #E8E9E8",
"7	c #E8E8E8",
"8	c #E6E6E2",
"9	c #ECEDED",
"0	c #EBECEC",
"a	c #EBEBEA",
"b	c #E9EAEA",
"c	c #ECEDEC",
"d	c #E9E9EA",
"e	c #EDECE7",
"f	c #767676",
"g	c #EAEAEB",
"h	c #757575",
"i	c #EDECED",
"j	c #ECEBEB",
"k	c #E9E9E8",
"l	c #E8E7E3",
"m	c #767575",
"n	c #EEEDE8",
"o	c #EBEAEA",
"p	c #F0EFE9",
"q	c #F0F0F0",
"r	c #EBEAE6",
"s	c #EEEFEF",
"t	c #EEEDED",
"u	c #EAEBEA",
"v	c #F0EFEA",
"w	c #8F8F8F",
"x	c #EEEDEE",
"y	c #EDEEEE",
"z	c #EBECEB",
"A	c #EDEDEC",
"B	c #A8A8A8",
"                         ",
".........................",
"++@@@@@@@@@@@@@@@@@@@@#++",
"$$%&****====**===***=-;>$",
",,')>>!~~~~,,{],]^^^^/(]]",
"^^_/~~~:,{]]]<^^^[[[[/}^^",
"^^_/~~|,1]]]2^^^3[[[4/}^^",
"^^_/~,,,]]]]^^^5[[[67/}^^",
"]]8/~9,,,0]]]a^^b[[[7/(]]",
",,')~~c,]]1]]]]^^d[[7/e]]",
",,')~~,,ff]]]g^hh[[[4)e,,",
",,')9i,,jff]2^hh[[[k7)e,,",
"~~l)~~i,,,ff]mh^3[[[[)n~~",
"$$%=>>>~~i,fff]]]o^^[=p$$",
"qqr=s>>t~~~|f,,]]u^^^=vqq",
"qqr=>>t~~~,,,1]]]^^^^=vqq",
"++@w>>>!~~~c,,1]]]]]]w#++",
"++@w>>x~~~c,,]]]]]]]]w#++",
"++@w>y~~~:,,z]]]]]]]]w#++",
"++@w~~~~A,,]]]]]]]]]]w#++",
"qqrB=================Bvqq",
"qqrvvvvvvvvvvvvvvvvvvvvqq",
"qqqqq$$qqqq$$$q$$qqqqq$$$",
",,,,,]],,,,]]],]],,,,,]]]",
"7777777777777777777777777"};
