/* XPM */
static char * minpr_xpm[] = {
"25 25 89 1",
" 	c #F3F3F3",
".	c #F2F2F2",
"+	c #F1F1F1",
"@	c #ECEBE7",
"#	c #F1F0EB",
"$	c #EFEFEF",
"%	c #EAE9E5",
"&	c #A6A6A6",
"*	c #8D8D8D",
"=	c #8E8E8E",
"-	c #A7A7A7",
";	c #EFEEE8",
">	c #EEEEEE",
",	c #ECECEC",
"'	c #E7E7E3",
")	c #8C8C8C",
"!	c #E0E0E4",
"~	c #DFDFE4",
"{	c #DFDFE3",
"]	c #DEDEE2",
"^	c #DDDEE2",
"/	c #DDDEE1",
"(	c #DDDDE1",
"_	c #DCDCE0",
":	c #DCDCDF",
"<	c #DBDCDF",
"[	c #8B8B8B",
"}	c #ECEBE6",
"|	c #EBEBEB",
"1	c #EAEAEA",
"2	c #E6E5E1",
"3	c #DEDEE3",
"4	c #DEDFE2",
"5	c #DCDDE0",
"6	c #DBDBDF",
"7	c #DADBDE",
"8	c #EBEAE5",
"9	c #DFDEE2",
"0	c #DCDEE1",
"a	c #DAD9DD",
"b	c #D9DADD",
"c	c #D9D9DD",
"d	c #E6E6E2",
"e	c #DEDFE3",
"f	c #DADCDF",
"g	c #DADADE",
"h	c #D9DADE",
"i	c #D8D9DD",
"j	c #DEDDE2",
"k	c #DADADF",
"l	c #D8D9DC",
"m	c #EDECE7",
"n	c #9C9C9F",
"o	c #DBDCE0",
"p	c #9A9A9D",
"q	c #999A9C",
"r	c #D9D9DC",
"s	c #DFDEE3",
"t	c #DEDDE1",
"u	c #9B9B9E",
"v	c #9A9B9D",
"w	c #DBDDE0",
"x	c #989A9C",
"y	c #D8D8DC",
"z	c #EDEDED",
"A	c #E8E7E3",
"B	c #9A9B9E",
"C	c #999A9D",
"D	c #DADBDF",
"E	c #DADBDD",
"F	c #EEEDE8",
"G	c #DFE0E3",
"H	c #F0EFE9",
"I	c #F0F0F0",
"J	c #EBEAE6",
"K	c #E0E1E4",
"L	c #DFDFE2",
"M	c #D9DBDE",
"N	c #F0EFEA",
"O	c #DCDDE1",
"P	c #DCDBE0",
"Q	c #8F8F8F",
"R	c #DBDBE0",
"S	c #DDDFE3",
"T	c #DCDCE1",
"U	c #D9D9DE",
"V	c #DDDDE0",
"W	c #A8A8A8",
"X	c #E8E8E8",
"                         ",
".........................",
"++@@@@@@@@@@@@@@@@@@@@#++",
"$$%&****====**===***=-;>$",
",,')!!~{{{{]]^/](_:<<[}||",
"112[{{{34^///(5__6777[811",
"112[{{9]]///05__<777a[811",
"112[{]4]////5__6777bc[811",
"||d[{e]]]^/((5<<f7ghi[}||",
",,'){{4]//j(555<6khhl[m||",
",,'){{]4nn(55o<pqhhbr)m,,",
",,')es]]tuv5w6pxhbbry)m,,",
"zzA){{s]//Bv_pCDEbcii)Fzz",
"$$%=!!G44](uBv<66ghhi=H$$",
"IIJ=KGGL]]^(v5_6DMhhc=NII",
"IIJ=GGL]]^O55P6DDhhci=NII",
"++@QGG{3^//5_oRD7gghhQ#++",
"++@Q{{3^//5_oDD7ghhhhQ#++",
"++@Q{S^//T_ofD7ghhhhUQ#++",
"++@Q^//(V_oDDgghhhhccQ#++",
"IIJW=================WNII",
"IIJNNNNNNNNNNNNNNNNNNNNII",
"IIIII$$IIII$$$I$$IIIII$$$",
",,,,,||,,,,|||,||,,,,,|||",
"XXXXXXXXXXXXXXXXXXXXXXXXX"};
