/* XPM */
static char * minufcs_xpm[] = {
"25 25 65 1",
" 	c #F3F3F3",
".	c #F2F2F2",
"+	c #F1F1F1",
"@	c #ECEBE7",
"#	c #F1F0EB",
"$	c #EFEFEF",
"%	c #EAE9E5",
"&	c #A6A6A6",
"*	c #8D8D8D",
"=	c #8E8E8E",
"-	c #A7A7A7",
";	c #EFEEE8",
">	c #EEEEEE",
",	c #ECECEC",
"'	c #E7E7E3",
")	c #8C8C8C",
"!	c #EDEDEE",
"~	c #EDEDED",
"{	c #EBEBEC",
"]	c #EBEBEB",
"^	c #EAEAEA",
"/	c #8B8B8B",
"(	c #ECEBE6",
"_	c #E6E5E1",
":	c #ECECED",
"<	c #EBEAEB",
"[	c #E9E9E9",
"}	c #EBEAE5",
"|	c #EDECEC",
"1	c #ECEBEC",
"2	c #EAEBEB",
"3	c #EAEAE9",
"4	c #E9E8E8",
"5	c #EAE9EA",
"6	c #E8E9E8",
"7	c #E8E8E8",
"8	c #E6E6E2",
"9	c #ECEDED",
"0	c #EBECEC",
"a	c #EBEBEA",
"b	c #E9EAEA",
"c	c #ECEDEC",
"d	c #E9E9EA",
"e	c #EDECE7",
"f	c #EAEAEB",
"g	c #EDECED",
"h	c #ECEBEB",
"i	c #E9EAE9",
"j	c #E9E9E8",
"k	c #E8E7E3",
"l	c #EBEAEA",
"m	c #EEEDE8",
"n	c #F0EFE9",
"o	c #F0F0F0",
"p	c #EBEAE6",
"q	c #EEEFEF",
"r	c #EEEDED",
"s	c #EAEBEA",
"t	c #F0EFEA",
"u	c #8F8F8F",
"v	c #EEEDEE",
"w	c #EDEEEE",
"x	c #EBECEB",
"y	c #EDEDEC",
"z	c #A8A8A8",
"                         ",
".........................",
"++@@@@@@@@@@@@@@@@@@@@#++",
"$$%&****====**===***=-;>$",
",,')>>!~~~~,,{],]^^^^/(]]",
"^^_/~~~:,{]]]<^^^[[[[/}^^",
"^^_/~~|,1]]]2^^^3[[[4/}^^",
"^^_/~,,,]]]]^^^5[[[67/}^^",
"]]8/~9,,,0]]]a^^b[[[7/(]]",
",,')~~c,]]1]]]]^^d[[7/e]]",
",,')~~,,,,]]]f^^3[[[4)e,,",
",,')9g,,h]]]2^^i[[[j7)e,,",
"~~k)~~g,,,{]]l^^3[[[[)m~~",
"$$%=>>>~~g,,,0]]]l^^[=n$$",
"oop=q>>r~~~|,,,]]s^^^=too",
"oop=>>r~~~,,,1]]]^^^^=too",
"++@u>>>!~~~c,,1]]]]]]u#++",
"++@u>>v~~~c,,]]]]]]]]u#++",
"++@u>w~~~:,,x]]]]]]]]u#++",
"++@u~~~~y,,]]]]]]]]]]u#++",
"oopz=================ztoo",
"oopttttttttttttttttttttoo",
"ooooo$$oooo$$$o$$ooooo$$$",
",,,,,]],,,,]]],]],,,,,]]]",
"7777777777777777777777777"};
