/* XPM */
static char * stickpr_xpm[] = {
"25 25 81 1",
" 	c #F3F3F3",
".	c #F2F2F2",
"+	c #F1F1F1",
"@	c #ECEBE7",
"#	c #F1F0EB",
"$	c #EFEFEF",
"%	c #EAE9E5",
"&	c #A6A6A6",
"*	c #8D8D8D",
"=	c #8E8E8E",
"-	c #A7A7A7",
";	c #EFEEE8",
">	c #EEEEEE",
",	c #ECECEC",
"'	c #E7E7E3",
")	c #8C8C8C",
"!	c #E0E0E4",
"~	c #DFDFE4",
"{	c #DFDFE3",
"]	c #DEDEE2",
"^	c #DDDEE2",
"/	c #DDDEE1",
"(	c #DDDDE1",
"_	c #DCDCE0",
":	c #DCDCDF",
"<	c #DBDCDF",
"[	c #8B8B8B",
"}	c #ECEBE6",
"|	c #EBEBEB",
"1	c #EAEAEA",
"2	c #E6E5E1",
"3	c #DEDEE3",
"4	c #DEDFE2",
"5	c #DCDDE0",
"6	c #DBDBDF",
"7	c #DADBDE",
"8	c #EBEAE5",
"9	c #DFDEE2",
"0	c #DCDEE1",
"a	c #DAD9DD",
"b	c #D9DADD",
"c	c #D9D9DD",
"d	c #E6E6E2",
"e	c #DEDFE3",
"f	c #DADCDF",
"g	c #DADADE",
"h	c #D9DADE",
"i	c #D8D9DD",
"j	c #DEDDE2",
"k	c #DADADF",
"l	c #D8D9DC",
"m	c #EDECE7",
"n	c #DBDCE0",
"o	c #D9D9DC",
"p	c #DFDEE3",
"q	c #DEDDE1",
"r	c #DBDDE0",
"s	c #D9DBDE",
"t	c #D8D8DC",
"u	c #EDEDED",
"v	c #E8E7E3",
"w	c #DCDDE1",
"x	c #DADBDF",
"y	c #DADBDD",
"z	c #EEEDE8",
"A	c #DFE0E3",
"B	c #F0EFE9",
"C	c #F0F0F0",
"D	c #EBEAE6",
"E	c #E0E1E4",
"F	c #DFDFE2",
"G	c #F0EFEA",
"H	c #DCDBE0",
"I	c #8F8F8F",
"J	c #DBDBE0",
"K	c #DDDFE3",
"L	c #DCDCE1",
"M	c #D9D9DE",
"N	c #DDDDE0",
"O	c #A8A8A8",
"P	c #E8E8E8",
"                         ",
".........................",
"++@@@@@@@@@@@@@@@@@@@@#++",
"$$%&****====**===***=-;>$",
",,')!!~{{{{]]^/](_:<<[}||",
"112[{{{34^///(5__6777[811",
"112[{{9]]///05__<777a[811",
"112[{]4]////5__6777bc[811",
"||d[{e]]]^/((5<<f7ghi[}||",
",,'){{4]//j(555<6khhl[m||",
",,'){{]4]](55n<67hhbo)m,,",
",,')ep]]q(55r66shbbot)m,,",
"uuv){{p]//w5_6xxybcii)zuu",
"$$%=!!A44]((wr<66ghhi=B$$",
"CCD=EAAF]]^(55_6xshhc=GCC",
"CCD=AAF]]^w55H6xxhhci=GCC",
"++@IAA{3^//5_nJx7gghhI#++",
"++@I{{3^//5_nxx7ghhhhI#++",
"++@I{K^//L_nfx7ghhhhMI#++",
"++@I^//(N_nxxgghhhhccI#++",
"CCDO=================OGCC",
"CCDGGGGGGGGGGGGGGGGGGGGCC",
"CCCCC$$CCCC$$$C$$CCCCC$$$",
",,,,,||,,,,|||,||,,,,,|||",
"PPPPPPPPPPPPPPPPPPPPPPPPP"};
