/* XPM */
static char * stuckufcs_xpm[] = {
"25 25 68 1",
" 	c #F3F3F3",
".	c #F2F2F2",
"+	c #F1F1F1",
"@	c #ECEBE7",
"#	c #F1F0EB",
"$	c #EFEFEF",
"%	c #EAE9E5",
"&	c #A6A6A6",
"*	c #8D8D8D",
"=	c #8E8E8E",
"-	c #A7A7A7",
";	c #EFEEE8",
">	c #EEEEEE",
",	c #ECECEC",
"'	c #E7E7E3",
")	c #8C8C8C",
"!	c #777777",
"~	c #EDEDEE",
"{	c #EDEDED",
"]	c #EBEBEC",
"^	c #EBEBEB",
"/	c #EAEAEA",
"(	c #757575",
"_	c #8B8B8B",
":	c #ECEBE6",
"<	c #E6E5E1",
"[	c #ECECED",
"}	c #EBEAEB",
"|	c #E9E9E9",
"1	c #EBEAE5",
"2	c #777676",
"3	c #ECEBEC",
"4	c #EAEBEB",
"5	c #EAEAE9",
"6	c #E9E8E8",
"7	c #767676",
"8	c #EAE9EA",
"9	c #E8E9E8",
"0	c #E8E8E8",
"a	c #E6E6E2",
"b	c #ECEDED",
"c	c #EBECEC",
"d	c #EBEBEA",
"e	c #ECEDEC",
"f	c #E9E9EA",
"g	c #EDECE7",
"h	c #EAEAEB",
"i	c #EDECED",
"j	c #ECEBEB",
"k	c #757676",
"l	c #E9EAE9",
"m	c #E9E9E8",
"n	c #E8E7E3",
"o	c #767575",
"p	c #EEEDE8",
"q	c #EBEAEA",
"r	c #F0EFE9",
"s	c #F0F0F0",
"t	c #EBEAE6",
"u	c #EEEFEF",
"v	c #EEEDED",
"w	c #EDECEC",
"x	c #EAEBEA",
"y	c #F0EFEA",
"z	c #8F8F8F",
"A	c #EBECEB",
"B	c #EDEDEC",
"C	c #A8A8A8",
"                         ",
".........................",
"++@@@@@@@@@@@@@@@@@@@@#++",
"$$%&****====**===***=-;>$",
",,')!>~{{{{,,]^,^///(_:^^",
"//<_{!{[,]^^^}///||(|_1//",
"//<_{{2,3^^^4///5|(|6_1//",
"//<_{,,7^^^^///8|(|90_1//",
"^^a_{b,,7c^^^d//(|||0_:^^",
",,'){{e,^73^^^^(/f||0_g^^",
",,'){{,,,,7^^h(/5|||6)g,,",
",,')bi,,j^^7k(/l|||m0)g,,",
"{{n){{i,,,]77o//5||||)p{{",
"$$%=>>>{{i7,,c7^^q//|=r$$",
"sst=u>>v{!{w,,,7^x///=yss",
"sst=>>v{!{,,,3^^7////=yss",
"++@z>>>!{{{e,,3^^7^^^z#++",
"++@z>>!{{{e,,^^^^^7^^z#++",
"++@z>!{{{[,,A^^^^^^7^z#++",
"++@z!{{{B,,^^^^^^^^^7z#++",
"sstC=================Cyss",
"sstyyyyyyyyyyyyyyyyyyyyss",
"sssss$$ssss$$$s$$sssss$$$",
",,,,,^^,,,,^^^,^^,,,,,^^^",
"0000000000000000000000000"};
