/* XPM */
static char * tbarufcs_xpm[] = {
"25 25 11 1",
" 	c #F3F3F3",
".	c #F2F2F2",
"+	c #F1F1F1",
"@	c #EFEFEF",
"#	c #EEEEEE",
"$	c #ECECEC",
"%	c #EBEBEB",
"&	c #EAEAEA",
"*	c #EDEDED",
"=	c #F0F0F0",
"-	c #E8E8E8",
"                         ",
".........................",
"+++++++++++++++++++++++++",
"@@@#####@@@@##@@@###@@##@",
"$$$$%%%%%$$%%%%$%%%%%%%%%",
"&&&&&&&&&&&&&&&&&&&&&&&&&",
"&&&&&&&&&&&&&&&&&&&&&&&&&",
"&&&&&&&&&&&&&&&&&&&&&&&&&",
"%%%%%%%%%%%%%%%%%%%%%%%%%",
"$$$$$$$$%%$$$$$$$$$$%%$%%",
"$$$$$$$$$$$$$$$$$$$$$$$$$",
"$$$$$$$$$$$$$$$$$$$$$$$$$",
"*************************",
"@@@@@@@@@@@@@@@@@@@@@@@@@",
"=========================",
"=========================",
"+++++++++++++++++++++++++",
"+++++++++++++++++++++++++",
"+++++++++++++++++++++++++",
"+++++++++++++++++++++++++",
"=========================",
"=========================",
"=====@@====@@@=@@=====@@@",
"$$$$$%%$$$$%%%$%%$$$$$%%%",
"-------------------------"};
