/* XPM */
static char * hilite_xpm[] = {
"8 15 14 1",
" 	c #FEFFFB",
".	c #FFFEFF",
"+	c #FFFFFD",
"@	c #FFFFFF",
"#	c #F9F9F9",
"$	c #F7F7F7",
"%	c #F4F4F4",
"&	c #F0F0F0",
"*	c #EFEFF1",
"=	c #EBEBED",
"-	c #E9E9EB",
";	c #E7E7E7",
">	c #E5E5E3",
",	c #E3E4E8",
"        ",
"........",
"++++++++",
"@@@@@@@@",
"@@@@@@@@",
"########",
"$$$$$$$$",
"%%%%%%%%",
"&&&&&&&&",
"********",
"========",
"--------",
";;;;;;;;",
">>>>>>>>",
",,,,,,,,"};
