/* XPM */
static char * icon_xpm[] = {
"20 21 123 2",
"  	c #FFFFFF",
". 	c #FEFEFE",
"+ 	c #FBFBFB",
"@ 	c #F9F9F9",
"# 	c #F8F8F8",
"$ 	c #F7F7F7",
"% 	c #F6F6F6",
"& 	c #F3F3F3",
"* 	c #EFEFEF",
"= 	c #EBEBEB",
"- 	c #E7E7E7",
"; 	c #E5E5E5",
"> 	c #EEEEEE",
", 	c #E8E8E8",
"' 	c #CCCCCC",
") 	c #ACACAC",
"! 	c #9A9A9A",
"~ 	c #F8F6F7",
"{ 	c #F2F4F1",
"] 	c #E3E3E5",
"^ 	c #B6B8B7",
"/ 	c #9FAD94",
"( 	c #AFDE9A",
"_ 	c #B7F19A",
": 	c #EFEFF1",
"< 	c #F3F5F4",
"[ 	c #F6F8F7",
"} 	c #F7F7F5",
"| 	c #F7F7F9",
"1 	c #F8F6F9",
"2 	c #F2F1F6",
"3 	c #EBEDEA",
"4 	c #BEBABB",
"5 	c #A3C593",
"6 	c #B4F891",
"7 	c #B1F890",
"8 	c #B2FA8E",
"9 	c #ECEDE8",
"0 	c #F2F2F4",
"a 	c #F8F8F6",
"b 	c #F1F1F1",
"c 	c #D0D0D2",
"d 	c #9BB295",
"e 	c #A2F079",
"f 	c #A4F27A",
"g 	c #A3F27B",
"h 	c #9AB194",
"i 	c #F1F1EF",
"j 	c #EAECE9",
"k 	c #EAEAEA",
"l 	c #EAEAEC",
"m 	c #B0AEB1",
"n 	c #95D672",
"o 	c #8FE965",
"p 	c #91E863",
"q 	c #92E765",
"r 	c #94D473",
"s 	c #E9EBE8",
"t 	c #E9EAEC",
"u 	c #EEE9ED",
"v 	c #E6E7E9",
"w 	c #A6A4A5",
"x 	c #74D33B",
"y 	c #72D837",
"z 	c #72D636",
"A 	c #6FD738",
"B 	c #71D638",
"C 	c #74D53A",
"D 	c #EEE9EF",
"E 	c #E9EBEA",
"F 	c #EBE9EA",
"G 	c #A9A9AB",
"H 	c #51C816",
"I 	c #51C80C",
"J 	c #50CB0B",
"K 	c #4FC90C",
"L 	c #50C90C",
"M 	c #50C811",
"N 	c #EBEAE8",
"O 	c #EBE9EC",
"P 	c #BABABC",
"Q 	c #67C533",
"R 	c #4FCC0C",
"S 	c #4ECB0B",
"T 	c #4FCD0A",
"U 	c #4FCC0E",
"V 	c #65C432",
"W 	c #BBBBBB",
"X 	c #EBEBED",
"Y 	c #EAEAE8",
"Z 	c #E9EAEE",
"` 	c #D8D7D5",
" .	c #9DBA8A",
"..	c #54D20F",
"+.	c #52D40F",
"@.	c #52D410",
"#.	c #54D40D",
"$.	c #9FBC8C",
"%.	c #D9D7D8",
"&.	c #EAE9EE",
"*.	c #ECECEC",
"=.	c #CECECE",
"-.	c #8CCC6C",
";.	c #5DDD18",
">.	c #5ADF16",
",.	c #5ADE18",
"'.	c #E9E9E9",
").	c #AACC9A",
"!.	c #81DD54",
"~.	c #6CE331",
"{.	c #E9E9EB",
"].	c #EDEDEF",
"^.	c #EDEDED",
"/.	c #DFE1E0",
"(.	c #CFCFD1",
"_.	c #C8C8C8",
":.	c #ECEBF0",
"<.	c #EFEDEE",
"[.	c #EBEDEC",
"}.	c #DCDCDC",
"|.	c #DBDBDB",
"1.	c #DCDCDE",
"2.	c #DADBDD",
"                                        ",
". . . . . . . . . . . . . . . . . . . . ",
"+ + + + + + + + + + + + + + + + + + + + ",
"@ @ # @ @ @ @ @ @ @ @ @ @ @ @ @ @ # @ @ ",
"$ $ $ $ $ % $ $ $ $ $ $ $ $ % $ $ $ $ $ ",
"$ $ $ $ % & * = - ; ; - = * & % $ $ $ $ ",
"$ $ $ $ & > , ' ) ! ! ) ' , > & $ $ $ $ ",
"~ ~ $ { * ] ^ / ( _ _ ( / ^ ] : < [ $ } ",
"| $ 1 2 3 4 5 6 7 8 8 7 6 5 4 9 0 1 $ $ ",
"a $ $ b c d e f g g g g f e h c i a $ $ ",
"j k l ; m n o p q p p q p o r m ; l l s ",
"t k u v w x y z A B B A z y C w v D k E ",
"l t F = G H I J K L L K J I M G l N E k ",
"l E E O P Q R S T U U T S R V W O t X k ",
"l Y Z j `  ...+.@.#.#.@.+...$.%.s l F &.",
"k k k *.= =.-.;.>.,.,.>.;.-.=.= *.k k k ",
"k k k '.*.'.c ).!.~.~.!.).c '.*.'.k k k ",
"l l l l {.].^./.(._._.(./.^.].{.l l l l ",
"l X {.X l {.= :.].<.<.].:.= {.l X {.X l ",
"l l {.l X l k t = [.[.= t k l X l {.l l ",
"}.|.}.}.}.|.}.1.2.}.}.2.1.}.|.}.}.}.|.}."};
