/* XPM */
static char * menu_xpm[] = {
"8 22 14 1",
" 	c #AED40F",
".	c #AFD30F",
"+	c #AED20E",
"@	c #ADD30E",
"#	c #ADD10D",
"$	c #ACD20D",
"%	c #AFD510",
"&	c #AFD30D",
"*	c #AED313",
"=	c #95BA00",
"-	c #96BA00",
";	c #94BB00",
">	c #96B903",
",	c #95B900",
"     .+@",
"     +#$",
"     .. ",
"      % ",
"     $@ ",
"     @  ",
"      % ",
"     $  ",
"&&&&&&&&",
"@@@@@@@@",
"********",
"========",
"--------",
"--------",
"--------",
";;;;;;;;",
"--------",
"--------",
"--------",
">>>>>>>>",
"--------",
",,,,,,,,"};
