/* XPM */
static char * stuck_xpm[] = {
"18 21 143 2",
"  	c #FFFFFF",
". 	c #FFFFFD",
"+ 	c #FEFEFE",
"@ 	c #FDFDFD",
"# 	c #FCFDFF",
"$ 	c #FBFBFB",
"% 	c #FCFCFC",
"& 	c #FAFAFA",
"* 	c #FAFCFB",
"= 	c #FBFBF9",
"- 	c #F9F9F9",
"; 	c #F8F8F8",
"> 	c #FAF8FB",
", 	c #FAF9F7",
"' 	c #F7F7F7",
") 	c #F6F6F6",
"! 	c #F6F8F7",
"~ 	c #F7F7F5",
"{ 	c #F8F6F7",
"] 	c #F7F7F9",
"^ 	c #F6F8F5",
"/ 	c #F7F8F3",
"( 	c #F8F7F5",
"_ 	c #F6F7FB",
": 	c #F1F2F4",
"< 	c #EDEEF0",
"[ 	c #E0E0E2",
"} 	c #BBBDBA",
"| 	c #9D9D9D",
"1 	c #959593",
"2 	c #939192",
"3 	c #92948F",
"4 	c #929292",
"5 	c #929493",
"6 	c #949492",
"7 	c #9D9F9E",
"8 	c #BCBBB7",
"9 	c #E0DEDF",
"0 	c #F3F3F3",
"a 	c #F5F4F2",
"b 	c #F1F3F0",
"c 	c #E2E2E0",
"d 	c #9EA09B",
"e 	c #ABCB9A",
"f 	c #B8F399",
"g 	c #B9FF9A",
"h 	c #BEFF9E",
"i 	c #BCFF9E",
"j 	c #BCFE9C",
"k 	c #C1FE9F",
"l 	c #BCFF9D",
"m 	c #B7F39B",
"n 	c #ABCC9D",
"o 	c #9CA19D",
"p 	c #E1E3DE",
"q 	c #F1F1F1",
"r 	c #F5F5F5",
"s 	c #E7E9E8",
"t 	c #E6E4E9",
"u 	c #BCC0C1",
"v 	c #A3CB8F",
"w 	c #A7F681",
"x 	c #AAF483",
"y 	c #A8F583",
"z 	c #A9F380",
"A 	c #A6F582",
"B 	c #A7F482",
"C 	c #A8F585",
"D 	c #A8F581",
"E 	c #A2CC8C",
"F 	c #C0BFBD",
"G 	c #E5E5E5",
"H 	c #E8E8E8",
"I 	c #EBEBED",
"J 	c #E8E8EA",
"K 	c #A8A8A8",
"L 	c #8EDF5F",
"M 	c #8AE55A",
"N 	c #8CE35E",
"O 	c #8DE55A",
"P 	c #8CE45A",
"Q 	c #8AE55C",
"R 	c #89E459",
"S 	c #8CE75C",
"T 	c #8EE45B",
"U 	c #8CE064",
"V 	c #A8A7AC",
"W 	c #E9E9E9",
"X 	c #EAEAEA",
"Y 	c #EAEAEC",
"Z 	c #B0AFAB",
"` 	c #54C619",
" .	c #4FC90C",
"..	c #50CA0D",
"+.	c #50C80E",
"@.	c #4FCA0A",
"#.	c #50C90C",
"$.	c #4DCA0C",
"%.	c #51CA0D",
"&.	c #4DC70A",
"*.	c #56C619",
"=.	c #AEB0AF",
"-.	c #E9EAEC",
";.	c #CACCCB",
">.	c #7FC258",
",.	c #4FD20A",
"'.	c #4ED20C",
").	c #51D00D",
"!.	c #4ED20D",
"~.	c #52D00A",
"{.	c #51D10C",
"].	c #4FD10C",
"^.	c #50D00B",
"/.	c #50D30B",
"(.	c #7EC359",
"_.	c #C9C9C9",
":.	c #E9EBE8",
"<.	c #EAEBED",
"[.	c #E3E4E6",
"}.	c #B5B5B3",
"|.	c #87CF63",
"1.	c #65DE29",
"2.	c #5EE21C",
"3.	c #5FE11C",
"4.	c #5EE31A",
"5.	c #5EE21F",
"6.	c #5EE21D",
"7.	c #66DF2C",
"8.	c #87CF5F",
"9.	c #B3B5B2",
"0.	c #ECECEC",
"a.	c #E3E3E3",
"b.	c #D0D0D0",
"c.	c #C2C2C2",
"d.	c #C0C0C0",
"e.	c #C1C1C1",
"f.	c #ECECEE",
"g.	c #EBEBEB",
"h.	c #EDEDED",
"i.	c #EEEEEE",
"j.	c #EFEFEF",
"k.	c #DCDCDC",
"l.	c #DBDBDB",
"                                .   ",
"+ + + + + + + + + + + + @ + + + #   ",
"$ $ $ $ $ $ $ $ $ $ % $ $ $ & $ * = ",
"- - - - - - - - - - - ; & ; - - > , ",
"' ' ' ' ' ' ' ' ' ) ' ; ) ' ' ' ! ~ ",
"' ' ' ' ' ' ' ' ' ; ) ; ' ' ' ' { ] ",
"' ' ' ' ' ' ' ' ' ' ' ' ' ' ' ' ~ ' ",
"' { ^ ' ' / ! ] ( ] { ^ ' _ ' ( ' ' ",
"] : < [ } | 1 2 3 4 5 6 7 8 9 < 0 ) ",
"a b c d e f g h i j k l m n o p q r ",
"s t u v w x y w z w A B C D E F G H ",
"I J K L M N O P Q M R S Q T U V H W ",
"X Y Z `  ...+.@.#. . .$.%.&.*.=.X X ",
"Y -.;.>.,.'.).,.!.~.{.].^./.(._.Y Y ",
":.<.[.}.|.1.2.3.4.5.3.6.7.8.9.[.Y Y ",
"X X 0.a.b.c.d.e.d.d.d.d.c.b.a.f.Y Y ",
"X X X g.h.h.h.i.i.j.i.i.h.0.f.Y Y Y ",
"X X X X g.g.g.g.g.g.g.g.g.X Y I Y Y ",
"X W X g.X X g.W X X X X W X X X Y Y ",
"X X X X X X X X X X X X X g.g.X X X ",
"k.k.l.l.k.k.k.k.k.k.k.l.l.l.l.k.k.k."};
