/* XPM */
static char * unfocus_xpm[] = {
"22 21 180 2",
"  	c #FEFEFE",
". 	c #FFFFFF",
"+ 	c #FDFDFD",
"@ 	c #FBFBFB",
"# 	c #FAFAFA",
"$ 	c #FCFCFC",
"% 	c #F9F9F9",
"& 	c #F7F7F7",
"* 	c #F6F6F6",
"= 	c #F8F8F8",
"- 	c #F4F4F4",
"; 	c #F3F3F3",
"> 	c #F1F1F1",
", 	c #EDEDED",
"' 	c #ECECEC",
") 	c #EEEEEE",
"! 	c #F5F5F5",
"~ 	c #F2F2F2",
"{ 	c #EFEFEF",
"] 	c #E1E1E1",
"^ 	c #D1D1D1",
"/ 	c #C8C8C8",
"( 	c #C9C9C9",
"_ 	c #F8F6F9",
": 	c #F5F7F6",
"< 	c #F2F2F4",
"[ 	c #EDEDEB",
"} 	c #D8D6D9",
"| 	c #CBD3C4",
"1 	c #D2EAC8",
"2 	c #D5F4CA",
"3 	c #D5F4C8",
"4 	c #D1E9C9",
"5 	c #EBEDEA",
"6 	c #F7F7F5",
"7 	c #F7F7F9",
"8 	c #F8F8F6",
"9 	c #F3F3F5",
"0 	c #EFF4EE",
"a 	c #DAD8D9",
"b 	c #C9E0C3",
"c 	c #D5F7C5",
"d 	c #D4F9C3",
"e 	c #D2F7C1",
"f 	c #D4F9C5",
"g 	c #D3F9C0",
"h 	c #D6F7C2",
"i 	c #CDDDC3",
"j 	c #DADAD8",
"k 	c #F8F8FA",
"l 	c #F6F6F8",
"m 	c #F5F5F3",
"n 	c #E3E5E2",
"o 	c #C9D4C6",
"p 	c #CCF4B8",
"q 	c #CEF4B9",
"r 	c #CBF4B8",
"s 	c #D2F3BA",
"t 	c #CCF3BA",
"u 	c #CBF4BA",
"v 	c #CCF4B6",
"w 	c #CDF3B8",
"x 	c #CAD2C5",
"y 	c #E4E4E4",
"z 	c #EBEBED",
"A 	c #E8E9EB",
"B 	c #EAEAEA",
"C 	c #E9EAEC",
"D 	c #E6E7E9",
"E 	c #CCCCCE",
"F 	c #C1DEAE",
"G 	c #BDE7A5",
"H 	c #BEE8A8",
"I 	c #BEE8A9",
"J 	c #BDE8A3",
"K 	c #BCE9A8",
"L 	c #BBE8A7",
"M 	c #BFDFAE",
"N 	c #CBCBCB",
"O 	c #E8E8E8",
"P 	c #EBEBEB",
"Q 	c #EBE9EC",
"R 	c #EAEBEF",
"S 	c #EAEAE8",
"T 	c #EBE9EE",
"U 	c #E9EBEA",
"V 	c #C5C7C6",
"W 	c #AEDE92",
"X 	c #ADE091",
"Y 	c #ABE090",
"Z 	c #AFDF93",
"` 	c #ADE18F",
" .	c #ADE093",
"..	c #ACDF90",
"+.	c #AEDF8E",
"@.	c #B0E094",
"#.	c #ADE095",
"$.	c #E9E9E9",
"%.	c #EAEAEC",
"&.	c #C9CBCA",
"*.	c #9ED97F",
"=.	c #9DD87A",
"-.	c #9CDA79",
";.	c #9BD879",
">.	c #9CD97A",
",.	c #9CD97C",
"'.	c #9ED97D",
").	c #9BD976",
"!.	c #9DD87E",
"~.	c #CACACA",
"{.	c #EBE9EA",
"].	c #EAECEB",
"^.	c #EBE8EF",
"/.	c #D3D2D0",
"(.	c #A8D68D",
"_.	c #9BDB7D",
":.	c #9EDA7A",
"<.	c #9DD87C",
"[.	c #9BDB7B",
"}.	c #99DA7E",
"|.	c #9DDA7D",
"1.	c #A8D68E",
"2.	c #D2D2D4",
"3.	c #E9E9EB",
"4.	c #EDE8EC",
"5.	c #E9EAEE",
"6.	c #E0E0E0",
"7.	c #C4D2B9",
"8.	c #9EE07E",
"9.	c #9DDD7C",
"0.	c #9CE07D",
"a.	c #9EDE7E",
"b.	c #9DDE7A",
"c.	c #9CE07B",
"d.	c #9EDF7B",
"e.	c #C2D4BE",
"f.	c #E0E0E2",
"g.	c #EBEBE9",
"h.	c #E8E9ED",
"i.	c #EEE9ED",
"j.	c #D8DCDD",
"k.	c #BDDAAA",
"l.	c #A1E381",
"m.	c #A2E281",
"n.	c #A2E482",
"o.	c #A2E284",
"p.	c #BADDA7",
"q.	c #DCDCDC",
"r.	c #E8EAE9",
"s.	c #EBEAE8",
"t.	c #D9DDDE",
"u.	c #CBDAC3",
"v.	c #B6E3A2",
"w.	c #A8E78C",
"x.	c #ABE68C",
"y.	c #B8E19D",
"z.	c #C8DBBF",
"A.	c #DCDDDF",
"B.	c #EAE8EB",
"C.	c #EDECEA",
"D.	c #E5E5E3",
"E.	c #DCDCDE",
"F.	c #D8D9DB",
"G.	c #D8DAD9",
"H.	c #E5E3E4",
"I.	c #EAEBED",
"J.	c #EAE8E9",
"K.	c #ECECEE",
"L.	c #ECEAED",
"M.	c #EBEDEC",
"N.	c #ECEAEF",
"O.	c #E8EAE7",
"P.	c #DBDCDE",
"Q.	c #DBDBDB",
"R.	c #DDDBDC",
"S.	c #DDDCDA",
"T.	c #D9DDDC",
"U.	c #DADCDB",
"V.	c #DBDBD9",
"W.	c #DBDDDC",
"                  .       +                 ",
"                                            ",
"@ @ @ @ @ @ @ @ @ @ @ @ # @ $ @ @ @ @ @ @ @ ",
"% % % % % % % % % % % % % % % % % % % % % % ",
"& & & & & & & & & & & * & & * = & & & & & & ",
"& & & & & * - ; > , ' , ) > ; ! * * & & & & ",
"& & & & & ! ~ { ] ^ / ( ^ ] { ~ ! * & & & & ",
"_ & & : _ < [ } | 1 2 3 4 | } 5 ~ * & & & & ",
"6 7 8 _ 9 0 a b c d e f g h i j > ! & & & & ",
"6 k l _ m n o p q r s t u v w x y - & * & & ",
"z A B C D E F G H I J K H K L M N O P B B B ",
"Q R S T U V W X Y Z `  ...+.@.#./ $.$.B B B ",
"%.P $.Q S &.*.=.-.;.=.>.,.'.).!.~.B B B B B ",
"%.{.B ].^./.(._.:.<.[.>.>.}.|.1.2.%.%.3.%.%.",
"%.4.5.B %.6.7.8.9.0.9.a.b.c.d.e.f.%.%.%.%.%.",
"%.Q g.h.g.i.j.k.l.l.l.m.n.o.p.q.%.%.%.%.%.%.",
"U U B z r.s.T t.u.v.w.x.y.z.A.Q %.%.%.%.%.%.",
"%.P B.Q 5.C C.4.D.E.F.G.q.H.z I.%.%.%.%.%.%.",
"Q B z J.B R r.g.K.L.' M.N.L.S C %.%.%.%.%.%.",
"C O.C %.s.Q %.h.Q %.%.%.].U B.B B B B B B B ",
"P.q.Q.P.E.R.Q.S.T.U.q.S.V.W.q.V.q.q.q.q.q.q."};
