/* XPM */
static char * wtitle_xpm[] = {
"12 21 8 1",
" 	c #FFFFFF",
".	c #FEFEFE",
"+	c #FBFBFB",
"@	c #F9F9F9",
"#	c #F7F7F7",
"$	c #EAEAEA",
"%	c #EAEAEC",
"&	c #DCDCDC",
"            ",
"............",
"++++++++++++",
"@@@@@@@@@@@@",
"############",
"############",
"############",
"############",
"############",
"############",
"$$$$$$$$$$$$",
"%%%%%%%%%%%%",
"%%%%%%%%%%%%",
"%%%%%%%%%%%%",
"%%%%%%%%%%%%",
"%%%%%%%%%%%%",
"%%%%%%%%%%%%",
"%%%%%%%%%%%%",
"%%%%%%%%%%%%",
"$$$$$$$$$$$$",
"&&&&&&&&&&&&"};
