/* XPM */
static char * max_pressed_xpm[] = {
"13 15 3 1",
" 	c None",
".	c #E3E5EB",
"+	c #848586",
".............",
".............",
"+++++++++++++",
"+++++++++++++",
"+++++++++++++",
"+++++++++++++",
"+++++++++++++",
"+++++++++++++",
"+++++++++++++",
"+++++++++++++",
"+++++++++++++",
"+++++++++++++",
"+++++++++++++",
".............",
"............."};
