/* XPM */
static char * close2_xpm[] = {
"16 16 59 1",
" 	c None",
".	c #FFFFFF",
"+	c #C2C2C2",
"@	c #6E6E6E",
"#	c #6F6E6F",
"$	c #6E6F6E",
"%	c #6F6E6E",
"&	c #D6D6D6",
"*	c #505050",
"=	c #FCFCFC",
"-	c #515051",
";	c #515050",
">	c #F2F2F2",
",	c #DDDDDD",
"'	c #343334",
")	c #343434",
"!	c #FDFDFD",
"~	c #151615",
"{	c #151616",
"]	c #DADADA",
"^	c #161615",
"/	c #FAFBFA",
"(	c #FAFAFB",
"_	c #000000",
":	c #D8D9D8",
"<	c #E9E8E8",
"[	c #D9D8D8",
"}	c #FAFAFA",
"|	c #BEBEBE",
"1	c #F4F4F3",
"2	c #F3F4F3",
"3	c #CCCCCC",
"4	c #CCCDCD",
"5	c #E7E6E6",
"6	c #F1F0F1",
"7	c #E7E7E7",
"8	c #CDCCCD",
"9	c #CBCBCC",
"0	c #B8B9B8",
"a	c #ECEDED",
"b	c #EDECED",
"c	c #ECECEC",
"d	c #ECEDEC",
"e	c #EDECEC",
"f	c #ECECED",
"g	c #B3B3B3",
"h	c #E6E6E5",
"i	c #E6E6E6",
"j	c #AEAEAE",
"k	c #E6E5E5",
"l	c #DEDEDE",
"m	c #DEDEDF",
"n	c #A8A9A9",
"o	c #DFDEDF",
"p	c #D3D3D3",
"q	c #A0A0A0",
"r	c #EEEEEE",
"s	c #B5B5B5",
"t	c #B7B7B7",
"......+.........",
".......++++++...",
".............+..",
"..............+.",
"....@#...$%...+.",
"....&**=-;&...+.",
"....>,')),>...+.",
"....!~{]{^=...+.",
"/(/(__:<[__/(}|.",
"121234567891210.",
"ababacbdecfddg.c",
"hhhhhhijjjjjj.ki",
"lmlmlmn......mlo",
"pppppq.ppppppppp",
"rrrrrsrrrrrrrrrr",
"tttttttttttttttt"};
