/* XPM */
static char * close_xpm[] = {
"16 16 62 1",
" 	c None",
".	c #BEED49",
"+	c #91B438",
"@	c #FFFFFF",
"#	c #C1EE4C",
"$	c #6E6E6E",
"%	c #6F6E6F",
"&	c #BFED4A",
"*	c #6E6F6E",
"=	c #6F6E6E",
"-	c #9FC63D",
";	c #505050",
">	c #BBEA48",
",	c #515051",
"'	c #515050",
")	c #B4E045",
"!	c #A4CD3F",
"~	c #343334",
"{	c #343434",
"]	c #BCEB48",
"^	c #151615",
"/	c #151616",
"(	c #A2CA3E",
"_	c #161615",
":	c #BAE848",
"<	c #BAE948",
"[	c #000000",
"}	c #A1C93E",
"|	c #ADD742",
"1	c #A2C93E",
"2	c #8EB136",
"3	c #B5E346",
"4	c #B6E346",
"5	c #98BE3A",
"6	c #98BF3B",
"7	c #ACD642",
"8	c #B3DF45",
"9	c #ACD742",
"0	c #99BE3B",
"a	c #97BD3A",
"b	c #89AC35",
"c	c #B1DB44",
"d	c #B0DC44",
"e	c #B0DB44",
"f	c #85A633",
"g	c #ECECEC",
"h	c #ABD642",
"i	c #82A232",
"j	c #E6E5E5",
"k	c #E6E6E6",
"l	c #A5CE40",
"m	c #7D9D30",
"n	c #DEDEDF",
"o	c #DEDEDE",
"p	c #DFDEDF",
"q	c #9DC43C",
"r	c #77952E",
"s	c #D3D3D3",
"t	c #B1DD44",
"u	c #87A834",
"v	c #EEEEEE",
"w	c #B7B7B7",
"......+@@@@@@@@@",
".......++++++@@@",
".............+@@",
"............#.+@",
"....$%.&#*=...+@",
"....-;;>,'-...+@",
"....)!~{{!)...+@",
"....]^/(/_>...+@",
":<<:[[}|1[[<::2@",
"3443567890a434b@",
"cddcdecdceeddf@g",
"hhhhhhhiiiiii@jk",
"llllllm@@@@@@nop",
"qqqqqr@sssssssss",
"tttttuvvvvvvvvvv",
"iiiiiwwwwwwwwwww"};
