/* XPM */
static char * closep_xpm[] = {
"16 16 58 1",
" 	c #BEED49",
".	c #91B438",
"+	c #FFFFFF",
"@	c #C1EE4C",
"#	c #6E6E6E",
"$	c #6F6E6F",
"%	c #BFED4A",
"&	c #6E6F6E",
"*	c #6F6E6E",
"=	c #9FC63D",
"-	c #505050",
";	c #BBEA48",
">	c #515051",
",	c #515050",
"'	c #B4E045",
")	c #A4CD3F",
"!	c #343334",
"~	c #343434",
"{	c #BAE848",
"]	c #BAE948",
"^	c #BDEC48",
"/	c #151615",
"(	c #151616",
"_	c #A2CA3E",
":	c #161615",
"<	c #8EB136",
"[	c #B5E346",
"}	c #B6E346",
"|	c #000000",
"1	c #AFD943",
"2	c #A2C93E",
"3	c #89AC35",
"4	c #B1DB44",
"5	c #B0DC44",
"6	c #98BE3A",
"7	c #98BF3B",
"8	c #ACD642",
"9	c #B1DD44",
"0	c #ACD742",
"a	c #99BE3B",
"b	c #97BD3A",
"c	c #85A633",
"d	c #ECECEC",
"e	c #ABD642",
"f	c #82A232",
"g	c #E6E5E5",
"h	c #E6E6E6",
"i	c #A5CE40",
"j	c #7D9D30",
"k	c #DEDEDF",
"l	c #DEDEDE",
"m	c #DFDEDF",
"n	c #9DC43C",
"o	c #77952E",
"p	c #D3D3D3",
"q	c #87A834",
"r	c #EEEEEE",
"s	c #B7B7B7",
"      .+++++++++",
"       ......+++",
"             .++",
"            @ .+",
"              .+",
"    #$ %@&*   .+",
"    =--;>,=   .+",
"    ')!~~)'   .+",
"{]]{^/(_(:;]{{<+",
"[}}[||_12||}[}3+",
"455467890ab55c+d",
"eeeeeeeffffff+gh",
"iiiiiij++++++klm",
"nnnnno+ppppppppp",
"99999qrrrrrrrrrr",
"fffffsssssssssss"};
