/* XPM */
static char * max_xpm[] = {
"16 16 33 1",
" 	c None",
".	c #BEED49",
"+	c #565756",
"@	c #565656",
"#	c #373837",
"$	c #373737",
"%	c #181818",
"&	c #A4CA45",
"*	c #181918",
"=	c #000000",
"-	c #BAE948",
";	c #BBE848",
">	c #BAE848",
",	c #B5E246",
"'	c #B6E346",
")	c #B5E346",
"!	c #92B738",
"~	c #92B838",
"{	c #93B738",
"]	c #93B838",
"^	c #B6E246",
"/	c #B0DC44",
"(	c #B0DB44",
"_	c #B1DC44",
":	c #ABD642",
"<	c #ABD542",
"[	c #A6CF40",
"}	c #A6CE40",
"|	c #A5CE40",
"1	c #A5CF40",
"2	c #9DC43C",
"3	c #B1DD44",
"4	c #82A232",
"................",
"................",
"................",
"................",
"....++@+++++....",
"....##$##$$$....",
"....%&&&&&&*....",
"....=......=....",
"-;->========>---",
",')'!~~{~~~]^,,,",
"/((/(/((((((_///",
":::::<::::<:::::",
"[[}[|1|||[1[[[[[",
"2222222222222222",
"3333333333333333",
"4444444444444444"};
