/* XPM */
static char * max2_xpm[] = {
"16 16 43 1",
" 	c None",
".	c #FFFFFF",
"+	c #565756",
"@	c #565656",
"#	c #373837",
"$	c #373737",
"%	c #181818",
"&	c #D9D9D9",
"*	c #181918",
"=	c #000000",
"-	c #FAFAFA",
";	c #FBFAFB",
">	c #FAFBFA",
",	c #F4F4F4",
"'	c #F4F4F3",
")	c #F3F4F4",
"!	c #C5C5C6",
"~	c #C5C6C6",
"{	c #C5C6C5",
"]	c #C6C5C6",
"^	c #C6C6C6",
"/	c #F4F3F4",
"(	c #F3F3F4",
"_	c #ECEDED",
":	c #ECECEC",
"<	c #ECECED",
"[	c #ECEDEC",
"}	c #EDEDED",
"|	c #E6E6E6",
"1	c #E5E6E6",
"2	c #E6E6E5",
"3	c #E5E6E5",
"4	c #E6E5E6",
"5	c #E6E5E5",
"6	c #DFDFDF",
"7	c #DFDEDE",
"8	c #DEDEDE",
"9	c #DEDFDE",
"0	c #DEDEDF",
"a	c #DFDFDE",
"b	c #D3D3D3",
"c	c #EEEEEE",
"d	c #B7B7B7",
"................",
"................",
"................",
"................",
"....++@+++++....",
"....##$##$$$....",
"....%&&&&&&*....",
"....=......=....",
"-;>-========->>-",
",'),!~{]~{{^/(),",
"_:<_:[::<:<:}[<_",
"|12|34|2|15|||2|",
"667689088a9aa676",
"bbbbbbbbbbbbbbbb",
"cccccccccccccccc",
"dddddddddddddddd"};
