/* XPM */
static char * maxp_xpm[] = {
"16 16 32 1",
" 	c #BEED49",
".	c #565756",
"+	c #565656",
"@	c #373837",
"#	c #373737",
"$	c #181818",
"%	c #A4CA45",
"&	c #181918",
"*	c #BAE948",
"=	c #BBE848",
"-	c #BAE848",
";	c #000000",
">	c #B5E246",
",	c #B6E346",
"'	c #B5E346",
")	c #B6E246",
"!	c #B0DC44",
"~	c #B0DB44",
"{	c #92B738",
"]	c #92B838",
"^	c #93B738",
"/	c #93B838",
"(	c #B1DC44",
"_	c #ABD642",
":	c #ABD542",
"<	c #A6CF40",
"[	c #A6CE40",
"}	c #A5CE40",
"|	c #A5CF40",
"1	c #9DC43C",
"2	c #B1DD44",
"3	c #82A232",
"                ",
"                ",
"                ",
"                ",
"                ",
"    ..+.....    ",
"    @@#@@###    ",
"    $%%%%%%&    ",
"*=*-;      ;-***",
">,',;;;;;;;;)>>>",
"!~~!{]]^]]]/(!!!",
"_____:____:_____",
"<<[<}|}}}<|<<<<<",
"1111111111111111",
"2222222222222222",
"3333333333333333"};
