/* XPM */
static char * min_xpm[] = {
"16 16 40 1",
" 	c None",
".	c #FFFFFF",
"+	c #91B438",
"@	c #BEED49",
"#	c #C7EF52",
"$	c #565756",
"%	c #8EB136",
"&	c #BAE948",
"*	c #000000",
"=	c #BAE848",
"-	c #89AC35",
";	c #B6E346",
">	c #93B738",
",	c #92B738",
"'	c #92B838",
")	c #93B838",
"!	c #EDECEC",
"~	c #86A734",
"{	c #B0DB44",
"]	c #B1DB44",
"^	c #B0DC44",
"/	c #E6E5E6",
"(	c #E5E6E6",
"_	c #82A232",
":	c #ABD642",
"<	c #ABD542",
"[	c #DEDFDF",
"}	c #DEDEDE",
"|	c #DEDEDF",
"1	c #7D9C30",
"2	c #A5CF40",
"3	c #A6CE40",
"4	c #A6CF40",
"5	c #D3D3D3",
"6	c #77952E",
"7	c #9DC43C",
"8	c #EEEEEE",
"9	c #87A834",
"0	c #B1DD44",
"a	c #B7B7B7",
".........+@@@@@@",
"...++++++@@@@@@@",
"..+@@@@@@@@@@@@@",
".+@#@@@@@@@@@@@@",
".+@@@@@@@@@@@@@@",
".+@@@@@@@@@@@@@@",
".+@@@@@@@@@@@@@@",
".+@@@$$$$$$$@@@@",
".%&&&*******&=&=",
".-;;;>>,')',;;;;",
"!.~{]{{]{^]^]]]]",
"/(.______:<<<:<:",
"[}|......1234242",
"555555555.677777",
"8888888888900000",
"aaaaaaaaaaa_____"};
