/* XPM */
static char * min2_xpm[] = {
"16 16 40 1",
" 	c None",
".	c #FFFFFF",
"+	c #C2C2C2",
"@	c #565756",
"#	c #BEBEBE",
"$	c #FAFBFA",
"%	c #000000",
"&	c #FAFAFB",
"*	c #B8B9B9",
"=	c #F4F4F3",
"-	c #C6C5C6",
";	c #C5C5C5",
">	c #C5C6C5",
",	c #C6C6C5",
"'	c #C5C6C6",
")	c #C5C5C6",
"!	c #F4F4F4",
"~	c #EDECEC",
"{	c #B4B4B4",
"]	c #ECECED",
"^	c #EDECED",
"/	c #ECECEC",
"(	c #ECEDEC",
"_	c #E6E5E6",
":	c #E5E6E6",
"<	c #AEAEAE",
"[	c #E6E6E5",
"}	c #E5E5E5",
"|	c #DEDFDF",
"1	c #DEDEDE",
"2	c #DEDEDF",
"3	c #A8A8A8",
"4	c #DEDFDE",
"5	c #DFDEDF",
"6	c #DFDFDF",
"7	c #D3D3D3",
"8	c #A0A0A0",
"9	c #EEEEEE",
"0	c #B5B5B5",
"a	c #B7B7B7",
".........+......",
"...++++++.......",
"..+.............",
".+..............",
".+..............",
".+..............",
".+..............",
".+...@@@@@@@....",
".#$$$%%%%%%%$&$&",
".*===--;>,')!=!=",
"~.{]^//~/(~(^^^^",
"_:.<<<<<<[__}:}:",
"|12......3456|6|",
"777777777.877777",
"9999999999099999",
"aaaaaaaaaaaaaaaa"};
