/* XPM */
static char * minp_xpm[] = {
"16 16 38 1",
" 	c #FFFFFF",
".	c #91B438",
"+	c #BEED49",
"@	c #C7EF52",
"#	c #8EB136",
"$	c #BAE948",
"%	c #565756",
"&	c #BAE848",
"*	c #89AC35",
"=	c #B6E346",
"-	c #000000",
";	c #EDECEC",
">	c #86A734",
",	c #B0DB44",
"'	c #B1DB44",
")	c #93B738",
"!	c #92B738",
"~	c #92B838",
"{	c #93B838",
"]	c #E6E5E6",
"^	c #E5E6E6",
"/	c #82A232",
"(	c #ABD642",
"_	c #ABD542",
":	c #DEDFDF",
"<	c #DEDEDE",
"[	c #DEDEDF",
"}	c #7D9C30",
"|	c #A5CF40",
"1	c #A6CE40",
"2	c #A6CF40",
"3	c #D3D3D3",
"4	c #77952E",
"5	c #9DC43C",
"6	c #EEEEEE",
"7	c #87A834",
"8	c #B1DD44",
"9	c #B7B7B7",
"         .++++++",
"   ......+++++++",
"  .+++++++++++++",
" .+@++++++++++++",
" .++++++++++++++",
" .++++++++++++++",
" .++++++++++++++",
" .++++++++++++++",
" #$$$%%%%%%%$&$&",
" *===-------====",
"; >,'))!~{~!''''",
"]^ //////(___(_(",
":<[      }|12|2|",
"333333333 455555",
"6666666666788888",
"99999999999/////"};
