/* XPM */
static char * stick_xpm[] = {
"16 16 14 1",
" 	c None",
".	c #FFFFFF",
"+	c #AEAEAE",
"@	c #FAFBFA",
"#	c #EDECEC",
"$	c #ECECEC",
"%	c #E5E6E6",
"&	c #E6E5E6",
"*	c #DEDEDE",
"=	c #DEDEDF",
"-	c #DEDFDF",
";	c #D3D3D3",
">	c #EEEEEE",
",	c #B7B7B7",
"................",
"....+++++++.....",
"...+.......+....",
"..+.........+...",
"..+.........+...",
"..+.........+...",
"..+.........+...",
"..+.........+...",
"..+.........+...",
"..+@@@@@@@@@+...",
"##.+$$$$$$$+.###",
"%%%.+++++++.%&&&",
"***=.......=*---",
";;;;;;;;;;;;;;;;",
">>>>>>>>>>>>>>>>",
",,,,,,,,,,,,,,,,"};
