/* XPM */
static char * stick2_xpm[] = {
"16 16 20 1",
" 	c None",
".	c #FFFFFF",
"+	c #91B438",
"@	c #BEED49",
"#	c #E3FFA0",
"$	c #82A232",
"%	c #BAE848",
"&	c #BAE948",
"*	c #B6E246",
"=	c #B5E246",
"-	c #EDECEC",
";	c #B0DC44",
">	c #E5E6E6",
",	c #E6E5E6",
"'	c #DEDEDE",
")	c #DEDEDF",
"!	c #DEDFDF",
"~	c #D3D3D3",
"{	c #EEEEEE",
"]	c #B7B7B7",
"................",
"....+++++++.....",
"...+@@@@@@@+....",
"..+@@@@@##@@+...",
"..+@@@@@@##@+...",
"..+@@@@@@@#@+...",
"..+@@@@@@@@@+...",
"..$@@@@@@@@@$...",
"..$%&&&&&&&&$...",
"..$*========$...",
"--.$;;;;;;;$.---",
">>>.$$$$$$$.>,,,",
"''').......)'!!!",
"~~~~~~~~~~~~~~~~",
"{{{{{{{{{{{{{{{{",
"]]]]]]]]]]]]]]]]"};
