/* XPM */
static char * toolbarg_xpm[] = {
"4 16 16 1",
" 	c None",
".	c #B1DD44",
"+	c #BEED49",
"@	c #BAE948",
"#	c #BBE848",
"$	c #BAE848",
"%	c #B5E246",
"&	c #B6E346",
"*	c #B5E346",
"=	c #B0DC44",
"-	c #B0DB44",
";	c #ABD642",
">	c #A6CF40",
",	c #A6CE40",
"'	c #9DC43C",
")	c #82A232",
"....",
"++++",
"++++",
"++++",
"++++",
"++++",
"++++",
"++++",
"@#@$",
"%&*&",
"=--=",
";;;;",
">>,>",
"''''",
"....",
"))))"};
