/* XPM */
static char * toolbarw_xpm[] = {
"4 16 19 1",
" 	c None",
".	c #EEEEEE",
"+	c #FFFFFF",
"@	c #FAFAFA",
"#	c #FBFAFB",
"$	c #FAFBFA",
"%	c #F4F4F4",
"&	c #F4F4F3",
"*	c #F3F4F4",
"=	c #ECEDED",
"-	c #ECECEC",
";	c #ECECED",
">	c #E6E6E6",
",	c #E5E6E6",
"'	c #E6E6E5",
")	c #DFDFDF",
"!	c #DFDEDE",
"~	c #D3D3D3",
"{	c #B7B7B7",
"....",
"++++",
"++++",
"++++",
"++++",
"++++",
"++++",
"++++",
"@#$@",
"%&*%",
"=-;=",
">,'>",
"))!)",
"~~~~",
"....",
"{{{{"};
