/* XPM */
static char * max_xpm[] = {
"20 21 382 2",
"  	c #C3D7D8",
". 	c #C3D6DA",
"+ 	c #C6D5DA",
"@ 	c #C6D5D8",
"# 	c #9DB4BA",
"$ 	c #9CB3B9",
"% 	c #9EB5BB",
"& 	c #9FB6BC",
"* 	c #A0B7BD",
"= 	c #9FB7BB",
"- 	c #9CB4B8",
"; 	c #A5B8BF",
"> 	c #B1C4CB",
", 	c #A7BAC1",
"' 	c #A4B7BE",
") 	c #A1B4BB",
"! 	c #A0B3BA",
"~ 	c #A2B5BC",
"{ 	c #7C929D",
"] 	c #849AA5",
"^ 	c #879DAA",
"/ 	c #7E94A1",
"( 	c #768C97",
"_ 	c #8298A3",
": 	c #A2B9C1",
"< 	c #BCD3DB",
"[ 	c #D2E6EF",
"} 	c #CADCE6",
"| 	c #CADCE8",
"1 	c #D3E5EF",
"2 	c #CDDFEB",
"3 	c #ADBFCB",
"4 	c #8EA0AC",
"5 	c #8496A2",
"6 	c #8698A4",
"7 	c #889AA6",
"8 	c #657785",
"9 	c #687989",
"0 	c #657688",
"a 	c #67788A",
"b 	c #8091A1",
"c 	c #A2B4C2",
"d 	c #B2C4D0",
"e 	c #B1C1CE",
"f 	c #B2C2CF",
"g 	c #ABBBCA",
"h 	c #A8B8C5",
"i 	c #B7C7D6",
"j 	c #C3D3E2",
"k 	c #AABAC9",
"l 	c #80909F",
"m 	c #6B7B8B",
"n 	c #667686",
"o 	c #657487",
"p 	c #68778A",
"q 	c #495667",
"r 	c #4F5C6F",
"s 	c #4D596F",
"t 	c #546076",
"u 	c #758197",
"v 	c #8E9BAC",
"w 	c #808D9D",
"x 	c #63717E",
"y 	c #475361",
"z 	c #3D4957",
"A 	c #384454",
"B 	c #414D5D",
"C 	c #556171",
"D 	c #748090",
"E 	c #8D98AA",
"F 	c #96A1B3",
"G 	c #606B7F",
"H 	c #535E72",
"I 	c #4C576D",
"J 	c #4E596F",
"K 	c #31394E",
"L 	c #353D52",
"M 	c #3C435D",
"N 	c #515872",
"O 	c #656D84",
"P 	c #586075",
"Q 	c #313A49",
"R 	c #17212D",
"S 	c #000612",
"T 	c #000410",
"U 	c #000211",
"V 	c #000514",
"W 	c #091221",
"X 	c #222B3C",
"Y 	c #434B5E",
"Z 	c #5A6275",
"` 	c #555D72",
" .	c #444C63",
"..	c #373E58",
"+.	c #343B55",
"@.	c #22283E",
"#.	c #1C2238",
"$.	c #222842",
"%.	c #383E58",
"&.	c #3A4058",
"*.	c #13192F",
"=.	c #000515",
"-.	c #0F1722",
";.	c #6B737E",
">.	c #A5ADB8",
",.	c #B8C0CB",
"'.	c #818996",
").	c #353D4A",
"!.	c #0A1121",
"~.	c #0F1628",
"{.	c #293043",
"].	c #3B4157",
"^.	c #2D334B",
"/.	c #1F253F",
"(.	c #1A203A",
"_.	c #050A1E",
":.	c #0B1026",
"<.	c #10142F",
"[.	c #151934",
"}.	c #0B0F28",
"|.	c #000014",
"1.	c #1B212F",
"2.	c #5C656E",
"3.	c #6A737C",
"4.	c #6F7982",
"5.	c #717B85",
"6.	c #5E6874",
"7.	c #242D3C",
"8.	c #000617",
"9.	c #070F22",
"0.	c #151D32",
"a.	c #0F172E",
"b.	c #080F29",
"c.	c #050C26",
"d.	c #000015",
"e.	c #02041D",
"f.	c #00001A",
"g.	c #000019",
"h.	c #000317",
"i.	c #111723",
"j.	c #343D46",
"k.	c #2B3841",
"l.	c #303C48",
"m.	c #222F38",
"n.	c #25323A",
"o.	c #37444D",
"p.	c #222E3A",
"q.	c #000919",
"r.	c #000113",
"s.	c #000217",
"t.	c #00031A",
"u.	c #00041B",
"v.	c #00021C",
"w.	c #020120",
"x.	c #00001C",
"y.	c #100F2E",
"z.	c #00021B",
"A.	c #000012",
"B.	c #101721",
"C.	c #1B252F",
"D.	c #0B1A2D",
"E.	c #112234",
"F.	c #11232F",
"G.	c #12252B",
"H.	c #0B1C23",
"I.	c #0F2028",
"J.	c #010E1F",
"K.	c #00041A",
"L.	c #00041D",
"M.	c #00051E",
"N.	c #00061B",
"O.	c #00061D",
"P.	c #000021",
"Q.	c #070628",
"R.	c #050529",
"S.	c #0D0D2F",
"T.	c #030722",
"U.	c #010619",
"V.	c #525B64",
"W.	c #3B4850",
"X.	c #495A6C",
"Y.	c #405364",
"Z.	c #42565F",
"`.	c #3A4F54",
" +	c #3B4E52",
".+	c #485B62",
"++	c #19283B",
"@+	c #00051F",
"#+	c #010C28",
"$+	c #040D2A",
"%+	c #030D26",
"&+	c #000720",
"*+	c #090B31",
"=+	c #14163D",
"-+	c #0C0F38",
";+	c #191D43",
">+	c #020828",
",+	c #000318",
"'+	c #6E7B83",
")+	c #7E8D92",
"!+	c #768892",
"~+	c #72848E",
"{+	c #798C90",
"]+	c #768A8B",
"^+	c #7F9296",
"/+	c #17263D",
"(+	c #000A2A",
"_+	c #091638",
":+	c #0F193C",
"<+	c #0C1735",
"[+	c #030E2C",
"}+	c #0D1137",
"|+	c #12173F",
"1+	c #202453",
"2+	c #1A214D",
"3+	c #0A1237",
"4+	c #475560",
"5+	c #ADBFC3",
"6+	c #ACBDC4",
"7+	c #A5B7B7",
"8+	c #ABBDBD",
"9+	c #B3C4CB",
"0+	c #728291",
"a+	c #000E29",
"b+	c #00082B",
"c+	c #17234B",
"d+	c #132043",
"e+	c #0D1A3C",
"f+	c #151B3F",
"g+	c #131B42",
"h+	c #292F5F",
"i+	c #283061",
"j+	c #252E59",
"k+	c #000C2E",
"l+	c #0A192C",
"m+	c #6D7E86",
"n+	c #DAE9F0",
"o+	c #D7E6E9",
"p+	c #CEDEDE",
"q+	c #9CAAB3",
"r+	c #293649",
"s+	c #000023",
"t+	c #29325D",
"u+	c #2F3766",
"v+	c #232B59",
"w+	c #162346",
"x+	c #202C52",
"y+	c #1E2A54",
"z+	c #263266",
"A+	c #3B467C",
"B+	c #445185",
"C+	c #1E2F5A",
"D+	c #011432",
"E+	c #061B30",
"F+	c #2B3C4C",
"G+	c #647481",
"H+	c #70818B",
"I+	c #475766",
"J+	c #000C20",
"K+	c #000928",
"L+	c #24315D",
"M+	c #2C386C",
"N+	c #414C82",
"O+	c #2B376B",
"P+	c #1C2A57",
"Q+	c #1D2C53",
"R+	c #233962",
"S+	c #243966",
"T+	c #23366E",
"U+	c #3A4D88",
"V+	c #5064A1",
"W+	c #4D639C",
"X+	c #354D7D",
"Y+	c #132C54",
"Z+	c #11284A",
"`+	c #001534",
" @	c #011935",
".@	c #182F4F",
"+@	c #0E244B",
"@@	c #233867",
"#@	c #455890",
"$@	c #5567A5",
"%@	c #425492",
"&@	c #2F427D",
"*@	c #23376A",
"=@	c #263B68",
"-@	c #2F4C78",
";@	c #2F4B7A",
">@	c #2E4980",
",@	c #2C4983",
"'@	c #4866A2",
")@	c #6583BF",
"!@	c #5B7CB2",
"~@	c #5C7DB0",
"{@	c #3E5F8C",
"]@	c #34547D",
"^@	c #31517A",
"/@	c #385881",
"(@	c #4D6C9B",
"_@	c #6B89BD",
":@	c #5C79B5",
"<@	c #5B77B6",
"[@	c #375392",
"}@	c #2E4883",
"|@	c #294479",
"1@	c #304C7B",
"2@	c #3E638F",
"3@	c #3A608F",
"4@	c #385D91",
"5@	c #3C6498",
"6@	c #5077AE",
"7@	c #6A93CB",
"8@	c #7FA8DE",
"9@	c #77A3D4",
"0@	c #709CC9",
"a@	c #6E9AC7",
"b@	c #75A1CE",
"c@	c #7BA5D5",
"d@	c #719BCD",
"e@	c #587FB6",
"f@	c #4168A1",
"g@	c #385F96",
"h@	c #3A5F94",
"i@	c #3A618A",
"j@	c #496D9D",
"k@	c #496F9E",
"l@	c #446C9D",
"m@	c #426A9D",
"n@	c #466FA5",
"o@	c #5079B1",
"p@	c #5883BA",
"q@	c #73A1D5",
"r@	c #78A8D9",
"s@	c #7BABDC",
"t@	c #75A3D5",
"u@	c #6391C3",
"v@	c #537EB1",
"w@	c #4772A7",
"x@	c #446DA3",
"y@	c #4C75AB",
"z@	c #4D75A8",
"A@	c #4F75A4",
"B@	c #4F76A1",
"C@	c #6784BE",
"D@	c #6986BE",
"E@	c #6B89BF",
"F@	c #6A89BF",
"G@	c #6786BC",
"H@	c #6384BA",
"I@	c #6282BD",
"J@	c #6084C0",
"K@	c #5C83BC",
"L@	c #618AC2",
"M@	c #6790C8",
"N@	c #668FC5",
"O@	c #6289C0",
"P@	c #6186BD",
"Q@	c #6388BF",
"R@	c #678AC2",
"S@	c #6484BD",
"T@	c #6485BB",
"U@	c #6584BA",
"V@	c #6585B8",
"W@	c #596DA2",
"X@	c #586EA0",
"Y@	c #596F9E",
"Z@	c #59719D",
"`@	c #5A729E",
" #	c #5873A0",
".#	c #5873A2",
"+#	c #5773A3",
"@#	c #5979A8",
"##	c #5476A4",
"$#	c #50729F",
"%#	c #51729F",
"&#	c #5374A1",
"*#	c #5675A1",
"=#	c #56739F",
"-#	c #54719D",
";#	c #5974A1",
">#	c #5B73A1",
",#	c #5C72A1",
"            . . + + + + + + @ @ @ @ @ @ ",
"# $ % & & * = - ; > > , ' ) ! ' ) ~ ~ ) ",
"{ ] ^ / ( _ : < [ } | 1 2 3 4 5 6 6 6 7 ",
"8 9 0 a b c d d e f g h i j k l m n o p ",
"q r s t u v w x y z A B C D E F G H I J ",
"K L M N O P Q R S T U V W X Y Z `  ...+.",
"@.#.$.%.&.*.=.-.;.>.,.'.).!.~.{.].^./.(.",
"_.:.<.[.}.|.1.2.3.4.4.5.6.7.8.9.0.a.b.c.",
"d.e.f.g.g.h.i.j.k.l.m.n.o.p.q.r.s.t.u.v.",
"w.x.y.g.z.A.B.C.D.E.F.G.H.I.J.K.L.M.N.O.",
"P.Q.R.S.T.U.V.W.X.Y.Z.`. +.+++@+#+$+%+&+",
"*+=+-+;+>+,+'+)+!+~+{+]+^+~+/+(+_+:+<+[+",
"}+|+1+2+3+v.4+5+6+5+7+8+9+0+a+b+c+c+d+e+",
"f+g+h+i+j+k+l+m+n+o+p+o+q+r+s+t+u+v+c+w+",
"x+y+z+A+B+C+D+E+F+G+H+I+J+K+L+M+N+O+P+Q+",
"R+S+T+U+V+W+X+Y+Z+`+ @.@+@@@#@$@%@&@*@=@",
"-@;@>@,@'@)@!@~@{@]@^@/@(@_@:@<@[@}@|@1@",
"2@2@3@4@5@6@7@8@9@0@a@b@c@d@e@f@g@h@3@i@",
"j@k@k@l@m@n@o@p@q@r@s@t@u@v@w@x@y@z@A@B@",
"C@D@E@F@G@H@I@J@K@L@M@N@O@P@Q@R@S@T@U@V@",
"W@X@Y@Z@`@ #.#+#@###$#%#&#*#=#-#;#>#>#,#"};
