/* XPM */
static char * handle_unfocus_xpm[] = {
"1 7 8 1",
" 	c None",
".	c #ACACAC",
"+	c #595959",
"@	c #141414",
"#	c #060606",
"$	c #1C1C1C",
"%	c #3B3B3B",
"&	c #6E6E6E",
".",
"+",
"@",
"#",
"$",
"%",
"&"};
