/* XPM */
static char * stick_xpm[] = {
"21 21 292 2",
"  	c #E1E8EE",
". 	c #D0D9E0",
"+ 	c #D3DCE3",
"@ 	c #CFD8DF",
"# 	c #D2DBE2",
"$ 	c #CAD3DA",
"% 	c #C6CFD6",
"& 	c #D5DEE5",
"* 	c #CDD6DD",
"= 	c #CBD4DB",
"- 	c #CCD5DC",
"; 	c #D7E0E7",
"> 	c #CED7DE",
", 	c #BCC4CF",
"' 	c #B8C0CB",
") 	c #C0C8D3",
"! 	c #BAC2CD",
"~ 	c #B5BDC8",
"{ 	c #CBD3DE",
"] 	c #C8D0DB",
"^ 	c #B4BCC7",
"/ 	c #ACB4BF",
"( 	c #B9C1CC",
"_ 	c #A3ABB6",
": 	c #B3BBC6",
"< 	c #C8D1DA",
"[ 	c #BFC7D2",
"} 	c #BAC3CC",
"| 	c #BDC5D0",
"1 	c #C6CFD8",
"2 	c #BFC8D1",
"3 	c #BCC5CE",
"4 	c #AFB9C5",
"5 	c #A6B0BC",
"6 	c #B7C1CD",
"7 	c #B0BAC6",
"8 	c #B1BBC7",
"9 	c #A1ABB7",
"0 	c #89939F",
"a 	c #757F8B",
"b 	c #646E7A",
"c 	c #6F7985",
"d 	c #69737F",
"e 	c #6E7884",
"f 	c #747E88",
"g 	c #949EAA",
"h 	c #B1BBC5",
"i 	c #A7B1BD",
"j 	c #B0BAC4",
"k 	c #B8C2CE",
"l 	c #AFB9C3",
"m 	c #9FA9B5",
"n 	c #9FA8B7",
"o 	c #A0A9B8",
"p 	c #9EA7B6",
"q 	c #969FAE",
"r 	c #7B8493",
"s 	c #6C7584",
"t 	c #747D8C",
"u 	c #727B8A",
"v 	c #6E7786",
"w 	c #67717D",
"x 	c #76808C",
"y 	c #99A3AF",
"z 	c #A0AAB6",
"A 	c #959FAB",
"B 	c #8F96A6",
"C 	c #979FAC",
"D 	c #89919E",
"E 	c #8D95A2",
"F 	c #707885",
"G 	c #737B88",
"H 	c #666E7B",
"I 	c #323A47",
"J 	c #09111E",
"K 	c #00010E",
"L 	c #0C1323",
"M 	c #4C5363",
"N 	c #798090",
"O 	c #757C8C",
"P 	c #787F8F",
"Q 	c #9AA1B1",
"R 	c #8C93A3",
"S 	c #808797",
"T 	c #818996",
"U 	c #7D8592",
"V 	c #6F7784",
"W 	c #878F9C",
"X 	c #5D6572",
"Y 	c #161E2B",
"Z 	c #222A37",
"` 	c #828A97",
" .	c #B3BBC8",
"..	c #B2BAC7",
"+.	c #737A8A",
"@.	c #101727",
"#.	c #212838",
"$.	c #727989",
"%.	c #828999",
"&.	c #858C9C",
"*.	c #7F8696",
"=.	c #747B8D",
"-.	c #6F7782",
";.	c #78808B",
">.	c #89919C",
",.	c #79818C",
"'.	c #1D2530",
").	c #252D38",
"!.	c #646C77",
"~.	c #737B86",
"{.	c #676F7A",
"].	c #6A727F",
"^.	c #52596B",
"/.	c #22293B",
"(.	c #2D3446",
"_.	c #7C8395",
":.	c #858C9E",
"<.	c #71788A",
"[.	c #7A8193",
"}.	c #7B818F",
"|.	c #818795",
"1.	c #828896",
"2.	c #0D1522",
"3.	c #1C2632",
"4.	c #303A46",
"5.	c #242E3A",
"6.	c #333F4B",
"7.	c #29333F",
"8.	c #282F3F",
"9.	c #373E4E",
"0.	c #121929",
"a.	c #777E8E",
"b.	c #8B92A4",
"c.	c #737A8C",
"d.	c #7F8698",
"e.	c #9399A9",
"f.	c #9293A5",
"g.	c #9697A9",
"h.	c #8A8D9E",
"i.	c #565C6C",
"j.	c #000515",
"k.	c #162230",
"l.	c #0A1825",
"m.	c #182835",
"n.	c #0A1C28",
"o.	c #0E1F29",
"p.	c #18222C",
"q.	c #111924",
"r.	c #1E2633",
"s.	c #000613",
"t.	c #646C79",
"u.	c #949BAB",
"v.	c #939AAA",
"w.	c #9097A9",
"x.	c #A8AFBF",
"y.	c #AEAFC1",
"z.	c #9EA1B2",
"A.	c #979DAD",
"B.	c #464D5D",
"C.	c #1A2332",
"D.	c #414F5C",
"E.	c #4C5C69",
"F.	c #3D515C",
"G.	c #425961",
"H.	c #45585F",
"I.	c #435058",
"J.	c #4A555B",
"K.	c #4B555E",
"L.	c #000A13",
"M.	c #737D87",
"N.	c #89939D",
"O.	c #929CA8",
"P.	c #B2BBCA",
"Q.	c #A7B0BF",
"R.	c #BAC8D5",
"S.	c #C6CED9",
"T.	c #A6AEBB",
"U.	c #98A2AE",
"V.	c #717D89",
"W.	c #04121D",
"X.	c #7F909A",
"Y.	c #75888F",
"Z.	c #6C8087",
"`.	c #799195",
" +	c #798E91",
".+	c #7A898C",
"++	c #818F92",
"@+	c #6D7A80",
"#+	c #061319",
"$+	c #828F97",
"%+	c #A0ADB5",
"&+	c #B2BFC8",
"*+	c #B0BDC6",
"=+	c #B8C8D5",
"-+	c #C6D6E5",
";+	c #C8D2DC",
">+	c #BFC9D3",
",+	c #A4B1BA",
"'+	c #96A3AC",
")+	c #000E17",
"!+	c #7F8D96",
"~+	c #A6B7BE",
"{+	c #B1C2C9",
"]+	c #9CAFB3",
"^+	c #A7B9BD",
"/+	c #B1BFC2",
"(+	c #ABB9BC",
"_+	c #566467",
":+	c #253336",
"<+	c #A6B3B9",
"[+	c #BFCCD4",
"}+	c #D7E6ED",
"|+	c #C5D7E5",
"1+	c #D4E1F2",
"2+	c #CFD7E4",
"3+	c #E0E8F5",
"4+	c #BBC5D1",
"5+	c #68727C",
"6+	c #000913",
"7+	c #A7B1BA",
"8+	c #D9E3EC",
"9+	c #DAE3EA",
"0+	c #DFE8EF",
"a+	c #D9E0E8",
"b+	c #798088",
"c+	c #0B141B",
"d+	c #788188",
"e+	c #C9D2DB",
"f+	c #ADB6BF",
"g+	c #E6F0FA",
"h+	c #CFD9E3",
"i+	c #D2E2F2",
"j+	c #DFECFD",
"k+	c #E7EFFC",
"l+	c #E2EAF5",
"m+	c #CCD4DF",
"n+	c #C5CDD8",
"o+	c #69707A",
"p+	c #00060E",
"q+	c #50545D",
"r+	c #75787F",
"s+	c #71747B",
"t+	c #383D43",
"u+	c #151A20",
"v+	c #7D848C",
"w+	c #CCD3DB",
"x+	c #BCC3CB",
"y+	c #E1E8F0",
"z+	c #D7E0E9",
"A+	c #E7F1FA",
"B+	c #E2F0FD",
"C+	c #EFF9FF",
"D+	c #DCE6EF",
"E+	c #EDF7FF",
"F+	c #CAD1D7",
"G+	c #C0C3C8",
"H+	c #74757A",
"I+	c #66656A",
"J+	c #696A6E",
"K+	c #707378",
"L+	c #CFD4D8",
"M+	c #D3D8DE",
"N+	c #D5DAE0",
"O+	c #DEE5EB",
"P+	c #DFE6EC",
"Q+	c #EAF3FA",
"R+	c #ECF7FD",
"S+	c #DCECFB",
"T+	c #D9E9F6",
"U+	c #DEEEFB",
"V+	c #DBE9F4",
"W+	c #D9E7F2",
"X+	c #E0EAF4",
"Y+	c #EBF4FD",
"Z+	c #D7DEE6",
"`+	c #E9EEF4",
" @	c #E4E4EC",
".@	c #E6E9F0",
"+@	c #E4EBF3",
"@@	c #DAE3EC",
"#@	c #E2EBF4",
"$@	c #D6E0E9",
"%@	c #E8F2FB",
"&@	c #E3F0F8",
"*@	c #E3F1FA",
"=@	c #DDEBF4",
"-@	c #CCE0F8",
";@	c #B8CBE9",
">@	c #B7CCE9",
",@	c #A6B6D7",
"'@	c #A4B7D7",
")@	c #6B7A97",
"                                          ",
". + @ # $ @ % & * % + @ = - ; $ + # > . . ",
", ' ) ! ~ { ] ^ / ( _ : < [ } | 1 ! 2 3 , ",
"4 5 6 7 8 9 0 a b c d e f g h i j k j l 4 ",
"m n o p q r s t u v u w e w x y z A z m m ",
"B C D E F G H I J K K L M N O P B Q R B B ",
"S T U V W X Y Z `  ...+.@.#.$.%.O &.*.S S ",
"=.-.;.>.,.'.).!.~.{.].N ^./.(._.:.<.=.=.=.",
"[.}.|.1.V 2.3.4.5.6.7.8.9.0.0.a.b.c.d.[.[.",
"e.f.g.h.i.j.k.l.m.n.o.p.q.r.s.t.u.v.w.e.e.",
"x.y.z.A.B.C.D.E.F.G.H.I.J.K.L.M.N.O.P.Q.x.",
"R.S.T.U.V.W.X.Y.Z.`. +.+++@+#+$+%+&+*+=+R.",
"-+;+>+,+'+)+!+~+{+]+^+/+(+_+:+<+<+[+}+|+-+",
"1+2+3+4+4 5+6+7+8+9+0+a+b+c+d+e+f+g+h+i+1+",
"j+k+l+m+] n+o+p+q+r+s+t+u+v+w+x+y+z+A+j+j+",
"B+C+D+E+9+. F+G+H+I+J+K+L+M+N+O+P+Q+R+B+B+",
"S+T+U+V+W+X+Y+Z+`+ @.@+@@@#@$@%@&@*@=@S+S+",
"-@-@-@-@-@-@-@-@-@-@-@-@-@-@-@-@-@-@-@-@-@",
";@>@;@>@;@>@;@>@;@>@;@>@;@>@;@>@;@>@;@>@;@",
",@'@,@'@,@'@,@'@,@'@,@'@,@'@,@'@,@'@,@'@,@",
")@)@)@)@)@)@)@)@)@)@)@)@)@)@)@)@)@)@)@)@)@"};
