/* XPM */
static char * stick_unfocus_xpm[] = {
"21 21 179 2",
"  	c #E5E5E5",
". 	c #D6D6D6",
"+ 	c #D8D8D8",
"@ 	c #D5D5D5",
"# 	c #D7D7D7",
"$ 	c #CFCFCF",
"% 	c #CCCCCC",
"& 	c #DADADA",
"* 	c #D3D3D3",
"= 	c #D1D1D1",
"- 	c #D2D2D2",
"; 	c #DDDDDD",
"> 	c #C1C1C1",
", 	c #BEBEBE",
"' 	c #C5C5C5",
") 	c #BFBFBF",
"! 	c #BBBBBB",
"~ 	c #D0D0D0",
"{ 	c #CDCDCD",
"] 	c #B8B8B8",
"^ 	c #B2B2B2",
"/ 	c #A8A8A8",
"( 	c #C0C0C0",
"_ 	c #C2C2C2",
": 	c #C4C4C4",
"< 	c #B6B6B6",
"[ 	c #ACACAC",
"} 	c #BDBDBD",
"| 	c #909090",
"1 	c #7C7C7C",
"2 	c #6A6A6A",
"3 	c #767676",
"4 	c #6F6F6F",
"5 	c #747474",
"6 	c #7A7A7A",
"7 	c #9B9B9B",
"8 	c #AEAEAE",
"9 	c #A5A5A5",
"0 	c #A6A6A6",
"a 	c #9C9C9C",
"b 	c #818181",
"c 	c #737373",
"d 	c #797979",
"e 	c #6D6D6D",
"f 	c #7D7D7D",
"g 	c #A0A0A0",
"h 	c #A7A7A7",
"i 	c #949494",
"j 	c #8F8F8F",
"k 	c #929292",
"l 	c #757575",
"m 	c #787878",
"n 	c #6B6B6B",
"o 	c #373737",
"p 	c #0F0F0F",
"q 	c #010101",
"r 	c #080404",
"s 	c #111111",
"t 	c #505050",
"u 	c #7E7E7E",
"v 	c #7B7B7B",
"w 	c #9F9F9F",
"x 	c #858585",
"y 	c #868686",
"z 	c #838383",
"A 	c #8D8D8D",
"B 	c #626262",
"C 	c #1B1B1B",
"D 	c #282828",
"E 	c #542C2C",
"F 	c #5E3636",
"G 	c #603939",
"H 	c #532B2B",
"I 	c #151515",
"J 	c #262626",
"K 	c #8A8A8A",
"L 	c #7F7F7F",
"M 	c #222222",
"N 	c #1B1616",
"O 	c #291212",
"P 	c #2E1515",
"Q 	c #271111",
"R 	c #1F0606",
"S 	c #240707",
"T 	c #1E0D0D",
"U 	c #221C1C",
"V 	c #323232",
"W 	c #828282",
"X 	c #808080",
"Y 	c #121212",
"Z 	c #141414",
"` 	c #131010",
" .	c #0B0101",
"..	c #0D0202",
"+.	c #040000",
"@.	c #919191",
"#.	c #989898",
"$.	c #939393",
"%.	c #979797",
"&.	c #5A5A5A",
"*.	c #040404",
"=.	c #080303",
"-.	c #070101",
";.	c #060101",
">.	c #000000",
",.	c #696969",
"'.	c #999999",
").	c #969696",
"!.	c #B0B0B0",
"~.	c #4B4B4B",
"{.	c #202020",
"].	c #2E1414",
"^.	c #180505",
"/.	c #140303",
"(.	c #150303",
"_.	c #B9B9B9",
":.	c #C3C3C3",
"<.	c #CBCBCB",
"[.	c #ABABAB",
"}.	c #0E0E0E",
"|.	c #2D1414",
"1.	c #260707",
"2.	c #210505",
"3.	c #260606",
"4.	c #250606",
"5.	c #240606",
"6.	c #1F0505",
"7.	c #010000",
"8.	c #CECECE",
"9.	c #C6C6C6",
"0.	c #ADADAD",
"a.	c #9E9E9E",
"b.	c #0A0A0A",
"c.	c #371919",
"d.	c #2C1313",
"e.	c #330909",
"f.	c #2E0808",
"g.	c #320808",
"h.	c #180404",
"i.	c #150909",
"j.	c #C8C8C8",
"k.	c #E1E1E1",
"l.	c #070707",
"m.	c #292222",
"n.	c #430D0D",
"o.	c #3D0A0A",
"p.	c #400B0B",
"q.	c #030000",
"r.	c #6B5A5A",
"s.	c #B3B3B3",
"t.	c #ECECEC",
"u.	c #E8E8E8",
"v.	c #EDEDED",
"w.	c #E7E7E7",
"x.	c #CACACA",
"y.	c #6E6E6E",
"z.	c #2D2626",
"A.	c #210606",
"B.	c #100303",
"C.	c #0A0404",
"D.	c #6F5D5D",
"E.	c #EEEEEE",
"F.	c #EBEBEB",
"G.	c #F5F5F5",
"H.	c #E2E2E2",
"I.	c #F4F4F4",
"J.	c #DFDFDF",
"K.	c #646464",
"L.	c #717171",
"M.	c #F0F0F0",
"N.	c #F2F2F2",
"O.	c #E9E9E9",
"P.	c #E4E4E4",
"Q.	c #E3E3E3",
"R.	c #DBDBDB",
"S.	c #E6E6E6",
"T.	c #DCDCDC",
"U.	c #C7C7C7",
"V.	c #777777",
"                                          ",
". + @ # $ @ % & * % + @ = - ; $ + # * . . ",
"> , ' ) ! ~ { ] ^ , / ] { ' ( _ % ) : _ > ",
"< [ } < ] / | 1 2 3 4 5 6 7 ] 8 < ) < < < ",
"9 0 0 9 a b c 6 d 5 d e 5 e f g h 7 h 9 9 ",
"i a j k l m n o p q r s t u v 1 i w | i i ",
"x y z l A B C D E F G H I J m y v K x x x ",
"d l f j L M N O P Q R S T U V W K 3 d d d ",
"X L x y l Y Z `  ... . ...+.` 1 @.m x X X ",
"#.$.%.A &.*.P =.-.+.;.;.+.-.>.,.'.#.).#.#.",
"8 !.g a ~.{.].^./.(.(./.(.(.>.d | '._.8 8 ",
":.<.[.w d }.|.1.2.3.4.5.3.6.7.K / ! ] :.:.",
"- 8.9.0.a.b.c.d.e.f.g.e.g.h.i.8 8 j.k.- - ",
"; @   _ < 4 l.m.n.o.p.o.2.q.r.$ s.t.. ; ; ",
"u.v.w.- { x.y.*.z.O A.B.C.D.= >   ; E.u.u.",
"F.G.H.I.J.. 8._ 5 K.,.L.- . # H.H.M.N.F.F.",
"w.  O.P.Q.w.M.R.F.Q.w.u.J.w.; E.t.v.S.w.w.",
"T.T.T.T.T.T.T.T.T.T.T.T.T.T.T.T.T.T.T.T.T.",
"U.U.U.U.U.U.U.U.U.U.U.U.U.U.U.U.U.U.U.U.U.",
"s.s.s.s.s.s.s.s.s.s.s.s.s.s.s.s.s.s.s.s.s.",
"V.V.V.V.V.V.V.V.V.V.V.V.V.V.V.V.V.V.V.V.V."};
