/* XPM */
static char * stuck_unfocus_xpm[] = {
"21 21 185 2",
"  	c #E5E5E5",
". 	c #D6D6D6",
"+ 	c #D8D8D8",
"@ 	c #D5D5D5",
"# 	c #D7D7D7",
"$ 	c #CFCFCF",
"% 	c #CCCCCC",
"& 	c #DADADA",
"* 	c #D3D3D3",
"= 	c #D1D1D1",
"- 	c #D2D2D2",
"; 	c #DDDDDD",
"> 	c #C1C1C1",
", 	c #BEBEBE",
"' 	c #C5C5C5",
") 	c #BFBFBF",
"! 	c #BBBBBB",
"~ 	c #D0D0D0",
"{ 	c #CDCDCD",
"] 	c #B8B8B8",
"^ 	c #B2B2B2",
"/ 	c #A8A8A8",
"( 	c #C0C0C0",
"_ 	c #C2C2C2",
": 	c #C4C4C4",
"< 	c #B6B6B6",
"[ 	c #ACACAC",
"} 	c #BDBDBD",
"| 	c #909090",
"1 	c #7C7C7C",
"2 	c #6A6A6A",
"3 	c #767676",
"4 	c #6F6F6F",
"5 	c #747474",
"6 	c #7A7A7A",
"7 	c #9B9B9B",
"8 	c #AEAEAE",
"9 	c #A5A5A5",
"0 	c #A6A6A6",
"a 	c #9C9C9C",
"b 	c #818181",
"c 	c #737373",
"d 	c #797979",
"e 	c #6D6D6D",
"f 	c #7D7D7D",
"g 	c #A0A0A0",
"h 	c #A7A7A7",
"i 	c #949494",
"j 	c #8F8F8F",
"k 	c #929292",
"l 	c #757575",
"m 	c #787878",
"n 	c #6B6B6B",
"o 	c #373737",
"p 	c #0F0F0F",
"q 	c #010101",
"r 	c #080404",
"s 	c #111111",
"t 	c #505050",
"u 	c #7E7E7E",
"v 	c #7B7B7B",
"w 	c #9F9F9F",
"x 	c #858585",
"y 	c #868686",
"z 	c #838383",
"A 	c #8D8D8D",
"B 	c #626262",
"C 	c #1B1B1B",
"D 	c #442828",
"E 	c #B33232",
"F 	c #BE3535",
"G 	c #BD3636",
"H 	c #AE3131",
"I 	c #151515",
"J 	c #262626",
"K 	c #8A8A8A",
"L 	c #7F7F7F",
"M 	c #222222",
"N 	c #341D1D",
"O 	c #A72E2E",
"P 	c #B03030",
"Q 	c #B53434",
"R 	c #B63131",
"S 	c #A42E2E",
"T 	c #BA3333",
"U 	c #382D2D",
"V 	c #323232",
"W 	c #828282",
"X 	c #808080",
"Y 	c #131313",
"Z 	c #3C1F1F",
"` 	c #3A2222",
" .	c #472222",
"..	c #3D2525",
"+.	c #372323",
"@.	c #272121",
"#.	c #1F1A1A",
"$.	c #919191",
"%.	c #989898",
"&.	c #939393",
"*.	c #979797",
"=.	c #5A5A5A",
"-.	c #040404",
";.	c #271D1D",
">.	c #241C1C",
",.	c #2E2323",
"'.	c #282222",
").	c #2C2323",
"!.	c #171717",
"~.	c #696969",
"{.	c #999999",
"].	c #969696",
"^.	c #B0B0B0",
"/.	c #4B4B4B",
"(.	c #202020",
"_.	c #441F1F",
":.	c #452323",
"<.	c #522727",
"[.	c #552727",
"}.	c #212121",
"|.	c #B9B9B9",
"1.	c #C3C3C3",
"2.	c #CBCBCB",
"3.	c #ABABAB",
"4.	c #100F0F",
"5.	c #882A2A",
"6.	c #9C2C2C",
"7.	c #8B2A2A",
"8.	c #A12C2C",
"9.	c #9D2C2C",
"0.	c #982C2C",
"a.	c #812A2A",
"b.	c #222121",
"c.	c #CECECE",
"d.	c #C6C6C6",
"e.	c #ADADAD",
"f.	c #9E9E9E",
"g.	c #0C0B0B",
"h.	c #862929",
"i.	c #993535",
"j.	c #C93333",
"k.	c #BC3030",
"l.	c #C73030",
"m.	c #612828",
"n.	c #412626",
"o.	c #C8C8C8",
"p.	c #E1E1E1",
"q.	c #130A0A",
"r.	c #8B2C2C",
"s.	c #DF3B3B",
"t.	c #DD3535",
"u.	c #E13737",
"v.	c #262121",
"w.	c #877979",
"x.	c #B3B3B3",
"y.	c #ECECEC",
"z.	c #E8E8E8",
"A.	c #EDEDED",
"B.	c #E7E7E7",
"C.	c #CACACA",
"D.	c #6E6E6E",
"E.	c #592929",
"F.	c #833939",
"G.	c #872B2B",
"H.	c #582424",
"I.	c #281D1D",
"J.	c #8B7B7B",
"K.	c #EEEEEE",
"L.	c #EBEBEB",
"M.	c #F5F5F5",
"N.	c #E2E2E2",
"O.	c #F4F4F4",
"P.	c #DFDFDF",
"Q.	c #646464",
"R.	c #717171",
"S.	c #F0F0F0",
"T.	c #F2F2F2",
"U.	c #E9E9E9",
"V.	c #E4E4E4",
"W.	c #E3E3E3",
"X.	c #DBDBDB",
"Y.	c #E6E6E6",
"Z.	c #DCDCDC",
"`.	c #C7C7C7",
" +	c #777777",
"                                          ",
". + @ # $ @ % & * % + @ = - ; $ + # * . . ",
"> , ' ) ! ~ { ] ^ , / ] { ' ( _ % ) : _ > ",
"< [ } < ] / | 1 2 3 4 5 6 7 ] 8 < ) < < < ",
"9 0 0 9 a b c 6 d 5 d e 5 e f g h 7 h 9 9 ",
"i a j k l m n o p q r s t u v 1 i w | i i ",
"x y z l A B C D E F G H I J m y v K x x x ",
"d l f j L M N O P Q R S T U V W K 3 d d d ",
"X L x y l Y Z `  ...+.+...@.#.1 $.m x X X ",
"%.&.*.A =.-.;.>.,.'.).).'.,.!.~.{.%.].%.%.",
"8 ^.g a /.(._.:.<.[.[.<.[.[.}.d | {.|.8 8 ",
"1.2.3.w d 4.5.6.7.8.9.0.8.a.b.K / ! ] 1.1.",
"- c.d.e.f.g.h.i.j.k.l.j.l.m.n.8 8 o.p.- - ",
"; @   _ < 4 q.r.s.t.u.t.7.v.w.$ x.y.. ; ; ",
"z.A.B.- { C.D.-.E.F.G.H.I.J.= >   ; K.z.z.",
"L.M.N.O.P.. c._ 5 Q.~.R.- . # N.N.S.T.L.L.",
"B.  U.V.W.B.S.X.L.W.B.z.P.B.; K.y.A.Y.B.B.",
"Z.Z.Z.Z.Z.Z.Z.Z.Z.Z.Z.Z.Z.Z.Z.Z.Z.Z.Z.Z.Z.",
"`.`.`.`.`.`.`.`.`.`.`.`.`.`.`.`.`.`.`.`.`.",
"x.x.x.x.x.x.x.x.x.x.x.x.x.x.x.x.x.x.x.x.x.",
" + + + + + + + + + + + + + + + + + + + + +"};
