/* XPM */
static char * stuck_xpm[] = {
"21 21 292 2",
"  	c #E1E8EE",
". 	c #D0D9E0",
"+ 	c #D3DCE3",
"@ 	c #CFD8DF",
"# 	c #D2DBE2",
"$ 	c #CAD3DA",
"% 	c #C6CFD6",
"& 	c #D5DEE5",
"* 	c #CDD6DD",
"= 	c #CBD4DB",
"- 	c #CCD5DC",
"; 	c #D7E0E7",
"> 	c #CED7DE",
", 	c #BCC4CF",
"' 	c #B8C0CB",
") 	c #C0C8D3",
"! 	c #BAC2CD",
"~ 	c #B5BDC8",
"{ 	c #CBD3DE",
"] 	c #C8D0DB",
"^ 	c #B4BCC7",
"/ 	c #ACB4BF",
"( 	c #B9C1CC",
"_ 	c #A3ABB6",
": 	c #B3BBC6",
"< 	c #C8D1DA",
"[ 	c #BFC7D2",
"} 	c #BAC3CC",
"| 	c #BDC5D0",
"1 	c #C6CFD8",
"2 	c #BFC8D1",
"3 	c #BCC5CE",
"4 	c #AFB9C5",
"5 	c #A6B0BC",
"6 	c #B7C1CD",
"7 	c #B0BAC6",
"8 	c #B1BBC7",
"9 	c #A1ABB7",
"0 	c #89939F",
"a 	c #757F8B",
"b 	c #646E7A",
"c 	c #6F7985",
"d 	c #69737F",
"e 	c #6E7884",
"f 	c #747E88",
"g 	c #949EAA",
"h 	c #B1BBC5",
"i 	c #A7B1BD",
"j 	c #B0BAC4",
"k 	c #B8C2CE",
"l 	c #AFB9C3",
"m 	c #9FA9B5",
"n 	c #9FA8B7",
"o 	c #A0A9B8",
"p 	c #9EA7B6",
"q 	c #969FAE",
"r 	c #7B8493",
"s 	c #6C7584",
"t 	c #747D8C",
"u 	c #727B8A",
"v 	c #6E7786",
"w 	c #67717D",
"x 	c #76808C",
"y 	c #99A3AF",
"z 	c #A0AAB6",
"A 	c #959FAB",
"B 	c #8F96A6",
"C 	c #979FAC",
"D 	c #89919E",
"E 	c #8D95A2",
"F 	c #707885",
"G 	c #737B88",
"H 	c #666E7B",
"I 	c #323A47",
"J 	c #09111E",
"K 	c #00010E",
"L 	c #0C1323",
"M 	c #4C5363",
"N 	c #798090",
"O 	c #757C8C",
"P 	c #787F8F",
"Q 	c #9AA1B1",
"R 	c #8C93A3",
"S 	c #808797",
"T 	c #818996",
"U 	c #7D8592",
"V 	c #6F7784",
"W 	c #878F9C",
"X 	c #5D6572",
"Y 	c #161E2B",
"Z 	c #222A37",
"` 	c #723035",
" .	c #946D75",
"..	c #95727A",
"+.	c #6D2D34",
"@.	c #101727",
"#.	c #212838",
"$.	c #727989",
"%.	c #828999",
"&.	c #858C9C",
"*.	c #7F8696",
"=.	c #747B8D",
"-.	c #6F7782",
";.	c #78808B",
">.	c #89919C",
",.	c #79818C",
"'.	c #1D2530",
").	c #281014",
"!.	c #68272B",
"~.	c #6C1619",
"{.	c #690E10",
"].	c #6A0405",
"^.	c #780506",
"/.	c #411114",
"(.	c #23212F",
"_.	c #2D3446",
":.	c #7C8395",
"<.	c #858C9E",
"[.	c #71788A",
"}.	c #7A8193",
"|.	c #7B818F",
"1.	c #818795",
"2.	c #828896",
"3.	c #0D1522",
"4.	c #250E12",
"5.	c #2B0B0C",
"6.	c #290202",
"7.	c #320101",
"8.	c #2D0000",
"9.	c #2A0000",
"0.	c #340101",
"a.	c #160102",
"b.	c #131421",
"c.	c #777E8E",
"d.	c #8B92A4",
"e.	c #737A8C",
"f.	c #7F8698",
"g.	c #9399A9",
"h.	c #9293A5",
"i.	c #9697A9",
"j.	c #8A8D9E",
"k.	c #565C6C",
"l.	c #000515",
"m.	c #162230",
"n.	c #10070B",
"o.	c #210000",
"p.	c #150000",
"q.	c #180000",
"r.	c #1D0000",
"s.	c #170000",
"t.	c #030206",
"u.	c #646C79",
"v.	c #949BAB",
"w.	c #939AAA",
"x.	c #9097A9",
"y.	c #A8AFBF",
"z.	c #AEAFC1",
"A.	c #9EA1B2",
"B.	c #979DAD",
"C.	c #464D5D",
"D.	c #1A2332",
"E.	c #510C0E",
"F.	c #530404",
"G.	c #470000",
"H.	c #4D0000",
"I.	c #480000",
"J.	c #4E0000",
"K.	c #060001",
"L.	c #737D87",
"M.	c #89939D",
"N.	c #929CA8",
"O.	c #B2BBCA",
"P.	c #A7B0BF",
"Q.	c #BAC8D5",
"R.	c #C6CED9",
"S.	c #A6AEBB",
"T.	c #98A2AE",
"U.	c #717D89",
"V.	c #04121D",
"W.	c #7D1213",
"X.	c #7C0506",
"Y.	c #730000",
"Z.	c #830000",
"`.	c #800000",
" +	c #7D0000",
".+	c #840000",
"++	c #6F0000",
"@+	c #0D0101",
"#+	c #828F97",
"$+	c #A0ADB5",
"%+	c #B2BFC8",
"&+	c #B0BDC6",
"*+	c #B8C8D5",
"=+	c #C6D6E5",
"-+	c #C8D2DC",
";+	c #BFC9D3",
">+	c #A4B1BA",
",+	c #96A3AC",
"'+	c #000E17",
")+	c #7D292C",
"!+	c #A7393B",
"~+	c #B40000",
"{+	c #A00000",
"]+	c #AB0000",
"^+	c #B20000",
"/+	c #AC0000",
"(+	c #590000",
"_+	c #2A1011",
":+	c #A6B3B9",
"<+	c #BFCCD4",
"[+	c #D7E6ED",
"}+	c #C5D7E5",
"|+	c #D4E1F2",
"1+	c #CFD7E4",
"2+	c #E0E8F5",
"3+	c #BBC5D1",
"4+	c #68727C",
"5+	c #000913",
"6+	c #870202",
"7+	c #D50909",
"8+	c #D50000",
"9+	c #DA0000",
"0+	c #D40000",
"a+	c #770000",
"b+	c #0F0101",
"c+	c #78686D",
"d+	c #C9D2DB",
"e+	c #ADB6BF",
"f+	c #E6F0FA",
"g+	c #CFD9E3",
"h+	c #D2E2F2",
"i+	c #DFECFD",
"j+	c #E7EFFC",
"k+	c #E2EAF5",
"l+	c #CCD4DF",
"m+	c #C5CDD8",
"n+	c #69707A",
"o+	c #00060E",
"p+	c #6A1619",
"q+	c #750B0C",
"r+	c #700303",
"s+	c #370203",
"t+	c #16080A",
"u+	c #7D6A71",
"v+	c #CCD3DB",
"w+	c #BCC3CB",
"x+	c #E1E8F0",
"y+	c #D7E0E9",
"z+	c #E7F1FA",
"A+	c #E2F0FD",
"B+	c #EFF9FF",
"C+	c #DCE6EF",
"D+	c #EDF7FF",
"E+	c #DAE3EA",
"F+	c #CAD1D7",
"G+	c #C0C3C8",
"H+	c #74757A",
"I+	c #66656A",
"J+	c #696A6E",
"K+	c #707378",
"L+	c #CFD4D8",
"M+	c #D3D8DE",
"N+	c #D5DAE0",
"O+	c #DEE5EB",
"P+	c #DFE6EC",
"Q+	c #EAF3FA",
"R+	c #ECF7FD",
"S+	c #DCECFB",
"T+	c #D9E9F6",
"U+	c #DEEEFB",
"V+	c #DBE9F4",
"W+	c #D9E7F2",
"X+	c #E0EAF4",
"Y+	c #EBF4FD",
"Z+	c #D7DEE6",
"`+	c #E9EEF4",
" @	c #E4E4EC",
".@	c #E6E9F0",
"+@	c #E4EBF3",
"@@	c #DAE3EC",
"#@	c #E2EBF4",
"$@	c #D6E0E9",
"%@	c #E8F2FB",
"&@	c #E3F0F8",
"*@	c #E3F1FA",
"=@	c #DDEBF4",
"-@	c #CCE0F8",
";@	c #B8CBE9",
">@	c #B7CCE9",
",@	c #A6B6D7",
"'@	c #A4B7D7",
")@	c #6B7A97",
"                                          ",
". + @ # $ @ % & * % + @ = - ; $ + # > . . ",
", ' ) ! ~ { ] ^ / ( _ : < [ } | 1 ! 2 3 , ",
"4 5 6 7 8 9 0 a b c d e f g h i j k j l 4 ",
"m n o p q r s t u v u w e w x y z A z m m ",
"B C D E F G H I J K K L M N O P B Q R B B ",
"S T U V W X Y Z `  ...+.@.#.$.%.O &.*.S S ",
"=.-.;.>.,.'.).!.~.{.].^./.(._.:.<.[.=.=.=.",
"}.|.1.2.V 3.4.5.6.7.8.9.0.a.b.c.d.e.f.}.}.",
"g.h.i.j.k.l.m.n.o.p.q.r.s.o.t.u.v.w.x.g.g.",
"y.z.A.B.C.D.E.F.G.H.H.I.J.J.K.L.M.N.O.P.y.",
"Q.R.S.T.U.V.W.X.Y.Z.`. +.+++@+#+$+%+&+*+Q.",
"=+-+;+>+,+'+)+!+~+{+]+^+/+(+_+:+:+<+[+}+=+",
"|+1+2+3+4 4+5+6+7+8+9+0+a+b+c+d+e+f+g+h+|+",
"i+j+k+l+] m+n+o+p+q+r+s+t+u+v+w+x+y+z+i+i+",
"A+B+C+D+E+. F+G+H+I+J+K+L+M+N+O+P+Q+R+A+A+",
"S+T+U+V+W+X+Y+Z+`+ @.@+@@@#@$@%@&@*@=@S+S+",
"-@-@-@-@-@-@-@-@-@-@-@-@-@-@-@-@-@-@-@-@-@",
";@>@;@>@;@>@;@>@;@>@;@>@;@>@;@>@;@>@;@>@;@",
",@'@,@'@,@'@,@'@,@'@,@'@,@'@,@'@,@'@,@'@,@",
")@)@)@)@)@)@)@)@)@)@)@)@)@)@)@)@)@)@)@)@)@"};
