/* XPM */
static char * unfocus_xpm[] = {
"20 21 166 2",
"  	c None",
". 	c #CFCFCF",
"+ 	c #ADADAD",
"@ 	c #ABABAB",
"# 	c #AEAEAE",
"$ 	c #ACACAC",
"% 	c #B2B2B2",
"& 	c #BEBEBE",
"* 	c #B4B4B4",
"= 	c #B0B0B0",
"- 	c #8C8C8C",
"; 	c #939393",
"> 	c #969696",
", 	c #8D8D8D",
"' 	c #858585",
") 	c #909090",
"! 	c #CCCCCC",
"~ 	c #DFDFDF",
"{ 	c #D6D6D6",
"] 	c #E0E0E0",
"^ 	c #D9D9D9",
"/ 	c #B9B9B9",
"( 	c #9A9A9A",
"_ 	c #949494",
": 	c #727272",
"< 	c #757575",
"[ 	c #717171",
"} 	c #737373",
"| 	c #AFAFAF",
"1 	c #BCBCBC",
"2 	c #BDBDBD",
"3 	c #B7B7B7",
"4 	c #B3B3B3",
"5 	c #C2C2C2",
"6 	c #CECECE",
"7 	c #B5B5B5",
"8 	c #8B8B8B",
"9 	c #777777",
"0 	c #707070",
"a 	c #747474",
"b 	c #525252",
"c 	c #595959",
"d 	c #575757",
"e 	c #5D5D5D",
"f 	c #7F7F7F",
"g 	c #979797",
"h 	c #8A8A8A",
"i 	c #6C6C6C",
"j 	c #4F4F4F",
"k 	c #464646",
"l 	c #414141",
"m 	c #4A4A4A",
"n 	c #5E5E5E",
"o 	c #7C7C7C",
"p 	c #959595",
"q 	c #9D9D9D",
"r 	c #686868",
"s 	c #5B5B5B",
"t 	c #545454",
"u 	c #373737",
"v 	c #3B3B3B",
"w 	c #424242",
"x 	c #383838",
"y 	c #1D1D1D",
"z 	c #040404",
"A 	c #030303",
"B 	c #020202",
"C 	c #0F0F0F",
"D 	c #292929",
"E 	c #5F5F5F",
"F 	c #3D3D3D",
"G 	c #3A3A3A",
"H 	c #272727",
"I 	c #222222",
"J 	c #282828",
"K 	c #3F3F3F",
"L 	c #181818",
"M 	c #141414",
"N 	c #868686",
"O 	c #2F2F2F",
"P 	c #404040",
"Q 	c #333333",
"R 	c #242424",
"S 	c #1F1F1F",
"T 	c #090909",
"U 	c #101010",
"V 	c #191919",
"W 	c #202020",
"X 	c #626262",
"Y 	c #6F6F6F",
"Z 	c #767676",
"` 	c #656565",
" .	c #2A2A2A",
"..	c #050505",
"+.	c #0D0D0D",
"@.	c #1C1C1C",
"#.	c #161616",
"$.	c #0E0E0E",
"%.	c #0C0C0C",
"&.	c #151515",
"*.	c #393939",
"=.	c #343434",
"-.	c #2B2B2B",
";.	c #2E2E2E",
">.	c #070707",
",.	c #111111",
"'.	c #010101",
").	c #1E1E1E",
"!.	c #1A1A1A",
"~.	c #0B0B0B",
"{.	c #060606",
"].	c #585858",
"^.	c #434343",
"/.	c #555555",
"(.	c #4E4E4E",
"_.	c #484848",
":.	c #171717",
"<.	c #080808",
"[.	c #888888",
"}.	c #838383",
"|.	c #7E7E7E",
"1.	c #131313",
"2.	c #121212",
"3.	c #515151",
"4.	c #B8B8B8",
"5.	c #B6B6B6",
"6.	c #7D7D7D",
"7.	c #1B1B1B",
"8.	c #313131",
"9.	c #787878",
"0.	c #E4E4E4",
"a.	c #D7D7D7",
"b.	c #A5A5A5",
"c.	c #2C2C2C",
"d.	c #212121",
"e.	c #474747",
"f.	c #535353",
"g.	c #0A0A0A",
"h.	c #303030",
"i.	c #4D4D4D",
"j.	c #353535",
"k.	c #363636",
"l.	c #4C4C4C",
"m.	c #494949",
"n.	c #565656",
"o.	c #676767",
"p.	c #808080",
"q.	c #848484",
"r.	c #505050",
"s.	c #454545",
"t.	c #A1A1A1",
"u.	c #8F8F8F",
"v.	c #9C9C9C",
"w.	c #929292",
"x.	c #616161",
"y.	c #666666",
"z.	c #646464",
"A.	c #7B7B7B",
"B.	c #A0A0A0",
"C.	c #878787",
"D.	c #6A6A6A",
"E.	c #6D6D6D",
"F.	c #6E6E6E",
"G.	c #828282",
"H.	c #818181",
"I.	c #6B6B6B",
". . . . . . . . . . . . . . . . . . . . ",
"+ @ + # # # # $ % & & * = # $ = # # # # ",
"- ; > , ' ) % ! ~ { { ] ^ / ( ) ; ; ; _ ",
": < [ } - | & & 1 2 3 4 5 6 7 8 9 [ 0 a ",
"b c d e f g h i j k l m n o p q r s t d ",
"u v w d i n x y z A B z C D m E s m F G ",
"H I J F K L z M 0 @ & N G C M O P Q R S ",
"T U M V C B W X Y Z Z 9 `  ...+.@.#.$.%.",
"B ..B B B A &.*.=.x -.;.P -.>.B A A z z ",
"A A ,.B A '.M I #.).).).#.!.~.z ......{.",
"A T >.C >...].^./.(.j _._.t R ..~.%.~.>.",
"+.:.,.S <.A Z [.}.|.' }.- |.I T M L &.%.",
"1.L H I 2.z 3.4.3 4.= 5.& 6.%.<.I I ).L ",
"7.7.8.8.O %.M 9.0.] a.] b.Q A Q *.c.I d.",
"-.D Q e.3.c.U &.u Y o f.g.T h.*.i.u D  .",
"j.k.j.l.X X m.H R ,.1. .d.k.n.o.t l j.x ",
"e.e.k k X p.9 9 c i.m 3.o.q.< < r.s.l e.",
"s s ]./.s 0 8 t.( ; u.g v.w.9.x.].c ].c ",
"y.o.o.z.X o.[ A.g q B.( C.< D.` E.F.F.E.",
"f G.' q.H.|.6.|.o }.[.C.G.p.G.q.|.f f p.",
"I.I.i E.F.F.F.F.} 0 I.i E.Y E.i Y Y Y Y "};
