/* XPM */
static char * close_off_xpm[] = {
"22 22 144 2",
"  	c None",
". 	c #FFFFFF",
"+ 	c #CACFD3",
"@ 	c #040005",
"# 	c #F0F0F0",
"$ 	c #EEEEEE",
"% 	c #E9E9E9",
"& 	c #E5E5E5",
"* 	c #A4A4A3",
"= 	c #5D5D5C",
"- 	c #292929",
"; 	c #0F0F0F",
"> 	c #2C2C2C",
", 	c #5D5D5D",
"' 	c #AEADAD",
") 	c #F1F1F1",
"! 	c #E6E6E6",
"~ 	c #696769",
"{ 	c #515151",
"] 	c #767676",
"^ 	c #949494",
"/ 	c #A3A3A3",
"( 	c #999999",
"_ 	c #7A7A7A",
": 	c #454545",
"< 	c #6B6D6E",
"[ 	c #F6F6F6",
"} 	c #747474",
"| 	c #4D4D4D",
"1 	c #6F6F6F",
"2 	c #A9A9A9",
"3 	c #B5B5B5",
"4 	c #C5C5C5",
"5 	c #B9B9B9",
"6 	c #A5A5A5",
"7 	c #4E4E4E",
"8 	c #757576",
"9 	c #ECECEC",
"0 	c #9C9C9B",
"a 	c #3E3E3E",
"b 	c #414141",
"c 	c #7E7E7E",
"d 	c #9F9F9F",
"e 	c #9E9E9E",
"f 	c #818181",
"g 	c #444444",
"h 	c #959494",
"i 	c #DADADA",
"j 	c #6D6D6D",
"k 	c #626262",
"l 	c #797979",
"m 	c #898989",
"n 	c #808080",
"o 	c #676767",
"p 	c #535353",
"q 	c #DCDCDC",
"r 	c #DBDBDB",
"s 	c #636363",
"t 	c #6C6C6C",
"u 	c #737373",
"v 	c #878787",
"w 	c #909090",
"x 	c #8A8A8A",
"y 	c #7B7B7B",
"z 	c #595959",
"A 	c #4B4B4B",
"B 	c #D4D4D4",
"C 	c #FDFDFD",
"D 	c #CECECE",
"E 	c #939393",
"F 	c #9A9A9A",
"G 	c #A1A1A1",
"H 	c #A4A4A4",
"I 	c #757575",
"J 	c #5E5E5E",
"K 	c #D2D2D2",
"L 	c #EFEFEF",
"M 	c #BABABA",
"N 	c #888888",
"O 	c #B6B6B6",
"P 	c #AFAFAF",
"Q 	c #B3B3B3",
"R 	c #ADADAD",
"S 	c #9D9D9D",
"T 	c #9B9B9B",
"U 	c #8C8C8C",
"V 	c #BFBFBF",
"W 	c #B8B8B8",
"X 	c #9C9C9C",
"Y 	c #BBBBBB",
"Z 	c #C0C0C0",
"` 	c #C3C3C3",
" .	c #C1C1C1",
"..	c #BCBCBC",
"+.	c #A6A6A6",
"@.	c #858585",
"#.	c #B0B0B0",
"$.	c #EAEAEA",
"%.	c #C2C2C2",
"&.	c #7C7C7C",
"*.	c #B4B4B4",
"=.	c #C7C7C7",
"-.	c #CACACA",
";.	c #C6C6C6",
">.	c #F7F7F7",
",.	c #D9D9D9",
"'.	c #C9C9C9",
").	c #C8C8C8",
"!.	c #838383",
"~.	c #E8E8E8",
"{.	c #D7D7D7",
"].	c #6B6B6B",
"^.	c #7F7F7F",
"/.	c #AAAAAA",
"(.	c #D6D6D6",
"_.	c #DEDEDE",
":.	c #797A7A",
"<.	c #565656",
"[.	c #B7B7B7",
"}.	c #A2A2A2",
"|.	c #5A5A5A",
"1.	c #7E7F7E",
"2.	c #E0E0E0",
"3.	c #CDCDCD",
"4.	c #898B8B",
"5.	c #434343",
"6.	c #424242",
"7.	c #4A4A4A",
"8.	c #656565",
"9.	c #8A8A8B",
"0.	c #CBCBCB",
"a.	c #E3E3E3",
"b.	c #BDBDBD",
"c.	c #A2A3A7",
"d.	c #8E8E92",
"e.	c #7F8080",
"f.	c #8F9090",
"g.	c #A2A6A6",
"h.	c #D8D8D8",
"i.	c #D3D3D3",
"j.	c #ACACAC",
"k.	c #A6A6A4",
"l.	c #A7A7A8",
"m.	c #CCCCCC",
". . . . . . . . . . . . . . . + @ @ @ @ @ @ ",
". . . . . . . . . . . . . . . . . . + @ @ @ ",
"# # # # # # # # $ $ $ $ $ # # # # # # + @ @ ",
"% % % % % % & * = - ; > , ' & % % % % % @ @ ",
") ) ) ) # ! ~ { ] ^ / ( _ : < ! # ) ) ) @ @ ",
". . . . [ } | 1 2 3 4 5 6 ] 7 8 [ . . . @ @ ",
") ) ) 9 0 a b c d 6 6 / e f a g h 9 ) ) ) ) ",
"% % % i 7 | j k ] f l m n o j p 7 q % % % % ",
"$ $ $ r : s t u v v w x y y o z A B $ $ $ $ ",
"C C C D z } j E F G H 6 F F ] I J K C C C C ",
"L L L M o N E H 6 O P Q R S T U k V L L L L ",
"! ! ! W j N X P Y Z `  ...Q +.@.] #.! ! ! ! ",
"$.$.$.%.&.x R *.=.-.;.-.;.Y M v _ Z $.$.$.$.",
">.>.>.,.N @.X %.'.).-.%.-.'.F !.U i >.>.>.>.",
"~.~.~.{.e ].^./.=.-.-.-.-.3 !.j 0 (.~.~.~.~.",
"_._._.B Y :.<.j f G [.}.l ].|.1.M K _._._._.",
"2.2.2.q 3.*.4.k | b 5.6.7.8.9.Q 0.r 2.2.2.2.",
"$.$.$.$.a.K b.c.d.e.] ^.f.g.b.K a.$.$.$.$.$.",
",.,.,.,.h.i.=.M j.k.6 l.#...'.i.h.,.,.,.,.,.",
"D D D D D D -.4 b.W W Y Z =.0.D D D D D D D ",
"0.m.m.'.-.-.).=.=.4 4 ;.=.'.-.'.-.-.0.m.m.0.",
"] I I j t t j j t t j j j t t j t t ] I I ] "};
