/* XPM */
static char * close_on_xpm[] = {
"22 22 230 2",
"  	c None",
". 	c #FFFFFF",
"+ 	c #CACFD3",
"@ 	c #040005",
"# 	c #F0F0F0",
"$ 	c #EFEFEF",
"% 	c #EEEEEE",
"& 	c #E9E9E9",
"* 	c #E8E8E8",
"= 	c #E3E3E3",
"- 	c #A8A8A6",
"; 	c #5F5F5D",
"> 	c #242422",
", 	c #101010",
"' 	c #232323",
") 	c #575759",
"! 	c #D1D1D2",
"~ 	c #E6E6E6",
"{ 	c #F1F1F1",
"] 	c #706667",
"^ 	c #423D41",
"/ 	c #9B9599",
"( 	c #C8BDC3",
"_ 	c #D7CAD1",
": 	c #CEBFC6",
"< 	c #8F8289",
"[ 	c #53484E",
"} 	c #695E64",
"| 	c #EAEAEA",
"1 	c #FEFEFE",
"2 	c #F7F7F7",
"3 	c #75746F",
"4 	c #67444A",
"5 	c #A89694",
"6 	c #DBC7C6",
"7 	c #F2DDDC",
"8 	c #F9E1E1",
"9 	c #FAE0E1",
"0 	c #E7CDCE",
"a 	c #9D8585",
"b 	c #624A4A",
"c 	c #7C716D",
"d 	c #EBEBEB",
"e 	c #ABA4A0",
"f 	c #4D2627",
"g 	c #974B55",
"h 	c #B77A75",
"i 	c #D1948F",
"j 	c #E2A5A0",
"k 	c #D89994",
"l 	c #D59691",
"m 	c #B87773",
"n 	c #93524E",
"o 	c #461E1C",
"p 	c #B6A7A9",
"q 	c #DCDCDC",
"r 	c #714F4D",
"s 	c #782C30",
"t 	c #B13F47",
"u 	c #A93832",
"v 	c #BA4943",
"w 	c #C1524B",
"x 	c #C5564F",
"y 	c #B94842",
"z 	c #AC3632",
"A 	c #AE3733",
"B 	c #7A3331",
"C 	c #7A5052",
"D 	c #ECECEC",
"E 	c #DBDBDB",
"F 	c #541E1C",
"G 	c #9F3738",
"H 	c #A61E22",
"I 	c #C43932",
"J 	c #D24C43",
"K 	c #D04D43",
"L 	c #CC4C41",
"M 	c #DC594F",
"N 	c #D54F46",
"O 	c #BF342D",
"P 	c #B52620",
"Q 	c #9D3735",
"R 	c #5D1F20",
"S 	c #FDFDFD",
"T 	c #FBFBFB",
"U 	c #E7E7E7",
"V 	c #51100C",
"W 	c #B53F3B",
"X 	c #CD3E36",
"Y 	c #D65446",
"Z 	c #E16354",
"` 	c #EA7261",
" .	c #E3705D",
"..	c #E26F5C",
"+.	c #DD6453",
"@.	c #D95749",
"#.	c #CD4539",
"$.	c #B23531",
"%.	c #5A0E0E",
"&.	c #EDEDED",
"*.	c #DADADA",
"=.	c #67201A",
"-.	c #B94035",
";.	c #DE5542",
">.	c #E66A5E",
",.	c #E87264",
"'.	c #F78978",
").	c #F68F7C",
"!.	c #F58C79",
"~.	c #E87968",
"{.	c #E3695C",
"].	c #D6564B",
"^.	c #CD3F3B",
"/.	c #6E1B17",
"(.	c #CECCCB",
"_.	c #782F26",
":.	c #C34B3B",
"<.	c #E9674D",
"[.	c #F4736D",
"}.	c #FF867E",
"|.	c #FF968B",
"1.	c #FD9184",
"2.	c #FF978A",
"3.	c #FE897F",
"4.	c #F97A73",
"5.	c #EE6763",
"6.	c #D13C36",
"7.	c #832C25",
"8.	c #D2D2D2",
"9.	c #E4E4E4",
"0.	c #D3D3D3",
"a.	c #876E63",
"b.	c #95332A",
"c.	c #FF6F6F",
"d.	c #F28777",
"e.	c #FF9B8D",
"f.	c #FFA198",
"g.	c #FFA49D",
"h.	c #FFA09A",
"i.	c #FF9690",
"j.	c #FF8B82",
"k.	c #F0766B",
"l.	c #A03837",
"m.	c #915650",
"n.	c #D3D3D2",
"o.	c #F4F4F4",
"p.	c #E0E0E0",
"q.	c #BEBEBE",
"r.	c #954641",
"s.	c #D75B5B",
"t.	c #FFA799",
"u.	c #FFB49F",
"v.	c #F1B9A0",
"w.	c #F3B9A1",
"x.	c #FEB09C",
"y.	c #FD9185",
"z.	c #E4655E",
"A.	c #8E4443",
"B.	c #9F7873",
"C.	c #E1E1E1",
"D.	c #D5D5D5",
"E.	c #ADAAA8",
"F.	c #937C7A",
"G.	c #8A3C3C",
"H.	c #F07879",
"I.	c #FE958F",
"J.	c #FFAD9E",
"K.	c #FFBBA5",
"L.	c #FEBAA3",
"M.	c #F2A190",
"N.	c #D46F67",
"O.	c #AD3B3A",
"P.	c #7A5354",
"Q.	c #A99F9C",
"R.	c #DEDEDE",
"S.	c #DDDDDD",
"T.	c #B9B9B9",
"U.	c #A2A2A2",
"V.	c #857576",
"W.	c #573B30",
"X.	c #8E6864",
"Y.	c #BD7D7D",
"Z.	c #EF7C81",
"`.	c #D66569",
" +	c #994845",
".+	c #6E463C",
"++	c #5F5242",
"@+	c #8F8085",
"#+	c #B8B8B8",
"$+	c #D1D1D1",
"%+	c #CBCBCB",
"&+	c #B4B4B4",
"*+	c #9C9C9C",
"=+	c #685D5D",
"-+	c #463F37",
";+	c #474538",
">+	c #4A4C3E",
",+	c #525449",
"'+	c #9B9B9B",
")+	c #A1A1A1",
"!+	c #B3B3B3",
"~+	c #CACACA",
"{+	c #BDBDBD",
"]+	c #A9ACAE",
"^+	c #A7A7A7",
"/+	c #A4A4A4",
"(+	c #A3A3A3",
"_+	c #A6A6A6",
":+	c #A2AAAA",
"<+	c #BCBCBC",
"[+	c #E2E2E2",
"}+	c #D9D9D9",
"|+	c #D8D8D8",
"1+	c #C7C7C7",
"2+	c #BBBBBB",
"3+	c #AEAEAE",
"4+	c #A9A9A9",
"5+	c #A8A8A8",
"6+	c #ACACAC",
"7+	c #B7B7B7",
"8+	c #CECECE",
"9+	c #C5C5C5",
"0+	c #C0C0C0",
"a+	c #C4C4C4",
"b+	c #CCCCCC",
"c+	c #C9C9C9",
"d+	c #C8C8C8",
"e+	c #757575",
"f+	c #6D6D6D",
"g+	c #6C6C6C",
". . . . . . . . . . . . . . . + @ @ @ @ @ @ ",
". . . . . . . . . . . . . . . . . . + @ @ @ ",
"# # # # # # # $ % % % % $ # # # # # # + @ @ ",
"& & & & & * = - ; > , ' ) ! ~ & & & & & @ @ ",
"{ { { { # & ] ^ / ( _ : < [ } | # { { { @ @ ",
". . . 1 2 3 4 5 6 7 8 9 0 a b c 2 1 . . @ @ ",
"{ { { d e f g h i j j k l m n o p d { { { { ",
"& & * q r s t u v w x x y z A B C q * & & & ",
"% % D E F G H I J K L M N O P Q R E D % % % ",
"S S T U V W X Y Z `  ...+.@.#.$.%.* T S S S ",
"$ $ &.*.=.-.;.>.,.'.).!.~.{.].^./.*.&.$ $ $ ",
"~ ~ = (._.:.<.[.}.|.1.2.3.4.5.6.7.8.9.~ ~ ~ ",
"| | ~ 0.a.b.c.d.e.f.g.h.i.j.k.l.m.n.U | | | ",
"2 2 o.p.q.r.s.j.t.u.v.w.x.y.z.A.B.C.o.2 2 2 ",
"* * ~ D.E.F.G.H.I.J.K.L.M.N.O.P.Q.D.~ * * * ",
"R.R.S.8.T.U.V.W.X.Y.Z.`. +.+++@+#+$+S.R.R.R.",
"p.p.p.E %+&+U.*+=+-+;+>+,+'+)+!+~+*.p.p.p.p.",
"| | | & = 0.{+]+^+/+(+(+_+:+<+8.[+& | | | | ",
"}+}+}+}+|+0.1+2+3+4+^+5+6+7+1+0.|+}+}+}+}+}+",
"8+8+8+8+8+8+%+9+0+{+{+{+q.a+~+8+8+8+8+8+8+8+",
"b+c+~+~+c+c+c+c+1+1+1+d+d+1+c+~+~+c+~+~+c+c+",
"e+f+g+g+f+f+g+g+f+f+f+g+g+f+g+g+g+f+g+g+f+f+"};
