/* XPM */
static char * stuck3_xpm[] = {
"22 22 142 2",
"  	c None",
". 	c #FFFFFF",
"+ 	c #F0F0F0",
"@ 	c #EEEEEE",
"# 	c #E9E9E9",
"$ 	c #E5E5E5",
"% 	c #A4A4A3",
"& 	c #5D5D5C",
"* 	c #292929",
"= 	c #0F0F0F",
"- 	c #2C2C2C",
"; 	c #5D5D5D",
"> 	c #AEADAD",
", 	c #F1F1F1",
"' 	c #E6E6E6",
") 	c #696769",
"! 	c #515151",
"~ 	c #767676",
"{ 	c #949494",
"] 	c #A3A3A3",
"^ 	c #999999",
"/ 	c #7A7A7A",
"( 	c #454545",
"_ 	c #6B6D6E",
": 	c #F6F6F6",
"< 	c #747474",
"[ 	c #4D4D4D",
"} 	c #6F6F6F",
"| 	c #A9A9A9",
"1 	c #B5B5B5",
"2 	c #C5C5C5",
"3 	c #B9B9B9",
"4 	c #A5A5A5",
"5 	c #4E4E4E",
"6 	c #757576",
"7 	c #ECECEC",
"8 	c #9C9C9B",
"9 	c #3E3E3E",
"0 	c #414141",
"a 	c #7E7E7E",
"b 	c #9F9F9F",
"c 	c #9E9E9E",
"d 	c #818181",
"e 	c #444444",
"f 	c #959494",
"g 	c #DADADA",
"h 	c #6D6D6D",
"i 	c #626262",
"j 	c #797979",
"k 	c #898989",
"l 	c #808080",
"m 	c #676767",
"n 	c #535353",
"o 	c #DCDCDC",
"p 	c #DBDBDB",
"q 	c #636363",
"r 	c #6C6C6C",
"s 	c #737373",
"t 	c #878787",
"u 	c #909090",
"v 	c #8A8A8A",
"w 	c #7B7B7B",
"x 	c #595959",
"y 	c #4B4B4B",
"z 	c #D4D4D4",
"A 	c #FDFDFD",
"B 	c #CECECE",
"C 	c #939393",
"D 	c #9A9A9A",
"E 	c #A1A1A1",
"F 	c #A4A4A4",
"G 	c #757575",
"H 	c #5E5E5E",
"I 	c #D2D2D2",
"J 	c #EFEFEF",
"K 	c #BABABA",
"L 	c #888888",
"M 	c #B6B6B6",
"N 	c #AFAFAF",
"O 	c #B3B3B3",
"P 	c #ADADAD",
"Q 	c #9D9D9D",
"R 	c #9B9B9B",
"S 	c #8C8C8C",
"T 	c #BFBFBF",
"U 	c #B8B8B8",
"V 	c #9C9C9C",
"W 	c #BBBBBB",
"X 	c #C0C0C0",
"Y 	c #C3C3C3",
"Z 	c #C1C1C1",
"` 	c #BCBCBC",
" .	c #A6A6A6",
"..	c #858585",
"+.	c #B0B0B0",
"@.	c #EAEAEA",
"#.	c #C2C2C2",
"$.	c #7C7C7C",
"%.	c #B4B4B4",
"&.	c #C7C7C7",
"*.	c #CACACA",
"=.	c #C6C6C6",
"-.	c #F7F7F7",
";.	c #D9D9D9",
">.	c #C9C9C9",
",.	c #C8C8C8",
"'.	c #838383",
").	c #E8E8E8",
"!.	c #D7D7D7",
"~.	c #6B6B6B",
"{.	c #7F7F7F",
"].	c #AAAAAA",
"^.	c #D6D6D6",
"/.	c #DEDEDE",
"(.	c #797A7A",
"_.	c #565656",
":.	c #B7B7B7",
"<.	c #A2A2A2",
"[.	c #5A5A5A",
"}.	c #7E7F7E",
"|.	c #E0E0E0",
"1.	c #CDCDCD",
"2.	c #898B8B",
"3.	c #434343",
"4.	c #424242",
"5.	c #4A4A4A",
"6.	c #656565",
"7.	c #8A8A8B",
"8.	c #CBCBCB",
"9.	c #E3E3E3",
"0.	c #BDBDBD",
"a.	c #A2A3A7",
"b.	c #8E8E92",
"c.	c #7F8080",
"d.	c #8F9090",
"e.	c #A2A6A6",
"f.	c #D8D8D8",
"g.	c #D3D3D3",
"h.	c #ACACAC",
"i.	c #A6A6A4",
"j.	c #A7A7A8",
"k.	c #CCCCCC",
". . . . . . . . . . . . . . . . . . . . . . ",
". . . . . . . . . . . . . . . . . . . . . . ",
"+ + + + + + + + @ @ @ @ @ + + + + + + + + + ",
"# # # # # # $ % & * = - ; > $ # # # # # # # ",
", , , , + ' ) ! ~ { ] ^ / ( _ ' + , , , , , ",
". . . . : < [ } | 1 2 3 4 ~ 5 6 : . . . . . ",
", , , 7 8 9 0 a b 4 4 ] c d 9 e f 7 , , , , ",
"# # # g 5 [ h i ~ d j k l m h n 5 o # # # # ",
"@ @ @ p ( q r s t t u v w w m x y z @ @ @ @ ",
"A A A B x < h C D E F 4 D D ~ G H I A A A A ",
"J J J K m L C F 4 M N O P Q R S i T J J J J ",
"' ' ' U h L V N W X Y Z ` O  ...~ +.' ' ' ' ",
"@.@.@.#.$.v P %.&.*.=.*.=.W K t / X @.@.@.@.",
"-.-.-.;.L ..V #.>.,.*.#.*.>.D '.S g -.-.-.-.",
").).).!.c ~.{.].&.*.*.*.*.1 '.h 8 ^.).).).).",
"/././.z W (._.h d E :.<.j ~.[.}.K I /./././.",
"|.|.|.o 1.%.2.i [ 0 3.4.5.6.7.O 8.p |.|.|.|.",
"@.@.@.@.9.I 0.a.b.c.~ {.d.e.0.I 9.@.@.@.@.@.",
";.;.;.;.f.g.&.K h.i.4 j.+.` >.g.f.;.;.;.;.;.",
"B B B B B B *.2 0.U U W X &.8.B B B B B B B ",
"8.k.k.>.*.*.,.&.&.2 2 =.&.>.*.>.*.*.8.k.k.8.",
"~ G G h r r h h r r h h h r r h r r ~ G G ~ "};
