/* XPM */
static char * close_xpm[] = {
"22 22 228 2",
"  	c None",
". 	c #FFFFFF",
"+ 	c #F0F0F0",
"@ 	c #EFEFEF",
"# 	c #EEEEEE",
"$ 	c #E9E9E9",
"% 	c #E8E8E8",
"& 	c #E3E3E3",
"* 	c #A8A8A6",
"= 	c #5F5F5D",
"- 	c #242422",
"; 	c #101010",
"> 	c #232323",
", 	c #575759",
"' 	c #D1D1D2",
") 	c #E6E6E6",
"! 	c #F1F1F1",
"~ 	c #706667",
"{ 	c #423D41",
"] 	c #9B9599",
"^ 	c #C8BDC3",
"/ 	c #D7CAD1",
"( 	c #CEBFC6",
"_ 	c #8F8289",
": 	c #53484E",
"< 	c #695E64",
"[ 	c #EAEAEA",
"} 	c #FEFEFE",
"| 	c #F7F7F7",
"1 	c #75746F",
"2 	c #67444A",
"3 	c #A89694",
"4 	c #DBC7C6",
"5 	c #F2DDDC",
"6 	c #F9E1E1",
"7 	c #FAE0E1",
"8 	c #E7CDCE",
"9 	c #9D8585",
"0 	c #624A4A",
"a 	c #7C716D",
"b 	c #EBEBEB",
"c 	c #ABA4A0",
"d 	c #4D2627",
"e 	c #974B55",
"f 	c #B77A75",
"g 	c #D1948F",
"h 	c #E2A5A0",
"i 	c #D89994",
"j 	c #D59691",
"k 	c #B87773",
"l 	c #93524E",
"m 	c #461E1C",
"n 	c #B6A7A9",
"o 	c #DCDCDC",
"p 	c #714F4D",
"q 	c #782C30",
"r 	c #B13F47",
"s 	c #A93832",
"t 	c #BA4943",
"u 	c #C1524B",
"v 	c #C5564F",
"w 	c #B94842",
"x 	c #AC3632",
"y 	c #AE3733",
"z 	c #7A3331",
"A 	c #7A5052",
"B 	c #ECECEC",
"C 	c #DBDBDB",
"D 	c #541E1C",
"E 	c #9F3738",
"F 	c #A61E22",
"G 	c #C43932",
"H 	c #D24C43",
"I 	c #D04D43",
"J 	c #CC4C41",
"K 	c #DC594F",
"L 	c #D54F46",
"M 	c #BF342D",
"N 	c #B52620",
"O 	c #9D3735",
"P 	c #5D1F20",
"Q 	c #FDFDFD",
"R 	c #FBFBFB",
"S 	c #E7E7E7",
"T 	c #51100C",
"U 	c #B53F3B",
"V 	c #CD3E36",
"W 	c #D65446",
"X 	c #E16354",
"Y 	c #EA7261",
"Z 	c #E3705D",
"` 	c #E26F5C",
" .	c #DD6453",
"..	c #D95749",
"+.	c #CD4539",
"@.	c #B23531",
"#.	c #5A0E0E",
"$.	c #EDEDED",
"%.	c #DADADA",
"&.	c #67201A",
"*.	c #B94035",
"=.	c #DE5542",
"-.	c #E66A5E",
";.	c #E87264",
">.	c #F78978",
",.	c #F68F7C",
"'.	c #F58C79",
").	c #E87968",
"!.	c #E3695C",
"~.	c #D6564B",
"{.	c #CD3F3B",
"].	c #6E1B17",
"^.	c #CECCCB",
"/.	c #782F26",
"(.	c #C34B3B",
"_.	c #E9674D",
":.	c #F4736D",
"<.	c #FF867E",
"[.	c #FF968B",
"}.	c #FD9184",
"|.	c #FF978A",
"1.	c #FE897F",
"2.	c #F97A73",
"3.	c #EE6763",
"4.	c #D13C36",
"5.	c #832C25",
"6.	c #D2D2D2",
"7.	c #E4E4E4",
"8.	c #D3D3D3",
"9.	c #876E63",
"0.	c #95332A",
"a.	c #FF6F6F",
"b.	c #F28777",
"c.	c #FF9B8D",
"d.	c #FFA198",
"e.	c #FFA49D",
"f.	c #FFA09A",
"g.	c #FF9690",
"h.	c #FF8B82",
"i.	c #F0766B",
"j.	c #A03837",
"k.	c #915650",
"l.	c #D3D3D2",
"m.	c #F4F4F4",
"n.	c #E0E0E0",
"o.	c #BEBEBE",
"p.	c #954641",
"q.	c #D75B5B",
"r.	c #FFA799",
"s.	c #FFB49F",
"t.	c #F1B9A0",
"u.	c #F3B9A1",
"v.	c #FEB09C",
"w.	c #FD9185",
"x.	c #E4655E",
"y.	c #8E4443",
"z.	c #9F7873",
"A.	c #E1E1E1",
"B.	c #D5D5D5",
"C.	c #ADAAA8",
"D.	c #937C7A",
"E.	c #8A3C3C",
"F.	c #F07879",
"G.	c #FE958F",
"H.	c #FFAD9E",
"I.	c #FFBBA5",
"J.	c #FEBAA3",
"K.	c #F2A190",
"L.	c #D46F67",
"M.	c #AD3B3A",
"N.	c #7A5354",
"O.	c #A99F9C",
"P.	c #DEDEDE",
"Q.	c #DDDDDD",
"R.	c #B9B9B9",
"S.	c #A2A2A2",
"T.	c #857576",
"U.	c #573B30",
"V.	c #8E6864",
"W.	c #BD7D7D",
"X.	c #EF7C81",
"Y.	c #D66569",
"Z.	c #994845",
"`.	c #6E463C",
" +	c #5F5242",
".+	c #8F8085",
"++	c #B8B8B8",
"@+	c #D1D1D1",
"#+	c #CBCBCB",
"$+	c #B4B4B4",
"%+	c #9C9C9C",
"&+	c #685D5D",
"*+	c #463F37",
"=+	c #474538",
"-+	c #4A4C3E",
";+	c #525449",
">+	c #9B9B9B",
",+	c #A1A1A1",
"'+	c #B3B3B3",
")+	c #CACACA",
"!+	c #BDBDBD",
"~+	c #A9ACAE",
"{+	c #A7A7A7",
"]+	c #A4A4A4",
"^+	c #A3A3A3",
"/+	c #A6A6A6",
"(+	c #A2AAAA",
"_+	c #BCBCBC",
":+	c #E2E2E2",
"<+	c #D9D9D9",
"[+	c #D8D8D8",
"}+	c #C7C7C7",
"|+	c #BBBBBB",
"1+	c #AEAEAE",
"2+	c #A9A9A9",
"3+	c #A8A8A8",
"4+	c #ACACAC",
"5+	c #B7B7B7",
"6+	c #CECECE",
"7+	c #C5C5C5",
"8+	c #C0C0C0",
"9+	c #C4C4C4",
"0+	c #CCCCCC",
"a+	c #C9C9C9",
"b+	c #C8C8C8",
"c+	c #757575",
"d+	c #6D6D6D",
"e+	c #6C6C6C",
". . . . . . . . . . . . . . . . . . . . . . ",
". . . . . . . . . . . . . . . . . . . . . . ",
"+ + + + + + + @ # # # # @ + + + + + + + + + ",
"$ $ $ $ $ % & * = - ; > , ' ) $ $ $ $ $ $ $ ",
"! ! ! ! + $ ~ { ] ^ / ( _ : < [ + ! ! ! ! ! ",
". . . } | 1 2 3 4 5 6 7 8 9 0 a | } . . . . ",
"! ! ! b c d e f g h h i j k l m n b ! ! ! ! ",
"$ $ % o p q r s t u v v w x y z A o % $ $ $ ",
"# # B C D E F G H I J K L M N O P C B # # # ",
"Q Q R S T U V W X Y Z `  ...+.@.#.% R Q Q Q ",
"@ @ $.%.&.*.=.-.;.>.,.'.).!.~.{.].%.$.@ @ @ ",
") ) & ^./.(._.:.<.[.}.|.1.2.3.4.5.6.7.) ) ) ",
"[ [ ) 8.9.0.a.b.c.d.e.f.g.h.i.j.k.l.S [ [ [ ",
"| | m.n.o.p.q.h.r.s.t.u.v.w.x.y.z.A.m.| | | ",
"% % ) B.C.D.E.F.G.H.I.J.K.L.M.N.O.B.) % % % ",
"P.P.Q.6.R.S.T.U.V.W.X.Y.Z.`. +.+++@+Q.P.P.P.",
"n.n.n.C #+$+S.%+&+*+=+-+;+>+,+'+)+%.n.n.n.n.",
"[ [ [ $ & 8.!+~+{+]+^+^+/+(+_+6.:+$ [ [ [ [ ",
"<+<+<+<+[+8.}+|+1+2+{+3+4+5+}+8.[+<+<+<+<+<+",
"6+6+6+6+6+6+#+7+8+!+!+!+o.9+)+6+6+6+6+6+6+6+",
"0+a+)+)+a+a+a+a+}+}+}+b+b+}+a+)+)+a+)+)+a+a+",
"c+d+e+e+d+d+e+e+d+d+d+e+e+d+e+e+e+d+e+e+d+d+"};
