/* XPM */
static char * stick_on_xpm[] = {
"22 22 236 2",
"  	c None",
". 	c #040005",
"+ 	c #C2C9D0",
"@ 	c #FFFFFF",
"# 	c #CACFD3",
"$ 	c #F9F9FB",
"% 	c #F8F9FB",
"& 	c #C0C4C9",
"* 	c #F0F0F0",
"= 	c #EFEFEF",
"- 	c #EEEEEE",
"; 	c #D4D7DC",
"> 	c #E9E9E9",
", 	c #E8E8E8",
"' 	c #E3E3E3",
") 	c #A8A8A6",
"! 	c #5F5F5D",
"~ 	c #242422",
"{ 	c #101010",
"] 	c #232323",
"^ 	c #575759",
"/ 	c #D1D1D2",
"( 	c #E6E6E6",
"_ 	c #C9CED2",
": 	c #F1F1F1",
"< 	c #706667",
"[ 	c #423D41",
"} 	c #9B9599",
"| 	c #C8BDC3",
"1 	c #D7CAD1",
"2 	c #CEBFC6",
"3 	c #8F8289",
"4 	c #53484E",
"5 	c #695E64",
"6 	c #EAEAEA",
"7 	c #FEFEFE",
"8 	c #F7F7F7",
"9 	c #75746F",
"0 	c #67444A",
"a 	c #A89694",
"b 	c #DBC7C6",
"c 	c #F2DDDC",
"d 	c #F9E1E1",
"e 	c #FAE0E1",
"f 	c #E7CDCE",
"g 	c #9D8585",
"h 	c #624A4A",
"i 	c #7C716D",
"j 	c #EBEBEB",
"k 	c #ABA4A0",
"l 	c #4D2627",
"m 	c #974B55",
"n 	c #B77A75",
"o 	c #D1948F",
"p 	c #E2A5A0",
"q 	c #D89994",
"r 	c #D59691",
"s 	c #B87773",
"t 	c #93524E",
"u 	c #461E1C",
"v 	c #B6A7A9",
"w 	c #DCDCDC",
"x 	c #714F4D",
"y 	c #782C30",
"z 	c #B13F47",
"A 	c #A93832",
"B 	c #BA4943",
"C 	c #C1524B",
"D 	c #C5564F",
"E 	c #B94842",
"F 	c #AC3632",
"G 	c #AE3733",
"H 	c #7A3331",
"I 	c #7A5052",
"J 	c #ECECEC",
"K 	c #DBDBDB",
"L 	c #541E1C",
"M 	c #9F3738",
"N 	c #A61E22",
"O 	c #C43932",
"P 	c #D24C43",
"Q 	c #D04D43",
"R 	c #CC4C41",
"S 	c #DC594F",
"T 	c #D54F46",
"U 	c #BF342D",
"V 	c #B52620",
"W 	c #9D3735",
"X 	c #5D1F20",
"Y 	c #FDFDFD",
"Z 	c #FBFBFB",
"` 	c #E7E7E7",
" .	c #51100C",
"..	c #B53F3B",
"+.	c #CD3E36",
"@.	c #D65446",
"#.	c #E16354",
"$.	c #EA7261",
"%.	c #E3705D",
"&.	c #E26F5C",
"*.	c #DD6453",
"=.	c #D95749",
"-.	c #CD4539",
";.	c #B23531",
">.	c #5A0E0E",
",.	c #EDEDED",
"'.	c #DADADA",
").	c #67201A",
"!.	c #B94035",
"~.	c #DE5542",
"{.	c #E66A5E",
"].	c #E87264",
"^.	c #F78978",
"/.	c #F68F7C",
"(.	c #F58C79",
"_.	c #E87968",
":.	c #E3695C",
"<.	c #D6564B",
"[.	c #CD3F3B",
"}.	c #6E1B17",
"|.	c #CECCCB",
"1.	c #782F26",
"2.	c #C34B3B",
"3.	c #E9674D",
"4.	c #F4736D",
"5.	c #FF867E",
"6.	c #FF968B",
"7.	c #FD9184",
"8.	c #FF978A",
"9.	c #FE897F",
"0.	c #F97A73",
"a.	c #EE6763",
"b.	c #D13C36",
"c.	c #832C25",
"d.	c #D2D2D2",
"e.	c #E4E4E4",
"f.	c #D3D3D3",
"g.	c #876E63",
"h.	c #95332A",
"i.	c #FF6F6F",
"j.	c #F28777",
"k.	c #FF9B8D",
"l.	c #FFA198",
"m.	c #FFA49D",
"n.	c #FFA09A",
"o.	c #FF9690",
"p.	c #FF8B82",
"q.	c #F0766B",
"r.	c #A03837",
"s.	c #915650",
"t.	c #D3D3D2",
"u.	c #F4F4F4",
"v.	c #E0E0E0",
"w.	c #BEBEBE",
"x.	c #954641",
"y.	c #D75B5B",
"z.	c #FFA799",
"A.	c #FFB49F",
"B.	c #F1B9A0",
"C.	c #F3B9A1",
"D.	c #FEB09C",
"E.	c #FD9185",
"F.	c #E4655E",
"G.	c #8E4443",
"H.	c #9F7873",
"I.	c #E1E1E1",
"J.	c #D5D5D5",
"K.	c #ADAAA8",
"L.	c #937C7A",
"M.	c #8A3C3C",
"N.	c #F07879",
"O.	c #FE958F",
"P.	c #FFAD9E",
"Q.	c #FFBBA5",
"R.	c #FEBAA3",
"S.	c #F2A190",
"T.	c #D46F67",
"U.	c #AD3B3A",
"V.	c #7A5354",
"W.	c #A99F9C",
"X.	c #DEDEDE",
"Y.	c #DDDDDD",
"Z.	c #B9B9B9",
"`.	c #A2A2A2",
" +	c #857576",
".+	c #573B30",
"++	c #8E6864",
"@+	c #BD7D7D",
"#+	c #EF7C81",
"$+	c #D66569",
"%+	c #994845",
"&+	c #6E463C",
"*+	c #5F5242",
"=+	c #8F8085",
"-+	c #B8B8B8",
";+	c #D1D1D1",
">+	c #CBCBCB",
",+	c #B4B4B4",
"'+	c #9C9C9C",
")+	c #685D5D",
"!+	c #463F37",
"~+	c #474538",
"{+	c #4A4C3E",
"]+	c #525449",
"^+	c #9B9B9B",
"/+	c #A1A1A1",
"(+	c #B3B3B3",
"_+	c #CACACA",
":+	c #BDBDBD",
"<+	c #A9ACAE",
"[+	c #A7A7A7",
"}+	c #A4A4A4",
"|+	c #A3A3A3",
"1+	c #A6A6A6",
"2+	c #A2AAAA",
"3+	c #BCBCBC",
"4+	c #E2E2E2",
"5+	c #D9D9D9",
"6+	c #D8D8D8",
"7+	c #C7C7C7",
"8+	c #BBBBBB",
"9+	c #AEAEAE",
"0+	c #A9A9A9",
"a+	c #A8A8A8",
"b+	c #ACACAC",
"c+	c #B7B7B7",
"d+	c #CECECE",
"e+	c #C5C5C5",
"f+	c #C0C0C0",
"g+	c #C4C4C4",
"h+	c #CCCCCC",
"i+	c #C9C9C9",
"j+	c #C8C8C8",
"k+	c #757575",
"l+	c #6D6D6D",
"m+	c #6C6C6C",
". . . . . + @ @ @ @ @ @ @ @ @ @ @ @ @ @ @ @ ",
". . # $ $ % @ @ @ @ @ @ @ @ @ @ @ @ @ @ @ @ ",
". & * * * * * = - - - - = * * * * * * * * * ",
". ; > > > , ' ) ! ~ { ] ^ / ( > > > > > > > ",
". _ : : * > < [ } | 1 2 3 4 5 6 * : : : : : ",
"@ @ @ 7 8 9 0 a b c d e f g h i 8 7 @ @ @ @ ",
": : : j k l m n o p p q r s t u v j : : : : ",
"> > , w x y z A B C D D E F G H I w , > > > ",
"- - J K L M N O P Q R S T U V W X K J - - - ",
"Y Y Z `  ...+.@.#.$.%.&.*.=.-.;.>., Z Y Y Y ",
"= = ,.'.).!.~.{.].^./.(._.:.<.[.}.'.,.= = = ",
"( ( ' |.1.2.3.4.5.6.7.8.9.0.a.b.c.d.e.( ( ( ",
"6 6 ( f.g.h.i.j.k.l.m.n.o.p.q.r.s.t.` 6 6 6 ",
"8 8 u.v.w.x.y.p.z.A.B.C.D.E.F.G.H.I.u.8 8 8 ",
", , ( J.K.L.M.N.O.P.Q.R.S.T.U.V.W.J.( , , , ",
"X.X.Y.d.Z.`. +.+++@+#+$+%+&+*+=+-+;+Y.X.X.X.",
"v.v.v.K >+,+`.'+)+!+~+{+]+^+/+(+_+'.v.v.v.v.",
"6 6 6 > ' f.:+<+[+}+|+|+1+2+3+d.4+> 6 6 6 6 ",
"5+5+5+5+6+f.7+8+9+0+[+a+b+c+7+f.6+5+5+5+5+5+",
"d+d+d+d+d+d+>+e+f+:+:+:+w.g+_+d+d+d+d+d+d+d+",
"h+i+_+_+i+i+i+i+7+7+7+j+j+7+i+_+_+i+_+_+i+i+",
"k+l+m+m+l+l+m+m+l+l+l+m+m+l+m+m+m+l+m+m+l+l+"};
