/* XPM */
static char * stick_off_xpm[] = {
"22 22 150 2",
"  	c None",
". 	c #040005",
"+ 	c #C2C9D0",
"@ 	c #FFFFFF",
"# 	c #CACFD3",
"$ 	c #F9F9FB",
"% 	c #F8F9FB",
"& 	c #C0C4C9",
"* 	c #F0F0F0",
"= 	c #EEEEEE",
"- 	c #D4D7DC",
"; 	c #E9E9E9",
"> 	c #E8E8E8",
", 	c #E5E5E5",
"' 	c #A4A4A3",
") 	c #5D5D5C",
"! 	c #292929",
"~ 	c #0F0F0F",
"{ 	c #2C2C2C",
"] 	c #5D5D5D",
"^ 	c #AEADAD",
"/ 	c #C9CED2",
"( 	c #F1F1F1",
"_ 	c #696769",
": 	c #515151",
"< 	c #767676",
"[ 	c #949494",
"} 	c #A3A3A3",
"| 	c #999999",
"1 	c #7A7A7A",
"2 	c #454545",
"3 	c #6B6D6E",
"4 	c #E6E6E6",
"5 	c #F6F6F6",
"6 	c #747474",
"7 	c #4D4D4D",
"8 	c #6F6F6F",
"9 	c #A9A9A9",
"0 	c #B5B5B5",
"a 	c #C5C5C5",
"b 	c #B9B9B9",
"c 	c #A5A5A5",
"d 	c #4E4E4E",
"e 	c #757576",
"f 	c #ECECEC",
"g 	c #9C9C9B",
"h 	c #3E3E3E",
"i 	c #414141",
"j 	c #7E7E7E",
"k 	c #9F9F9F",
"l 	c #9E9E9E",
"m 	c #818181",
"n 	c #444444",
"o 	c #959494",
"p 	c #DADADA",
"q 	c #6D6D6D",
"r 	c #626262",
"s 	c #797979",
"t 	c #898989",
"u 	c #808080",
"v 	c #676767",
"w 	c #535353",
"x 	c #DCDCDC",
"y 	c #DBDBDB",
"z 	c #636363",
"A 	c #6C6C6C",
"B 	c #737373",
"C 	c #878787",
"D 	c #909090",
"E 	c #8A8A8A",
"F 	c #7B7B7B",
"G 	c #595959",
"H 	c #4B4B4B",
"I 	c #D4D4D4",
"J 	c #FDFDFD",
"K 	c #CECECE",
"L 	c #939393",
"M 	c #9A9A9A",
"N 	c #A1A1A1",
"O 	c #A4A4A4",
"P 	c #757575",
"Q 	c #5E5E5E",
"R 	c #D2D2D2",
"S 	c #EFEFEF",
"T 	c #BABABA",
"U 	c #888888",
"V 	c #B6B6B6",
"W 	c #AFAFAF",
"X 	c #B3B3B3",
"Y 	c #ADADAD",
"Z 	c #9D9D9D",
"` 	c #9B9B9B",
" .	c #8C8C8C",
"..	c #BFBFBF",
"+.	c #B8B8B8",
"@.	c #9C9C9C",
"#.	c #BBBBBB",
"$.	c #C0C0C0",
"%.	c #C3C3C3",
"&.	c #C1C1C1",
"*.	c #BCBCBC",
"=.	c #A6A6A6",
"-.	c #858585",
";.	c #B0B0B0",
">.	c #EAEAEA",
",.	c #C2C2C2",
"'.	c #7C7C7C",
").	c #B4B4B4",
"!.	c #C7C7C7",
"~.	c #CACACA",
"{.	c #C6C6C6",
"].	c #F7F7F7",
"^.	c #D9D9D9",
"/.	c #C9C9C9",
"(.	c #C8C8C8",
"_.	c #838383",
":.	c #D7D7D7",
"<.	c #6B6B6B",
"[.	c #7F7F7F",
"}.	c #AAAAAA",
"|.	c #D6D6D6",
"1.	c #DEDEDE",
"2.	c #797A7A",
"3.	c #565656",
"4.	c #B7B7B7",
"5.	c #A2A2A2",
"6.	c #5A5A5A",
"7.	c #7E7F7E",
"8.	c #E0E0E0",
"9.	c #CDCDCD",
"0.	c #898B8B",
"a.	c #434343",
"b.	c #424242",
"c.	c #4A4A4A",
"d.	c #656565",
"e.	c #8A8A8B",
"f.	c #CBCBCB",
"g.	c #E3E3E3",
"h.	c #BDBDBD",
"i.	c #A2A3A7",
"j.	c #8E8E92",
"k.	c #7F8080",
"l.	c #8F9090",
"m.	c #A2A6A6",
"n.	c #D8D8D8",
"o.	c #D3D3D3",
"p.	c #ACACAC",
"q.	c #A6A6A4",
"r.	c #A7A7A8",
"s.	c #CCCCCC",
". . . . . + @ @ @ @ @ @ @ @ @ @ @ @ @ @ @ @ ",
". . # $ $ % @ @ @ @ @ @ @ @ @ @ @ @ @ @ @ @ ",
". & * * * * * * = = = = = * * * * * * * * * ",
". - ; ; ; > , ' ) ! ~ { ] ^ , ; ; ; ; ; ; ; ",
". / ( ( * ; _ : < [ } | 1 2 3 4 * ( ( ( ( ( ",
"@ @ @ @ 5 6 7 8 9 0 a b c < d e 5 @ @ @ @ @ ",
"( ( ( f g h i j k c c } l m h n o f ( ( ( ( ",
"; ; ; p d 7 q r < m s t u v q w d x ; ; ; ; ",
"= = = y 2 z A B C C D E F F v G H I = = = = ",
"J J J K G 6 q L M N O c M M < P Q R J J J J ",
"S S S T v U L O c V W X Y Z `  .r ..S S S S ",
"4 4 4 +.q U @.W #.$.%.&.*.X =.-.< ;.4 4 4 4 ",
">.>.>.,.'.E Y ).!.~.{.~.{.#.T C 1 $.>.>.>.>.",
"].].].^.U -.@.,./.(.~.,.~./.M _. .p ].].].].",
"> > > :.l <.[.}.!.~.~.~.~.0 _.q g |.> > > > ",
"1.1.1.I #.2.3.q m N 4.5.s <.6.7.T R 1.1.1.1.",
"8.8.8.x 9.).0.r 7 i a.b.c.d.e.X f.y 8.8.8.8.",
">.>.>.>.g.R h.i.j.k.< [.l.m.h.R g.>.>.>.>.>.",
"^.^.^.^.n.o.!.T p.q.c r.;.*./.o.n.^.^.^.^.^.",
"K K K K K K ~.a h.+.+.#.$.!.f.K K K K K K K ",
"f.s.s./.~.~.(.!.!.a a {.!./.~./.~.~.f.s.s.f.",
"< P P q A A q q A A q q q A A q A A < P P < "};
