/* XPM */
static char * bullet_xpm[] = {
"16 16 2 1",
" 	c None",
".	c #7B7B7B",
"                ",
"                ",
" ....  ....     ",
" .  .  .  .     ",
" ..........     ",
"    .  .        ",
"    .  .        ",
"    .  .        ",
" ..........     ",
" .  .  .  .     ",
" .  .  .  .     ",
" ....  ....     ",
"                ",
"                ",
"                ",
"                "};
