/* XPM */
static char * close_xpm[] = {
"21 19 198 2",
"  	c None",
". 	c #FCFCFC",
"+ 	c #FAFAFA",
"@ 	c #FCFBF9",
"# 	c #FBFBFB",
"$ 	c #FBFBFD",
"% 	c #FDFDFD",
"& 	c #FEFDFB",
"* 	c #FEFEFE",
"= 	c #F9FAFC",
"- 	c #7E8285",
"; 	c #6C7073",
"> 	c #777B7E",
", 	c #7A7E81",
"' 	c #787C7F",
") 	c #797D80",
"! 	c #767A7D",
"~ 	c #7B7F82",
"{ 	c #F9F9F9",
"] 	c #AAAEB1",
"^ 	c #B1B6BA",
"/ 	c #B4B9BD",
"( 	c #B3B8BC",
"_ 	c #B2B7BB",
": 	c #B0B5B9",
"< 	c #ADB2B6",
"[ 	c #ACB1B5",
"} 	c #AEB3B7",
"| 	c #A1A6AA",
"1 	c #F7F7F7",
"2 	c #BDC2C6",
"3 	c #E6EBEF",
"4 	c #D3D8DC",
"5 	c #D2D7DB",
"6 	c #D8DDE1",
"7 	c #DCE1E5",
"8 	c #DBE0E4",
"9 	c #D6DBDF",
"0 	c #D7DCE0",
"a 	c #D5DADE",
"b 	c #F4F4F4",
"c 	c #61666A",
"d 	c #B7BCC0",
"e 	c #B8BDC1",
"f 	c #B5BABE",
"g 	c #F1F1F1",
"h 	c #3C4145",
"i 	c #DFE4E8",
"j 	c #B1B9BC",
"k 	c #FEFFFF",
"l 	c #A7ACB0",
"m 	c #B3B7BA",
"n 	c #FFFFFD",
"o 	c #A8ACAF",
"p 	c #AEB3B9",
"q 	c #B2BABD",
"r 	c #B6BBC1",
"s 	c #EFEFEF",
"t 	c #353C42",
"u 	c #D7DEE4",
"v 	c #A6ADB3",
"w 	c #A2A9AF",
"x 	c #9EA5AB",
"y 	c #9FA4A8",
"z 	c #959AA0",
"A 	c #8A8F95",
"B 	c #989FA5",
"C 	c #A0A5AB",
"D 	c #888F97",
"E 	c #878A93",
"F 	c #9299A1",
"G 	c #A0A5A9",
"H 	c #A1AAB1",
"I 	c #ECECEC",
"J 	c #3C4349",
"K 	c #C6CDD3",
"L 	c #959CA2",
"M 	c #91989E",
"N 	c #94979E",
"O 	c #818890",
"P 	c #82898F",
"Q 	c #80898E",
"R 	c #80878D",
"S 	c #90989B",
"T 	c #939CA1",
"U 	c #979EA4",
"V 	c #8F979A",
"W 	c #EAEAEA",
"X 	c #3C444F",
"Y 	c #D0D8E3",
"Z 	c #828A95",
"` 	c #8F97A2",
" .	c #878F9A",
"..	c #88919A",
"+.	c #879099",
"@.	c #838A94",
"#.	c #767D87",
"$.	c #FFFDFE",
"%.	c #6D747C",
"&.	c #6F727B",
"*.	c #757B87",
"=.	c #808A93",
"-.	c #878D99",
";.	c #8B919F",
">.	c #8A909C",
",.	c #E7E7E5",
"'.	c #28303B",
").	c #A1A9B4",
"!.	c #474F5A",
"~.	c #484F55",
"{.	c #44525B",
"].	c #454F5B",
"^.	c #FFFEFF",
"/.	c #3B4046",
"(.	c #FDFFFE",
"_.	c #39424B",
":.	c #414B55",
"<.	c #464F58",
"[.	c #484E5A",
"}.	c #464D57",
"|.	c #4A545E",
"1.	c #9AA3AC",
"2.	c #454E57",
"3.	c #434C55",
"4.	c #444D56",
"5.	c #454E55",
"6.	c #FCFFFF",
"7.	c #3B424C",
"8.	c #373B44",
"9.	c #3A3E47",
"0.	c #3B444B",
"a.	c #444C57",
"b.	c #434D57",
"c.	c #464F56",
"d.	c #434D56",
"e.	c #434F5B",
"f.	c #E7E7E7",
"g.	c #3F4851",
"h.	c #8C959E",
"i.	c #48515A",
"j.	c #4F5861",
"k.	c #4A535C",
"l.	c #4C555E",
"m.	c #FEFEFF",
"n.	c #40474D",
"o.	c #3B424A",
"p.	c #3F4752",
"q.	c #494D58",
"r.	c #414A51",
"s.	c #FFFFFF",
"t.	c #404952",
"u.	c #495259",
"v.	c #4A545D",
"w.	c #4C565F",
"x.	c #49525B",
"y.	c #484F57",
"z.	c #787F87",
"A.	c #495058",
"B.	c #454C54",
"C.	c #464D55",
"D.	c #444B53",
"E.	c #40474F",
"F.	c #3C3F48",
"G.	c #3C424E",
"H.	c #424953",
"I.	c #444F55",
"J.	c #44494F",
"K.	c #3C434B",
"L.	c #404751",
"M.	c #4B5258",
"N.	c #474E56",
"O.	c #666D75",
"P.	c #4A5159",
"Q.	c #424951",
"R.	c #484F59",
"S.	c #454C56",
"T.	c #434A54",
"U.	c #454B57",
"V.	c #474D59",
"W.	c #4B525A",
"X.	c #81888E",
"Y.	c #939AA4",
"Z.	c #90979D",
"`.	c #9198A0",
" +	c #8F969C",
".+	c #E8E6E7",
"++	c #2D343A",
"@+	c #3D444C",
"#+	c #3A4149",
"$+	c #3E454D",
"%+	c #383F47",
"&+	c #414850",
"*+	c #E6E7E9",
"=+	c #E6E8E7",
"-+	c #E7E7E9",
";+	c #E6E6E8",
">+	c #E6E6E6",
",+	c #E8E8E8",
". + @ # # # # # # . # # # # . # # # # # $ ",
"% % & % % % * * % % % % * % % % * % % % * ",
"+ = . # # # # # # # # # # # + # # # . # # ",
"- ; > , ' ' ) ' ' ) ' ! ! > > ! ! ~ ) - { ",
"] ^ / ( _ ^ : ^ ^ : ^ < < [ < < [ } | ] 1 ",
"2 3 4 5 6 7 8 8 8 8 8 9 0 0 0 0 6 7 a 2 b ",
"c 9 d e f f f f / f f ( ( ( ( ( ( f e c g ",
"h i / ( ( / j k l < m / / n o p q } r h s ",
"t u v w x x y z n A B C n D E F G w H t I ",
"J K L M L L L N O k P k Q ~ R S T U V J W ",
"X Y Z `  . ...+.@.#.$.%.&.*.=...-.;.>.X ,.",
"'.).!.!.!.!.~.{.].^./.(._.:.<.!.[.}.|.'.,.",
"_.1.<.2.3.2.4.5.6.7.8.9.* 0.a.b.c.d.e._.f.",
"g.h.i.j.k.l.k.m.n.o.p.q.r.s.t.u.v.w.x.g.f.",
"y.z.A.A.B.C.D.E.F.G.H.I.J.K./.L.C.M.y.y.f.",
"N.O.y.P.C.Q.R.S.T.U.V.N.N.D.Q.D.N.W.W.N.f.",
"X.Y.F Z.M M `.F `.Y.F Z.M M Z.M M  +L X..+",
"++@+@+o.#+#+@+K.$+@+@+o.#+#+#+#+o.%+&+++*+",
"=+=+-+f.f.f.f.-+;+-+-+f.f.f.f.f.f.>+,+=+f."};
