/* XPM */
static char * closeu_xpm[] = {
"21 19 82 1",
" 	c None",
".	c #FDFDFD",
"+	c #FCFCFC",
"@	c #FDFDFE",
"#	c #FEFEFE",
"$	c #B2B2B2",
"%	c #A7A7A7",
"&	c #AEAEAE",
"*	c #B0B0B0",
"=	c #AFAFAF",
"-	c #B1B1B1",
";	c #FBFBFB",
">	c #CDCDCD",
",	c #D2D2D2",
"'	c #D4D4D4",
")	c #D3D3D3",
"!	c #D1D1D1",
"~	c #D0D0D0",
"{	c #CFCFCF",
"]	c #C8C8C8",
"^	c #FAFAFA",
"/	c #D9D9D9",
"(	c #F2F2F2",
"_	c #E7E7E7",
":	c #E6E6E6",
"<	c #EAEAEA",
"[	c #ECECEC",
"}	c #E9E9E9",
"|	c #E8E8E8",
"1	c #F8F8F8",
"2	c #A1A1A1",
"3	c #D6D6D6",
"4	c #F6F6F6",
"5	c #8B8B8B",
"6	c #EEEEEE",
"7	c #FFFFFF",
"8	c #CCCCCC",
"9	c #D5D5D5",
"0	c #F5F5F5",
"a	c #888888",
"b	c #CACACA",
"c	c #C7C7C7",
"d	c #C1C1C1",
"e	c #BABABA",
"f	c #C4C4C4",
"g	c #B8B8B8",
"h	c #C0C0C0",
"i	c #F3F3F3",
"j	c #8C8C8C",
"k	c #E0E0E0",
"l	c #C2C2C2",
"m	c #B6B6B6",
"n	c #B7B7B7",
"o	c #B5B5B5",
"p	c #BFBFBF",
"q	c #C3C3C3",
"r	c #8D8D8D",
"s	c #BBBBBB",
"t	c #AAAAAA",
"u	c #A9A9A9",
"v	c #BCBCBC",
"w	c #F0F0EF",
"x	c #818181",
"y	c #939393",
"z	c #949494",
"A	c #8A8A8A",
"B	c #909090",
"C	c #929292",
"D	c #969696",
"E	c #C6C6C6",
"F	c #919191",
"G	c #F0F0F0",
"H	c #8F8F8F",
"I	c #BDBDBD",
"J	c #989898",
"K	c #959595",
"L	c #979797",
"M	c #A6A6A6",
"N	c #F1F0F0",
"O	c #838383",
"P	c #F0F0F2",
"Q	c #F1F1F1",
".+..................@",
"#####################",
"++............+......",
"$%&*=======&&&&&&-=$;",
">,')),!,,!,~~{~~{~]>^",
"/(_:<[[[[[[}}}}}<[|/1",
"2}33'''''''))))))'324",
"56'))')78~)''78~'~950",
"a<>b]]cd7ef]7egh]bbai",
"jklhlllhm7n7m-oplqpj(",
"r_npeesen=#tu=nsevvrw",
"xbyyyyyzy#A#5ByyyCDxw",
"5EyCFCCC#jaA#jCCyCy5G",
"HIzJKDK#HjHyB7HKDLKHG",
"y-zzCCFHAjBCBjAHCKyyG",
"yMyKCByCBCyyyFBFyKKyG",
"mdhphhhhhdhphhphhplmN",
"Orrj55rjrrrj5555jAHOP",
"GGGGGGGGGGGGGGGGGGQGG"};
