/* XPM */
static char * hilite_xpm[] = {
"5 19 16 1",
" 	c #5E676E",
".	c #626B72",
"+	c #5E6871",
"@	c #5C666F",
"#	c #58626B",
"$	c #555F68",
"%	c #515B64",
"&	c #4E5861",
"*	c #49535C",
"=	c #414B54",
"-	c #3C464F",
";	c #3B454E",
">	c #3B454F",
",	c #3A444D",
"'	c #39464E",
")	c #3C454E",
"     ",
".....",
"+++++",
"@@@@@",
"#####",
"$$$$$",
"%%%%%",
"&&&&&",
"*****",
"=====",
"-----",
";;;;;",
";;;;;",
";;;;;",
";;;;;",
">>>>>",
";,;;;",
"'''''",
")))))"};
