/* XPM */
static char * iconu_xpm[] = {
"22 19 85 1",
" 	c None",
".	c #FCFCFC",
"+	c #FDFDFD",
"@	c #FEFEFE",
"#	c #B4B4B4",
"$	c #B0B0B0",
"%	c #AEAEAE",
"&	c #B1B1B1",
"*	c #AFAFAF",
"=	c #B3B3B3",
"-	c #ABABAB",
";	c #B5B5B5",
">	c #ACACAC",
",	c #CECECE",
"'	c #CACACA",
")	c #CDCDCD",
"!	c #CBCBCB",
"~	c #C8C8C8",
"{	c #C9C9C9",
"]	c #D0D0D0",
"^	c #F2F2F2",
"/	c #E9E9E9",
"(	c #EAEAEA",
"_	c #E8E8E8",
":	c #E7E7E7",
"<	c #ECECEC",
"[	c #EBEBEB",
"}	c #EEEEEE",
"|	c #A1A1A1",
"1	c #D6D6D6",
"2	c #D4D4D4",
"3	c #D3D3D3",
"4	c #D2D2D2",
"5	c #D7D7D7",
"6	c #DADADA",
"7	c #8B8B8B",
"8	c #D5D5D5",
"9	c #CFCFCF",
"0	c #F3F3F3",
"a	c #888888",
"b	c #C7C7C7",
"c	c #8C8C8C",
"d	c #E0E0E0",
"e	c #C2C2C2",
"f	c #C0C0C0",
"g	c #C3C3C3",
"h	c #C4C4C4",
"i	c #BEBEBE",
"j	c #DEDEDE",
"k	c #8D8D8D",
"l	c #B7B7B7",
"m	c #BFBFBF",
"n	c #BABABA",
"o	c #FFFFFF",
"p	c #B2B2B2",
"q	c #B8B8B8",
"r	c #BBBBBB",
"s	c #BCBCBC",
"t	c #DBDBDB",
"u	c #818181",
"v	c #939393",
"w	c #909090",
"x	c #8A8A8A",
"y	c #878787",
"z	c #919191",
"A	c #989898",
"B	c #949494",
"C	c #959595",
"D	c #C6C6C6",
"E	c #929292",
"F	c #969696",
"G	c #8F8F8F",
"H	c #BDBDBD",
"I	c #979797",
"J	c #A6A6A6",
"K	c #AAAAAA",
"L	c #C1C1C1",
"M	c #C5C5C5",
"N	c #838383",
"O	c #898989",
"P	c #848484",
"Q	c #828282",
"R	c #858585",
"S	c #F0F0F0",
"T	c #F1F1F1",
".+++++++++++++.+++++.+",
"@+@@@@@@@@@@+@@@+@+@@@",
"++++.++++++.++.+++++++",
"#$%$&#*$*$=-%;&$*>&*$*",
"#,')))!'!),!,)~~{']')~",
"#^/((_/::(/<<::([<<:/}",
"|/1122134325141652214(",
"7}23323333322222]4]890",
"a()'~~~b~~b~b~~~~{'''<",
"cdefeeeeeegegeefhegigj",
"k:lmnnn@oooooopqrqss&t",
"u'vvvvvwxyayayxzABvCA'",
"7DvEzEEwkcckckkwEvzvF~",
"GHBACFBCFFCFFFFCECICBi",
"v&BBEEzEEEEEEEEvCvCvv;",
"vJvCEwFvvvEGwzzvFCCCvK",
"vgHmefeggeLLeegfssfeHM",
"NcaOPQyyyRNNPPPQRPOGcw",
"STTSSSSSSSSSSSSSSSSSSS"};
