/* XPM */
static char * icon_xpm[] = {
"22 19 182 2",
"  	c None",
". 	c #FAFAFA",
"+ 	c #FCFCFC",
"@ 	c #FBFBFB",
"# 	c #FDFDFD",
"$ 	c #FEFEFE",
"% 	c #808487",
"& 	c #7A7E81",
"* 	c #767A7D",
"= 	c #7C8083",
"- 	c #797D80",
"; 	c #7F8386",
"> 	c #727679",
", 	c #777B7E",
"' 	c #83878A",
") 	c #74787B",
"! 	c #787C7F",
"~ 	c #AAAFB3",
"{ 	c #A4A9AD",
"] 	c #A9AEB2",
"^ 	c #A8ADB1",
"/ 	c #A6ABAF",
"( 	c #A5AAAE",
"_ 	c #A0A5A9",
": 	c #A1A6AA",
"< 	c #A2A7AB",
"[ 	c #A3A8AC",
"} 	c #ADB2B6",
"| 	c #E6EBEF",
"1 	c #D6DBDF",
"2 	c #D9DEE2",
"3 	c #D8DDE1",
"4 	c #D5DADE",
"5 	c #D7DCE0",
"6 	c #D4D9DD",
"7 	c #D3D8DC",
"8 	c #DBE0E4",
"9 	c #DADFE3",
"0 	c #DCE1E5",
"a 	c #DFE4E8",
"b 	c #61666A",
"c 	c #B7BCC0",
"d 	c #B8BDC1",
"e 	c #B5BABE",
"f 	c #B3B8BC",
"g 	c #B1B6BA",
"h 	c #B4B9BD",
"i 	c #BABFC3",
"j 	c #BEC3C7",
"k 	c #3C4145",
"l 	c #B4B7BC",
"m 	c #B3B8BB",
"n 	c #B4BABA",
"o 	c #B4B9BC",
"p 	c #B6BBBF",
"q 	c #ACB1B5",
"r 	c #E8EDF1",
"s 	c #353C42",
"t 	c #D7DEE4",
"u 	c #A6ADB3",
"v 	c #A2A9AF",
"w 	c #9EA5AB",
"x 	c #9FA6AC",
"y 	c #9DA4AA",
"z 	c #9EA5AD",
"A 	c #A0A7AD",
"B 	c #A1A8AE",
"C 	c #DAE1E7",
"D 	c #3C4349",
"E 	c #C6CDD3",
"F 	c #959CA2",
"G 	c #91989E",
"H 	c #949DA4",
"I 	c #989DA3",
"J 	c #969BA1",
"K 	c #949BA3",
"L 	c #92999F",
"M 	c #989FA5",
"N 	c #979EA4",
"O 	c #8E959B",
"P 	c #C2C9CF",
"Q 	c #3C444F",
"R 	c #D0D8E3",
"S 	c #828A95",
"T 	c #8F97A2",
"U 	c #878F9A",
"V 	c #8A8F95",
"W 	c #FCFFFF",
"X 	c #FEFFFF",
"Y 	c #FFFFFF",
"Z 	c #7A818B",
"` 	c #848B95",
" .	c #89909A",
"..	c #848A96",
"+.	c #8B919D",
"@.	c #787E8A",
"#.	c #BEC4D0",
"$.	c #28303B",
"%.	c #A1A9B4",
"&.	c #474F5A",
"*.	c #464E5B",
"=.	c #424B54",
"-.	c #394048",
";.	c #353942",
">.	c #373B44",
",.	c #343B41",
"'.	c #38404B",
").	c #434B56",
"!.	c #4E5661",
"~.	c #48505B",
"{.	c #464E59",
"].	c #4A525D",
"^.	c #A0A8B3",
"/.	c #39424B",
"(.	c #9AA3AC",
"_.	c #464F58",
":.	c #454E57",
"<.	c #434C55",
"[.	c #434D56",
"}.	c #414A51",
"|.	c #3C454C",
"1.	c #3B444B",
"2.	c #3C434D",
"3.	c #3D444C",
"4.	c #3C454E",
"5.	c #3D464F",
"6.	c #475059",
"7.	c #4C555E",
"8.	c #9EA7B0",
"9.	c #3F4851",
"0.	c #8C959E",
"a.	c #48515A",
"b.	c #4F5861",
"c.	c #4A535C",
"d.	c #4B545D",
"e.	c #4B535E",
"f.	c #49515C",
"g.	c #4D565F",
"h.	c #8D969F",
"i.	c #484F57",
"j.	c #787F87",
"k.	c #495058",
"l.	c #454C54",
"m.	c #464D55",
"n.	c #444B53",
"o.	c #454C56",
"p.	c #464C58",
"q.	c #454B57",
"r.	c #464D57",
"s.	c #474E58",
"t.	c #4B525A",
"u.	c #474E56",
"v.	c #80878F",
"w.	c #666D75",
"x.	c #4A5159",
"y.	c #424951",
"z.	c #4D545C",
"A.	c #414850",
"B.	c #6D747C",
"C.	c #8D949A",
"D.	c #8F969C",
"E.	c #949BA1",
"F.	c #969DA3",
"G.	c #939AA0",
"H.	c #8B9298",
"I.	c #8A9197",
"J.	c #8C9399",
"K.	c #9AA1A7",
"L.	c #2D343A",
"M.	c #3B4248",
"N.	c #363D43",
"O.	c #373E44",
"P.	c #2F363C",
"Q.	c #2C3339",
"R.	c #333A40",
"S.	c #30373D",
"T.	c #2E353B",
"U.	c #41484E",
"V.	c #42494F",
"W.	c #E7E7E7",
"X.	c #E8E8E8",
"Y.	c #E6E6E6",
". + @ @ + @ @ @ + @ + @ @ @ . + @ @ @ @ . @ ",
"# + # # # # # $ # # # # + # # $ + # + # # # ",
"@ @ + + . @ @ @ @ + @ . + @ . @ + @ @ @ + @ ",
"% & * & = % - & - & ; > , ' = & - ) = - & ! ",
"% ~ { ] ] ^ / { / ] ~ ( ~ ] _ : < [ } [ ] _ ",
"% | 1 2 3 4 5 6 7 3 1 8 8 6 6 2 9 0 0 6 5 a ",
"b 1 c d e e c f g f h i d g c j i e h d g 2 ",
"k a h f f h l f f f m n o h h h } g } p q r ",
"s t u v w w x y w z y w y z w w x A v v B C ",
"D E F G F F H F F F I J I K F L M F N O N P ",
"Q R S T U U V W X X Y X X X Z `  ...+.+.@.#.",
"$.%.&.&.&.&.*.=.-.;.>.;.>.,.'.).!.~.{.].!.^.",
"/.(._.:.<.:.[.}.|.1.2.3.1.4.5.=.:._.<.6.7.8.",
"9.0.a.b.c.7.a.c.d.e.f.7.d.e.7.c.:.c.g.c.a.h.",
"i.j.k.k.l.m.n.o.p.q.:.m.m.r.r.s.t.i.t.u.i.v.",
"u.w.i.x.m.y.z.i.u.i.l.A.y.n.n.i.z.x.x.t.i.B.",
"u.N C.D.E.G F F.F.F G.G.F F F.G H.I.G E.J.K.",
"L.M.N.O.P.Q.R.,.R.S.L.L.P.T.T.Q.S.P.O.U.M.V.",
"W.X.X.W.W.Y.W.W.W.W.W.W.W.W.W.W.Y.W.W.W.W.Y."};
