/* XPM */
static char * max_xpm[] = {
"21 19 206 2",
"  	c #FAFAFA",
". 	c #FCFCFC",
"+ 	c #FBFBFB",
"@ 	c #FDFDFD",
"# 	c #FEFEFE",
"$ 	c #FDFDFB",
"% 	c #FEFEFC",
"& 	c #FAFBFD",
"* 	c #F9FBFA",
"= 	c #808487",
"- 	c #7A7E81",
"; 	c #777B7E",
"> 	c #7B7F82",
", 	c #7F8386",
"' 	c #7D8184",
") 	c #797D80",
"! 	c #767A7D",
"~ 	c #7E8285",
"{ 	c #B1B6BA",
"] 	c #AAAFB3",
"^ 	c #A5AAAE",
"/ 	c #A9AEB2",
"( 	c #A8ADB1",
"_ 	c #9FA4A8",
": 	c #9EA3A7",
"< 	c #A1A6AA",
"[ 	c #9A9FA3",
"} 	c #9CA1A5",
"| 	c #AAAEB1",
"1 	c #BCC1C5",
"2 	c #E7ECF0",
"3 	c #D6DBDF",
"4 	c #D8DDE1",
"5 	c #D4D9DD",
"6 	c #CFD4D8",
"7 	c #D1D6DA",
"8 	c #D3D8DC",
"9 	c #D2D7DB",
"0 	c #C8CDD1",
"a 	c #DFE4E8",
"b 	c #BDC2C6",
"c 	c #61666A",
"d 	c #B7BCC0",
"e 	c #B9BEC2",
"f 	c #B5BABE",
"g 	c #BABFC3",
"h 	c #B4B9BD",
"i 	c #BBC0C4",
"j 	c #B6BBBF",
"k 	c #B8BDC1",
"l 	c #D9DEE2",
"m 	c #3A4245",
"n 	c #DEE6E9",
"o 	c #B3BBBE",
"p 	c #B3B8BC",
"q 	c #B6BBBE",
"r 	c #B1B7B7",
"s 	c #ADB0B7",
"t 	c #FEFFFF",
"u 	c #B3B7BA",
"v 	c #B2B3B8",
"w 	c #B1B6B9",
"x 	c #B2B7BB",
"y 	c #B0B5B9",
"z 	c #E8EDF1",
"A 	c #3C4145",
"B 	c #383C45",
"C 	c #D8DDE3",
"D 	c #A7ACB2",
"E 	c #A2AAAD",
"F 	c #9EA5AB",
"G 	c #9EA5AD",
"H 	c #9FA6AE",
"I 	c #A2A9B1",
"J 	c #969FA4",
"K 	c #757D80",
"L 	c #9EA7AE",
"M 	c #A1A9AC",
"N 	c #A4A9AF",
"O 	c #A2A9AF",
"P 	c #A6ADB3",
"Q 	c #D9E0E6",
"R 	c #353C42",
"S 	c #3C434B",
"T 	c #C7CED4",
"U 	c #959DA0",
"V 	c #91999C",
"W 	c #949BA1",
"X 	c #90979D",
"Y 	c #96A0A2",
"Z 	c #969BA1",
"` 	c #FFFEFF",
" .	c #6E7377",
"..	c #7D848C",
"+.	c #959CA2",
"@.	c #929BA0",
"#.	c #91989E",
"$.	c #C2C9CF",
"%.	c #3C4349",
"&.	c #3B444D",
"*.	c #CDD7E1",
"=.	c #808A96",
"-.	c #8E98A4",
";.	c #88909B",
">.	c #8A8E97",
",.	c #FFFFFD",
"'.	c #FFFFFF",
").	c #FBFFFF",
"!.	c #7E828B",
"~.	c #848B93",
"{.	c #828A95",
"].	c #8F97A2",
"^.	c #878F9A",
"/.	c #BCC4CF",
"(.	c #3C444F",
"_.	c #28303B",
":.	c #A2AAB5",
"<.	c #474F5A",
"[.	c #48505B",
"}.	c #464E59",
"|.	c #404853",
"1.	c #373F4A",
"2.	c #353C46",
"3.	c #333B3E",
"4.	c #343740",
"5.	c #343B41",
"6.	c #374045",
"7.	c #40494E",
"8.	c #A1A9B4",
"9.	c #39424B",
"0.	c #9BA4AD",
"a.	c #434D56",
"b.	c #454F58",
"c.	c #424C56",
"d.	c #464F58",
"e.	c #444B53",
"f.	c #444B51",
"g.	c #FFFFFB",
"h.	c #3C454E",
"i.	c #3D464B",
"j.	c #454E57",
"k.	c #434C55",
"l.	c #9EA7B0",
"m.	c #404952",
"n.	c #8A939A",
"o.	c #4A535A",
"p.	c #4E5760",
"q.	c #4A535C",
"r.	c #4B545D",
"s.	c #444D56",
"t.	c #464D57",
"u.	c #2E3639",
"v.	c #38404B",
"w.	c #434E54",
"x.	c #444D52",
"y.	c #48515A",
"z.	c #4F5861",
"A.	c #4C555E",
"B.	c #8D969F",
"C.	c #3F4851",
"D.	c #474E58",
"E.	c #7A8189",
"F.	c #484F57",
"G.	c #4A5159",
"H.	c #454C56",
"I.	c #494D56",
"J.	c #323941",
"K.	c #42454A",
"L.	c #4A5157",
"M.	c #4B525C",
"N.	c #4B525A",
"O.	c #495058",
"P.	c #454C54",
"Q.	c #464D55",
"R.	c #7F868E",
"S.	c #474E56",
"T.	c #666D75",
"U.	c #424951",
"V.	c #3E454D",
"W.	c #474E54",
"X.	c #484F55",
"Y.	c #6D747C",
"Z.	c #80878D",
"`.	c #969DA3",
" +	c #8C9399",
".+	c #939AA0",
"++	c #8A9197",
"@+	c #949DA4",
"#+	c #9BA2A8",
"$+	c #81888E",
"%+	c #2C3339",
"&+	c #3A4147",
"*+	c #373E44",
"=+	c #30373D",
"-+	c #32393F",
";+	c #3B4248",
">+	c #2D343C",
",+	c #2D343A",
"'+	c #303940",
")+	c #40474D",
"!+	c #E7E7E7",
"~+	c #E6E6E6",
"{+	c #E8E8E8",
"]+	c #E7E7E9",
"^+	c #E7E8EA",
"/+	c #E5E6E8",
"  .   + + + + + . +   + + + + +   + + + + ",
"@ @ @ @ # . @ # . @ @ @ @ @ @ @ @ $ % . # ",
"+   .   + . + + . + + + + + + + & . * & & ",
"= - ; - > , - - ' ) ) ) ) ) ) ) ! = ~ ! ~ ",
"{ ] ^ / / ( _ _ : _ _ _ _ : _ _ < _ [ } | ",
"1 2 3 4 4 3 5 5 6 7 8 7 9 9 8 8 4 6 0 a b ",
"c 3 d e f f g h i f j f h f f d k f f l c ",
"m n o p p h q r s t u v w x y h p p h z A ",
"B C D E F G H I J t K L M N O P O F F Q R ",
"S T U V U W X Y Z `  ...+.W @.+.#.+.+.$.%.",
"&.*.=.-.;.>.t ,.,.,.'.,.).!.~.{.].^.^./.(.",
"_.:.<.[.<.}.|.1.2.).3.4.5.6.7.<.<.<.<.8._.",
"9.0.a.b.c.}.d.e.f.g.3.h.i.7.j.d.j.k.j.l.9.",
"m.n.o.p.q.r.s.j.t.'.u.v.w.x.w.y.z.q.A.B.C.",
"D.E.F.G.H.H.F.F.G.I.J.K.L.M.N.O.O.P.Q.R.F.",
"S.T.F.O.S.U.e.P.N.N.V.S.F.W.X.F.G.Q.U.Y.S.",
"Z.`. +X W .+ +X ++#.X #.X #.#.#.@+ +X #+$+",
"%+&+*+R =+%+-+;+>+>+,+%+%+,+%+%+'+*+R )+,+",
"!+!+~+!+{+!+{+!+!+~+!+!+{+!+!+!+]+!+!+^+/+"};
