/* XPM */
static char * maxu_xpm[] = {
"21 19 89 1",
" 	c None",
".	c #FCFCFC",
"+	c #FDFDFD",
"@	c #FEFEFE",
"#	c #B4B4B4",
"$	c #B0B0B0",
"%	c #AEAEAE",
"&	c #B1B1B1",
"*	c #B3B3B3",
"=	c #B2B2B2",
"-	c #AFAFAF",
";	c #D2D2D2",
">	c #CECECE",
",	c #CBCBCB",
"'	c #CDCDCD",
")	c #C7C7C7",
"!	c #C6C6C6",
"~	c #C8C8C8",
"{	c #C4C4C4",
"]	c #C5C5C5",
"^	c #D9D9D9",
"/	c #F3F3F3",
"(	c #E9E9E9",
"_	c #EAEAEA",
":	c #E7E7E7",
"<	c #E4E4E4",
"[	c #E5E5E5",
"}	c #E6E6E6",
"|	c #E0E0E0",
"1	c #EEEEEE",
"2	c #A1A1A1",
"3	c #D6D6D6",
"4	c #D7D7D7",
"5	c #D4D4D4",
"6	c #D8D8D8",
"7	c #D5D5D5",
"8	c #8B8B8B",
"9	c #EFEFEF",
"0	c #D3D3D3",
"a	c #CFCFCF",
"b	c #FFFFFF",
"c	c #D1D1D1",
"d	c #888888",
"e	c #CCCCCC",
"f	c #CACACA",
"g	c #C3C3C3",
"h	c #ECECEC",
"i	c #8C8C8C",
"j	c #E1E1E1",
"k	c #C2C2C2",
"l	c #C0C0C0",
"m	c #BFBFBF",
"n	c #A9A9A9",
"o	c #C1C1C1",
"p	c #DEDEDE",
"q	c #B7B7B7",
"r	c #BBBBBB",
"s	c #BABABA",
"t	c #B8B8B8",
"u	c #DBDBDB",
"v	c #8D8D8D",
"w	c #818181",
"x	c #939393",
"y	c #949494",
"z	c #8F8F8F",
"A	c #8A8A8A",
"B	c #878787",
"C	c #858585",
"D	c #929292",
"E	c #919191",
"F	c #BCBCBC",
"G	c #959595",
"H	c #989898",
"I	c #969696",
"J	c #848484",
"K	c #BEBEBE",
"L	c #868686",
"M	c #8E8E8E",
"N	c #B5B5B5",
"O	c #A6A6A6",
"P	c #909090",
"Q	c #AAAAAA",
"R	c #BDBDBD",
"S	c #B6B6B6",
"T	c #828282",
"U	c #898989",
"V	c #838383",
"W	c #F0F0F0",
"X	c #F1F1F1",
".+.+++++++.+++++.++++",
"@@@@@+@@+@@@@@@@@@@+@",
"+.+.++++++++++++++.++",
"#$%$&*$$=-------%#=%=",
";>,'''))!))))!))~){]'",
"^/(__(::<[:[}}::_<|1^",
"2(34554565755553355_2",
"8950057;ab0c;0c5005/8",
"d_ef~~~fgb-~fff'f~~hd",
"ijklkkmgk@n#kkoklkkpi",
"i[qmrsbbbbbb@*tqmssuv",
"w,xyxxzAd@BCBAzxxxxfw",
"8!DxExxEEbBvvzDxDED~8",
"zFGHGIDDDbJADDDyHGIKz",
"x=xGDDxxGxLMGGGyyDDNx",
"xOxyxPEDGGvxxxxxGDPQx",
"NgRmkoRmFlmlmlllkRm!S",
"T8UdCTLiVVVTTVTTCUdzV",
"WWWWXWXWWWWWXWWWWWWXW"};
