/* XPM */
static char * menu_xpm[] = {
"2 20 19 1",
" 	c #EEEEEE",
".	c #EDEDED",
"+	c #EAEAEA",
"@	c #E9E9E9",
"#	c #E6E6E6",
"$	c #E5E5E5",
"%	c #E3E3E3",
"&	c #DFDFDF",
"*	c #DEDEDE",
"=	c #DCDCDC",
"-	c #D9D9D9",
";	c #D7D7D7",
">	c #D4D4D4",
",	c #D3D3D3",
"'	c #D0D0D0",
")	c #D1D1D1",
"!	c #CECECE",
"~	c #CCCCCC",
"{	c #CBCBCB",
"  ",
"  ",
". ",
"++",
"+@",
"##",
"$$",
"%%",
"&&",
"**",
"==",
"--",
";;",
">>",
",,",
"')",
"!!",
"~~",
"{{",
"{{"};
