/* XPM */
static char * toolbar_xpm[] = {
"5 20 41 1",
" 	c #FFFFFF",
".	c #FEFEFE",
"+	c #FBF9FA",
"@	c #FCFAFD",
"#	c #FBFAFF",
"$	c #FBFBFD",
"%	c #FBFBFB",
"&	c #FBFBF9",
"*	c #F9F9F7",
"=	c #FAFBF6",
"-	c #FAFAFA",
";	c #FAFAF8",
">	c #F6F6F4",
",	c #F8F8FA",
"'	c #F6F6F6",
")	c #F7F7F7",
"!	c #F5F5F3",
"~	c #F4F4F4",
"{	c #F4F4F6",
"]	c #F0F1F3",
"^	c #F0F0F0",
"/	c #F1F1F3",
"(	c #F2F2F2",
"_	c #EDEFEE",
":	c #EEEEEC",
"<	c #EDEDED",
"[	c #EEEEEE",
"}	c #EEEEF0",
"|	c #EBEBEB",
"1	c #ECECEC",
"2	c #EBEBED",
"3	c #EBEAEF",
"4	c #E7E8EA",
"5	c #E8E9EB",
"6	c #E8E8EA",
"7	c #E9E9E9",
"8	c #E9E8ED",
"9	c #E6E6E8",
"0	c #E5E5E5",
"a	c #E4E4E4",
"b	c #DADADA",
"     ",
"     ",
"     ",
"     ",
"     ",
"     ",
"     ",
".....",
"+@#$%",
"&*=-;",
">,'))",
"!~~{~",
"]^/((",
"_:<[}",
"||123",
"45678",
"99999",
"00000",
"aaaaa",
"bbbbb"};
