/* XPM */
static char * stick_xpm[] = {
"19 19 33 1",
" 	c #F4F4F4",
".	c #F1F1F1",
"+	c #EFEFEF",
"@	c #EEEEEE",
"#	c #F0F0F0",
"$	c #ECECEC",
"%	c #EBEBEB",
"&	c #EDEDED",
"*	c #EAEAEA",
"=	c #E9E9E9",
"-	c #E8E8E8",
";	c #E7E7E7",
">	c #E2E2E2",
",	c #DDDDDD",
"'	c #DBDBDB",
")	c #E1E1E1",
"!	c #E4E4E4",
"~	c #E5E5E5",
"{	c #E0E0E0",
"]	c #DEDEDE",
"^	c #DCDCDC",
"/	c #797979",
"(	c #777777",
"_	c #7A7A7A",
":	c #7B7B7B",
"<	c #E6E6E6",
"[	c #787878",
"}	c #7C7C7C",
"|	c #E3E3E3",
"1	c #7D7D7D",
"2	c #7E7E7E",
"3	c #F2F2F2",
"4	c #F3F3F3",
"                   ",
"...................",
"+@#@++@+++++++++@#+",
"$$%$$$$&$$&%&$$$$%&",
"*%********=%=*****%",
"-;>,'',)!=~{,'']>-;",
";)^/(_::<;!::_([^);",
">,_/}}:=<<;=:}}/_^|",
"|_:1}}<=;};=<}:}::|",
";11}}:{!<:;!{:}}}};",
"%%}}1}}>;%;>:}1}}$%",
";*@212}1-;-}}211+*;",
"-;$#343+%<%+3333%-<",
";=<-;;-;;;;;<;;;;;;",
"-;-;;;;;-;;<-;;-;;;",
";;;<;;;;;;-;;;;<;;-",
";;-<-<;;;-~-;;;;;;;",
";;;;;-;;;;-;;;;;;-;",
";;;;;;;;;;;;;;;;;;;"};
