/* XPM */
static char * stuck_xpm[] = {
"19 19 26 1",
" 	c #F4F4F4",
".	c #F1F1F1",
"+	c #EFEFEF",
"@	c #EEEEEE",
"#	c #F0F0F0",
"$	c #ECECEC",
"%	c #EBEBEB",
"&	c #EDEDED",
"*	c #EAEAEA",
"=	c #E9E9E9",
"-	c #E8E8E8",
";	c #E7E7E7",
">	c #E2E2E2",
",	c #DDDDDD",
"'	c #DBDBDB",
")	c #E1E1E1",
"!	c #E4E4E4",
"~	c #E5E5E5",
"{	c #E0E0E0",
"]	c #DEDEDE",
"^	c #DCDCDC",
"/	c #354754",
"(	c #E6E6E6",
"_	c #E3E3E3",
":	c #F2F2F2",
"<	c #F3F3F3",
"                   ",
"...................",
"+@#@++@+++++++++@#+",
"$$%$$$$&$$&%&$$$$%&",
"*%********=%=*****%",
"-;>,'',)!=~{,'']>-;",
";)^/////(;!/////^);",
">,/////=((;=/////^_",
"_/////(=;/;=(/////_",
";/////{!(/;!{/////;",
"%%/////>;%;>/////$%",
";*@/////-;-/////+*;",
"-;$#:<:+%(%+::::%-(",
";=(-;;-;;;;;(;;;;;;",
"-;-;;;;;-;;(-;;-;;;",
";;;(;;;;;;-;;;;(;;-",
";;-(-(;;;-~-;;;;;;;",
";;;;;-;;;;-;;;;;;-;",
";;;;;;;;;;;;;;;;;;;"};
