/* XPM */
static char * wtitle_xpm[] = {
"5 19 23 1",
" 	c #FBFBFB",
".	c #FBFBFD",
"+	c #FDFDFD",
"@	c #FEFEFE",
"#	c #FAFAFA",
"$	c #F9F9F9",
"%	c #F6F6F6",
"&	c #F7F7F7",
"*	c #F4F4F4",
"=	c #F1F1F1",
"-	c #EEF0EF",
";	c #EFEFEF",
">	c #EBEDEC",
",	c #ECECEC",
"'	c #E9EBEA",
")	c #EAEAEA",
"!	c #E8E8E8",
"~	c #E7E7E5",
"{	c #E6E6E6",
"]	c #E7E7E7",
"^	c #E8E6E7",
"/	c #E8E7E5",
"(	c #E6E7E9",
" .   ",
"+@+++",
"     ",
"#$$$$",
"%&&&&",
"*****",
"=====",
"-;;;;",
">,,,,",
"'))))",
"!~!!!",
"{~]]]",
"]]]]]",
"]]]]]",
"]]]]]",
"^]]]]",
"/^]]]",
"](]]]",
"!]]]]"};
