/* XPM */
static char * selected_xpm[] = {
"17 17 16 1",
" 	c None",
".	c #000000",
"+	c #75ADBA",
"@	c #6FA9B7",
"#	c #398394",
"$	c #2B7789",
"%	c #126174",
"&	c #4F93A3",
"*	c #227082",
"=	c #0D586A",
"-	c #478D9D",
";	c #1A687B",
">	c #0C5162",
",	c #2E7A8B",
"'	c #0B4B5A",
")	c #4D92A2",
"                 ",
"                 ",
"                 ",
"                 ",
"                 ",
"     .......     ",
"     .+@@@#.     ",
"     .$%%%&.     ",
"     .*===-.     ",
"     .;>>>,.     ",
"     .')))).     ",
"     .......     ",
"                 ",
"                 ",
"                 ",
"                 ",
"                 "};
