/* XPM */
static char * toolbar_xpm[] = {
"5 22 21 1",
" 	c #EFEFEF",
".	c #F1F1F1",
"+	c #E6E6E6",
"@	c #E1E1E1",
"#	c #DDDDDD",
"$	c #DFDFDF",
"%	c #D7D7D7",
"&	c #D4D4D4",
"*	c #D1D1D1",
"=	c #D0D0D0",
"-	c #CECECE",
";	c #C8C8C8",
">	c #C4C4C4",
",	c #C2C2C2",
"'	c #C0C0C0",
")	c #BABABA",
"!	c #BBBBBB",
"~	c #A1A1A1",
"{	c #9F9F9F",
"]	c #9E9E9E",
"^	c #A0A0A0",
" ....",
"+++++",
"@@@@@",
"#$$$$",
"%%%%%",
"&****",
"=----",
";;;;;",
">,,,,",
"'''''",
")!!!!",
"~{{{{",
"~{{{{",
"]{{{{",
"]]]]]",
"^]]]]",
"^{{{{",
"^{{{{",
"^^^^^",
"{{{{{",
"]]]]]",
"~~~~~"};
