/* XPM */
static char * wtitle_xpm[] = {
"22 22 38 1",
" 	c #B5B5B5",
".	c #B6B6B6",
"+	c #B7B7B7",
"@	c #B9B9B9",
"#	c #B8B8B8",
"$	c #B3B3B3",
"%	c #B4B4B4",
"&	c #B2B2B2",
"*	c #969696",
"=	c #959595",
"-	c #949494",
";	c #979797",
">	c #989898",
",	c #858585",
"'	c #757575",
")	c #717171",
"!	c #6A6A6C",
"~	c #616163",
"{	c #5D5C61",
"]	c #555459",
"^	c #515055",
"/	c #434345",
"(	c #444446",
"_	c #070709",
":	c #040406",
"<	c #000002",
"[	c #020204",
"}	c #030305",
"|	c #050507",
"1	c #020202",
"2	c #030303",
"3	c #040404",
"4	c #050505",
"5	c #060606",
"6	c #080808",
"7	c #0A0A0A",
"8	c #000000",
"9	c #010101",
"    ..+@@..## $$%  %&&",
"*==***-;;--;*-**;>>;;*",
",,,,,,,,,,,,,,,,,,,,,,",
"''''''''''''''''''''''",
"))))))))))))))))))))))",
"!!!!!!!!!!!!!!!!!!!!!!",
"~~~~~~~~~~~~~~~~~~~~~~",
"{{{{{{{{{{{{{{{{{{{{{{",
"]]]]]]]]]]]]]]]]]]]]]]",
"^^^^^^^^^^^^^^^^^^^^^^",
"//////((((((((((((((((",
"______________________",
"::::::::::::::::::::::",
"<<<<<<<<<<<<<<<<<<<<<<",
"<<<<<<<<<<<<<<<<<<<<<<",
"[[[[[[}}}}}}}}}}}}}}}}",
"[[[[[[[[[[[[[[}}}}}}}}",
"}}}}}}::::::::||||||||",
"1111112112345566666666",
"3333331111234477777777",
"1111113222345555555555",
"1111118888888899999999"};
