/* XPM */
static char * focus_xpm[] = {
"22 22 74 1",
" 	c None",
".	c #636363",
"+	c #595959",
"@	c #585858",
"#	c #575757",
"$	c #555555",
"%	c #545454",
"&	c #535353",
"*	c #4F4F4F",
"=	c #4B4B4B",
"-	c #787879",
";	c #ADADAD",
">	c #C9C9C9",
",	c #787979",
"'	c #4B4C4C",
")	c #4E4E4E",
"!	c #444444",
"~	c #7D7D7D",
"{	c #ADACAD",
"]	c #ACADAD",
"^	c #ACACAD",
"/	c #ACADAC",
"(	c #ADACAC",
"_	c #424141",
":	c #8B8B8B",
"<	c #585857",
"[	c #414141",
"}	c #353535",
"|	c #5C5C5C",
"1	c #69696A",
"2	c #6A6969",
"3	c #6A6A6A",
"4	c #696A6A",
"5	c #696A69",
"6	c #6A6A69",
"7	c #696969",
"8	c #5B5C5C",
"9	c #353534",
"0	c #525252",
"a	c #2E2F2E",
"b	c #474747",
"c	c #484848",
"d	c #2F2E2F",
"e	c #272727",
"f	c #676767",
"g	c #666666",
"h	c #1F1F1F",
"i	c #707070",
"j	c #201F1F",
"k	c #515151",
"l	c #252524",
"m	c #4A4B4B",
"n	c #ADADAC",
"o	c #4B4B4A",
"p	c #252424",
"q	c #393939",
"r	c #0F0F0F",
"s	c #777777",
"t	c #CECECE",
"u	c #777877",
"v	c #282828",
"w	c #080708",
"x	c #404141",
"y	c #838383",
"z	c #A7A6A6",
"A	c #A6A7A6",
"B	c #848383",
"C	c #080808",
"D	c #505050",
"E	c #343434",
"F	c #131313",
"G	c #020202",
"H	c #4D4D4D",
"I	c #434343",
"......................",
"++++++++++++++++++++++",
"@@@@@@@@@@@@@@@@@@@@@@",
"@@@@@@@@@@@@@@@@@@@@@@",
"######################",
"$$$$$$$%&&&&&&%$$$$$$$",
"%%%%%%*=-;>>;,'*%%%%%%",
"%%%%%)!~{]^/^(~!)%%%%%",
"%%%%%_#::::::::<[%%%%%",
"&&&&&}|1234356789&&&&&",
"00000abccccccccbd00000",
"00000ef36535522ge00000",
"00000hi::::::::ij00000",
"kkkkklmnn^];]/(opkkkkk",
"kkkkkqrstttttturqkkkkk",
"kkkkkkvwxyzAB[Cvkkkkkk",
"DDDDDDDEFGGGGFEDDDDDDD",
"**********************",
"**********************",
"HHHHHHHHHHHHHHHHHHHHHH",
"IIIIIIIIIIIIIIIIIIIIII",
"qqqqqqqqqqqqqqqqqqqqqq"};
