/* XPM */
static char * menu_xpm[] = {
"1 22 22 1",
" 	c None",
".	c #8E8E8E",
"+	c #6A6A6A",
"@	c #676867",
"#	c #656564",
"$	c #626262",
"%	c #5F605F",
"&	c #5D5D5D",
"*	c #5B5A5A",
"=	c #575758",
"-	c #555555",
";	c #525353",
">	c #4F5050",
",	c #4E4D4D",
"'	c #4A4B4B",
")	c #484849",
"!	c #464546",
"~	c #434343",
"{	c #404141",
"]	c #3E3D3D",
"^	c #3B3B3B",
"/	c #000000",
".",
"+",
"@",
"#",
"$",
"%",
"&",
"*",
"=",
"-",
";",
">",
",",
"'",
")",
"!",
"~",
"{",
"]",
"^",
"^",
"/"};
