/* XPM */
static char * pressed_xpm[] = {
"22 22 72 1",
" 	c None",
".	c #636363",
"+	c #595959",
"@	c #585858",
"#	c #575757",
"$	c #555555",
"%	c #545454",
"&	c #535353",
"*	c #4F4F4F",
"=	c #4B4B4B",
"-	c #969696",
";	c #C5C5C5",
">	c #CDCDCD",
",	c #4B4C4C",
"'	c #4E4E4E",
")	c #444444",
"!	c #969797",
"~	c #ADACAD",
"{	c #ACADAD",
"]	c #ACACAD",
"^	c #ACADAC",
"/	c #ADACAC",
"(	c #969796",
"_	c #424141",
":	c #696969",
"<	c #8B8B8B",
"[	c #414141",
"}	c #353535",
"|	c #666666",
"1	c #69696A",
"2	c #6A6969",
"3	c #6A6A6A",
"4	c #696A6A",
"5	c #696A69",
"6	c #6A6A69",
"7	c #656565",
"8	c #353534",
"9	c #525252",
"0	c #2E2F2E",
"a	c #474747",
"b	c #484848",
"c	c #2F2E2F",
"d	c #272727",
"e	c #686868",
"f	c #1F1F1F",
"g	c #848484",
"h	c #201F1F",
"i	c #515151",
"j	c #252524",
"k	c #6C6D6C",
"l	c #ADADAC",
"m	c #ADADAD",
"n	c #6D6D6C",
"o	c #252424",
"p	c #393939",
"q	c #0F0F0F",
"r	c #A6A6A6",
"s	c #CECECE",
"t	c #A6A7A6",
"u	c #282828",
"v	c #080708",
"w	c #A1A2A1",
"x	c #ACABAB",
"y	c #ABACAB",
"z	c #A2A1A1",
"A	c #080808",
"B	c #505050",
"C	c #343434",
"D	c #131313",
"E	c #020202",
"F	c #4D4D4D",
"G	c #434343",
"......................",
"++++++++++++++++++++++",
"@@@@@@@@@@@@@@@@@@@@@@",
"@@@@@@@@@@@@@@@@@@@@@@",
"######################",
"$$$$$$$%&&&&&&%$$$$$$$",
"%%%%%%*=-;>>;-,*%%%%%%",
"%%%%%')!~{]^]/()'%%%%%",
"%%%%%_:<<<<<<<<:[%%%%%",
"&&&&&}|1234356:78&&&&&",
"999990abbbbbbbbac99999",
"99999d:36535522ed99999",
"99999fg<<<<<<<<gh99999",
"iiiiijkll]{m{^/noiiiii",
"iiiiipqrsssssstqpiiiii",
"iiiiiiuv|wxyz|Auiiiiii",
"BBBBBBBCDEEEEDCBBBBBBB",
"**********************",
"**********************",
"FFFFFFFFFFFFFFFFFFFFFF",
"GGGGGGGGGGGGGGGGGGGGGG",
"pppppppppppppppppppppp"};
