/* XPM */
static char * stuck_xpm[] = {
"22 22 67 1",
" 	c None",
".	c #636363",
"+	c #595959",
"@	c #585858",
"#	c #575757",
"$	c #555555",
"%	c #545454",
"&	c #535353",
"*	c #4F4F4F",
"=	c #4B4B4B",
"-	c #CFCFCF",
";	c #F8F8F8",
">	c #FEFEFE",
",	c #4B4C4C",
"'	c #4E4E4E",
")	c #444444",
"!	c #CBCED6",
"~	c #DBE2F0",
"{	c #424141",
"]	c #9599A3",
"^	c #B7C5E1",
"/	c #B6C5E1",
"(	c #B7C4E1",
"_	c #959AA3",
":	c #414141",
"<	c #353535",
"[	c #909FBF",
"}	c #93A8D2",
"|	c #93A7D2",
"1	c #353534",
"2	c #525252",
"3	c #2E2F2E",
"4	c #6F89C0",
"5	c #6F8BC3",
"6	c #6F8AC3",
"7	c #6E8AC3",
"8	c #6F8AC0",
"9	c #2F2E2F",
"0	c #272727",
"a	c #93A7D0",
"b	c #92A8D2",
"c	c #92A7D0",
"d	c #1F1F1F",
"e	c #B2BDD2",
"f	c #201F1F",
"g	c #515151",
"h	c #252524",
"i	c #AAACB2",
"j	c #AAACB1",
"k	c #252424",
"l	c #393939",
"m	c #0F0F0F",
"n	c #E9E9E9",
"o	c #FFFFFF",
"p	c #282828",
"q	c #080708",
"r	c #A7AAAF",
"s	c #D5DAE5",
"t	c #DAE1EF",
"u	c #A8AAAF",
"v	c #080808",
"w	c #505050",
"x	c #343434",
"y	c #131313",
"z	c #020202",
"A	c #4D4D4D",
"B	c #434343",
"......................",
"++++++++++++++++++++++",
"@@@@@@@@@@@@@@@@@@@@@@",
"@@@@@@@@@@@@@@@@@@@@@@",
"######################",
"$$$$$$$%&&&&&&%$$$$$$$",
"%%%%%%*=-;>>;-,*%%%%%%",
"%%%%%')!~~~~~~!)'%%%%%",
"%%%%%{]^/^(^^^^_:%%%%%",
"&&&&&<[}}|||}||[1&&&&&",
"2222234565756658922222",
"222220a|b}b|}|}c022222",
"22222de^^^^^^^^ef22222",
"ggggghi~~~~~~~~jkggggg",
"ggggglmnoooooonmlggggg",
"ggggggpqrsttsuvpgggggg",
"wwwwwwwxyzzzzyxwwwwwww",
"**********************",
"**********************",
"AAAAAAAAAAAAAAAAAAAAAA",
"BBBBBBBBBBBBBBBBBBBBBB",
"llllllllllllllllllllll"};
