/* XPM */
static char * stuck_unfocus_xpm[] = {
"22 22 70 1",
" 	c None",
".	c #505050",
"+	c #484848",
"@	c #474747",
"#	c #454545",
"$	c #494949",
"%	c #4F4F4F",
"&	c #525252",
"*	c #444444",
"=	c #484747",
"-	c #4B4B4B",
";	c #CFCFCF",
">	c #F8F8F8",
",	c #FEFEFE",
"'	c #4B4C4C",
")	c #474748",
"!	c #434344",
"~	c #CBCED6",
"{	c #DBE2F0",
"]	c #3E3D3D",
"^	c #9599A3",
"/	c #B7C5E1",
"(	c #B6C5E1",
"_	c #B7C4E1",
":	c #959AA3",
"<	c #3D3D3D",
"[	c #434343",
"}	c #353535",
"|	c #909FBF",
"1	c #93A8D2",
"2	c #93A7D2",
"3	c #353534",
"4	c #2D2E2D",
"5	c #6F89C0",
"6	c #6F8BC3",
"7	c #6F8AC3",
"8	c #6E8AC3",
"9	c #6F8AC0",
"0	c #2E2D2E",
"a	c #262626",
"b	c #93A7D0",
"c	c #92A8D2",
"d	c #92A7D0",
"e	c #1F1F1F",
"f	c #B2BDD2",
"g	c #201F1F",
"h	c #424242",
"i	c #212120",
"j	c #AAACB2",
"k	c #AAACB1",
"l	c #212020",
"m	c #303030",
"n	c #0F0F0F",
"o	c #E9E9E9",
"p	c #FFFFFF",
"q	c #212222",
"r	c #080708",
"s	c #A7AAAF",
"t	c #D5DAE5",
"u	c #DAE1EF",
"v	c #A8AAAF",
"w	c #080808",
"x	c #414141",
"y	c #2A2A2A",
"z	c #101010",
"A	c #020202",
"B	c #404040",
"C	c #3F3F3F",
"D	c #363636",
"E	c #2E2E2E",
"......................",
"++++++++++++++++++++++",
"@@@@@@@@@@@@@@@@@@@@@@",
"@@@@@@@@@@@@@@@@@@@@@@",
"@@@@@@@@@@@@@@@@@@@@@@",
"#######$%&&&&%$#######",
"******=-;>,,>;')******",
"*****!*~{{{{{{~*******",
"*****]^/(/_////:<*****",
"[[[[[}|11222122|3[[[[[",
"[[[[[456768677690[[[[[",
"[[[[[ab2c1c2121da[[[[[",
"[[[[[ef////////fg[[[[[",
"hhhhhij{{{{{{{{klhhhhh",
"hhhhhmnopppppponmhhhhh",
"hhhhhhqrstuutvwqhhhhhh",
"xxxxxxxyzAAAAzyxxxxxxx",
"BBBBBBBBBBBBBBBBBBBBBB",
"BBBBBBBBBBBBBBBBBBBBBB",
"CCCCCCCCCCCCCCCCCCCCCC",
"DDDDDDDDDDDDDDDDDDDDDD",
"EEEEEEEEEEEEEEEEEEEEEE"};
