/* XPM */
static char * toolbar_xpm[] = {
"22 22 13 1",
" 	c None",
".	c #505050",
"+	c #484848",
"@	c #474747",
"#	c #454545",
"$	c #444444",
"%	c #434343",
"&	c #424242",
"*	c #414141",
"=	c #404040",
"-	c #3F3F3F",
";	c #363636",
">	c #2E2E2E",
"......................",
"++++++++++++++++++++++",
"@@@@@@@@@@@@@@@@@@@@@@",
"@@@@@@@@@@@@@@@@@@@@@@",
"@@@@@@@@@@@@@@@@@@@@@@",
"######################",
"$$$$$$$$$$$$$$$$$$$$$$",
"$$$$$$$$$$$$$$$$$$$$$$",
"$$$$$$$$$$$$$$$$$$$$$$",
"%%%%%%%%%%%%%%%%%%%%%%",
"%%%%%%%%%%%%%%%%%%%%%%",
"%%%%%%%%%%%%%%%%%%%%%%",
"%%%%%%%%%%%%%%%%%%%%%%",
"&&&&&&&&&&&&&&&&&&&&&&",
"&&&&&&&&&&&&&&&&&&&&&&",
"&&&&&&&&&&&&&&&&&&&&&&",
"**********************",
"======================",
"======================",
"----------------------",
";;;;;;;;;;;;;;;;;;;;;;",
">>>>>>>>>>>>>>>>>>>>>>"};
