/* XPM */
static char * unfocus_xpm[] = {
"22 22 76 1",
" 	c None",
".	c #505050",
"+	c #484848",
"@	c #474747",
"#	c #454545",
"$	c #494949",
"%	c #4F4F4F",
"&	c #525252",
"*	c #444444",
"=	c #484747",
"-	c #4B4B4B",
";	c #787879",
">	c #ADADAD",
",	c #C9C9C9",
"'	c #787979",
")	c #4B4C4C",
"!	c #474748",
"~	c #434344",
"{	c #7D7D7D",
"]	c #ADACAD",
"^	c #ACADAD",
"/	c #ACACAD",
"(	c #ACADAC",
"_	c #ADACAC",
":	c #3E3D3D",
"<	c #575757",
"[	c #8B8B8B",
"}	c #585857",
"|	c #3D3D3D",
"1	c #434343",
"2	c #353535",
"3	c #5C5C5C",
"4	c #69696A",
"5	c #6A6969",
"6	c #6A6A6A",
"7	c #696A6A",
"8	c #696A69",
"9	c #6A6A69",
"0	c #696969",
"a	c #5B5C5C",
"b	c #353534",
"c	c #2D2E2D",
"d	c #2E2D2E",
"e	c #262626",
"f	c #676767",
"g	c #666666",
"h	c #1F1F1F",
"i	c #707070",
"j	c #201F1F",
"k	c #424242",
"l	c #212120",
"m	c #4A4B4B",
"n	c #ADADAC",
"o	c #4B4B4A",
"p	c #212020",
"q	c #303030",
"r	c #0F0F0F",
"s	c #777777",
"t	c #CECECE",
"u	c #777877",
"v	c #212222",
"w	c #080708",
"x	c #404141",
"y	c #838383",
"z	c #A7A6A6",
"A	c #A6A7A6",
"B	c #848383",
"C	c #414141",
"D	c #080808",
"E	c #2A2A2A",
"F	c #101010",
"G	c #020202",
"H	c #404040",
"I	c #3F3F3F",
"J	c #363636",
"K	c #2E2E2E",
"......................",
"++++++++++++++++++++++",
"@@@@@@@@@@@@@@@@@@@@@@",
"@@@@@@@@@@@@@@@@@@@@@@",
"@@@@@@@@@@@@@@@@@@@@@@",
"#######$%&&&&%$#######",
"******=-;>,,>')!******",
"*****~*{]^/(/_{*******",
"*****:<[[[[[[[[}|*****",
"111112345676890ab11111",
"11111c@++++++++@d11111",
"11111ef69868855ge11111",
"11111hi[[[[[[[[ij11111",
"kkkkklmnn/^>^(_opkkkkk",
"kkkkkqrstttttturqkkkkk",
"kkkkkkvwxyzABCDvkkkkkk",
"CCCCCCCEFGGGGFECCCCCCC",
"HHHHHHHHHHHHHHHHHHHHHH",
"HHHHHHHHHHHHHHHHHHHHHH",
"IIIIIIIIIIIIIIIIIIIIII",
"JJJJJJJJJJJJJJJJJJJJJJ",
"KKKKKKKKKKKKKKKKKKKKKK"};
