/* XPM */
static char * wtitle_xpm[] = {
"22 22 15 1",
" 	c None",
".	c #636363",
"+	c #595959",
"@	c #585858",
"#	c #575757",
"$	c #555555",
"%	c #545454",
"&	c #535353",
"*	c #525252",
"=	c #515151",
"-	c #505050",
";	c #4F4F4F",
">	c #4D4D4D",
",	c #434343",
"'	c #393939",
"......................",
"++++++++++++++++++++++",
"@@@@@@@@@@@@@@@@@@@@@@",
"@@@@@@@@@@@@@@@@@@@@@@",
"######################",
"$$$$$$$$$$$$$$$$$$$$$$",
"%%%%%%%%%%%%%%%%%%%%%%",
"%%%%%%%%%%%%%%%%%%%%%%",
"%%%%%%%%%%%%%%%%%%%%%%",
"&&&&&&&&&&&&&&&&&&&&&&",
"**********************",
"**********************",
"**********************",
"======================",
"======================",
"======================",
"----------------------",
";;;;;;;;;;;;;;;;;;;;;;",
";;;;;;;;;;;;;;;;;;;;;;",
">>>>>>>>>>>>>>>>>>>>>>",
",,,,,,,,,,,,,,,,,,,,,,",
"''''''''''''''''''''''"};
