/* XPM */
static char * close_xpm[] = {
"22 22 106 2",
"  	c None",
". 	c #FFFFFF",
"+ 	c #FFFEFF",
"@ 	c #FEFEFE",
"# 	c #E0E0E0",
"$ 	c #D5D5D5",
"% 	c #C9C9C9",
"& 	c #C3C3C3",
"* 	c #CACACA",
"= 	c #F5F5F5",
"- 	c #D7D7D7",
"; 	c #D8D9D9",
"> 	c #EDEFF1",
", 	c #F3F7F9",
"' 	c #F4F8FB",
") 	c #F3F6F9",
"! 	c #F6F6F6",
"~ 	c #D9D9D9",
"{ 	c #E5E3E3",
"] 	c #F3EEEF",
"^ 	c #F3EDEF",
"/ 	c #E5E4E4",
"( 	c #D6D4D3",
"_ 	c #F2E4E3",
": 	c #F2E3E3",
"< 	c #F1E3E3",
"[ 	c #D8D5D5",
"} 	c #D6D6D6",
"| 	c #EBDCDB",
"1 	c #F1D9D7",
"2 	c #F0D9D7",
"3 	c #EADCDB",
"4 	c #FDFDFD",
"5 	c #EFD2CE",
"6 	c #F0CECB",
"7 	c #EFCECB",
"8 	c #EFCFCA",
"9 	c #F0CFCB",
"0 	c #EFCFCB",
"a 	c #F0CECA",
"b 	c #F0CFCA",
"c 	c #EED2CE",
"d 	c #CBCBCB",
"e 	c #F9F9F9",
"f 	c #FAFAFA",
"g 	c #C4C4C4",
"h 	c #EEC5BF",
"i 	c #EEC4BF",
"j 	c #EFC4BF",
"k 	c #EEC4BE",
"l 	c #EFC4BE",
"m 	c #EFC5BF",
"n 	c #F8F8F8",
"o 	c #C8C8C8",
"p 	c #ECBEB7",
"q 	c #EDBAB2",
"r 	c #EEBAB2",
"s 	c #EEBAB3",
"t 	c #EDBAB3",
"u 	c #ECBEB8",
"v 	c #F4F4F4",
"w 	c #D4D4D4",
"x 	c #E6C1BB",
"y 	c #EDB0A6",
"z 	c #ECB0A7",
"A 	c #EDB0A7",
"B 	c #D1D1D1",
"C 	c #F3F3F3",
"D 	c #E7E7E7",
"E 	c #D4C8C7",
"F 	c #EBA59A",
"G 	c #ECA59A",
"H 	c #EBA59B",
"I 	c #EBA69B",
"J 	c #ECA59B",
"K 	c #D4C8C6",
"L 	c #E8E8E8",
"M 	c #F0F0F0",
"N 	c #D3D3D3",
"O 	c #DEC3BE",
"P 	c #EB9B8E",
"Q 	c #EA9B8E",
"R 	c #EB9B8F",
"S 	c #EA9B8F",
"T 	c #EDEDED",
"U 	c #EEEEEE",
"V 	c #E5E5E5",
"W 	c #D2C3C1",
"X 	c #E2ACA4",
"Y 	c #E8998B",
"Z 	c #E99182",
"` 	c #E8988B",
" .	c #E3ACA4",
"..	c #D1C2C0",
"+.	c #EBEBEB",
"@.	c #ECECEC",
"#.	c #EAEAEA",
"$.	c #E3E3E3",
"%.	c #D0D0D0",
"&.	c #C7C7C7",
"*.	c #C2C2C2",
"=.	c #CFCFCF",
"-.	c #E2E2E2",
";.	c #E9E9E9",
">.	c #E6E6E6",
",.	c #B2B2B2",
". . . . . . . . . . + + . . . . . . . . . . ",
". . . . . . . . . . . . . . . . . . . . + + ",
". . . . . . . . . . . . . . . . . . . . + + ",
". . . . . . . . . . . . . . @ . . . . . . . ",
". . . . . . . . # $ % & * $ # . . . @ . . . ",
". . . . @ @ = - ; > , ' ) > ; - ! @ . . @ . ",
". @ . . . . ~ { ] ] ] ] ] ^ ] / - . @ . . . ",
"@ . . . . # ( _ : < _ : : _ : < [ # . . . . ",
"@ @ @ @ @ } | 1 1 2 1 1 2 1 2 2 3 $ @ @ @ @ ",
"4 4 4 4 4 * 5 6 7 8 9 6 0 9 a b c d 4 4 @ 4 ",
"e f f f f g h i j h k k l m m j m & f f f f ",
"n n n n e o p q r s t q s t s s u * n n n n ",
"= = = = v w x y z A y z z z z z x B = = = = ",
"C C C C C D E F G H F H I G J J K L C C C C ",
"M M M M M M N O P Q P R S Q S O N M M M M M ",
"T T T T T U V N W X Y Z `  ...B V T T T U T ",
"+.+.+.@.@.#.+.+.$.%.&.*.o =.-.+.+.+.+.+.+.+.",
"L L L L L L L L L L L L L ;.D L L D L L L L ",
"D D D D D L D L D D D D D D L >.D D D >.L D ",
"V V V V V V V V V V V V V V V V V V V V V V ",
"~ ~ ~ ~ ~ ~ ~ ~ ~ ~ ~ ~ ~ ~ ~ ~ ~ ~ ~ ~ ~ ~ ",
",.,.,.,.,.,.,.,.,.,.,.,.,.,.,.,.,.,.,.,.,.,."};
