/* XPM */
static char * focus_xpm[] = {
"22 22 55 1",
" 	c #FFFFFF",
".	c #FFFEFF",
"+	c #FEFEFE",
"@	c #E0E0E0",
"#	c #D5D5D5",
"$	c #C9C9C9",
"%	c #C3C3C3",
"&	c #CACACA",
"*	c #F5F5F5",
"=	c #D7D7D7",
"-	c #D3D3D3",
";	c #E2E2E2",
">	c #EFEFEF",
",	c #FDFDFD",
"'	c #EEEEEE",
")	c #E3E3E3",
"!	c #F6F6F6",
"~	c #D9D9D9",
"{	c #DEDEDE",
"]	c #DFDFDF",
"^	c #D1D1D1",
"/	c #D6D6D6",
"(	c #EDEDED",
"_	c #CBCBCB",
":	c #F9F9F9",
"<	c #FAFAFA",
"[	c #C4C4C4",
"}	c #FBFBFB",
"|	c #FCFCFC",
"1	c #F8F8F8",
"2	c #C8C8C8",
"3	c #E8E8E8",
"4	c #F7F7F7",
"5	c #E7E7E7",
"6	c #F4F4F4",
"7	c #D4D4D4",
"8	c #F2F2F2",
"9	c #F3F3F3",
"0	c #D0D0D0",
"a	c #ECECEC",
"b	c #F0F0F0",
"c	c #D8D8D8",
"d	c #E9E9E9",
"e	c #E5E5E5",
"f	c #CECECE",
"g	c #E1E1E1",
"h	c #DADADA",
"i	c #CDCDCD",
"j	c #EBEBEB",
"k	c #EAEAEA",
"l	c #C7C7C7",
"m	c #C2C2C2",
"n	c #CFCFCF",
"o	c #E6E6E6",
"p	c #B2B2B2",
"          ..          ",
"                    ..",
"                    ..",
"              +       ",
"        @#$%&#@   +   ",
"    ++*=-;>,')-=!+  + ",
" +    ~{  +   +]= +   ",
"+    @^ +     ++-@    ",
"+++++/)         )#++++",
",,,,,&(+   +  + '_,,+,",
":<<<<[}},|||}|<}<%<<<<",
"1111:2344441!4445&1111",
"****67{889988888{^****",
"9999950a(((a(((a039999",
"bbbbbb-c33d3355c-bbbbb",
"((((('e-f~;3ghi^e((('(",
"jjjaakjj)0lm2n;jjjjjjj",
"3333333333333d53353333",
"555553535555553o555o35",
"eeeeeeeeeeeeeeeeeeeeee",
"~~~~~~~~~~~~~~~~~~~~~~",
"pppppppppppppppppppppp"};
