/* XPM */
static char * hilite_xpm[] = {
"1 22 23 1",
" 	c None",
".	c #4A5767",
"+	c #4B5869",
"@	c #4B586A",
"#	c #4B596A",
"$	c #4C596B",
"%	c #4C596C",
"&	c #4D5A6D",
"*	c #4D5B6E",
"=	c #4D5C6E",
"-	c #4D5C6F",
";	c #4E5D71",
">	c #4F5D72",
",	c #4F5E72",
"'	c #505F73",
")	c #506074",
"!	c #516075",
"~	c #516177",
"{	c #516277",
"]	c #516278",
"^	c #526279",
"/	c #526379",
"(	c #53647B",
".",
"+",
"@",
"#",
"$",
"%",
"&",
"*",
"=",
"-",
";",
">",
",",
"'",
")",
"!",
"~",
"{",
"]",
"^",
"/",
"("};
