/* XPM */
static char * icon_xpm[] = {
"22 22 103 2",
"  	c None",
". 	c #FFFFFF",
"+ 	c #FFFEFF",
"@ 	c #FEFEFE",
"# 	c #E0E0E0",
"$ 	c #D5D5D5",
"% 	c #C9C9C9",
"& 	c #C3C3C3",
"* 	c #CACACA",
"= 	c #F5F5F5",
"- 	c #D7D7D7",
"; 	c #D8D9D9",
"> 	c #EDEFF1",
", 	c #F3F7F9",
"' 	c #F4F8FB",
") 	c #F3F6F9",
"! 	c #F6F6F6",
"~ 	c #D9D9D9",
"{ 	c #E5E5E2",
"] 	c #F3F4EC",
"^ 	c #F3F4EB",
"/ 	c #F3F5EC",
"( 	c #E5E6E3",
"_ 	c #D6D6D3",
": 	c #F2F0DD",
"< 	c #F2F1DC",
"[ 	c #F3F1DD",
"} 	c #F2F0DC",
"| 	c #F3F1DC",
"1 	c #F3F0DC",
"2 	c #D8D7D4",
"3 	c #D6D6D6",
"4 	c #ECE9D5",
"5 	c #F1EDCD",
"6 	c #F2EDCD",
"7 	c #EBE8D5",
"8 	c #FDFDFD",
"9 	c #EFE9C1",
"0 	c #F0E9BE",
"a 	c #F1E9BE",
"b 	c #F0EABD",
"c 	c #F1E9BD",
"d 	c #F0E9C2",
"e 	c #CBCBCB",
"f 	c #F9F9F9",
"g 	c #FAFAFA",
"h 	c #C4C4C4",
"i 	c #EFE5AF",
"j 	c #F0E6AF",
"k 	c #F0E5AE",
"l 	c #EFE5AE",
"m 	c #EFE6AE",
"n 	c #EFE6AF",
"o 	c #F8F8F8",
"p 	c #C8C8C8",
"q 	c #EDE2A6",
"r 	c #EFE29F",
"s 	c #EEE29F",
"t 	c #EEE1A0",
"u 	c #EFE19F",
"v 	c #F4F4F4",
"w 	c #D4D4D4",
"x 	c #E7DEAE",
"y 	c #EDDE90",
"z 	c #EEDE90",
"A 	c #EEDF90",
"B 	c #D1D1D1",
"C 	c #F3F3F3",
"D 	c #E7E7E7",
"E 	c #D4D1C2",
"F 	c #EDDA80",
"G 	c #EDDB81",
"H 	c #EDDA81",
"I 	c #ECDA81",
"J 	c #ECDB80",
"K 	c #E8E8E8",
"L 	c #F0F0F0",
"M 	c #D3D3D3",
"N 	c #DED7B4",
"O 	c #ECD771",
"P 	c #ECD671",
"Q 	c #EBD772",
"R 	c #EDEDED",
"S 	c #EEEEEE",
"T 	c #E5E5E5",
"U 	c #D2CEBB",
"V 	c #E4D590",
"W 	c #EAD46F",
"X 	c #EBD361",
"Y 	c #E9D46E",
"Z 	c #D2CEBA",
"` 	c #EBEBEB",
" .	c #ECECEC",
"..	c #EAEAEA",
"+.	c #E3E3E3",
"@.	c #D0D0D0",
"#.	c #C7C7C7",
"$.	c #C2C2C2",
"%.	c #CFCFCF",
"&.	c #E2E2E2",
"*.	c #E9E9E9",
"=.	c #E6E6E6",
"-.	c #B2B2B2",
". . . . . . . . . . + + . . . . . . . . . . ",
". . . . . . . . . . . . . . . . . . . . + + ",
". . . . . . . . . . . . . . . . . . . . + + ",
". . . . . . . . . . . . . . @ . . . . . . . ",
". . . . . . . . # $ % & * $ # . . . @ . . . ",
". . . . @ @ = - ; > , ' ) > ; - ! @ . . @ . ",
". @ . . . . ~ { ] ] ] ] ^ / ] ( - . @ . . . ",
"@ . . . . # _ : < < [ : } | < 1 2 # . . . . ",
"@ @ @ @ @ 3 4 5 6 5 5 5 5 5 6 6 7 $ @ @ @ @ ",
"8 8 8 8 8 * 9 0 a b b c 0 0 0 0 d e 8 8 @ 8 ",
"f g g g g h i j k l l m j l n k k & g g g g ",
"o o o o f p q r s t s s u r r s q * o o o o ",
"= = = = v w x y z A y z z z z y x B = = = = ",
"C C C C C D E F G G H I J G I H E K C C C C ",
"L L L L L L M N O P O O Q O O N M L L L L L ",
"R R R R R S T M U V W X Y V Z B T R R R S R ",
"` ` `  . ...` ` +.@.#.$.p %.&.` ` ` ` ` ` ` ",
"K K K K K K K K K K K K K *.D K K D K K K K ",
"D D D D D K D K D D D D D D K =.D D D =.K D ",
"T T T T T T T T T T T T T T T T T T T T T T ",
"~ ~ ~ ~ ~ ~ ~ ~ ~ ~ ~ ~ ~ ~ ~ ~ ~ ~ ~ ~ ~ ~ ",
"-.-.-.-.-.-.-.-.-.-.-.-.-.-.-.-.-.-.-.-.-.-."};
