/* XPM */
static char * max_xpm[] = {
"22 22 106 2",
"  	c None",
". 	c #FFFFFF",
"+ 	c #FFFEFF",
"@ 	c #FEFEFE",
"# 	c #E0E0E0",
"$ 	c #D5D5D5",
"% 	c #C9C9C9",
"& 	c #C3C3C3",
"* 	c #CACACA",
"= 	c #F5F5F5",
"- 	c #D7D7D7",
"; 	c #D7D8D8",
"> 	c #E9EEEB",
", 	c #EFF4F2",
"' 	c #EFF6F3",
") 	c #EEF5F2",
"! 	c #EAEEEC",
"~ 	c #F6F6F6",
"{ 	c #D9D9D9",
"] 	c #E2E4E2",
"^ 	c #EBF3EA",
"/ 	c #EAF3EB",
"( 	c #EAF2EA",
"_ 	c #EBF2EA",
": 	c #EAF3EA",
"< 	c #E2E5E3",
"[ 	c #D4D6D4",
"} 	c #E5F0E3",
"| 	c #E6F0E2",
"1 	c #E5F0E2",
"2 	c #E6F0E3",
"3 	c #E6EFE2",
"4 	c #D6D7D5",
"5 	c #D6D6D6",
"6 	c #E1E9DE",
"7 	c #E1EDDA",
"8 	c #E0EDDA",
"9 	c #E1EDDB",
"0 	c #E1E9DD",
"a 	c #FDFDFD",
"b 	c #DDEBD4",
"c 	c #DCEBD2",
"d 	c #DCEAD2",
"e 	c #DBEAD2",
"f 	c #DDEAD4",
"g 	c #CBCBCB",
"h 	c #F9F9F9",
"i 	c #FAFAFA",
"j 	c #C4C4C4",
"k 	c #D7E7C9",
"l 	c #D7E7CA",
"m 	c #D7E8CA",
"n 	c #D8E7CA",
"o 	c #D7E8C9",
"p 	c #F8F8F8",
"q 	c #C8C8C8",
"r 	c #D4E4C5",
"s 	c #D3E5C2",
"t 	c #D3E5C1",
"u 	c #D3E4C1",
"v 	c #D2E4C2",
"w 	c #D2E5C2",
"x 	c #D5E5C5",
"y 	c #F4F4F4",
"z 	c #D4D4D4",
"A 	c #D4E0C7",
"B 	c #CEE2B9",
"C 	c #CDE2B9",
"D 	c #CEE2BA",
"E 	c #CDE2BA",
"F 	c #D3E0C7",
"G 	c #D1D1D1",
"H 	c #F3F3F3",
"I 	c #E7E7E7",
"J 	c #CED2CA",
"K 	c #C9E0B1",
"L 	c #C9DFB1",
"M 	c #C8E0B1",
"N 	c #E8E8E8",
"O 	c #F0F0F0",
"P 	c #D3D3D3",
"Q 	c #D1D9C7",
"R 	c #C4DCA9",
"S 	c #C4DDA9",
"T 	c #EDEDED",
"U 	c #EEEEEE",
"V 	c #E5E5E5",
"W 	c #CBD0C6",
"X 	c #C9D9B6",
"Y 	c #C2D9A7",
"Z 	c #BFDAA0",
"` 	c #C2DAA6",
" .	c #C9DAB7",
"..	c #CACFC5",
"+.	c #EBEBEB",
"@.	c #ECECEC",
"#.	c #EAEAEA",
"$.	c #E3E3E3",
"%.	c #D0D0D0",
"&.	c #C7C7C7",
"*.	c #C2C2C2",
"=.	c #CFCFCF",
"-.	c #E2E2E2",
";.	c #E9E9E9",
">.	c #E6E6E6",
",.	c #B2B2B2",
". . . . . . . . . . + + . . . . . . . . . . ",
". . . . . . . . . . . . . . . . . . . . + + ",
". . . . . . . . . . . . . . . . . . . . + + ",
". . . . . . . . . . . . . . @ . . . . . . . ",
". . . . . . . . # $ % & * $ # . . . @ . . . ",
". . . . @ @ = - ; > , ' ) ! ; - ~ @ . . @ . ",
". @ . . . . { ] ^ / ( _ ( : ( < - . @ . . . ",
"@ . . . . # [ } } | } 1 2 2 | 3 4 # . . . . ",
"@ @ @ @ @ 5 6 7 8 8 7 7 9 7 7 9 0 $ @ @ @ @ ",
"a a a a a * b c d d d d e d c d f g a a @ a ",
"h i i i i j k l m m l n m l k o l & i i i i ",
"p p p p h q r s t u v s s t s w x * p p p p ",
"= = = = y z A B C D E B B B B E F G = = = = ",
"H H H H H I J K L L L L K K M L J N H H H H ",
"O O O O O O P Q R S R S R S R Q P O O O O O ",
"T T T T T U V P W X Y Z `  ...G V T T T U T ",
"+.+.+.@.@.#.+.+.$.%.&.*.q =.-.+.+.+.+.+.+.+.",
"N N N N N N N N N N N N N ;.I N N I N N N N ",
"I I I I I N I N I I I I I I N >.I I I >.N I ",
"V V V V V V V V V V V V V V V V V V V V V V ",
"{ { { { { { { { { { { { { { { { { { { { { { ",
",.,.,.,.,.,.,.,.,.,.,.,.,.,.,.,.,.,.,.,.,.,."};
