/* XPM */
static char * pressed_xpm[] = {
"22 22 100 2",
"  	c None",
". 	c #FFFFFF",
"+ 	c #FFFEFF",
"@ 	c #FEFEFE",
"# 	c #E0E0E0",
"$ 	c #D5D5D5",
"% 	c #C9C9C9",
"& 	c #C3C3C3",
"* 	c #CACACA",
"= 	c #F5F5F5",
"- 	c #D7D7D7",
"; 	c #C6C4C2",
"> 	c #AAA29C",
", 	c #91867D",
"' 	c #877B70",
") 	c #91857D",
"! 	c #AAA39D",
"~ 	c #F6F6F6",
"{ 	c #D9D9D9",
"] 	c #C4C0BD",
"^ 	c #92877E",
"/ 	c #92877F",
"( 	c #92887F",
"_ 	c #C4C0BE",
": 	c #C8C6C5",
"< 	c #9D948C",
"[ 	c #9D938D",
"} 	c #9D938C",
"| 	c #9C948D",
"1 	c #9D948D",
"2 	c #C9C8C7",
"3 	c #D6D6D6",
"4 	c #BEBAB6",
"5 	c #A8A19A",
"6 	c #A8A09A",
"7 	c #A7A09A",
"8 	c #A7A09B",
"9 	c #A8A09B",
"0 	c #FDFDFD",
"a 	c #B8B3AF",
"b 	c #B3ADA8",
"c 	c #B2ACA8",
"d 	c #B2ADA8",
"e 	c #CBCBCB",
"f 	c #F9F9F9",
"g 	c #FAFAFA",
"h 	c #C4C4C4",
"i 	c #BDBAB6",
"j 	c #BEBAB5",
"k 	c #BEB9B6",
"l 	c #BDB9B5",
"m 	c #BDB9B6",
"n 	c #F8F8F8",
"o 	c #C8C8C8",
"p 	c #CBC9C7",
"q 	c #C8C6C4",
"r 	c #C8C6C3",
"s 	c #C9C6C4",
"t 	c #CBC9C6",
"u 	c #F4F4F4",
"v 	c #D4D4D4",
"w 	c #D7D6D6",
"x 	c #D3D2D1",
"y 	c #D4D2D1",
"z 	c #D3D3D1",
"A 	c #D4D3D1",
"B 	c #D3D3D2",
"C 	c #D1D1D1",
"D 	c #F3F3F3",
"E 	c #E7E7E7",
"F 	c #D2D2D2",
"G 	c #DFDFE0",
"H 	c #DEDFDF",
"I 	c #DEDFE0",
"J 	c #E8E8E8",
"K 	c #F0F0F0",
"L 	c #D3D3D3",
"M 	c #DDDEDF",
"N 	c #E9EBED",
"O 	c #E9ECED",
"P 	c #EDEDED",
"Q 	c #EEEEEE",
"R 	c #E5E5E5",
"S 	c #D4D5D5",
"T 	c #F2F5F8",
"U 	c #F4F8FB",
"V 	c #E9ECEE",
"W 	c #D3D4D4",
"X 	c #EBEBEB",
"Y 	c #ECECEC",
"Z 	c #EAEAEA",
"` 	c #E3E3E3",
" .	c #D0D0D0",
"..	c #C7C7C7",
"+.	c #C2C2C2",
"@.	c #CFCFCF",
"#.	c #E2E2E2",
"$.	c #E9E9E9",
"%.	c #E6E6E6",
"&.	c #B2B2B2",
". . . . . . . . . . + + . . . . . . . . . . ",
". . . . . . . . . . . . . . . . . . . . + + ",
". . . . . . . . . . . . . . . . . . . . + + ",
". . . . . . . . . . . . . . @ . . . . . . . ",
". . . . . . . . # $ % & * $ # . . . @ . . . ",
". . . . @ @ = - ; > , ' ) ! ; - ~ @ . . @ . ",
". @ . . . . { ] ^ / ^ / ( / / _ - . @ . . . ",
"@ . . . . # : < < [ } | } 1 1 < 2 # . . . . ",
"@ @ @ @ @ 3 4 5 6 7 8 9 9 6 8 5 4 $ @ @ @ @ ",
"0 0 0 0 0 * a b c b b b b b b d a e 0 0 @ 0 ",
"f g g g g h i 4 j k 4 4 l i m k i & g g g g ",
"n n n n f o p q r q r s s q s r t * n n n n ",
"= = = = u v w x x y z x A B x x w C = = = = ",
"D D D D D E F G G H H I H H H H F J D D D D ",
"K K K K K K L M N N N O N N O M L K K K K K ",
"P P P P P Q R L S N T U T V W C R P P P Q P ",
"X X X Y Y Z X X `  ...+.o @.#.X X X X X X X ",
"J J J J J J J J J J J J J $.E J J E J J J J ",
"E E E E E J E J E E E E E E J %.E E E %.J E ",
"R R R R R R R R R R R R R R R R R R R R R R ",
"{ { { { { { { { { { { { { { { { { { { { { { ",
"&.&.&.&.&.&.&.&.&.&.&.&.&.&.&.&.&.&.&.&.&.&."};
