/* XPM */
static char * slit_xpm[] = {
"50 1 3 1",
" 	c #42547E",
".	c #A6B1CA",
"+	c #687AA4",
" .++++++++++++++++++++++++++++++++++++++++++++++. "};
