/* XPM */
static char * stick_xpm[] = {
"22 22 106 2",
"  	c None",
". 	c #FFFFFF",
"+ 	c #FFFEFF",
"@ 	c #FEFEFE",
"# 	c #E0E0E0",
"$ 	c #D5D5D5",
"% 	c #C9C9C9",
"& 	c #C3C3C3",
"* 	c #CACACA",
"= 	c #F5F5F5",
"- 	c #D7D7D7",
"; 	c #DCDCDE",
"> 	c #F1F2F4",
", 	c #F6F6F7",
"' 	c #F8F8F8",
") 	c #F2F2F4",
"! 	c #F6F6F6",
"~ 	c #D9D9D9",
"{ 	c #E5E6EB",
"] 	c #F3F5F6",
"^ 	c #F4F5F6",
"/ 	c #F3F6F6",
"( 	c #E6E7EC",
"_ 	c #D6D7DB",
": 	c #EEF3F4",
"< 	c #EFF3F4",
"[ 	c #EEF2F4",
"} 	c #EEF3F3",
"| 	c #EFF2F4",
"1 	c #D7D8DD",
"2 	c #D6D6D6",
"3 	c #E1E5F1",
"4 	c #EAF0F2",
"5 	c #E9F0F2",
"6 	c #EAF0F1",
"7 	c #FDFDFD",
"8 	c #E1E9F0",
"9 	c #E5EDEF",
"0 	c #E5EDF0",
"a 	c #E5EEEF",
"b 	c #E5EEF0",
"c 	c #CBCBCB",
"d 	c #F9F9F9",
"e 	c #FAFAFA",
"f 	c #C4C4C4",
"g 	c #E0EBEE",
"h 	c #E0EBED",
"i 	c #E0EAEE",
"j 	c #E0EAED",
"k 	c #E1EBED",
"l 	c #E1EAED",
"m 	c #C8C8C8",
"n 	c #D6E1ED",
"o 	c #DCE8EB",
"p 	c #DCE8EC",
"q 	c #DCE7EB",
"r 	c #DCE7EC",
"s 	c #DBE8EB",
"t 	c #DBE8EC",
"u 	c #D7E2EC",
"v 	c #F4F4F4",
"w 	c #D4D4D4",
"x 	c #CAD4EB",
"y 	c #D7E6E9",
"z 	c #D7E5EA",
"A 	c #D7E5E9",
"B 	c #D6E6E9",
"C 	c #CAD4EA",
"D 	c #D1D1D1",
"E 	c #F3F3F3",
"F 	c #E7E7E7",
"G 	c #C8CAD9",
"H 	c #D2E3E7",
"I 	c #D2E2E8",
"J 	c #D2E2E7",
"K 	c #D2E3E8",
"L 	c #D3E3E7",
"M 	c #C8CAD8",
"N 	c #E8E8E8",
"O 	c #F0F0F0",
"P 	c #D3D3D3",
"Q 	c #C2CAE3",
"R 	c #CEE0E5",
"S 	c #CDE0E5",
"T 	c #CEDFE5",
"U 	c #EDEDED",
"V 	c #EEEEEE",
"W 	c #E5E5E5",
"X 	c #C1C5D7",
"Y 	c #B9C7E6",
"Z 	c #C2D4E4",
"` 	c #C9DDE3",
" .	c #C1D4E4",
"..	c #C0C4D6",
"+.	c #EBEBEB",
"@.	c #ECECEC",
"#.	c #EAEAEA",
"$.	c #E3E3E3",
"%.	c #D0D0D0",
"&.	c #C7C7C7",
"*.	c #C2C2C2",
"=.	c #CFCFCF",
"-.	c #E2E2E2",
";.	c #E9E9E9",
">.	c #E6E6E6",
",.	c #B2B2B2",
". . . . . . . . . . + + . . . . . . . . . . ",
". . . . . . . . . . . . . . . . . . . . + + ",
". . . . . . . . . . . . . . . . . . . . + + ",
". . . . . . . . . . . . . . @ . . . . . . . ",
". . . . . . . . # $ % & * $ # . . . @ . . . ",
". . . . @ @ = - ; > , ' , ) ; - ! @ . . @ . ",
". @ . . . . ~ { ] ^ ^ / ] ] ] ( - . @ . . . ",
"@ . . . . # _ : < < [ } : < [ | 1 # . . . . ",
"@ @ @ @ @ 2 3 4 5 4 4 4 6 4 5 4 3 $ @ @ @ @ ",
"7 7 7 7 7 * 8 9 0 0 a 9 0 b 0 0 8 c 7 7 @ 7 ",
"d e e e e f g h h g i j k l h j g & e e e e ",
"' ' ' ' d m n o p q p p r o s t u * ' ' ' ' ",
"= = = = v w x y z A z A B A A A C D = = = = ",
"E E E E E F G H I J H K H H L J M N E E E E ",
"O O O O O O P Q R S T S S T S Q P O O O O O ",
"U U U U U V W P X Y Z `  .Y ..D W U U U V U ",
"+.+.+.@.@.#.+.+.$.%.&.*.m =.-.+.+.+.+.+.+.+.",
"N N N N N N N N N N N N N ;.F N N F N N N N ",
"F F F F F N F N F F F F F F N >.F F F >.N F ",
"W W W W W W W W W W W W W W W W W W W W W W ",
"~ ~ ~ ~ ~ ~ ~ ~ ~ ~ ~ ~ ~ ~ ~ ~ ~ ~ ~ ~ ~ ~ ",
",.,.,.,.,.,.,.,.,.,.,.,.,.,.,.,.,.,.,.,.,.,."};
