/* XPM */
static char * stuck_xpm[] = {
"22 22 93 2",
"  	c None",
". 	c #FFFFFF",
"+ 	c #FFFEFF",
"@ 	c #FEFEFE",
"# 	c #E0E0E0",
"$ 	c #D5D5D5",
"% 	c #C9C9C9",
"& 	c #C3C3C3",
"* 	c #CACACA",
"= 	c #F5F5F5",
"- 	c #D7D7D7",
"; 	c #D7D7D9",
"> 	c #E8E9EF",
", 	c #EDEDF7",
"' 	c #EDEEF8",
") 	c #EDEDF6",
"! 	c #E9E9EF",
"~ 	c #F6F6F6",
"{ 	c #D9D9D9",
"] 	c #DFDFE6",
"^ 	c #E2E3F8",
"/ 	c #E2E3F9",
"( 	c #E0E0E7",
"_ 	c #D2D2D7",
": 	c #D7D8F8",
"< 	c #D7D9F9",
"[ 	c #D7D9F8",
"} 	c #D3D3D9",
"| 	c #D6D6D6",
"1 	c #D4D6F0",
"2 	c #CCCEF9",
"3 	c #CCCEF8",
"4 	c #FDFDFD",
"5 	c #C5C8F7",
"6 	c #C1C4F9",
"7 	c #C1C3F8",
"8 	c #C1C4F8",
"9 	c #C1C3F9",
"0 	c #C5C7F6",
"a 	c #CBCBCB",
"b 	c #F9F9F9",
"c 	c #FAFAFA",
"d 	c #C4C4C4",
"e 	c #B6B9F8",
"f 	c #B6B9F9",
"g 	c #F8F8F8",
"h 	c #C8C8C8",
"i 	c #B1B3F7",
"j 	c #ABAFF9",
"k 	c #ABAEF8",
"l 	c #ABAEF9",
"m 	c #ABAFF8",
"n 	c #B1B4F7",
"o 	c #F4F4F4",
"p 	c #D4D4D4",
"q 	c #B8BAEE",
"r 	c #A0A4F9",
"s 	c #A0A4F8",
"t 	c #B8BAED",
"u 	c #D1D1D1",
"v 	c #F3F3F3",
"w 	c #E7E7E7",
"x 	c #C6C6D6",
"y 	c #959AF9",
"z 	c #9599F9",
"A 	c #E8E8E8",
"B 	c #F0F0F0",
"C 	c #D3D3D3",
"D 	c #BDBFE2",
"E 	c #8A8FF9",
"F 	c #BDBFE3",
"G 	c #EDEDED",
"H 	c #EEEEEE",
"I 	c #E5E5E5",
"J 	c #C0C1D5",
"K 	c #A1A5EC",
"L 	c #898DF6",
"M 	c #7F84F9",
"N 	c #888DF6",
"O 	c #A2A6EC",
"P 	c #BFC0D4",
"Q 	c #EBEBEB",
"R 	c #ECECEC",
"S 	c #EAEAEA",
"T 	c #E3E3E3",
"U 	c #D0D0D0",
"V 	c #C7C7C7",
"W 	c #C2C2C2",
"X 	c #CFCFCF",
"Y 	c #E2E2E2",
"Z 	c #E9E9E9",
"` 	c #E6E6E6",
" .	c #B2B2B2",
". . . . . . . . . . + + . . . . . . . . . . ",
". . . . . . . . . . . . . . . . . . . . + + ",
". . . . . . . . . . . . . . . . . . . . + + ",
". . . . . . . . . . . . . . @ . . . . . . . ",
". . . . . . . . # $ % & * $ # . . . @ . . . ",
". . . . @ @ = - ; > , ' ) ! ; - ~ @ . . @ . ",
". @ . . . . { ] ^ ^ ^ ^ / ^ ^ ( - . @ . . . ",
"@ . . . . # _ : < : [ < : [ : [ } # . . . . ",
"@ @ @ @ @ | 1 2 2 3 3 3 2 2 2 2 1 $ @ @ @ @ ",
"4 4 4 4 4 * 5 6 7 8 7 6 9 8 9 6 0 a 4 4 @ 4 ",
"b c c c c d e e e f e f f e f f e & c c c c ",
"g g g g b h i j j k j l k m j l n * g g g g ",
"= = = = o p q r s r r r r r r r t u = = = = ",
"v v v v v w x y z y y z z z z y x A v v v v ",
"B B B B B B C D E E E E E E E F C B B B B B ",
"G G G G G H I C J K L M N O P u I G G G H G ",
"Q Q Q R R S Q Q T U V W h X Y Q Q Q Q Q Q Q ",
"A A A A A A A A A A A A A Z w A A w A A A A ",
"w w w w w A w A w w w w w w A ` w w w ` A w ",
"I I I I I I I I I I I I I I I I I I I I I I ",
"{ { { { { { { { { { { { { { { { { { { { { { ",
" . . . . . . . . . . . . . . . . . . . . . ."};
