/* XPM */
static char * wtitle_xpm[] = {
"1 22 19 1",
" 	c #FEFEFE",
".	c #FFFFFF",
"+	c #FCFCFC",
"@	c #FBFBFB",
"#	c #F9F9F9",
"$	c #F8F8F8",
"%	c #F7F7F7",
"&	c #F6F6F6",
"*	c #F5F5F5",
"=	c #F3F3F3",
"-	c #F2F2F2",
";	c #F0F0F0",
">	c #EEEEEE",
",	c #EDEDED",
"'	c #EBEBEB",
")	c #E9E9E9",
"!	c #DDDDDD",
"~	c #D9D9D9",
"{	c #7F7F7F",
" ",
".",
"+",
"@",
"#",
"#",
"#",
"$",
"%",
"&",
"&",
"*",
"=",
"-",
";",
">",
",",
"'",
")",
"!",
"~",
"{"};
