/* XPM */
static char * wtitle_xpm[] = {
"1 22 15 1",
" 	c #FFFFFF",
".	c #FEFFFF",
"+	c #FCFEFD",
"@	c #FBFBFB",
"#	c #F8F8F8",
"$	c #F6F6F6",
"%	c #F3F3F3",
"&	c #F0F2F1",
"*	c #EDEFEE",
"=	c #EBEBEB",
"-	c #E9E9E9",
";	c #E6E6E8",
">	c #E5E5E7",
",	c #D4D4D4",
"'	c #B5B1AE",
" ",
" ",
" ",
" ",
" ",
" ",
" ",
" ",
".",
"+",
"@",
"#",
"$",
"%",
"&",
"*",
"=",
"-",
";",
">",
",",
"'"};
